<?xml version="1.0" encoding="utf-8"?>                                  
<svg xmlns="http://www.w3.org/2000/svg" version="1.2" viewBox="560 260 1926 219">
  <title>Chapter 5 score.</title>
  <path d="m560 311.63h1926.1" fill="none" stroke="#000" stroke-linejoin="bevel" stroke-width="2"/>
  <path d="m560 336.63h1926.1" fill="none" stroke="#000" stroke-linejoin="bevel" stroke-width="2"/>
  <path d="m560 361.63h1926.1" fill="none" stroke="#000" stroke-linejoin="bevel" stroke-width="2"/>
  <path d="m560 386.63h1926.1" fill="none" stroke="#000" stroke-linejoin="bevel" stroke-width="2"/>
  <path d="m560 411.64h1926.1" fill="none" stroke="#000" stroke-linejoin="bevel" stroke-width="2"/>
  <path d="m1036 310.63v102.01" fill="none" stroke="#000" stroke-linejoin="bevel" stroke-width="4"/>
  <path d="m1967.9 310.63v102.01" fill="none" stroke="#000" stroke-linejoin="bevel" stroke-width="4"/>
  <path d="m1065 436.64h47.91" fill="none" stroke="#000" stroke-linecap="square" stroke-linejoin="bevel" stroke-width="4"/>
  <path d="m1996.9 436.64h47.92" fill="none" stroke="#000" stroke-linecap="square" stroke-linejoin="bevel" stroke-width="4"/>
  <path d="m2300.4 436.64h47.92" fill="none" stroke="#000" stroke-linecap="square" stroke-linejoin="bevel" stroke-width="4"/>
  <path d="m882.58 416.33v60.934" fill="none" stroke="#000" stroke-linecap="round" stroke-linejoin="bevel" stroke-width="3.25"/>
  <path d="m912.24 406.94v-82.81" fill="none" stroke="#000" stroke-linecap="round" stroke-linejoin="bevel" stroke-width="3.25"/>
  <path d="m1103.8 431.94v-139.06" fill="none" stroke="#000" stroke-linecap="round" stroke-linejoin="bevel" stroke-width="3.25"/>
  <path d="m1227.5 419.44v-135.94" fill="none" stroke="#000" stroke-linecap="round" stroke-linejoin="bevel" stroke-width="3.25"/>
  <path d="m1351.3 406.94v-145.31" fill="none" stroke="#000" stroke-linecap="round" stroke-linejoin="bevel" stroke-width="3.25"/>
  <path d="m1502.2 406.94v-145.31" fill="none" stroke="#000" stroke-linecap="round" stroke-linejoin="bevel" stroke-width="3.25"/>
  <path d="m1579.5 394.44v-129.69" fill="none" stroke="#000" stroke-linecap="round" stroke-linejoin="bevel" stroke-width="3.25"/>
  <path d="m1703.3 406.94v-132.81" fill="none" stroke="#000" stroke-linecap="round" stroke-linejoin="bevel" stroke-width="3.25"/>
  <path d="m1873.5 419.44v-135.94" fill="none" stroke="#000" stroke-linecap="round" stroke-linejoin="bevel" stroke-width="3.25"/>
  <path d="m2035.7 431.94v-139.06" fill="none" stroke="#000" stroke-linecap="round" stroke-linejoin="bevel" stroke-width="3.25"/>
  <path d="m2187.5 419.44v-135.94" fill="none" stroke="#000" stroke-linecap="round" stroke-linejoin="bevel" stroke-width="3.25"/>
  <path d="m2339.2 431.94v-139.06" fill="none" stroke="#000" stroke-linecap="round" stroke-linejoin="bevel" stroke-width="3.25"/>
  <path d="m902.92 397.86c3.125 0 5.761 0.814 7.91 2.441 2.018 1.758 3.027 3.972 3.027 6.641 0 4.492-2.311 8.692-6.934 12.598-4.687 3.906-9.7 5.859-15.039 5.859-3.125 0-5.761-0.814-7.91-2.441-2.018-1.758-3.027-3.972-3.027-6.641 0-4.492 2.344-8.691 7.031-12.598 4.557-3.906 9.538-5.859 14.942-5.859"/>
  <path d="m902.92 397.86c3.125 0 5.761 0.814 7.91 2.441 2.018 1.758 3.027 3.972 3.027 6.641 0 4.492-2.311 8.692-6.934 12.598-4.687 3.906-9.7 5.859-15.039 5.859-3.125 0-5.761-0.814-7.91-2.441-2.018-1.758-3.027-3.972-3.027-6.641 0-4.492 2.344-8.691 7.031-12.598 4.557-3.906 9.538-5.859 14.942-5.859"/>
  <path d="m1094.5 422.87c3.12 0 5.76 0.813 7.91 2.441 2.02 1.758 3.03 3.971 3.03 6.641 0 4.492-2.32 8.691-6.94 12.597-4.69 3.907-9.7 5.86-15.04 5.86-3.12 0-5.76-0.814-7.91-2.442-2.01-1.758-3.02-3.971-3.02-6.64 0-4.493 2.34-8.692 7.03-12.598 4.55-3.906 9.53-5.859 14.94-5.859"/>
  <path d="m1094.5 360.36c3.12 0 5.76 0.814 7.91 2.441 2.02 1.758 3.03 3.971 3.03 6.641 0 4.492-2.32 8.691-6.94 12.597-4.69 3.907-9.7 5.86-15.04 5.86-3.12 0-5.76-0.814-7.91-2.442-2.01-1.757-3.02-3.971-3.02-6.64 0-4.492 2.34-8.692 7.03-12.598 4.55-3.906 9.53-5.859 14.94-5.859"/>
  <path d="m1218.2 410.37c3.12 0 5.76 0.814 7.91 2.441 2.01 1.758 3.02 3.972 3.02 6.641 0 4.492-2.31 8.691-6.93 12.598-4.69 3.906-9.7 5.859-15.04 5.859-3.13 0-5.76-0.814-7.91-2.441-2.02-1.758-3.03-3.972-3.03-6.641 0-4.492 2.35-8.692 7.03-12.598 4.56-3.906 9.54-5.859 14.95-5.859"/>
  <path d="m1218.2 347.86c3.12 0 5.76 0.814 7.91 2.441 2.01 1.758 3.02 3.972 3.02 6.641 0 4.492-2.31 8.691-6.93 12.598-4.69 3.906-9.7 5.859-15.04 5.859-3.13 0-5.76-0.814-7.91-2.441-2.02-1.758-3.03-3.972-3.03-6.641 0-4.492 2.35-8.691 7.03-12.598 4.56-3.906 9.54-5.859 14.95-5.859"/>
  <path d="m1342 397.86c3.13 0 5.76 0.814 7.91 2.441 2.02 1.758 3.03 3.972 3.03 6.641 0 4.492-2.31 8.692-6.93 12.598-4.69 3.906-9.71 5.859-15.04 5.859-3.13 0-5.77-0.814-7.91-2.441-2.02-1.758-3.03-3.972-3.03-6.641 0-4.492 2.34-8.691 7.03-12.598 4.56-3.906 9.54-5.859 14.94-5.859"/>
  <path d="m1342 335.36c3.13 0 5.76 0.814 7.91 2.442 2.02 1.757 3.03 3.971 3.03 6.64 0 4.492-2.31 8.692-6.93 12.598-4.69 3.906-9.71 5.859-15.04 5.859-3.13 0-5.77-0.814-7.91-2.441-2.02-1.758-3.03-3.972-3.03-6.641 0-4.492 2.34-8.691 7.03-12.597 4.56-3.907 9.54-5.86 14.94-5.86"/>
  <path d="m1492.9 397.86c3.12 0 5.76 0.814 7.91 2.441 2.01 1.758 3.02 3.972 3.02 6.641 0 4.492-2.31 8.692-6.93 12.598-4.69 3.906-9.7 5.859-15.04 5.859-3.12 0-5.76-0.814-7.91-2.441-2.02-1.758-3.03-3.972-3.03-6.641 0-4.492 2.35-8.691 7.03-12.598 4.56-3.906 9.54-5.859 14.95-5.859"/>
  <path d="m1492.9 335.36c3.12 0 5.76 0.814 7.91 2.442 2.01 1.757 3.02 3.971 3.02 6.64 0 4.492-2.31 8.692-6.93 12.598-4.69 3.906-9.7 5.859-15.04 5.859-3.12 0-5.76-0.814-7.91-2.441-2.02-1.758-3.03-3.972-3.03-6.641 0-4.492 2.35-8.691 7.03-12.597 4.56-3.907 9.54-5.86 14.95-5.86"/>
  <path d="m1570.2 385.36c3.13 0 5.76 0.814 7.91 2.442 2.02 1.758 3.03 3.971 3.03 6.64 0 4.493-2.31 8.692-6.93 12.598-4.69 3.906-9.7 5.859-15.04 5.859-3.13 0-5.76-0.813-7.91-2.441-2.02-1.758-3.03-3.971-3.03-6.641 0-4.492 2.34-8.691 7.03-12.597 4.56-3.907 9.54-5.86 14.94-5.86"/>
  <path d="m1570.2 322.86c3.13 0 5.76 0.814 7.91 2.442 2.02 1.758 3.03 3.971 3.03 6.64 0 4.493-2.31 8.692-6.93 12.598-4.69 3.906-9.7 5.859-15.04 5.859-3.13 0-5.76-0.813-7.91-2.441-2.02-1.758-3.03-3.971-3.03-6.641 0-4.492 2.34-8.691 7.03-12.597 4.56-3.907 9.54-5.86 14.94-5.86"/>
  <path d="m1694 397.86c3.12 0 5.76 0.814 7.91 2.441 2.02 1.758 3.03 3.972 3.03 6.641 0 4.492-2.31 8.692-6.94 12.598-4.68 3.906-9.7 5.859-15.04 5.859-3.12 0-5.76-0.814-7.91-2.441-2.01-1.758-3.02-3.972-3.02-6.641 0-4.492 2.34-8.691 7.03-12.598 4.56-3.906 9.54-5.859 14.94-5.859"/>
  <path d="m1694 335.36c3.12 0 5.76 0.814 7.91 2.442 2.02 1.757 3.03 3.971 3.03 6.64 0 4.492-2.31 8.692-6.94 12.598-4.68 3.906-9.7 5.859-15.04 5.859-3.12 0-5.76-0.814-7.91-2.441-2.01-1.758-3.02-3.972-3.02-6.641 0-4.492 2.34-8.691 7.03-12.597 4.56-3.907 9.54-5.86 14.94-5.86"/>
  <path d="m1864.1 410.37c3.13 0 5.77 0.814 7.91 2.441 2.02 1.758 3.03 3.972 3.03 6.641 0 4.492-2.31 8.691-6.93 12.598-4.69 3.906-9.7 5.859-15.04 5.859-3.13 0-5.76-0.814-7.91-2.441-2.02-1.758-3.03-3.972-3.03-6.641 0-4.492 2.35-8.692 7.03-12.598 4.56-3.906 9.54-5.859 14.94-5.859"/>
  <path d="m1864.1 347.86c3.13 0 5.77 0.814 7.91 2.441 2.02 1.758 3.03 3.972 3.03 6.641 0 4.492-2.31 8.691-6.93 12.598-4.69 3.906-9.7 5.859-15.04 5.859-3.13 0-5.76-0.814-7.91-2.441-2.02-1.758-3.03-3.972-3.03-6.641 0-4.492 2.35-8.691 7.03-12.598 4.56-3.906 9.54-5.859 14.94-5.859"/>
  <path d="m2026.4 422.87c3.13 0 5.77 0.813 7.91 2.441 2.02 1.758 3.03 3.971 3.03 6.641 0 4.492-2.31 8.691-6.93 12.597-4.69 3.907-9.7 5.86-15.04 5.86-3.13 0-5.76-0.814-7.91-2.442-2.02-1.758-3.03-3.971-3.03-6.64 0-4.493 2.34-8.692 7.03-12.598 4.56-3.906 9.54-5.859 14.94-5.859"/>
  <path d="m2026.4 360.36c3.13 0 5.77 0.814 7.91 2.441 2.02 1.758 3.03 3.971 3.03 6.641 0 4.492-2.31 8.691-6.93 12.597-4.69 3.907-9.7 5.86-15.04 5.86-3.13 0-5.76-0.814-7.91-2.442-2.02-1.757-3.03-3.971-3.03-6.64 0-4.492 2.34-8.692 7.03-12.598 4.56-3.906 9.54-5.859 14.94-5.859"/>
  <path d="m2178.1 410.37c3.12 0 5.76 0.814 7.91 2.441 2.02 1.758 3.03 3.972 3.03 6.641 0 4.492-2.31 8.691-6.94 12.598-4.68 3.906-9.7 5.859-15.04 5.859-3.12 0-5.76-0.814-7.91-2.441-2.01-1.758-3.02-3.972-3.02-6.641 0-4.492 2.34-8.692 7.03-12.598 4.55-3.906 9.54-5.859 14.94-5.859"/>
  <path d="m2178.1 347.86c3.12 0 5.76 0.814 7.91 2.441 2.02 1.758 3.03 3.972 3.03 6.641 0 4.492-2.31 8.691-6.94 12.598-4.68 3.906-9.7 5.859-15.04 5.859-3.12 0-5.76-0.814-7.91-2.441-2.01-1.758-3.02-3.972-3.02-6.641 0-4.492 2.34-8.691 7.03-12.598 4.55-3.906 9.54-5.859 14.94-5.859"/>
  <path d="m2329.9 422.87c3.13 0 5.77 0.813 7.91 2.441 2.02 1.758 3.03 3.971 3.03 6.641 0 4.492-2.31 8.691-6.93 12.597-4.69 3.907-9.7 5.86-15.04 5.86-3.13 0-5.76-0.814-7.91-2.442-2.02-1.758-3.03-3.971-3.03-6.64 0-4.493 2.35-8.692 7.03-12.598 4.56-3.906 9.54-5.859 14.94-5.859"/>
  <path d="m2329.9 360.36c3.13 0 5.77 0.814 7.91 2.441 2.02 1.758 3.03 3.971 3.03 6.641 0 4.492-2.31 8.691-6.93 12.597-4.69 3.907-9.7 5.86-15.04 5.86-3.13 0-5.76-0.814-7.91-2.442-2.02-1.757-3.03-3.971-3.03-6.64 0-4.492 2.35-8.692 7.03-12.598 4.56-3.906 9.54-5.859 14.94-5.859"/>
  <path d="m616.72 361.05h0.586c0.26-0.065 0.488-0.098 0.684-0.098 7.291 0 13.281 2.572 17.968 7.715 4.688 5.078 7.032 11.003 7.032 17.774 0 8.398-3.484 15.234-10.45 20.508-1.823 1.432-4.199 2.604-7.129 3.515 0.326 4.232 0.489 7.65 0.489 10.254 0 0.521-0.065 2.409-0.196 5.664-0.26 6.055-2.343 11.296-6.25 15.723-3.776 4.362-8.463 6.543-14.062 6.543-5.274 0-9.766-1.856-13.477-5.567-3.711-3.776-5.566-8.333-5.566-13.672 0-2.799 1.074-5.175 3.223-7.128 2.213-1.954 4.785-2.93 7.714-2.93 2.605 0 4.786 1.009 6.543 3.027 1.823 1.888 2.735 4.232 2.735 7.031 0 2.54-0.912 4.721-2.735 6.543-1.823 1.823-4.004 2.735-6.543 2.735-1.041 0-2.05-0.195-3.027-0.586 2.865 4.232 6.673 6.348 11.426 6.348 4.492 0 8.17-1.823 11.035-5.469 2.995-3.776 4.622-8.171 4.883-13.184 0.13-3.125 0.195-4.915 0.195-5.371 0-3.646-0.13-6.641-0.39-8.984-3.256 0.521-6.153 0.781-8.692 0.781-9.049 0-16.764-3.581-23.144-10.742-6.25-7.227-9.375-15.821-9.375-25.781 0-2.084 0.195-4.2 0.586-6.348 0.39-1.758 0.878-3.679 1.464-5.762 0.326-1.172 1.205-3.06 2.637-5.664 0.521-0.781 1.107-1.758 1.758-2.93 0.651-1.171 1.107-1.953 1.367-2.343 0.651-1.302 1.921-3.06 3.809-5.274 0.52-0.586 1.058-1.237 1.611-1.953s1.025-1.302 1.416-1.758c0.391-0.455 0.684-0.814 0.879-1.074s1.66-1.986 4.394-5.176c0.651-0.651 1.286-1.351 1.905-2.099 0.618-0.749 1.123-1.335 1.513-1.758 0.391-0.423 0.684-0.733 0.879-0.928-2.343-7.747-3.808-13.932-4.394-18.555-0.456-3.71-0.684-8.789-0.684-15.234 0-5.664 1.302-10.97 3.906-15.918 2.54-5.143 6.088-9.342 10.645-12.598 0.26-0.195 0.586-0.293 0.977-0.293 0.455 0 0.781 0.098 0.976 0.293 3.516 4.232 6.543 9.734 9.082 16.504 2.604 6.771 3.906 12.924 3.906 18.457 0 6.25-1.497 12.11-4.492 17.579-3.385 5.794-7.747 11.783-13.086 17.968 1.367 4.297 3.19 11.035 5.469 20.215m8.301 45.41c3.385-1.237 6.022-3.353 7.91-6.347 2.083-2.865 3.125-6.088 3.125-9.668 0-4.623-1.563-8.724-4.688-12.305-3.19-3.711-7.259-5.794-12.207-6.25 2.8 13.737 4.753 25.26 5.86 34.57m-37.793-22.558c0 6.445 2.604 12.109 7.812 16.992 5.339 4.752 11.328 7.129 17.969 7.129 2.734 0 5.404-0.196 8.008-0.586-1.042-9.896-3.093-21.745-6.152-35.547-3.711 0.391-6.674 1.693-8.887 3.906-2.149 2.279-3.223 4.85-3.223 7.715 0 4.948 2.637 8.952 7.91 12.012 0.456 0.455 0.684 0.944 0.684 1.465 0 0.52-0.228 1.009-0.684 1.464-0.39 0.456-0.879 0.684-1.465 0.684-0.065 0-0.358-0.065-0.878-0.195-3.711-2.019-6.576-4.623-8.594-7.813-1.888-3.385-2.832-6.803-2.832-10.254 0-4.492 1.4-8.561 4.199-12.207 2.93-3.646 6.738-5.989 11.426-7.031-1.823-7.292-3.321-12.988-4.492-17.09-1.042 1.172-2.295 2.588-3.76 4.248s-2.328 2.653-2.588 2.979c-2.344 3.06-4.134 5.436-5.371 7.129-2.214 3.06-3.841 5.696-4.883 7.91-1.107 2.474-2.083 5.176-2.93 8.105-0.846 2.8-1.269 5.795-1.269 8.985m32.617-99.317c-4.883 2.409-8.724 5.86-11.523 10.352-2.865 4.622-4.297 9.603-4.297 14.941 0 4.688 1.172 11.003 3.515 18.946 4.688-5.665 8.203-10.905 10.547-15.723 2.474-5.078 3.711-10.384 3.711-15.918 0-4.167-0.651-8.366-1.953-12.598"/>
  <path d="m748.12 332.53v7.715c0 2.735 0.13 4.916 0.39 6.543 2.149-1.823 3.679-3.19 4.59-4.101 1.042-1.042 2.084-2.474 3.125-4.297 1.042-1.823 1.563-3.646 1.563-5.469s-0.391-3.385-1.172-4.688c-0.781-1.302-1.823-1.953-3.125-1.953-1.563 0-2.865 0.586-3.906 1.758-0.977 1.302-1.465 2.8-1.465 4.492m-4.102 17.871-1.269-59.472c0.911-0.521 1.823-0.781 2.734-0.781 0.912 0 1.823 0.26 2.734 0.781l-0.781 34.472c2.67-2.278 5.729-3.418 9.18-3.418 2.539 0 4.655 1.042 6.348 3.125 1.692 2.084 2.539 4.46 2.539 7.129 0 1.693-0.554 3.483-1.661 5.371-1.041 1.758-2.148 3.125-3.32 4.102-0.651 0.521-2.311 1.823-4.98 3.906-0.782 0.586-1.709 1.27-2.783 2.051-1.075 0.781-1.742 1.27-2.002 1.465-0.456 0.26-0.879 0.781-1.27 1.562-0.456 0.651-0.977 1.205-1.562 1.661-0.456 0.39-1.01 0.585-1.661 0.585s-1.172-0.227-1.562-0.683c-0.456-0.456-0.684-1.074-0.684-1.856"/>
  <path d="m723.12 370.03v7.715c0 2.734 0.13 4.915 0.391 6.542 2.148-1.822 3.678-3.19 4.59-4.101 1.041-1.042 2.083-2.474 3.125-4.297 1.041-1.823 1.562-3.646 1.562-5.469s-0.39-3.385-1.172-4.687c-0.781-1.302-1.823-1.953-3.125-1.953-1.562 0-2.864 0.586-3.906 1.757-0.976 1.303-1.465 2.8-1.465 4.493m-4.101 17.871-1.27-59.473c0.912-0.521 1.823-0.781 2.735-0.781 0.911 0 1.822 0.26 2.734 0.781l-0.781 34.473c2.669-2.279 5.729-3.418 9.179-3.418 2.539 0 4.655 1.041 6.348 3.125 1.693 2.083 2.539 4.459 2.539 7.129 0 1.692-0.553 3.483-1.66 5.371-1.042 1.758-2.149 3.125-3.32 4.101-0.651 0.521-2.312 1.823-4.981 3.907-0.781 0.586-1.709 1.269-2.783 2.05-1.074 0.782-1.742 1.27-2.002 1.465-0.456 0.261-0.879 0.781-1.27 1.563-0.455 0.651-0.976 1.204-1.562 1.66-0.456 0.391-1.009 0.586-1.66 0.586s-1.172-0.228-1.563-0.684c-0.455-0.455-0.683-1.074-0.683-1.855"/>
  <path d="m698.12 320.03v7.714c0 2.735 0.13 4.916 0.39 6.543 2.149-1.823 3.679-3.19 4.59-4.101 1.042-1.042 2.083-2.474 3.125-4.297s1.563-3.646 1.563-5.469-0.391-3.385-1.172-4.687-1.823-1.953-3.125-1.953c-1.563 0-2.865 0.585-3.906 1.757-0.977 1.302-1.465 2.8-1.465 4.493m-4.102 17.871-1.269-59.473c0.911-0.521 1.823-0.781 2.734-0.781s1.823 0.26 2.734 0.781l-0.781 34.473c2.669-2.279 5.729-3.418 9.18-3.418 2.539 0 4.655 1.041 6.347 3.125 1.693 2.083 2.54 4.459 2.54 7.129 0 1.692-0.554 3.483-1.661 5.371-1.041 1.757-2.148 3.125-3.32 4.101-0.651 0.521-2.311 1.823-4.98 3.906-0.782 0.586-1.709 1.27-2.784 2.051-1.074 0.782-1.741 1.27-2.002 1.465-0.455 0.261-0.878 0.781-1.269 1.563-0.456 0.651-0.977 1.204-1.563 1.66-0.455 0.39-1.009 0.586-1.66 0.586s-1.172-0.228-1.562-0.684c-0.456-0.456-0.684-1.074-0.684-1.855"/>
  <path d="m673.12 357.53v7.715c0 2.734 0.13 4.915 0.391 6.543 2.148-1.823 3.678-3.19 4.59-4.102 1.041-1.042 2.083-2.474 3.125-4.297 1.041-1.823 1.562-3.646 1.562-5.468 0-1.823-0.391-3.386-1.172-4.688s-1.823-1.953-3.125-1.953c-1.562 0-2.864 0.586-3.906 1.758-0.977 1.302-1.465 2.799-1.465 4.492m-4.101 17.871-1.27-59.473c0.911-0.521 1.823-0.781 2.734-0.781 0.912 0 1.823 0.26 2.735 0.781l-0.781 34.473c2.669-2.279 5.729-3.418 9.179-3.418 2.539 0 4.655 1.042 6.348 3.125s2.539 4.46 2.539 7.129c0 1.693-0.553 3.483-1.66 5.371-1.042 1.758-2.149 3.125-3.321 4.102-0.651 0.52-2.311 1.822-4.98 3.906-0.781 0.586-1.709 1.269-2.783 2.051-1.074 0.781-1.742 1.269-2.002 1.464-0.456 0.261-0.879 0.782-1.27 1.563-0.455 0.651-0.976 1.204-1.562 1.66-0.456 0.391-1.009 0.586-1.66 0.586s-1.172-0.228-1.563-0.684c-0.456-0.455-0.683-1.074-0.683-1.855"/>
  <path d="m813.5 312.81c1.953 0 3.613-0.227 4.98-0.683 1.368-0.456 2.246-0.684 2.637-0.684 0.456 0 0.814 0.13 1.074 0.391 0.196 0.195 0.326 0.423 0.391 0.684 0 0.13-0.065 0.325-0.195 0.585l-28.418 33.008h16.699v-13.086c0-0.846 0.228-1.562 0.683-2.148 0.782-0.651 1.433-1.042 1.954-1.172 0.846-0.391 1.888-1.302 3.125-2.734 1.041-1.172 2.278-3.223 3.711-6.153 0.195-0.39 0.488-0.586 0.878-0.586 0.782 0 1.237 0.456 1.368 1.368v24.511h7.129c0.911 0 1.432 0.489 1.562 1.465 0 0.977-0.521 1.465-1.562 1.465h-7.129v0.781c0 2.604 0.651 4.818 1.953 6.641 1.497 1.823 3.255 2.734 5.273 2.734 0.781 0 1.172 0.391 1.172 1.172s-0.391 1.172-1.172 1.172c-1.367 0-3.581-0.195-6.64-0.586-2.8-0.456-4.981-0.684-6.543-0.684-1.628 0-3.809 0.228-6.543 0.684-2.93 0.391-5.111 0.586-6.543 0.586-0.782 0-1.172-0.391-1.172-1.172s0.39-1.172 1.172-1.172c2.018 0 3.776-0.911 5.273-2.734 1.367-1.888 2.051-4.102 2.051-6.641v-0.781h-16.699c-1.107 0-1.888-0.26-2.344-0.781-0.521-0.391-0.781-0.912-0.781-1.563 0-0.195 0.488-0.879 1.465-2.051 1.106-1.302 2.278-2.897 3.515-4.785 1.432-2.213 2.8-4.492 4.102-6.836 1.432-2.669 2.571-5.729 3.418-9.179 0.976-3.516 1.465-7.097 1.465-10.743 0-1.041 0.455-1.562 1.367-1.562 0.195 0 0.618 0.098 1.269 0.293 0.196 0.065 0.602 0.163 1.221 0.293 0.618 0.13 1.123 0.26 1.514 0.391 1.171 0.195 2.278 0.292 3.32 0.292"/>
  <path d="m813.5 362.99c1.953 0 3.613-0.228 4.98-0.684 1.368-0.456 2.246-0.684 2.637-0.684 0.456 0 0.814 0.131 1.074 0.391 0.196 0.195 0.326 0.423 0.391 0.684 0 0.13-0.065 0.325-0.195 0.585l-28.418 33.008h16.699v-13.086c0-0.846 0.228-1.562 0.683-2.148 0.782-0.651 1.433-1.042 1.954-1.172 0.846-0.391 1.888-1.302 3.125-2.734 1.041-1.172 2.278-3.223 3.711-6.153 0.195-0.39 0.488-0.586 0.878-0.586 0.782 0 1.237 0.456 1.368 1.368v24.511h7.129c0.911 0 1.432 0.489 1.562 1.465 0 0.977-0.521 1.465-1.562 1.465h-7.129v0.781c0 2.604 0.651 4.818 1.953 6.641 1.497 1.823 3.255 2.734 5.273 2.734 0.781 0 1.172 0.391 1.172 1.172s-0.391 1.172-1.172 1.172c-1.367 0-3.581-0.195-6.64-0.586-2.8-0.456-4.981-0.684-6.543-0.684-1.628 0-3.809 0.228-6.543 0.684-2.93 0.391-5.111 0.586-6.543 0.586-0.782 0-1.172-0.391-1.172-1.172s0.39-1.172 1.172-1.172c2.018 0 3.776-0.911 5.273-2.734 1.367-1.888 2.051-4.102 2.051-6.641v-0.781h-16.699c-1.107 0-1.888-0.26-2.344-0.781-0.521-0.391-0.781-0.912-0.781-1.563 0-0.195 0.488-0.879 1.465-2.051 1.106-1.302 2.278-2.897 3.515-4.785 1.432-2.213 2.8-4.492 4.102-6.836 1.432-2.669 2.571-5.729 3.418-9.179 0.976-3.516 1.465-7.097 1.465-10.743 0-1.041 0.455-1.562 1.367-1.562 0.195 0 0.618 0.098 1.269 0.293 0.196 0.065 0.602 0.163 1.221 0.293 0.618 0.13 1.123 0.26 1.514 0.391 1.171 0.195 2.278 0.293 3.32 0.293"/>
  <path d="m1102.2 317.88v-25h3.13c0 3.711 0.71 7.422 2.15 11.133 1.56 4.036 3.28 7.552 5.17 10.547 1.37 2.148 3.42 5.436 6.15 9.863 2.09 3.386 3.84 6.934 5.28 10.645 1.43 3.711 2.15 7.422 2.15 11.132 0 6.771-1.4 13.672-4.2 20.704-0.52 0.781-1.14 1.171-1.86 1.171-0.65 0-1.24-0.26-1.76-0.781-0.39-0.39-0.58-0.879-0.58-1.465v-0.488c2.8-6.445 4.2-12.825 4.2-19.141 0-3.255-0.98-6.77-2.93-10.546-1.96-3.842-3.94-6.901-5.96-9.18-2.28-2.669-4.88-5.534-7.81-8.594h-3.13"/>
  <path d="m1225.9 308.5v-25h3.12c0 3.71 0.72 7.421 2.15 11.132 1.56 4.037 3.29 7.552 5.18 10.547 1.36 2.149 3.42 5.436 6.15 9.864 2.08 3.385 3.84 6.933 5.27 10.644 1.44 3.711 2.15 7.422 2.15 11.133 0 6.771-1.4 13.672-4.2 20.703-0.52 0.781-1.14 1.172-1.85 1.172-0.65 0-1.24-0.261-1.76-0.781-0.39-0.391-0.59-0.879-0.59-1.465v-0.489c2.8-6.445 4.2-12.825 4.2-19.14 0-3.255-0.97-6.771-2.93-10.547-1.95-3.841-3.94-6.901-5.95-9.18-2.28-2.669-4.89-5.534-7.82-8.593h-3.12"/>
  <path d="m1349.7 286.62v-25h3.13c0 3.711 0.72 7.422 2.15 11.133 1.56 4.036 3.29 7.552 5.17 10.547 1.37 2.148 3.42 5.436 6.16 9.863 2.08 3.386 3.84 6.934 5.27 10.645s2.15 7.422 2.15 11.132c0 6.771-1.4 13.672-4.2 20.704-0.52 0.781-1.14 1.171-1.86 1.171-0.65 0-1.23-0.26-1.75-0.781-0.39-0.39-0.59-0.879-0.59-1.465v-0.488c2.8-6.445 4.2-12.825 4.2-19.141 0-3.255-0.98-6.77-2.93-10.546-1.95-3.842-3.94-6.901-5.96-9.18-2.28-2.669-4.88-5.534-7.81-8.594h-3.13"/>
  <path d="m1503.7 261.62c0 3.32 0.72 6.641 2.15 9.961 1.37 3.255 3.06 6.348 5.08 9.277l5.86 8.594c1.95 2.669 3.65 5.762 5.08 9.278 1.43 3.255 2.15 6.543 2.15 9.863 0 3.06-0.79 6.25-2.35 9.57 1.96 3.971 2.93 7.845 2.93 11.621 0 5.99-1.4 12.11-4.2 18.36-0.52 0.781-1.14 1.171-1.85 1.171-0.65 0-1.24-0.26-1.76-0.781-0.39-0.39-0.59-0.879-0.59-1.465v-0.488c2.8-5.534 4.2-11.133 4.2-16.797 0-2.539-0.49-4.883-1.46-7.031-1.17-2.539-2.61-4.883-4.3-7.031-2.15-2.8-3.84-4.818-5.08-6.055-1.69-1.693-3.64-3.548-5.86-5.566v7.519h-3.12v-50h3.12m15.34 51.66c0.45-1.367 0.68-2.929 0.68-4.687 0-2.279-0.46-4.59-1.37-6.934-0.97-2.344-2.34-4.72-4.1-7.129-1.63-2.018-3.29-4.004-4.98-5.957-1.3-1.432-3.16-3.32-5.57-5.664 0 2.669 0.56 5.502 1.66 8.496 1.18 2.8 2.38 5.241 3.62 7.325 1.43 2.213 3.19 4.72 5.27 7.519 2.08 2.8 3.68 5.143 4.79 7.031"/>
  <path d="m1577.9 289.75v-25h3.12c0 3.711 0.72 7.422 2.15 11.133 1.56 4.037 3.29 7.552 5.18 10.547 1.36 2.148 3.41 5.436 6.15 9.863 2.08 3.386 3.84 6.934 5.27 10.645s2.15 7.422 2.15 11.133c0 6.771-1.4 13.672-4.2 20.703-0.52 0.781-1.14 1.172-1.85 1.172-0.66 0-1.24-0.261-1.76-0.782-0.39-0.39-0.59-0.878-0.59-1.464v-0.489c2.8-6.445 4.2-12.825 4.2-19.14 0-3.256-0.98-6.771-2.93-10.547-1.95-3.841-3.94-6.901-5.96-9.18-2.27-2.669-4.88-5.534-7.81-8.594h-3.12"/>
  <path d="m1871.8 308.5v-25h3.12c0 3.71 0.72 7.421 2.15 11.132 1.56 4.037 3.29 7.552 5.18 10.547 1.36 2.149 3.42 5.436 6.15 9.864 2.08 3.385 3.84 6.933 5.27 10.644 1.44 3.711 2.15 7.422 2.15 11.133 0 6.771-1.4 13.672-4.2 20.703-0.52 0.781-1.14 1.172-1.85 1.172-0.65 0-1.24-0.261-1.76-0.781-0.39-0.391-0.59-0.879-0.59-1.465v-0.489c2.8-6.445 4.2-12.825 4.2-19.14 0-3.255-0.97-6.771-2.93-10.547-1.95-3.841-3.94-6.901-5.95-9.18-2.28-2.669-4.89-5.534-7.82-8.593h-3.12"/>
  <path d="m1363.3 428.14c-1.11-1.106-1.66-2.441-1.66-4.004 0-1.562 0.55-2.897 1.66-4.004 1.1-1.106 2.44-1.66 4-1.66s2.9 0.554 4 1.66c1.11 1.107 1.66 2.442 1.66 4.004 0 1.563-0.55 2.898-1.66 4.004-1.1 1.107-2.44 1.66-4 1.66s-2.9-0.553-4-1.66"/>
  <path d="m1363.3 353.14c-1.11-1.107-1.66-2.442-1.66-4.004 0-1.563 0.55-2.897 1.66-4.004 1.1-1.107 2.44-1.66 4-1.66s2.9 0.553 4 1.66c1.11 1.107 1.66 2.441 1.66 4.004 0 1.562-0.55 2.897-1.66 4.004-1.1 1.106-2.44 1.66-4 1.66s-2.9-0.554-4-1.66"/>
</svg>
