<?xml version="1.0" encoding="utf-8"?>
<svg xmlns="http://www.w3.org/2000/svg" version="1.2" viewBox="560 270 1926 544">
  <title>Chapter 4 score.</title>
  <path d="m560 311.6h1926.1" fill="none" stroke="#000" stroke-linejoin="bevel" stroke-width="2"/>
  <path d="m560 336.6h1926.1" fill="none" stroke="#000" stroke-linejoin="bevel" stroke-width="2"/>
  <path d="m560 361.6h1926.1" fill="none" stroke="#000" stroke-linejoin="bevel" stroke-width="2"/>
  <path d="m560 386.6h1926.1" fill="none" stroke="#000" stroke-linejoin="bevel" stroke-width="2"/>
  <path d="m560 411.6h1926.1" fill="none" stroke="#000" stroke-linejoin="bevel" stroke-width="2"/>
  <path d="m560 636.62h1926.1" fill="none" stroke="#000" stroke-linejoin="bevel" stroke-width="2"/>
  <path d="m560 661.62h1926.1" fill="none" stroke="#000" stroke-linejoin="bevel" stroke-width="2"/>
  <path d="m560 686.62h1926.1" fill="none" stroke="#000" stroke-linejoin="bevel" stroke-width="2"/>
  <path d="m560 711.62h1926.1" fill="none" stroke="#000" stroke-linejoin="bevel" stroke-width="2"/>
  <path d="m560 736.62h1926.1" fill="none" stroke="#000" stroke-linejoin="bevel" stroke-width="2"/>
  <path d="m1581.7 446.61c73.24 47.508 281.62 32.508 347.3-25.002-65.39 61.499-273.77 76.5-347.3 25.002" fill-rule="evenodd" stroke="#000" stroke-linecap="round" stroke-linejoin="round" stroke-width="1.75"/>
  <path d="m1581.7 370.52c61.97-70.855 270.35-85.856 347.3-25.002-76.66-56.864-285.04-41.863-347.3 25.002" fill-rule="evenodd" stroke="#000" stroke-linecap="round" stroke-linejoin="round" stroke-width="1.75"/>
  <path d="m1715.8 791.35c64.39 39.769 236.48 14.623 286.8-41.909-49.75 60.49-221.83 85.636-286.8 41.909" fill-rule="evenodd" stroke="#000" stroke-linecap="round" stroke-linejoin="round" stroke-width="1.75"/>
  <path d="m1744.5 698.72c48.69-35.152 198.8-47.761 250.17-21.017-51.04-22.758-201.14-10.148-250.17 21.017" fill-rule="evenodd" stroke="#000" stroke-linecap="round" stroke-linejoin="round" stroke-width="1.75"/>
  <path d="m1538.2 310.6v102.01" stroke="#000" stroke-linejoin="bevel" stroke-width="4"/>
  <path d="m2484.1 310.6v102.01" stroke="#000" stroke-linejoin="bevel" stroke-width="4"/>
  <path d="m1669.5 635.62v102.01" stroke="#000" stroke-linejoin="bevel" stroke-width="4"/>
  <path d="m1192.1 728.82v64.059" stroke="#000" stroke-linecap="round" stroke-linejoin="bevel" stroke-width="3.25"/>
  <path d="m837.35 378.8v70.309" stroke="#000" stroke-linecap="round" stroke-linejoin="bevel" stroke-width="3.25"/>
  <path d="m1052.8 366.3v60.879" stroke="#000" stroke-linecap="round" stroke-linejoin="bevel" stroke-width="3.25"/>
  <path d="m1150.8 378.8v54.628" stroke="#000" stroke-linecap="round" stroke-linejoin="bevel" stroke-width="3.25"/>
  <path d="m1248.8 378.8v82.81" stroke="#000" stroke-linecap="round" stroke-linejoin="bevel" stroke-width="3.25"/>
  <path d="m1439.9 378.8v82.81" stroke="#000" stroke-linecap="round" stroke-linejoin="bevel" stroke-width="3.25"/>
  <path d="m1596.5 419.41v-107.81" stroke="#000" stroke-linecap="round" stroke-linejoin="bevel" stroke-width="3.25"/>
  <path d="m1943.8 394.41v-101.56" stroke="#000" stroke-linecap="round" stroke-linejoin="bevel" stroke-width="3.25"/>
  <path d="m2122.7 395.26v-102.42" stroke="#000" stroke-linecap="round" stroke-linejoin="bevel" stroke-width="3.25"/>
  <path d="m814.28 719.43v-129.69" stroke="#000" stroke-linecap="round" stroke-linejoin="bevel" stroke-width="3.25"/>
  <path d="m1018 719.43v-129.69" stroke="#000" stroke-linecap="round" stroke-linejoin="bevel" stroke-width="3.25"/>
  <path d="m1221.8 681.92v-70.309" stroke="#000" stroke-linecap="round" stroke-linejoin="bevel" stroke-width="3.25"/>
  <path d="m1314.4 694.43v-76.559" stroke="#000" stroke-linecap="round" stroke-linejoin="bevel" stroke-width="3.25"/>
  <path d="m1495.1 719.43v-101.56" stroke="#000" stroke-linecap="round" stroke-linejoin="bevel" stroke-width="3.25"/>
  <path d="m1727.8 744.43v-107.81" stroke="#000" stroke-linecap="round" stroke-linejoin="bevel" stroke-width="3.25"/>
  <path d="m2031.5 719.43v-101.56" stroke="#000" stroke-linecap="round" stroke-linejoin="bevel" stroke-width="3.25"/>
  <path d="m2187.2 719.43v-101.56" stroke="#000" stroke-linecap="round" stroke-linejoin="bevel" stroke-width="3.25"/>
  <path d="m1212.5 710.35c3.13 0 5.76 0.814 7.91 2.441 2.02 1.758 3.03 3.972 3.03 6.641 0 4.492-2.31 8.691-6.93 12.597-4.69 3.907-9.71 5.86-15.04 5.86-3.13 0-5.77-0.814-7.91-2.442-2.02-1.757-3.03-3.971-3.03-6.64 0-4.492 2.34-8.692 7.03-12.598 4.56-3.906 9.54-5.859 14.94-5.859"/>
  <path d="m857.7 360.33c3.125 0 5.762 0.814 7.91 2.441 2.018 1.758 3.027 3.971 3.027 6.641 0 4.492-2.311 8.691-6.933 12.597-4.688 3.907-9.701 5.86-15.039 5.86-3.125 0-5.762-0.814-7.91-2.442-2.019-1.757-3.028-3.971-3.028-6.64 0-4.492 2.344-8.692 7.032-12.598 4.557-3.906 9.537-5.859 14.941-5.859"/>
  <path d="m1073.2 347.83c3.12 0 5.76 0.814 7.91 2.441 2.02 1.758 3.03 3.972 3.03 6.641 0 4.492-2.32 8.691-6.94 12.598-4.69 3.906-9.7 5.859-15.04 5.859-3.12 0-5.76-0.814-7.91-2.441-2.02-1.758-3.03-3.972-3.03-6.641 0-4.492 2.35-8.691 7.04-12.598 4.55-3.906 9.53-5.859 14.94-5.859"/>
  <path d="m1171.2 360.33c3.13 0 5.76 0.814 7.91 2.441 2.02 1.758 3.03 3.971 3.03 6.641 0 4.492-2.31 8.691-6.93 12.597-4.69 3.907-9.71 5.86-15.04 5.86-3.13 0-5.77-0.814-7.91-2.442-2.02-1.757-3.03-3.971-3.03-6.64 0-4.492 2.34-8.692 7.03-12.598 4.56-3.906 9.54-5.859 14.94-5.859"/>
  <path d="m1269.1 360.33c3.12 0 5.76 0.814 7.91 2.441 2.01 1.758 3.02 3.971 3.02 6.641 0 4.492-2.31 8.691-6.93 12.597-4.69 3.907-9.7 5.86-15.04 5.86-3.12 0-5.76-0.814-7.91-2.442-2.02-1.757-3.03-3.971-3.03-6.64 0-4.492 2.35-8.692 7.03-12.598 4.56-3.906 9.54-5.859 14.95-5.859"/>
  <path d="m1460.2 360.33c3.13 0 5.76 0.814 7.91 2.441 2.02 1.758 3.03 3.971 3.03 6.641 0 4.492-2.31 8.691-6.93 12.597-4.69 3.907-9.71 5.86-15.04 5.86-3.13 0-5.77-0.814-7.91-2.442-2.02-1.757-3.03-3.971-3.03-6.64 0-4.492 2.34-8.692 7.03-12.598 4.56-3.906 9.54-5.859 14.94-5.859"/>
  <path d="m1587.2 410.34c3.12 0 5.76 0.814 7.91 2.441 2.02 1.758 3.02 3.972 3.02 6.641 0 4.492-2.31 8.691-6.93 12.598-4.69 3.906-9.7 5.859-15.04 5.859-3.12 0-5.76-0.814-7.91-2.441-2.02-1.758-3.03-3.972-3.03-6.641 0-4.492 2.35-8.692 7.04-12.598 4.55-3.906 9.53-5.859 14.94-5.859"/>
  <path d="m1587.2 385.33c3.12 0 5.76 0.814 7.91 2.442 2.02 1.758 3.02 3.971 3.02 6.64 0 4.493-2.31 8.692-6.93 12.598-4.69 3.906-9.7 5.859-15.04 5.859-3.12 0-5.76-0.813-7.91-2.441-2.02-1.758-3.03-3.971-3.03-6.641 0-4.492 2.35-8.691 7.04-12.597 4.55-3.907 9.53-5.86 14.94-5.86"/>
  <path d="m1934.5 385.33c3.12 0 5.76 0.814 7.91 2.442 2.02 1.758 3.02 3.971 3.02 6.64 0 4.493-2.31 8.692-6.93 12.598-4.69 3.906-9.7 5.859-15.04 5.859-3.12 0-5.76-0.813-7.91-2.441-2.02-1.758-3.03-3.971-3.03-6.641 0-4.492 2.35-8.691 7.04-12.597 4.55-3.907 9.53-5.86 14.94-5.86"/>
  <path d="m1934.5 360.33c3.12 0 5.76 0.814 7.91 2.441 2.02 1.758 3.02 3.971 3.02 6.641 0 4.492-2.31 8.691-6.93 12.597-4.69 3.907-9.7 5.86-15.04 5.86-3.12 0-5.76-0.814-7.91-2.442-2.02-1.757-3.03-3.971-3.03-6.64 0-4.492 2.35-8.692 7.04-12.598 4.55-3.906 9.53-5.859 14.94-5.859"/>
  <path d="m2121.2 392.56c0-1.107-0.42-2.051-1.27-2.832-0.85-0.847-1.82-1.27-2.93-1.27-1.95 0-5.89 1.953-11.82 5.86-6.12 3.971-9.86 6.803-11.23 8.496-0.71 0.911-1.07 1.855-1.07 2.832 0 1.107 0.42 2.051 1.27 2.832 0.78 0.846 1.76 1.269 2.93 1.269 1.89 0 5.86-1.953 11.91-5.859 5.99-3.906 9.7-6.738 11.13-8.496 0.72-0.846 1.08-1.79 1.08-2.832m-5.18-7.227c5.6 0 8.4 2.409 8.4 7.227 0 2.344-0.68 5.078-2.05 8.203-1.37 3.06-3.19 5.404-5.47 7.031-5.01 3.386-11.29 5.078-18.85 5.078-5.59 0-8.39-2.409-8.39-7.226 0-2.149 0.68-4.85 2.05-8.106 1.3-3.125 3.12-5.501 5.47-7.129 5.01-3.385 11.29-5.078 18.84-5.078"/>
  <path d="m2121.2 367.56c0-1.106-0.42-2.051-1.27-2.832-0.85-0.846-1.82-1.269-2.93-1.269-1.95 0-5.89 1.953-11.82 5.859-6.12 3.971-9.86 6.803-11.23 8.496-0.71 0.912-1.07 1.856-1.07 2.832 0 1.107 0.42 2.051 1.27 2.832 0.78 0.847 1.76 1.27 2.93 1.27 1.89 0 5.86-1.953 11.91-5.86 5.99-3.906 9.7-6.738 11.13-8.496 0.72-0.846 1.08-1.79 1.08-2.832m-5.18-7.226c5.6 0 8.4 2.409 8.4 7.226 0 2.344-0.68 5.078-2.05 8.203-1.37 3.06-3.19 5.404-5.47 7.032-5.01 3.385-11.29 5.078-18.85 5.078-5.59 0-8.39-2.409-8.39-7.227 0-2.148 0.68-4.85 2.05-8.105 1.3-3.125 3.12-5.502 5.47-7.129 5.01-3.386 11.29-5.078 18.84-5.078"/>
  <path d="m804.96 710.35c3.125 0 5.762 0.814 7.91 2.441 2.019 1.758 3.028 3.972 3.028 6.641 0 4.492-2.311 8.691-6.934 12.597-4.687 3.907-9.7 5.86-15.039 5.86-3.125 0-5.762-0.814-7.91-2.442-2.018-1.757-3.027-3.971-3.027-6.64 0-4.492 2.343-8.692 7.031-12.598 4.557-3.906 9.538-5.859 14.941-5.859"/>
  <path d="m804.96 647.85c3.125 0 5.762 0.814 7.91 2.441 2.019 1.758 3.028 3.972 3.028 6.641 0 4.492-2.311 8.691-6.934 12.598-4.687 3.906-9.7 5.859-15.039 5.859-3.125 0-5.762-0.814-7.91-2.442-2.018-1.757-3.027-3.971-3.027-6.64 0-4.492 2.343-8.692 7.031-12.598 4.557-3.906 9.538-5.859 14.941-5.859"/>
  <path d="m1008.7 710.35c3.13 0 5.76 0.814 7.91 2.441 2.02 1.758 3.03 3.972 3.03 6.641 0 4.492-2.31 8.691-6.93 12.597-4.69 3.907-9.71 5.86-15.04 5.86-3.13 0-5.766-0.814-7.914-2.442-2.018-1.757-3.027-3.971-3.027-6.64 0-4.492 2.343-8.692 7.031-12.598 4.56-3.906 9.54-5.859 14.94-5.859"/>
  <path d="m1008.7 647.85c3.13 0 5.76 0.814 7.91 2.441 2.02 1.758 3.03 3.972 3.03 6.641 0 4.492-2.31 8.691-6.93 12.598-4.69 3.906-9.71 5.859-15.04 5.859-3.13 0-5.766-0.814-7.914-2.442-2.018-1.757-3.027-3.971-3.027-6.64 0-4.492 2.343-8.692 7.031-12.598 4.56-3.906 9.54-5.859 14.94-5.859"/>
  <path d="m1212.5 672.85c3.13 0 5.76 0.814 7.91 2.442 2.02 1.758 3.03 3.971 3.03 6.64 0 4.493-2.31 8.692-6.93 12.598-4.69 3.906-9.71 5.859-15.04 5.859-3.13 0-5.77-0.813-7.91-2.441-2.02-1.758-3.03-3.971-3.03-6.641 0-4.492 2.34-8.691 7.03-12.597 4.56-3.906 9.54-5.86 14.94-5.86"/>
  <path d="m1305.1 685.35c3.13 0 5.77 0.814 7.91 2.442 2.02 1.757 3.03 3.971 3.03 6.64 0 4.492-2.31 8.692-6.93 12.598-4.69 3.906-9.7 5.859-15.04 5.859-3.13 0-5.76-0.814-7.91-2.441-2.02-1.758-3.03-3.972-3.03-6.641 0-4.492 2.35-8.691 7.03-12.597 4.56-3.907 9.54-5.86 14.94-5.86"/>
  <path d="m1485.8 710.35c3.13 0 5.76 0.814 7.91 2.441 2.02 1.758 3.03 3.972 3.03 6.641 0 4.492-2.31 8.691-6.93 12.597-4.69 3.907-9.7 5.86-15.04 5.86-3.13 0-5.77-0.814-7.91-2.442-2.02-1.757-3.03-3.971-3.03-6.64 0-4.492 2.34-8.692 7.03-12.598 4.56-3.906 9.54-5.859 14.94-5.859"/>
  <path d="m1485.8 685.35c3.13 0 5.76 0.814 7.91 2.442 2.02 1.757 3.03 3.971 3.03 6.64 0 4.492-2.31 8.692-6.93 12.598-4.69 3.906-9.7 5.859-15.04 5.859-3.13 0-5.77-0.814-7.91-2.441-2.02-1.758-3.03-3.972-3.03-6.641 0-4.492 2.34-8.691 7.03-12.597 4.56-3.907 9.54-5.86 14.94-5.86"/>
  <path d="m1718.5 735.36c3.13 0 5.77 0.814 7.91 2.442 2.02 1.758 3.03 3.971 3.03 6.64 0 4.493-2.31 8.692-6.93 12.598-4.69 3.906-9.7 5.859-15.04 5.859-3.13 0-5.76-0.813-7.91-2.441-2.02-1.758-3.03-3.971-3.03-6.641 0-4.492 2.34-8.691 7.03-12.597 4.56-3.907 9.54-5.86 14.94-5.86"/>
  <path d="m1718.5 710.35c3.13 0 5.77 0.814 7.91 2.441 2.02 1.758 3.03 3.972 3.03 6.641 0 4.492-2.31 8.691-6.93 12.597-4.69 3.907-9.7 5.86-15.04 5.86-3.13 0-5.76-0.814-7.91-2.442-2.02-1.757-3.03-3.971-3.03-6.64 0-4.492 2.34-8.692 7.03-12.598 4.56-3.906 9.54-5.859 14.94-5.859"/>
  <path d="m2022.2 710.35c3.12 0 5.76 0.814 7.91 2.441 2.01 1.758 3.02 3.972 3.02 6.641 0 4.492-2.31 8.691-6.93 12.597-4.69 3.907-9.7 5.86-15.04 5.86-3.12 0-5.76-0.814-7.91-2.442-2.02-1.757-3.03-3.971-3.03-6.64 0-4.492 2.35-8.692 7.03-12.598 4.56-3.906 9.54-5.859 14.95-5.859"/>
  <path d="m2022.2 685.35c3.12 0 5.76 0.814 7.91 2.442 2.01 1.757 3.02 3.971 3.02 6.64 0 4.492-2.31 8.692-6.93 12.598-4.69 3.906-9.7 5.859-15.04 5.859-3.12 0-5.76-0.814-7.91-2.441-2.02-1.758-3.03-3.972-3.03-6.641 0-4.492 2.35-8.691 7.03-12.597 4.56-3.907 9.54-5.86 14.95-5.86"/>
  <path d="m2177.9 710.35c3.12 0 5.76 0.814 7.91 2.441 2.02 1.758 3.02 3.972 3.02 6.641 0 4.492-2.31 8.691-6.93 12.597-4.69 3.907-9.7 5.86-15.04 5.86-3.12 0-5.76-0.814-7.91-2.442-2.02-1.757-3.03-3.971-3.03-6.64 0-4.492 2.35-8.692 7.04-12.598 4.55-3.906 9.53-5.859 14.94-5.859"/>
  <path d="m2177.9 685.35c3.12 0 5.76 0.814 7.91 2.442 2.02 1.757 3.02 3.971 3.02 6.64 0 4.492-2.31 8.692-6.93 12.598-4.69 3.906-9.7 5.859-15.04 5.859-3.12 0-5.76-0.814-7.91-2.441-2.02-1.758-3.03-3.972-3.03-6.641 0-4.492 2.35-8.691 7.04-12.597 4.55-3.907 9.53-5.86 14.94-5.86"/>
  <path d="m616.72 361.02h0.586c0.26-0.065 0.488-0.098 0.684-0.098 7.291 0 13.281 2.572 17.968 7.715 4.688 5.078 7.032 11.003 7.032 17.774 0 8.398-3.484 15.234-10.45 20.508-1.823 1.432-4.199 2.604-7.129 3.515 0.326 4.232 0.489 7.65 0.489 10.254 0 0.521-0.065 2.409-0.196 5.664-0.26 6.055-2.343 11.296-6.25 15.723-3.776 4.362-8.463 6.543-14.062 6.543-5.274 0-9.766-1.856-13.477-5.567-3.711-3.776-5.566-8.333-5.566-13.672 0-2.799 1.074-5.175 3.223-7.128 2.213-1.954 4.785-2.93 7.714-2.93 2.605 0 4.786 1.009 6.543 3.027 1.823 1.888 2.735 4.232 2.735 7.031 0 2.54-0.912 4.721-2.735 6.543-1.823 1.823-4.004 2.735-6.543 2.735-1.041 0-2.05-0.195-3.027-0.586 2.865 4.232 6.673 6.348 11.426 6.348 4.492 0 8.17-1.823 11.035-5.469 2.995-3.776 4.622-8.171 4.883-13.184 0.13-3.125 0.195-4.915 0.195-5.371 0-3.646-0.13-6.641-0.39-8.984-3.256 0.521-6.153 0.781-8.692 0.781-9.049 0-16.764-3.581-23.144-10.742-6.25-7.227-9.375-15.821-9.375-25.781 0-2.084 0.195-4.2 0.586-6.348 0.39-1.758 0.878-3.679 1.464-5.762 0.326-1.172 1.205-3.06 2.637-5.664 0.521-0.781 1.107-1.758 1.758-2.93 0.651-1.171 1.107-1.953 1.367-2.343 0.651-1.302 1.921-3.06 3.809-5.274 0.52-0.586 1.058-1.237 1.611-1.953s1.025-1.302 1.416-1.758c0.391-0.455 0.684-0.814 0.879-1.074s1.66-1.986 4.394-5.176c0.651-0.651 1.286-1.351 1.905-2.099 0.618-0.749 1.123-1.335 1.513-1.758 0.391-0.423 0.684-0.733 0.879-0.928-2.343-7.747-3.808-13.932-4.394-18.555-0.456-3.71-0.684-8.789-0.684-15.234 0-5.664 1.302-10.97 3.906-15.918 2.54-5.143 6.088-9.342 10.645-12.598 0.26-0.195 0.586-0.293 0.977-0.293 0.455 0 0.781 0.098 0.976 0.293 3.516 4.232 6.543 9.734 9.082 16.504 2.604 6.771 3.906 12.924 3.906 18.457 0 6.25-1.497 12.11-4.492 17.579-3.385 5.794-7.747 11.783-13.086 17.968 1.367 4.297 3.19 11.035 5.469 20.215m8.301 45.41c3.385-1.237 6.022-3.353 7.91-6.347 2.083-2.865 3.125-6.088 3.125-9.668 0-4.623-1.563-8.724-4.688-12.305-3.19-3.711-7.259-5.794-12.207-6.25 2.8 13.737 4.753 25.26 5.86 34.57m-37.793-22.558c0 6.445 2.604 12.109 7.812 16.992 5.339 4.752 11.328 7.129 17.969 7.129 2.734 0 5.404-0.196 8.008-0.586-1.042-9.896-3.093-21.745-6.152-35.547-3.711 0.391-6.674 1.693-8.887 3.906-2.149 2.279-3.223 4.85-3.223 7.715 0 4.948 2.637 8.952 7.91 12.012 0.456 0.455 0.684 0.944 0.684 1.465 0 0.52-0.228 1.009-0.684 1.464-0.39 0.456-0.879 0.684-1.465 0.684-0.065 0-0.358-0.065-0.878-0.195-3.711-2.019-6.576-4.623-8.594-7.813-1.888-3.385-2.832-6.803-2.832-10.254 0-4.492 1.4-8.561 4.199-12.207 2.93-3.646 6.738-5.989 11.426-7.031-1.823-7.292-3.321-12.988-4.492-17.09-1.042 1.172-2.295 2.588-3.76 4.248s-2.328 2.653-2.588 2.979c-2.344 3.06-4.134 5.436-5.371 7.129-2.214 3.06-3.841 5.696-4.883 7.91-1.107 2.474-2.083 5.176-2.93 8.105-0.846 2.8-1.269 5.795-1.269 8.985m32.617-99.317c-4.883 2.409-8.724 5.86-11.523 10.352-2.865 4.622-4.297 9.603-4.297 14.941 0 4.688 1.172 11.003 3.515 18.946 4.688-5.665 8.203-10.905 10.547-15.723 2.474-5.078 3.711-10.384 3.711-15.918 0-4.167-0.651-8.366-1.953-12.598"/>
  <path d="m616.72 686.04h0.586c0.26-0.066 0.488-0.098 0.684-0.098 7.291 0 13.281 2.572 17.968 7.715 4.688 5.078 7.032 11.002 7.032 17.773 0 8.399-3.484 15.235-10.45 20.508-1.823 1.432-4.199 2.604-7.129 3.516 0.326 4.231 0.489 7.649 0.489 10.254 0 0.52-0.065 2.408-0.196 5.664-0.26 6.054-2.343 11.295-6.25 15.722-3.776 4.362-8.463 6.543-14.062 6.543-5.274 0-9.766-1.855-13.477-5.566-3.711-3.776-5.566-8.334-5.566-13.672 0-2.8 1.074-5.176 3.223-7.129 2.213-1.953 4.785-2.93 7.714-2.93 2.605 0 4.786 1.009 6.543 3.028 1.823 1.888 2.735 4.231 2.735 7.031 0 2.539-0.912 4.72-2.735 6.543s-4.004 2.734-6.543 2.734c-1.041 0-2.05-0.195-3.027-0.586 2.865 4.232 6.673 6.348 11.426 6.348 4.492 0 8.17-1.823 11.035-5.469 2.995-3.776 4.622-8.17 4.883-13.183 0.13-3.125 0.195-4.916 0.195-5.371 0-3.646-0.13-6.641-0.39-8.985-3.256 0.521-6.153 0.781-8.692 0.781-9.049 0-16.764-3.58-23.144-10.742-6.25-7.226-9.375-15.82-9.375-25.781 0-2.083 0.195-4.199 0.586-6.348 0.39-1.757 0.878-3.678 1.464-5.761 0.326-1.172 1.205-3.06 2.637-5.664 0.521-0.782 1.107-1.758 1.758-2.93s1.107-1.953 1.367-2.344c0.651-1.302 1.921-3.06 3.809-5.273 0.52-0.586 1.058-1.237 1.611-1.953 0.553-0.717 1.025-1.303 1.416-1.758 0.391-0.456 0.684-0.814 0.879-1.074 0.195-0.261 1.66-1.986 4.394-5.176 0.651-0.651 1.286-1.351 1.905-2.1 0.618-0.749 1.123-1.334 1.513-1.758 0.391-0.423 0.684-0.732 0.879-0.927-2.343-7.748-3.808-13.933-4.394-18.555-0.456-3.711-0.684-8.789-0.684-15.234 0-5.665 1.302-10.971 3.906-15.918 2.54-5.144 6.088-9.343 10.645-12.598 0.26-0.195 0.586-0.293 0.977-0.293 0.455 0 0.781 0.098 0.976 0.293 3.516 4.232 6.543 9.733 9.082 16.504 2.604 6.771 3.906 12.923 3.906 18.457 0 6.25-1.497 12.109-4.492 17.578-3.385 5.794-7.747 11.784-13.086 17.969 1.367 4.297 3.19 11.035 5.469 20.215m8.301 45.41c3.385-1.237 6.022-3.353 7.91-6.348 2.083-2.865 3.125-6.087 3.125-9.668 0-4.622-1.563-8.724-4.688-12.305-3.19-3.711-7.259-5.794-12.207-6.25 2.8 13.737 4.753 25.261 5.86 34.571m-37.793-22.559c0 6.445 2.604 12.11 7.812 16.992 5.339 4.753 11.328 7.129 17.969 7.129 2.734 0 5.404-0.195 8.008-0.586-1.042-9.896-3.093-21.745-6.152-35.547-3.711 0.391-6.674 1.693-8.887 3.907-2.149 2.278-3.223 4.85-3.223 7.715 0 4.947 2.637 8.951 7.91 12.011 0.456 0.456 0.684 0.944 0.684 1.465s-0.228 1.009-0.684 1.465c-0.39 0.456-0.879 0.684-1.465 0.684-0.065 0-0.358-0.066-0.878-0.196-3.711-2.018-6.576-4.622-8.594-7.812-1.888-3.386-2.832-6.804-2.832-10.254 0-4.492 1.4-8.561 4.199-12.207 2.93-3.646 6.738-5.99 11.426-7.031-1.823-7.292-3.321-12.989-4.492-17.09-1.042 1.172-2.295 2.588-3.76 4.248s-2.328 2.653-2.588 2.978c-2.344 3.06-4.134 5.436-5.371 7.129-2.214 3.06-3.841 5.697-4.883 7.91-1.107 2.474-2.083 5.176-2.93 8.106-0.846 2.799-1.269 5.794-1.269 8.984m32.617-99.316c-4.883 2.409-8.724 5.859-11.523 10.351-2.865 4.623-4.297 9.603-4.297 14.942 0 4.687 1.172 11.002 3.515 18.945 4.688-5.664 8.203-10.905 10.547-15.723 2.474-5.078 3.711-10.384 3.711-15.918 0-4.166-0.651-8.366-1.953-12.597"/>
  <path d="m714.53 380.25c0 1.237-0.619 1.855-1.856 1.855s-1.855-0.618-1.855-1.855v-14.453l-8.301 3.125v15.82c0 1.237-0.618 1.856-1.855 1.856s-1.856-0.619-1.856-1.856v-14.551l-3.125 1.172c-0.065 0.065-0.325 0.098-0.781 0.098-0.521 0-0.977-0.195-1.367-0.586-0.391-0.391-0.586-0.846-0.586-1.367v-6.055c0-0.976 0.423-1.595 1.269-1.855l4.59-1.563v-16.015l-3.125 1.074c-0.065 0.065-0.325 0.097-0.781 0.097-0.521 0-0.977-0.195-1.367-0.586-0.391-0.39-0.586-0.846-0.586-1.367v-6.054c0-0.912 0.423-1.498 1.269-1.758l4.59-1.758v-15.723c0-1.237 0.619-1.855 1.856-1.855s1.855 0.618 1.855 1.855v14.453l8.301-3.125v-15.82c0-1.237 0.618-1.855 1.855-1.855s1.856 0.618 1.856 1.855v14.551l3.223-1.172c0.065-0.065 0.293-0.098 0.683-0.098 0.456 0 0.944 0.196 1.465 0.586 0.391 0.391 0.586 0.847 0.586 1.368v6.054c0 0.912-0.456 1.53-1.367 1.856l-4.59 1.562v16.016l3.223-1.074c0.065-0.066 0.293-0.098 0.683-0.098 0.456 0 0.944 0.195 1.465 0.586 0.391 0.39 0.586 0.846 0.586 1.367v6.055c0 0.846-0.456 1.432-1.367 1.758l-4.59 1.757v15.723m-3.711-40.625-8.301 2.93v16.015l8.301-2.929v-16.016"/>
  <path d="m689.53 342.75c0 1.237-0.618 1.855-1.855 1.855s-1.856-0.618-1.856-1.855v-14.453l-8.3 3.125v15.82c0 1.237-0.619 1.855-1.856 1.855s-1.855-0.618-1.855-1.855v-14.551l-3.125 1.172c-0.065 0.065-0.326 0.098-0.782 0.098-0.52 0-0.976-0.196-1.367-0.586-0.39-0.391-0.586-0.847-0.586-1.368v-6.054c0-0.977 0.423-1.595 1.27-1.856l4.59-1.562v-16.016l-3.125 1.074c-0.065 0.066-0.326 0.098-0.782 0.098-0.52 0-0.976-0.195-1.367-0.586-0.39-0.391-0.586-0.846-0.586-1.367v-6.055c0-0.911 0.423-1.497 1.27-1.758l4.59-1.757v-15.723c0-1.237 0.618-1.856 1.855-1.856s1.856 0.619 1.856 1.856v14.453l8.3-3.125v-15.82c0-1.237 0.619-1.856 1.856-1.856s1.855 0.619 1.855 1.856v14.551l3.223-1.172c0.065-0.065 0.293-0.098 0.684-0.098 0.455 0 0.944 0.195 1.464 0.586 0.391 0.391 0.586 0.846 0.586 1.367v6.055c0 0.911-0.455 1.53-1.367 1.855l-4.59 1.563v16.015l3.223-1.074c0.065-0.065 0.293-0.097 0.684-0.097 0.455 0 0.944 0.195 1.464 0.585 0.391 0.391 0.586 0.847 0.586 1.368v6.054c0 0.847-0.455 1.433-1.367 1.758l-4.59 1.758v15.723m-3.711-40.625-8.3 2.929v16.016l8.3-2.93v-16.015"/>
  <path d="m714.53 705.27c0 1.237-0.619 1.856-1.856 1.856s-1.855-0.619-1.855-1.856v-14.453l-8.301 3.125v15.821c0 1.237-0.618 1.855-1.855 1.855s-1.856-0.618-1.856-1.855v-14.551l-3.125 1.172c-0.065 0.065-0.325 0.097-0.781 0.097-0.521 0-0.977-0.195-1.367-0.586-0.391-0.39-0.586-0.846-0.586-1.367v-6.054c0-0.977 0.423-1.595 1.269-1.856l4.59-1.562v-16.016l-3.125 1.074c-0.065 0.065-0.325 0.098-0.781 0.098-0.521 0-0.977-0.195-1.367-0.586-0.391-0.391-0.586-0.846-0.586-1.367v-6.055c0-0.911 0.423-1.497 1.269-1.758l4.59-1.758v-15.722c0-1.237 0.619-1.856 1.856-1.856s1.855 0.619 1.855 1.856v14.453l8.301-3.125v-15.82c0-1.237 0.618-1.856 1.855-1.856s1.856 0.619 1.856 1.856v14.55l3.223-1.171c0.065-0.066 0.293-0.098 0.683-0.098 0.456 0 0.944 0.195 1.465 0.586 0.391 0.39 0.586 0.846 0.586 1.367v6.055c0 0.911-0.456 1.53-1.367 1.855l-4.59 1.563v16.015l3.223-1.074c0.065-0.065 0.293-0.098 0.683-0.098 0.456 0 0.944 0.196 1.465 0.586 0.391 0.391 0.586 0.847 0.586 1.368v6.054c0 0.847-0.456 1.432-1.367 1.758l-4.59 1.758v15.722m-3.711-40.625-8.301 2.93v16.016l8.301-2.93v-16.016"/>
  <path d="m689.53 667.77c0 1.237-0.618 1.856-1.855 1.856s-1.856-0.619-1.856-1.856v-14.453l-8.3 3.125v15.82c0 1.237-0.619 1.856-1.856 1.856s-1.855-0.619-1.855-1.856v-14.55l-3.125 1.171c-0.065 0.066-0.326 0.098-0.782 0.098-0.52 0-0.976-0.195-1.367-0.586-0.39-0.391-0.586-0.846-0.586-1.367v-6.055c0-0.976 0.423-1.595 1.27-1.855l4.59-1.563v-16.015l-3.125 1.074c-0.065 0.065-0.326 0.098-0.782 0.098-0.52 0-0.976-0.196-1.367-0.586-0.39-0.391-0.586-0.847-0.586-1.368v-6.054c0-0.912 0.423-1.498 1.27-1.758l4.59-1.758v-15.723c0-1.237 0.618-1.855 1.855-1.855s1.856 0.618 1.856 1.855v14.454l8.3-3.125v-15.821c0-1.237 0.619-1.855 1.856-1.855s1.855 0.618 1.855 1.855v14.551l3.223-1.172c0.065-0.065 0.293-0.098 0.684-0.098 0.455 0 0.944 0.196 1.464 0.586 0.391 0.391 0.586 0.847 0.586 1.368v6.054c0 0.912-0.455 1.53-1.367 1.856l-4.59 1.562v16.016l3.223-1.074c0.065-0.065 0.293-0.098 0.684-0.098 0.455 0 0.944 0.195 1.464 0.586 0.391 0.391 0.586 0.846 0.586 1.367v6.055c0 0.846-0.455 1.432-1.367 1.758l-4.59 1.757v15.723m-3.711-40.625-8.3 2.93v16.015l8.3-2.929v-16.016"/>
  <path d="m768.28 312.78c1.953 0 3.614-0.227 4.981-0.683s2.246-0.684 2.637-0.684c0.455 0 0.813 0.13 1.074 0.391 0.195 0.195 0.325 0.423 0.39 0.684 0 0.13-0.065 0.325-0.195 0.585l-28.418 33.008h16.699v-13.086c0-0.846 0.228-1.562 0.684-2.148 0.781-0.651 1.432-1.042 1.953-1.172 0.846-0.391 1.888-1.302 3.125-2.734 1.042-1.172 2.279-3.223 3.711-6.153 0.195-0.39 0.488-0.586 0.879-0.586 0.781 0 1.237 0.456 1.367 1.368v24.511h7.129c0.911 0 1.432 0.489 1.562 1.465 0 0.977-0.52 1.465-1.562 1.465h-7.129v0.781c0 2.604 0.651 4.818 1.953 6.641 1.498 1.823 3.255 2.734 5.274 2.734 0.781 0 1.171 0.391 1.171 1.172s-0.39 1.172-1.171 1.172c-1.368 0-3.581-0.195-6.641-0.586-2.799-0.456-4.98-0.684-6.543-0.684-1.628 0-3.809 0.228-6.543 0.684-2.93 0.391-5.111 0.586-6.543 0.586-0.781 0-1.172-0.391-1.172-1.172s0.391-1.172 1.172-1.172c2.018 0 3.776-0.911 5.274-2.734 1.367-1.888 2.05-4.102 2.05-6.641v-0.781h-16.699c-1.107 0-1.888-0.26-2.344-0.781-0.521-0.391-0.781-0.912-0.781-1.563 0-0.195 0.488-0.879 1.465-2.051 1.107-1.302 2.279-2.897 3.516-4.785 1.432-2.213 2.799-4.492 4.101-6.836 1.432-2.669 2.572-5.729 3.418-9.179 0.977-3.516 1.465-7.097 1.465-10.743 0-1.041 0.456-1.562 1.367-1.562 0.195 0 0.619 0.098 1.27 0.293 0.195 0.065 0.602 0.163 1.22 0.293 0.619 0.13 1.123 0.26 1.514 0.391 1.172 0.195 2.279 0.292 3.32 0.292"/>
  <path d="m768.28 362.96c1.953 0 3.614-0.228 4.981-0.684s2.246-0.684 2.637-0.684c0.455 0 0.813 0.131 1.074 0.391 0.195 0.195 0.325 0.423 0.39 0.684 0 0.13-0.065 0.325-0.195 0.585l-28.418 33.008h16.699v-13.086c0-0.846 0.228-1.562 0.684-2.148 0.781-0.651 1.432-1.042 1.953-1.172 0.846-0.391 1.888-1.302 3.125-2.734 1.042-1.172 2.279-3.223 3.711-6.153 0.195-0.39 0.488-0.586 0.879-0.586 0.781 0 1.237 0.456 1.367 1.368v24.511h7.129c0.911 0 1.432 0.489 1.562 1.465 0 0.977-0.52 1.465-1.562 1.465h-7.129v0.781c0 2.604 0.651 4.818 1.953 6.641 1.498 1.823 3.255 2.734 5.274 2.734 0.781 0 1.171 0.391 1.171 1.172s-0.39 1.172-1.171 1.172c-1.368 0-3.581-0.195-6.641-0.586-2.799-0.456-4.98-0.684-6.543-0.684-1.628 0-3.809 0.228-6.543 0.684-2.93 0.391-5.111 0.586-6.543 0.586-0.781 0-1.172-0.391-1.172-1.172s0.391-1.172 1.172-1.172c2.018 0 3.776-0.911 5.274-2.734 1.367-1.888 2.05-4.102 2.05-6.641v-0.781h-16.699c-1.107 0-1.888-0.26-2.344-0.781-0.521-0.391-0.781-0.912-0.781-1.563 0-0.195 0.488-0.879 1.465-2.051 1.107-1.302 2.279-2.897 3.516-4.785 1.432-2.213 2.799-4.492 4.101-6.836 1.432-2.669 2.572-5.729 3.418-9.179 0.977-3.516 1.465-7.097 1.465-10.743 0-1.041 0.456-1.562 1.367-1.562 0.195 0 0.619 0.098 1.27 0.293 0.195 0.065 0.602 0.163 1.22 0.293 0.619 0.13 1.123 0.26 1.514 0.391 1.172 0.195 2.279 0.293 3.32 0.293"/>
  <path d="m1051.2 420.91 101.21 6.458v12.526l-101.21-6.457v-12.527" fill-rule="evenodd"/>
  <path d="m1051.2 402.16 101.21 6.458v12.526l-101.21-6.457v-12.527" fill-rule="evenodd"/>
  <path d="m1220.2 605.13 95.87 6.47v12.529l-95.87-6.47v-12.529" fill-rule="evenodd"/>
  <path d="m1220.2 623.88 33.01 2.228v12.529l-33.01-2.227v-12.53" fill-rule="evenodd"/>
  <path d="m1269.9 389.24c1.49 0 3.09 2.442 4.78 7.325 1.63 4.817 2.44 9.407 2.44 13.769 0 3.711-0.91 7.39-2.73 11.035-1.89 3.907-4.14 7.292-6.74 10.157l-8.01 8.984c-2.47 2.865-4.68 6.185-6.64 9.961-1.82 3.646-2.73 7.357-2.73 11.133h-3.13v-25h3.13c1.76-1.107 4.36-2.865 7.81-5.274 1.56-1.172 3.91-3.125 7.03-5.859 2.54-2.344 4.46-4.753 5.76-7.227 1.37-2.604 2.05-5.241 2.05-7.91 0-6.185-1.79-12.337-5.37-18.457v-0.39c0-0.586 0.2-1.075 0.59-1.465 0.52-0.521 1.11-0.782 1.76-0.782"/>
  <path d="m1441.4 441.59c2.61-1.497 5.08-3.027 7.43-4.59 2.47-1.757 4.68-3.515 6.64-5.273 2.34-2.148 4.13-4.362 5.37-6.641 1.3-2.474 1.95-4.915 1.95-7.324 0-2.279-0.46-4.59-1.37-6.933-0.71 0.911-2.83 2.994-6.34 6.25-2.67 2.473-4.95 4.72-6.84 6.738-1.69 1.823-3.26 4.101-4.69 6.836-1.43 2.799-2.15 5.631-2.15 8.496v2.441m26.86-46.289c0 3.906-1.24 7.78-3.71 11.621 1.63 3.451 2.44 7.064 2.44 10.84 0 3.19-0.88 6.413-2.64 9.668-1.89 3.516-4 6.38-6.34 8.594l-7.62 7.422c-2.54 2.604-4.66 5.436-6.35 8.496-1.76 3.125-2.64 6.347-2.64 9.668h-3.12v-50h3.12v7.519c15.11-7.877 22.66-15.82 22.66-23.828 0-1.758-0.46-3.808-1.37-6.152v-0.391c0-0.521 0.2-1.041 0.59-1.562 0.52-0.521 1.11-0.782 1.76-0.782s1.23 0.391 1.75 1.172c0.59 1.042 0.92 2.051 0.98 3.028 0.07 0.455 0.13 1.041 0.2 1.757l0.19 1.075c0.07 0.455 0.1 1.074 0.1 1.855"/>
  <path d="m1942.2 317.85v-25h3.13c0 3.711 0.71 7.422 2.14 11.133 1.57 4.036 3.29 7.552 5.18 10.547 1.37 2.148 3.42 5.436 6.15 9.863 2.09 3.386 3.84 6.934 5.28 10.645 1.43 3.711 2.14 7.422 2.14 11.132 0 6.771-1.4 13.672-4.2 20.704-0.52 0.781-1.13 1.171-1.85 1.171-0.65 0-1.24-0.26-1.76-0.781-0.39-0.39-0.58-0.879-0.58-1.465v-0.488c2.8-6.445 4.19-12.825 4.19-19.141 0-3.255-0.97-6.77-2.92-10.546-1.96-3.842-3.94-6.901-5.96-9.18-2.28-2.669-4.88-5.534-7.81-8.594h-3.13"/>
  <path d="m2029.9 642.87v-25h3.12c0 3.711 0.72 7.421 2.15 11.132 1.56 4.037 3.29 7.552 5.18 10.547 1.37 2.149 3.42 5.436 6.15 9.864 2.08 3.385 3.84 6.933 5.27 10.644 1.44 3.711 2.15 7.422 2.15 11.133 0 6.771-1.4 13.672-4.2 20.703-0.52 0.781-1.14 1.172-1.85 1.172-0.65 0-1.24-0.261-1.76-0.781-0.39-0.391-0.59-0.879-0.59-1.465v-0.488c2.8-6.446 4.2-12.826 4.2-19.141 0-3.255-0.97-6.771-2.93-10.547-1.95-3.841-3.94-6.901-5.95-9.18-2.28-2.669-4.89-5.534-7.82-8.593h-3.12"/>
  <path d="m1290.5 378.1c-1.11-1.107-1.66-2.441-1.66-4.004 0-1.562 0.55-2.897 1.66-4.004 1.11-1.106 2.44-1.66 4-1.66 1.57 0 2.9 0.554 4.01 1.66 1.1 1.107 1.66 2.442 1.66 4.004 0 1.563-0.56 2.897-1.66 4.004-1.11 1.107-2.44 1.66-4.01 1.66-1.56 0-2.89-0.553-4-1.66"/>
  <path d="m1608.5 428.11c-1.11-1.106-1.66-2.441-1.66-4.004 0-1.562 0.55-2.897 1.66-4.004 1.11-1.106 2.44-1.66 4.01-1.66 1.56 0 2.89 0.554 4 1.66 1.11 1.107 1.66 2.442 1.66 4.004 0 1.563-0.55 2.898-1.66 4.004-1.11 1.107-2.44 1.66-4 1.66-1.57 0-2.9-0.553-4.01-1.66"/>
  <path d="m1608.5 403.11c-1.11-1.107-1.66-2.442-1.66-4.004 0-1.563 0.55-2.897 1.66-4.004s2.44-1.66 4.01-1.66c1.56 0 2.89 0.553 4 1.66s1.66 2.441 1.66 4.004c0 1.562-0.55 2.897-1.66 4.004-1.11 1.106-2.44 1.66-4 1.66-1.57 0-2.9-0.554-4.01-1.66"/>
  <path d="m1326.4 703.13c-1.11-1.107-1.66-2.442-1.66-4.004 0-1.563 0.55-2.897 1.66-4.004s2.44-1.66 4-1.66c1.57 0 2.9 0.553 4.01 1.66 1.1 1.107 1.66 2.441 1.66 4.004 0 1.562-0.56 2.897-1.66 4.004-1.11 1.106-2.44 1.66-4.01 1.66-1.56 0-2.89-0.554-4-1.66"/>
  <path d="m1739.9 753.13c-1.11-1.107-1.66-2.442-1.66-4.004 0-1.563 0.55-2.897 1.66-4.004 1.1-1.107 2.44-1.66 4-1.66s2.9 0.553 4.01 1.66c1.1 1.107 1.66 2.441 1.66 4.004 0 1.562-0.56 2.897-1.66 4.004-1.11 1.107-2.45 1.66-4.01 1.66s-2.9-0.553-4-1.66"/>
  <path d="m1739.9 728.13c-1.11-1.107-1.66-2.441-1.66-4.004 0-1.562 0.55-2.897 1.66-4.004 1.1-1.106 2.44-1.66 4-1.66s2.9 0.554 4.01 1.66c1.1 1.107 1.66 2.442 1.66 4.004 0 1.563-0.56 2.897-1.66 4.004-1.11 1.107-2.45 1.66-4.01 1.66s-2.9-0.553-4-1.66"/>
  <path d="m2199.3 728.13c-1.11-1.107-1.66-2.441-1.66-4.004 0-1.562 0.55-2.897 1.66-4.004 1.11-1.106 2.44-1.66 4.01-1.66 1.56 0 2.89 0.554 4 1.66 1.11 1.107 1.66 2.442 1.66 4.004 0 1.563-0.55 2.897-1.66 4.004s-2.44 1.66-4 1.66c-1.57 0-2.9-0.553-4.01-1.66"/>
  <path d="m2199.3 703.13c-1.11-1.107-1.66-2.442-1.66-4.004 0-1.563 0.55-2.897 1.66-4.004s2.44-1.66 4.01-1.66c1.56 0 2.89 0.553 4 1.66s1.66 2.441 1.66 4.004c0 1.562-0.55 2.897-1.66 4.004-1.11 1.106-2.44 1.66-4 1.66-1.57 0-2.9-0.554-4.01-1.66"/>
</svg>
