<?xml version="1.0" encoding="utf-8"?>
<svg xmlns="http://www.w3.org/2000/svg" version="1.2" viewBox="560 270 1926 218">
	<title>Chapter 1 score.</title>
	<path d="m560 311.6h1926.1" fill="none" stroke="#000" stroke-linejoin="bevel" stroke-width="2"/>
	<path d="m560 336.6h1926.1" fill="none" stroke="#000" stroke-linejoin="bevel" stroke-width="2"/>
	<path d="m560 361.6h1926.1" fill="none" stroke="#000" stroke-linejoin="bevel" stroke-width="2"/>
	<path d="m560 386.6h1926.1" fill="none" stroke="#000" stroke-linejoin="bevel" stroke-width="2"/>
	<path d="m560 411.6h1926.1" fill="none" stroke="#000" stroke-linejoin="bevel" stroke-width="2"/>
	<path d="m989.48 310.6v102.01" fill="none" stroke="#000" stroke-linejoin="bevel" stroke-width="4"/>
	<path d="m1894 310.6v102.01" fill="none" stroke="#000" stroke-linejoin="bevel" stroke-width="4"/>
	<path d="m810.98 436.6h47.917" fill="none" stroke="#000" stroke-linecap="square" stroke-linejoin="bevel" stroke-width="4"/>
	<path d="m1018.5 436.6h47.91" fill="none" stroke="#000" stroke-linecap="square" stroke-linejoin="bevel" stroke-width="4"/>
	<path d="m1150.7 461.61h47.92" fill="none" stroke="#000" stroke-linecap="square" stroke-linejoin="bevel" stroke-width="4"/>
	<path d="m1150.7 436.6h47.92" fill="none" stroke="#000" stroke-linecap="square" stroke-linejoin="bevel" stroke-width="4"/>
	<path d="m1362.2 436.6h47.92" fill="none" stroke="#000" stroke-linecap="square" stroke-linejoin="bevel" stroke-width="4"/>
	<path d="m1494.4 436.6h47.91" fill="none" stroke="#000" stroke-linecap="square" stroke-linejoin="bevel" stroke-width="4"/>
	<path d="m1791.1 403.8v82.81" fill="none" stroke="#000" stroke-linecap="round" stroke-linejoin="bevel" stroke-width="3.25"/>
	<path d="m849.77 431.91v-139.06" fill="none" stroke="#000" stroke-linecap="round" stroke-linejoin="bevel" stroke-width="3.25"/>
	<path d="m1057.3 431.91v-139.06" fill="none" stroke="#000" stroke-linecap="round" stroke-linejoin="bevel" stroke-width="3.25"/>
	<path d="m1189.5 456.91v-107.81" fill="none" stroke="#000" stroke-linecap="round" stroke-linejoin="bevel" stroke-width="3.25"/>
	<path d="m1401 444.41v-107.81" fill="none" stroke="#000" stroke-linecap="round" stroke-linejoin="bevel" stroke-width="3.25"/>
	<path d="m1533.2 431.91v-120.31" fill="none" stroke="#000" stroke-linecap="round" stroke-linejoin="bevel" stroke-width="3.25"/>
	<path d="m1791.1 381.91v-79.684" fill="none" stroke="#000" stroke-linecap="round" stroke-linejoin="bevel" stroke-width="3.25"/>
	<path d="m1952.3 394.41v-107.81" fill="none" stroke="#000" stroke-linecap="round" stroke-linejoin="bevel" stroke-width="3.25"/>
	<path d="m2135 394.41v-107.81" fill="none" stroke="#000" stroke-linecap="round" stroke-linejoin="bevel" stroke-width="3.25"/>
	<path d="m2229.6 395.26v-102.42" fill="none" stroke="#000" stroke-linecap="round" stroke-linejoin="bevel" stroke-width="3.25"/>
	<path d="m1811.4 385.33c3.12 0 5.76 0.814 7.91 2.442 2.01 1.758 3.02 3.971 3.02 6.64 0 4.493-2.31 8.692-6.93 12.598-4.69 3.906-9.7 5.859-15.04 5.859-3.12 0-5.76-0.813-7.91-2.441-2.02-1.758-3.03-3.971-3.03-6.641 0-4.492 2.35-8.691 7.03-12.597 4.56-3.907 9.54-5.86 14.95-5.86"/>
	<path d="m840.45 422.84c3.125 0 5.762 0.813 7.91 2.441 2.018 1.758 3.027 3.971 3.027 6.641 0 4.492-2.311 8.691-6.933 12.597-4.688 3.907-9.701 5.86-15.039 5.86-3.125 0-5.762-0.814-7.91-2.442-2.019-1.758-3.028-3.971-3.028-6.64 0-4.493 2.344-8.692 7.031-12.598 4.558-3.906 9.538-5.859 14.942-5.859"/>
	<path d="m840.45 385.33c3.125 0 5.762 0.814 7.91 2.442 2.018 1.758 3.027 3.971 3.027 6.64 0 4.493-2.311 8.692-6.933 12.598-4.688 3.906-9.701 5.859-15.039 5.859-3.125 0-5.762-0.813-7.91-2.441-2.019-1.758-3.028-3.971-3.028-6.641 0-4.492 2.344-8.691 7.031-12.597 4.558-3.907 9.538-5.86 14.942-5.86"/>
	<path d="m840.45 360.33c3.125 0 5.762 0.814 7.91 2.441 2.018 1.758 3.027 3.971 3.027 6.641 0 4.492-2.311 8.691-6.933 12.597-4.688 3.907-9.701 5.86-15.039 5.86-3.125 0-5.762-0.814-7.91-2.442-2.019-1.757-3.028-3.971-3.028-6.64 0-4.492 2.344-8.692 7.031-12.598 4.558-3.906 9.538-5.859 14.942-5.859"/>
	<path d="m1048 422.84c3.13 0 5.76 0.813 7.91 2.441 2.02 1.758 3.03 3.971 3.03 6.641 0 4.492-2.31 8.691-6.94 12.597-4.68 3.907-9.7 5.86-15.03 5.86-3.13 0-5.77-0.814-7.91-2.442-2.02-1.758-3.03-3.971-3.03-6.64 0-4.493 2.34-8.692 7.03-12.598 4.56-3.906 9.54-5.859 14.94-5.859"/>
	<path d="m1048 385.33c3.13 0 5.76 0.814 7.91 2.442 2.02 1.758 3.03 3.971 3.03 6.64 0 4.493-2.31 8.692-6.94 12.598-4.68 3.906-9.7 5.859-15.03 5.859-3.13 0-5.77-0.813-7.91-2.441-2.02-1.758-3.03-3.971-3.03-6.641 0-4.492 2.34-8.691 7.03-12.597 4.56-3.907 9.54-5.86 14.94-5.86"/>
	<path d="m1048 360.33c3.13 0 5.76 0.814 7.91 2.441 2.02 1.758 3.03 3.971 3.03 6.641 0 4.492-2.31 8.691-6.94 12.597-4.68 3.907-9.7 5.86-15.03 5.86-3.13 0-5.77-0.814-7.91-2.442-2.02-1.757-3.03-3.971-3.03-6.64 0-4.492 2.34-8.692 7.03-12.598 4.56-3.906 9.54-5.859 14.94-5.859"/>
	<path d="m1180.2 447.84c3.12 0 5.76 0.814 7.91 2.442 2.01 1.757 3.02 3.971 3.02 6.64 0 4.492-2.31 8.692-6.93 12.598-4.69 3.906-9.7 5.859-15.04 5.859-3.12 0-5.76-0.814-7.91-2.441-2.02-1.758-3.03-3.971-3.03-6.641 0-4.492 2.35-8.691 7.03-12.597 4.56-3.907 9.54-5.86 14.95-5.86"/>
	<path d="m1180.2 422.84c3.12 0 5.76 0.813 7.91 2.441 2.01 1.758 3.02 3.971 3.02 6.641 0 4.492-2.31 8.691-6.93 12.597-4.69 3.907-9.7 5.86-15.04 5.86-3.12 0-5.76-0.814-7.91-2.442-2.02-1.758-3.03-3.971-3.03-6.64 0-4.493 2.35-8.692 7.03-12.598 4.56-3.906 9.54-5.859 14.95-5.859"/>
	<path d="m1391.7 435.34c3.12 0 5.76 0.814 7.91 2.442 2.01 1.758 3.02 3.971 3.02 6.64 0 4.493-2.31 8.692-6.93 12.598-4.69 3.906-9.7 5.859-15.04 5.859-3.12 0-5.76-0.813-7.91-2.441-2.02-1.758-3.03-3.971-3.03-6.641 0-4.492 2.35-8.691 7.03-12.597 4.56-3.906 9.54-5.86 14.95-5.86"/>
	<path d="m1391.7 410.34c3.12 0 5.76 0.814 7.91 2.441 2.01 1.758 3.02 3.972 3.02 6.641 0 4.492-2.31 8.691-6.93 12.598-4.69 3.906-9.7 5.859-15.04 5.859-3.12 0-5.76-0.814-7.91-2.441-2.02-1.758-3.03-3.972-3.03-6.641 0-4.492 2.35-8.692 7.03-12.598 4.56-3.906 9.54-5.859 14.95-5.859"/>
	<path d="m1523.9 422.84c3.13 0 5.76 0.813 7.91 2.441 2.02 1.758 3.03 3.971 3.03 6.641 0 4.492-2.31 8.691-6.94 12.597-4.68 3.907-9.7 5.86-15.03 5.86-3.13 0-5.77-0.814-7.91-2.442-2.02-1.758-3.03-3.971-3.03-6.64 0-4.493 2.34-8.692 7.03-12.598 4.56-3.906 9.54-5.859 14.94-5.859"/>
	<path d="m1523.9 385.33c3.13 0 5.76 0.814 7.91 2.442 2.02 1.758 3.03 3.971 3.03 6.64 0 4.493-2.31 8.692-6.94 12.598-4.68 3.906-9.7 5.859-15.03 5.859-3.13 0-5.77-0.813-7.91-2.441-2.02-1.758-3.03-3.971-3.03-6.641 0-4.492 2.34-8.691 7.03-12.597 4.56-3.907 9.54-5.86 14.94-5.86"/>
	<path d="m1781.8 372.83c3.12 0 5.76 0.813 7.91 2.441 2.02 1.758 3.03 3.971 3.03 6.641 0 4.492-2.31 8.691-6.94 12.597-4.68 3.906-9.7 5.86-15.04 5.86-3.12 0-5.76-0.814-7.91-2.442-2.01-1.758-3.02-3.971-3.02-6.64 0-4.493 2.34-8.692 7.03-12.598 4.56-3.906 9.54-5.859 14.94-5.859"/>
	<path d="m1943 385.33c3.12 0 5.76 0.814 7.91 2.442 2.01 1.758 3.02 3.971 3.02 6.64 0 4.493-2.31 8.692-6.93 12.598-4.69 3.906-9.7 5.859-15.04 5.859-3.12 0-5.76-0.813-7.91-2.441-2.02-1.758-3.03-3.971-3.03-6.641 0-4.492 2.35-8.691 7.03-12.597 4.56-3.907 9.54-5.86 14.95-5.86"/>
	<path d="m1943 360.33c3.12 0 5.76 0.814 7.91 2.441 2.01 1.758 3.02 3.971 3.02 6.641 0 4.492-2.31 8.691-6.93 12.597-4.69 3.907-9.7 5.86-15.04 5.86-3.12 0-5.76-0.814-7.91-2.442-2.02-1.757-3.03-3.971-3.03-6.64 0-4.492 2.35-8.692 7.03-12.598 4.56-3.906 9.54-5.859 14.95-5.859"/>
	<path d="m2125.7 385.33c3.12 0 5.76 0.814 7.91 2.442 2.02 1.758 3.03 3.971 3.03 6.64 0 4.493-2.31 8.692-6.94 12.598-4.68 3.906-9.7 5.859-15.04 5.859-3.12 0-5.76-0.813-7.91-2.441-2.01-1.758-3.02-3.971-3.02-6.641 0-4.492 2.34-8.691 7.03-12.597 4.56-3.907 9.54-5.86 14.94-5.86"/>
	<path d="m2125.7 360.33c3.12 0 5.76 0.814 7.91 2.441 2.02 1.758 3.03 3.971 3.03 6.641 0 4.492-2.31 8.691-6.94 12.597-4.68 3.907-9.7 5.86-15.04 5.86-3.12 0-5.76-0.814-7.91-2.442-2.01-1.757-3.02-3.971-3.02-6.64 0-4.492 2.34-8.692 7.03-12.598 4.56-3.906 9.54-5.859 14.94-5.859"/>
	<path d="m2228 392.56c0-1.107-0.42-2.051-1.27-2.832-0.84-0.847-1.82-1.27-2.93-1.27-1.95 0-5.89 1.953-11.81 5.86-6.12 3.971-9.87 6.803-11.24 8.496-0.71 0.911-1.07 1.855-1.07 2.832 0 1.107 0.42 2.051 1.27 2.832 0.78 0.846 1.76 1.269 2.93 1.269 1.89 0 5.86-1.953 11.91-5.859 5.99-3.906 9.7-6.738 11.14-8.496 0.71-0.846 1.07-1.79 1.07-2.832m-5.17-7.227c5.59 0 8.39 2.409 8.39 7.227 0 2.344-0.68 5.078-2.05 8.203-1.36 3.06-3.19 5.404-5.47 7.031-5.01 3.386-11.29 5.078-18.84 5.078-5.6 0-8.4-2.409-8.4-7.226 0-2.149 0.68-4.85 2.05-8.106 1.3-3.125 3.12-5.501 5.47-7.129 5.01-3.385 11.29-5.078 18.85-5.078"/>
	<path d="m2228 367.56c0-1.106-0.42-2.051-1.27-2.832-0.84-0.846-1.82-1.269-2.93-1.269-1.95 0-5.89 1.953-11.81 5.859-6.12 3.971-9.87 6.803-11.24 8.496-0.71 0.912-1.07 1.856-1.07 2.832 0 1.107 0.42 2.051 1.27 2.832 0.78 0.847 1.76 1.27 2.93 1.27 1.89 0 5.86-1.953 11.91-5.86 5.99-3.906 9.7-6.738 11.14-8.496 0.71-0.846 1.07-1.79 1.07-2.832m-5.17-7.226c5.59 0 8.39 2.409 8.39 7.226 0 2.344-0.68 5.078-2.05 8.203-1.36 3.06-3.19 5.404-5.47 7.032-5.01 3.385-11.29 5.078-18.84 5.078-5.6 0-8.4-2.409-8.4-7.227 0-2.148 0.68-4.85 2.05-8.105 1.3-3.125 3.12-5.502 5.47-7.129 5.01-3.386 11.29-5.078 18.85-5.078"/>
	<path d="m616.72 361.02h0.586c0.26-0.065 0.488-0.098 0.684-0.098 7.291 0 13.281 2.572 17.968 7.715 4.688 5.078 7.032 11.003 7.032 17.774 0 8.398-3.484 15.234-10.45 20.508-1.823 1.432-4.199 2.604-7.129 3.515 0.326 4.232 0.489 7.65 0.489 10.254 0 0.521-0.065 2.409-0.196 5.664-0.26 6.055-2.343 11.296-6.25 15.723-3.776 4.362-8.463 6.543-14.062 6.543-5.274 0-9.766-1.856-13.477-5.567-3.711-3.776-5.566-8.333-5.566-13.672 0-2.799 1.074-5.175 3.223-7.128 2.213-1.954 4.785-2.93 7.714-2.93 2.605 0 4.786 1.009 6.543 3.027 1.823 1.888 2.735 4.232 2.735 7.031 0 2.54-0.912 4.721-2.735 6.543-1.823 1.823-4.004 2.735-6.543 2.735-1.041 0-2.05-0.195-3.027-0.586 2.865 4.232 6.673 6.348 11.426 6.348 4.492 0 8.17-1.823 11.035-5.469 2.995-3.776 4.622-8.171 4.883-13.184 0.13-3.125 0.195-4.915 0.195-5.371 0-3.646-0.13-6.641-0.39-8.984-3.256 0.521-6.153 0.781-8.692 0.781-9.049 0-16.764-3.581-23.144-10.742-6.25-7.227-9.375-15.821-9.375-25.781 0-2.084 0.195-4.2 0.586-6.348 0.39-1.758 0.878-3.679 1.464-5.762 0.326-1.172 1.205-3.06 2.637-5.664 0.521-0.781 1.107-1.758 1.758-2.93 0.651-1.171 1.107-1.953 1.367-2.343 0.651-1.302 1.921-3.06 3.809-5.274 0.52-0.586 1.058-1.237 1.611-1.953s1.025-1.302 1.416-1.758c0.391-0.455 0.684-0.814 0.879-1.074s1.66-1.986 4.394-5.176c0.651-0.651 1.286-1.351 1.905-2.099 0.618-0.749 1.123-1.335 1.513-1.758 0.391-0.423 0.684-0.733 0.879-0.928-2.343-7.747-3.808-13.932-4.394-18.555-0.456-3.71-0.684-8.789-0.684-15.234 0-5.664 1.302-10.97 3.906-15.918 2.54-5.143 6.088-9.342 10.645-12.598 0.26-0.195 0.586-0.293 0.977-0.293 0.455 0 0.781 0.098 0.976 0.293 3.516 4.232 6.543 9.734 9.082 16.504 2.604 6.771 3.906 12.924 3.906 18.457 0 6.25-1.497 12.11-4.492 17.579-3.385 5.794-7.747 11.783-13.086 17.968 1.367 4.297 3.19 11.035 5.469 20.215m8.301 45.41c3.385-1.237 6.022-3.353 7.91-6.347 2.083-2.865 3.125-6.088 3.125-9.668 0-4.623-1.563-8.724-4.688-12.305-3.19-3.711-7.259-5.794-12.207-6.25 2.8 13.737 4.753 25.26 5.86 34.57m-37.793-22.558c0 6.445 2.604 12.109 7.812 16.992 5.339 4.752 11.328 7.129 17.969 7.129 2.734 0 5.404-0.196 8.008-0.586-1.042-9.896-3.093-21.745-6.152-35.547-3.711 0.391-6.674 1.693-8.887 3.906-2.149 2.279-3.223 4.85-3.223 7.715 0 4.948 2.637 8.952 7.91 12.012 0.456 0.455 0.684 0.944 0.684 1.465 0 0.52-0.228 1.009-0.684 1.464-0.39 0.456-0.879 0.684-1.465 0.684-0.065 0-0.358-0.065-0.878-0.195-3.711-2.019-6.576-4.623-8.594-7.813-1.888-3.385-2.832-6.803-2.832-10.254 0-4.492 1.4-8.561 4.199-12.207 2.93-3.646 6.738-5.989 11.426-7.031-1.823-7.292-3.321-12.988-4.492-17.09-1.042 1.172-2.295 2.588-3.76 4.248s-2.328 2.653-2.588 2.979c-2.344 3.06-4.134 5.436-5.371 7.129-2.214 3.06-3.841 5.696-4.883 7.91-1.107 2.474-2.083 5.176-2.93 8.105-0.846 2.8-1.269 5.795-1.269 8.985m32.617-99.317c-4.883 2.409-8.724 5.86-11.523 10.352-2.865 4.622-4.297 9.603-4.297 14.941 0 4.688 1.172 11.003 3.515 18.946 4.688-5.665 8.203-10.905 10.547-15.723 2.474-5.078 3.711-10.384 3.711-15.918 0-4.167-0.651-8.366-1.953-12.598"/>
	<path d="m673.12 357.5v7.715c0 2.734 0.13 4.915 0.391 6.543 2.148-1.823 3.678-3.19 4.59-4.102 1.041-1.042 2.083-2.474 3.125-4.297 1.041-1.823 1.562-3.646 1.562-5.468 0-1.823-0.391-3.386-1.172-4.688s-1.823-1.953-3.125-1.953c-1.562 0-2.864 0.586-3.906 1.758-0.977 1.302-1.465 2.799-1.465 4.492m-4.101 17.871-1.27-59.473c0.911-0.521 1.823-0.781 2.734-0.781 0.912 0 1.823 0.26 2.735 0.781l-0.781 34.473c2.669-2.279 5.729-3.418 9.179-3.418 2.539 0 4.655 1.042 6.348 3.125s2.539 4.46 2.539 7.129c0 1.693-0.553 3.483-1.66 5.371-1.042 1.758-2.149 3.125-3.321 4.102-0.651 0.52-2.311 1.822-4.98 3.906-0.781 0.586-1.709 1.269-2.783 2.051-1.074 0.781-1.742 1.269-2.002 1.464-0.456 0.261-0.879 0.782-1.27 1.563-0.455 0.651-0.976 1.204-1.562 1.66-0.456 0.391-1.009 0.586-1.66 0.586s-1.172-0.228-1.563-0.684c-0.456-0.455-0.683-1.074-0.683-1.855"/>
	<path d="m751.64 358.87c-1.693 0-3.386-0.651-5.079-1.953-1.627-1.237-2.441-3.06-2.441-5.469 0-2.018 0.684-3.808 2.051-5.371 1.302-1.562 3.027-2.344 5.176-2.344 0.716 0 1.172 0.033 1.367 0.098-2.995-3.841-6.999-5.827-12.012-5.957-3.776 0-6.641 1.074-8.594 3.223-0.651 0.846-1.237 2.213-1.757 4.101-0.521 1.888-0.782 3.581-0.782 5.078-0.13 1.042-0.195 3.125-0.195 6.25v10.157c0 3.125 0.065 5.24 0.195 6.347 0.261 4.232 1.107 7.259 2.539 9.082 2.019 2.214 4.883 3.321 8.594 3.321 3.906 0 7.227-1.433 9.961-4.297 2.8-2.8 4.753-6.413 5.859-10.84 0.196-0.651 0.586-0.977 1.172-0.977 0.847 0 1.27 0.391 1.27 1.172 0 0.456-0.195 1.335-0.586 2.637-0.912 2.93-2.702 6.022-5.371 9.277-3.19 3.646-7.292 5.469-12.305 5.469-2.93 0-5.924-0.423-8.984-1.27-2.995-1.041-5.632-2.474-7.91-4.296-2.539-2.019-4.525-4.753-5.957-8.204-1.433-3.776-2.149-7.942-2.149-12.5 0-7.942 2.149-14.257 6.445-18.945 4.167-4.818 10.352-7.226 18.555-7.226 5.339 0 9.57 1.822 12.695 5.468 3.256 3.646 4.883 7.259 4.883 10.84 0 2.084-0.651 3.776-1.953 5.078-1.172 1.367-2.734 2.051-4.687 2.051"/>
	<path d="m1812.2 414.24c1.49 0 3.09 2.441 4.78 7.324 1.63 4.818 2.44 9.408 2.44 13.77 0 3.711-0.91 7.389-2.73 11.035-1.89 3.906-4.14 7.292-6.74 10.156l-8.01 8.985c-2.47 2.864-4.68 6.184-6.64 9.961-1.82 3.645-2.73 7.356-2.73 11.132h-3.13v-25h3.13c1.76-1.106 4.36-2.864 7.81-5.273 1.56-1.172 3.91-3.125 7.03-5.859 2.54-2.344 4.46-4.753 5.76-7.227 1.37-2.604 2.05-5.241 2.05-7.91 0-6.185-1.79-12.337-5.37-18.457v-0.391c0-0.586 0.2-1.074 0.59-1.465 0.52-0.521 1.11-0.781 1.76-0.781"/>
	<path d="m1055.6 317.85v-25h3.13c0 3.711 0.72 7.422 2.15 11.133 1.56 4.036 3.29 7.552 5.17 10.547 1.37 2.148 3.42 5.436 6.16 9.863 2.08 3.386 3.84 6.934 5.27 10.645s2.15 7.422 2.15 11.132c0 6.771-1.4 13.672-4.2 20.704-0.52 0.781-1.14 1.171-1.86 1.171-0.65 0-1.23-0.26-1.76-0.781-0.39-0.39-0.58-0.879-0.58-1.465v-0.488c2.8-6.445 4.2-12.825 4.2-19.141 0-3.255-0.98-6.77-2.93-10.546-1.95-3.842-3.94-6.901-5.96-9.18-2.28-2.669-4.88-5.534-7.81-8.594h-3.13"/>
	<path d="m1399.4 361.6v-25h3.12c0 3.711 0.72 7.422 2.15 11.133 1.57 4.036 3.29 7.552 5.18 10.547 1.37 2.148 3.42 5.436 6.15 9.863 2.08 3.385 3.84 6.933 5.27 10.644 1.44 3.711 2.15 7.422 2.15 11.133 0 6.771-1.4 13.672-4.2 20.703-0.52 0.782-1.14 1.172-1.85 1.172-0.65 0-1.24-0.26-1.76-0.781-0.39-0.391-0.59-0.879-0.59-1.465v-0.488c2.8-6.445 4.2-12.826 4.2-19.141 0-3.255-0.97-6.771-2.93-10.547-1.95-3.841-3.93-6.901-5.95-9.179-2.28-2.67-4.89-5.534-7.82-8.594h-3.12"/>
	<path d="m1789.5 327.22v-25h3.13c0 3.711 0.71 7.422 2.15 11.133 1.56 4.036 3.28 7.552 5.17 10.546 1.37 2.149 3.42 5.437 6.15 9.864 2.09 3.385 3.85 6.933 5.28 10.644s2.15 7.422 2.15 11.133c0 6.771-1.4 13.672-4.2 20.703-0.52 0.781-1.14 1.172-1.86 1.172-0.65 0-1.24-0.26-1.76-0.781-0.39-0.391-0.58-0.879-0.58-1.465v-0.488c2.8-6.446 4.2-12.826 4.2-19.141 0-3.255-0.98-6.771-2.93-10.547-1.96-3.841-3.94-6.901-5.96-9.18-2.28-2.669-4.88-5.533-7.81-8.593h-3.13"/>
	<path d="m1950.7 311.6v-25h3.12c0 3.711 0.72 7.422 2.15 11.133 1.56 4.036 3.29 7.552 5.18 10.546 1.37 2.149 3.42 5.437 6.15 9.864 2.08 3.385 3.84 6.933 5.27 10.644 1.44 3.711 2.15 7.422 2.15 11.133 0 6.771-1.4 13.672-4.2 20.703-0.52 0.781-1.14 1.172-1.85 1.172-0.65 0-1.24-0.26-1.76-0.781-0.39-0.391-0.59-0.879-0.59-1.465v-0.488c2.8-6.446 4.2-12.826 4.2-19.141 0-3.255-0.97-6.771-2.93-10.547-1.95-3.841-3.94-6.901-5.95-9.18-2.28-2.669-4.89-5.533-7.82-8.593h-3.12"/>
	<path d="m2136.5 286.6c0 3.32 0.71 6.64 2.15 9.961 1.36 3.255 3.06 6.347 5.07 9.277l5.86 8.594c1.96 2.669 3.65 5.761 5.08 9.277 1.43 3.255 2.15 6.543 2.15 9.863 0 3.06-0.78 6.25-2.34 9.571 1.95 3.971 2.93 7.845 2.93 11.621 0 5.989-1.4 12.109-4.2 18.359-0.52 0.781-1.14 1.172-1.86 1.172-0.65 0-1.23-0.26-1.76-0.781-0.39-0.391-0.58-0.879-0.58-1.465v-0.488c2.8-5.534 4.2-11.133 4.2-16.797 0-2.539-0.49-4.883-1.47-7.031-1.17-2.54-2.6-4.883-4.29-7.032-2.15-2.799-3.85-4.817-5.08-6.054-1.7-1.693-3.65-3.549-5.86-5.567v7.52h-3.13v-50h3.13m15.33 51.66c0.46-1.367 0.68-2.93 0.68-4.688 0-2.278-0.45-4.589-1.36-6.933-0.98-2.344-2.35-4.72-4.1-7.129-1.63-2.018-3.29-4.004-4.99-5.957-1.3-1.432-3.15-3.32-5.56-5.664 0 2.669 0.55 5.501 1.66 8.496 1.17 2.799 2.37 5.241 3.61 7.324 1.43 2.214 3.19 4.72 5.28 7.52 2.08 2.799 3.67 5.143 4.78 7.031"/>
	<path d="m1545.2 453.11c-1.11-1.107-1.67-2.442-1.67-4.004 0-1.563 0.56-2.897 1.67-4.004 1.1-1.107 2.44-1.66 4-1.66s2.9 0.553 4 1.66c1.11 1.107 1.66 2.441 1.66 4.004 0 1.562-0.55 2.897-1.66 4.004-1.1 1.107-2.44 1.66-4 1.66s-2.9-0.553-4-1.66"/>
	<path d="m1545.2 403.11c-1.11-1.107-1.67-2.442-1.67-4.004 0-1.563 0.56-2.897 1.67-4.004 1.1-1.107 2.44-1.66 4-1.66s2.9 0.553 4 1.66c1.11 1.107 1.66 2.441 1.66 4.004 0 1.562-0.55 2.897-1.66 4.004-1.1 1.106-2.44 1.66-4 1.66s-2.9-0.554-4-1.66"/>
	<path d="m1964.3 403.11c-1.11-1.107-1.66-2.442-1.66-4.004 0-1.563 0.55-2.897 1.66-4.004s2.44-1.66 4-1.66c1.57 0 2.9 0.553 4.01 1.66 1.1 1.107 1.66 2.441 1.66 4.004 0 1.562-0.56 2.897-1.66 4.004-1.11 1.106-2.44 1.66-4.01 1.66-1.56 0-2.89-0.554-4-1.66"/>
	<path d="m1964.3 378.1c-1.11-1.107-1.66-2.441-1.66-4.004 0-1.562 0.55-2.897 1.66-4.004 1.11-1.106 2.44-1.66 4-1.66 1.57 0 2.9 0.554 4.01 1.66 1.1 1.107 1.66 2.442 1.66 4.004 0 1.563-0.56 2.897-1.66 4.004-1.11 1.107-2.44 1.66-4.01 1.66-1.56 0-2.89-0.553-4-1.66"/>
</svg>
