<?xml version="1.0" encoding="utf-8"?>                                  
<svg xmlns="http://www.w3.org/2000/svg" version="1.2" viewBox="560 270 1926 845">
  <title>Chapter 13 score.</title>
  <path d="m560 311.6h1926.1" fill="none" stroke="#000" stroke-linejoin="bevel" stroke-width="2"/>
  <path d="m560 336.6h1926.1" fill="none" stroke="#000" stroke-linejoin="bevel" stroke-width="2"/>
  <path d="m560 361.6h1926.1" fill="none" stroke="#000" stroke-linejoin="bevel" stroke-width="2"/>
  <path d="m560 386.6h1926.1" fill="none" stroke="#000" stroke-linejoin="bevel" stroke-width="2"/>
  <path d="m560 411.6h1926.1" fill="none" stroke="#000" stroke-linejoin="bevel" stroke-width="2"/>
  <path d="m560 636.62h1926.1" fill="none" stroke="#000" stroke-linejoin="bevel" stroke-width="2"/>
  <path d="m560 661.62h1926.1" fill="none" stroke="#000" stroke-linejoin="bevel" stroke-width="2"/>
  <path d="m560 686.62h1926.1" fill="none" stroke="#000" stroke-linejoin="bevel" stroke-width="2"/>
  <path d="m560 711.62h1926.1" fill="none" stroke="#000" stroke-linejoin="bevel" stroke-width="2"/>
  <path d="m560 736.62h1926.1" fill="none" stroke="#000" stroke-linejoin="bevel" stroke-width="2"/>
  <path d="m560 961.64h807.32" fill="none" stroke="#000" stroke-linejoin="bevel" stroke-width="2"/>
  <path d="m560 986.64h807.32" fill="none" stroke="#000" stroke-linejoin="bevel" stroke-width="2"/>
  <path d="m560 1011.6h807.32" fill="none" stroke="#000" stroke-linejoin="bevel" stroke-width="2"/>
  <path d="m560 1036.6h807.32" fill="none" stroke="#000" stroke-linejoin="bevel" stroke-width="2"/>
  <path d="m560 1061.6h807.32" fill="none" stroke="#000" stroke-linejoin="bevel" stroke-width="2"/>
  <path d="m1367.3 961.64h603.26" fill="none" stroke="#000" stroke-linejoin="bevel" stroke-width="2"/>
  <path d="m1367.3 986.64h603.26" fill="none" stroke="#000" stroke-linejoin="bevel" stroke-width="2"/>
  <path d="m1367.3 1011.6h603.26" fill="none" stroke="#000" stroke-linejoin="bevel" stroke-width="2"/>
  <path d="m1367.3 1036.6h603.26" fill="none" stroke="#000" stroke-linejoin="bevel" stroke-width="2"/>
  <path d="m1367.3 1061.6h603.26" fill="none" stroke="#000" stroke-linejoin="bevel" stroke-width="2"/>
  <path d="m1230.3 434.1c26.53 26.844 79.6 26.844 106.13 0-26.53 30.844-79.6 30.844-106.13 0" fill-rule="evenodd" stroke="#000" stroke-linecap="round" stroke-linejoin="round" stroke-width="1.75"/>
  <path d="m819.67 746.62c22.134 22.907 66.401 22.907 88.535 0-22.134 26.907-66.401 26.907-88.535 0" fill-rule="evenodd" stroke="#000" stroke-linecap="round" stroke-linejoin="round" stroke-width="1.75"/>
  <path d="m1421.7 746.62c32.49 36.195 103.32 42.445 141.65 12.5-38.68 33.93-109.51 27.679-141.65-12.5" fill-rule="evenodd" stroke="#000" stroke-linecap="round" stroke-linejoin="round" stroke-width="1.75"/>
  <path d="m1186.8 310.6v102.01" stroke="#000" stroke-linejoin="bevel" stroke-width="4"/>
  <path d="m2484.1 310.6v102.01" stroke="#000" stroke-linejoin="bevel" stroke-width="4"/>
  <path d="m1885.3 635.62v102.01" stroke="#000" stroke-linejoin="bevel" stroke-width="4"/>
  <path d="m1365.3 960.64v102" stroke="#000" stroke-linejoin="bevel" stroke-width="4"/>
  <path d="m2162 661.62c0.85-0.456 1.69-0.684 2.54-0.684s1.69 0.228 2.54 0.684l-0.29 18.261 10.64-1.953h0.39c1.17 0 1.76 0.554 1.76 1.66l0.68 57.032c-0.84 0.455-1.69 0.683-2.54 0.683-0.84 0-1.69-0.228-2.53-0.683l0.29-18.262-10.55 1.953h-0.39c-1.17 0-1.76-0.553-1.76-1.66l-0.78-57.031m13.58 46.972 0.29-20.703-9.18 1.758-0.29 20.703 9.18-1.758"/>
  <path d="m857.95 436.6h47.917" stroke="#000" stroke-linecap="square" stroke-linejoin="bevel" stroke-width="4"/>
  <path d="m1017.6 436.6h47.92" stroke="#000" stroke-linecap="square" stroke-linejoin="bevel" stroke-width="4"/>
  <path d="m2161.5 436.6h47.91" stroke="#000" stroke-linecap="square" stroke-linejoin="bevel" stroke-width="4"/>
  <path d="m2368.5 436.6h47.92" stroke="#000" stroke-linecap="square" stroke-linejoin="bevel" stroke-width="4"/>
  <path d="m1394.3 1086.6h49.72" stroke="#000" stroke-linecap="square" stroke-linejoin="bevel" stroke-width="4"/>
  <path d="m1728.4 1086.6h47.92" stroke="#000" stroke-linecap="square" stroke-linejoin="bevel" stroke-width="4"/>
  <path d="m896.74 431.91v-82.81" stroke="#000" stroke-linecap="round" stroke-linejoin="bevel" stroke-width="3.25"/>
  <path d="m1056.4 431.91v-82.81" stroke="#000" stroke-linecap="round" stroke-linejoin="bevel" stroke-width="3.25"/>
  <path d="m1245.1 406.91v-82.81" stroke="#000" stroke-linecap="round" stroke-linejoin="bevel" stroke-width="3.25"/>
  <path d="m1351.2 406.91v-82.81" stroke="#000" stroke-linecap="round" stroke-linejoin="bevel" stroke-width="3.25"/>
  <path d="m1457.3 406.91v-82.81" stroke="#000" stroke-linecap="round" stroke-linejoin="bevel" stroke-width="3.25"/>
  <path d="m1627.2 406.91v-82.81" stroke="#000" stroke-linecap="round" stroke-linejoin="bevel" stroke-width="3.25"/>
  <path d="m1797 406.91v-82.81" stroke="#000" stroke-linecap="round" stroke-linejoin="bevel" stroke-width="3.25"/>
  <path d="m1966.8 406.91v-82.81" stroke="#000" stroke-linecap="round" stroke-linejoin="bevel" stroke-width="3.25"/>
  <path d="m2200.2 431.91v-95.311" stroke="#000" stroke-linecap="round" stroke-linejoin="bevel" stroke-width="3.25"/>
  <path d="m2407.3 431.91v-82.81" stroke="#000" stroke-linecap="round" stroke-linejoin="bevel" stroke-width="3.25"/>
  <path d="m834.5 719.43v-82.81" stroke="#000" stroke-linecap="round" stroke-linejoin="bevel" stroke-width="3.25"/>
  <path d="m923.04 719.43v-82.81" stroke="#000" stroke-linecap="round" stroke-linejoin="bevel" stroke-width="3.25"/>
  <path d="m1011.6 719.43v-82.81" stroke="#000" stroke-linecap="round" stroke-linejoin="bevel" stroke-width="3.25"/>
  <path d="m1153.2 719.43v-82.81" stroke="#000" stroke-linecap="round" stroke-linejoin="bevel" stroke-width="3.25"/>
  <path d="m1294.9 706.93v-79.685" stroke="#000" stroke-linecap="round" stroke-linejoin="bevel" stroke-width="3.25"/>
  <path d="m1436.5 719.43v-82.81" stroke="#000" stroke-linecap="round" stroke-linejoin="bevel" stroke-width="3.25"/>
  <path d="m1578.2 731.93v-82.809" stroke="#000" stroke-linecap="round" stroke-linejoin="bevel" stroke-width="3.25"/>
  <path d="m1773 719.43v-82.81" stroke="#000" stroke-linecap="round" stroke-linejoin="bevel" stroke-width="3.25"/>
  <path d="m1943.6 706.93v-95.311" stroke="#000" stroke-linecap="round" stroke-linejoin="bevel" stroke-width="3.25"/>
  <path d="m2124.4 706.93v-82.81" stroke="#000" stroke-linecap="round" stroke-linejoin="bevel" stroke-width="3.25"/>
  <path d="m2217 694.43v-76.559" stroke="#000" stroke-linecap="round" stroke-linejoin="bevel" stroke-width="3.25"/>
  <path d="m2365.2 694.43v-76.559" stroke="#000" stroke-linecap="round" stroke-linejoin="bevel" stroke-width="3.25"/>
  <path d="m834.5 1031.9v-70.302" stroke="#000" stroke-linecap="round" stroke-linejoin="bevel" stroke-width="3.25"/>
  <path d="m932.73 1044.4v-70.301" stroke="#000" stroke-linecap="round" stroke-linejoin="bevel" stroke-width="3.25"/>
  <path d="m1031 1056.9v-70.3" stroke="#000" stroke-linecap="round" stroke-linejoin="bevel" stroke-width="3.25"/>
  <path d="m1129.2 1044.4v-82.802" stroke="#000" stroke-linecap="round" stroke-linejoin="bevel" stroke-width="3.25"/>
  <path d="m1261.9 1056.9v-82.801" stroke="#000" stroke-linecap="round" stroke-linejoin="bevel" stroke-width="3.25"/>
  <path d="m1434.9 1082.8v-83.656" stroke="#000" stroke-linecap="round" stroke-linejoin="bevel" stroke-width="3.25"/>
  <path d="m1767.2 1082v-82.806" stroke="#000" stroke-linecap="round" stroke-linejoin="bevel" stroke-width="3.25"/>
  <path d="m887.42 422.84c3.125 0 5.761 0.813 7.91 2.441 2.018 1.758 3.027 3.971 3.027 6.641 0 4.492-2.311 8.691-6.933 12.597-4.688 3.907-9.701 5.86-15.039 5.86-3.125 0-5.762-0.814-7.911-2.442-2.018-1.758-3.027-3.971-3.027-6.64 0-4.493 2.344-8.692 7.031-12.598 4.558-3.906 9.538-5.859 14.942-5.859"/>
  <path d="m1047.1 422.84c3.13 0 5.76 0.813 7.91 2.441 2.02 1.758 3.03 3.971 3.03 6.641 0 4.492-2.31 8.691-6.93 12.597-4.69 3.907-9.7 5.86-15.04 5.86-3.13 0-5.76-0.814-7.91-2.442-2.02-1.758-3.03-3.971-3.03-6.64 0-4.493 2.34-8.692 7.03-12.598 4.56-3.906 9.54-5.859 14.94-5.859"/>
  <path d="m1235.8 397.83c3.12 0 5.76 0.814 7.91 2.441 2.01 1.758 3.02 3.972 3.02 6.641 0 4.492-2.31 8.692-6.93 12.598-4.69 3.906-9.7 5.859-15.04 5.859-3.12 0-5.76-0.814-7.91-2.441-2.02-1.758-3.03-3.972-3.03-6.641 0-4.492 2.35-8.691 7.04-12.598 4.55-3.906 9.53-5.859 14.94-5.859"/>
  <path d="m1341.9 397.83c3.12 0 5.76 0.814 7.91 2.441 2.01 1.758 3.02 3.972 3.02 6.641 0 4.492-2.31 8.692-6.93 12.598-4.69 3.906-9.7 5.859-15.04 5.859-3.12 0-5.76-0.814-7.91-2.441-2.02-1.758-3.03-3.972-3.03-6.641 0-4.492 2.35-8.691 7.03-12.598 4.56-3.906 9.54-5.859 14.95-5.859"/>
  <path d="m1448 397.83c3.13 0 5.77 0.814 7.91 2.441 2.02 1.758 3.03 3.972 3.03 6.641 0 4.492-2.31 8.692-6.93 12.598-4.69 3.906-9.7 5.859-15.04 5.859-3.13 0-5.76-0.814-7.91-2.441-2.02-1.758-3.03-3.972-3.03-6.641 0-4.492 2.35-8.691 7.03-12.598 4.56-3.906 9.54-5.859 14.94-5.859"/>
  <path d="m1617.8 397.83c3.13 0 5.76 0.814 7.91 2.441 2.02 1.758 3.03 3.972 3.03 6.641 0 4.492-2.31 8.692-6.93 12.598-4.69 3.906-9.71 5.859-15.04 5.859-3.13 0-5.77-0.814-7.91-2.441-2.02-1.758-3.03-3.972-3.03-6.641 0-4.492 2.34-8.691 7.03-12.598 4.56-3.906 9.54-5.859 14.94-5.859"/>
  <path d="m1787.6 397.83c3.12 0 5.76 0.814 7.91 2.441 2.02 1.758 3.03 3.972 3.03 6.641 0 4.492-2.32 8.692-6.94 12.598-4.69 3.906-9.7 5.859-15.04 5.859-3.12 0-5.76-0.814-7.91-2.441-2.02-1.758-3.02-3.972-3.02-6.641 0-4.492 2.34-8.691 7.03-12.598 4.55-3.906 9.53-5.859 14.94-5.859"/>
  <path d="m1957.4 397.83c3.13 0 5.77 0.814 7.91 2.441 2.02 1.758 3.03 3.972 3.03 6.641 0 4.492-2.31 8.692-6.93 12.598-4.69 3.906-9.7 5.859-15.04 5.859-3.13 0-5.76-0.814-7.91-2.441-2.02-1.758-3.03-3.972-3.03-6.641 0-4.492 2.35-8.691 7.03-12.598 4.56-3.906 9.54-5.859 14.94-5.859"/>
  <path d="m2190.9 422.84c3.12 0 5.76 0.813 7.91 2.441 2.02 1.758 3.03 3.971 3.03 6.641 0 4.492-2.32 8.691-6.94 12.597-4.68 3.907-9.7 5.86-15.04 5.86-3.12 0-5.76-0.814-7.91-2.442-2.01-1.758-3.02-3.971-3.02-6.64 0-4.493 2.34-8.692 7.03-12.598 4.55-3.906 9.53-5.859 14.94-5.859"/>
  <path d="m2398 422.84c3.13 0 5.77 0.813 7.91 2.441 2.02 1.758 3.03 3.971 3.03 6.641 0 4.492-2.31 8.691-6.93 12.597-4.69 3.907-9.7 5.86-15.04 5.86-3.13 0-5.76-0.814-7.91-2.442-2.02-1.758-3.03-3.971-3.03-6.64 0-4.493 2.35-8.692 7.03-12.598 4.56-3.906 9.54-5.859 14.94-5.859"/>
  <path d="m825.18 710.35c3.125 0 5.762 0.814 7.911 2.441 2.018 1.758 3.027 3.972 3.027 6.641 0 4.492-2.311 8.691-6.934 12.597-4.687 3.907-9.7 5.86-15.039 5.86-3.125 0-5.761-0.814-7.91-2.442-2.018-1.757-3.027-3.971-3.027-6.64 0-4.492 2.344-8.692 7.031-12.598 4.557-3.906 9.538-5.859 14.941-5.859"/>
  <path d="m913.72 710.35c3.125 0 5.762 0.814 7.911 2.441 2.018 1.758 3.027 3.972 3.027 6.641 0 4.492-2.311 8.691-6.934 12.597-4.687 3.907-9.7 5.86-15.039 5.86-3.125 0-5.761-0.814-7.91-2.442-2.018-1.757-3.027-3.971-3.027-6.64 0-4.492 2.343-8.692 7.031-12.598 4.557-3.906 9.538-5.859 14.941-5.859"/>
  <path d="m1002.3 710.35c3.13 0 5.76 0.814 7.91 2.441 2.02 1.758 3.03 3.972 3.03 6.641 0 4.492-2.31 8.691-6.93 12.597-4.69 3.907-9.7 5.86-15.043 5.86-3.125 0-5.762-0.814-7.91-2.442-2.018-1.757-3.027-3.971-3.027-6.64 0-4.492 2.343-8.692 7.031-12.598 4.557-3.906 9.539-5.859 14.939-5.859"/>
  <path d="m1143.9 710.35c3.12 0 5.76 0.814 7.91 2.441 2.02 1.758 3.03 3.972 3.03 6.641 0 4.492-2.32 8.691-6.94 12.597-4.69 3.907-9.7 5.86-15.04 5.86-3.12 0-5.76-0.814-7.91-2.442-2.02-1.757-3.02-3.971-3.02-6.64 0-4.492 2.34-8.692 7.03-12.598 4.55-3.906 9.53-5.859 14.94-5.859"/>
  <path d="m1285.6 697.85c3.13 0 5.77 0.814 7.91 2.441 2.02 1.758 3.03 3.972 3.03 6.641 0 4.492-2.31 8.691-6.93 12.598-4.69 3.906-9.7 5.859-15.04 5.859-3.13 0-5.76-0.814-7.91-2.441-2.02-1.758-3.03-3.972-3.03-6.641 0-4.492 2.35-8.691 7.03-12.598 4.56-3.906 9.54-5.859 14.94-5.859"/>
  <path d="m1427.2 710.35c3.13 0 5.76 0.814 7.91 2.441 2.02 1.758 3.03 3.972 3.03 6.641 0 4.492-2.31 8.691-6.94 12.597-4.68 3.907-9.7 5.86-15.04 5.86-3.12 0-5.76-0.814-7.91-2.442-2.01-1.757-3.02-3.971-3.02-6.64 0-4.492 2.34-8.692 7.03-12.598 4.56-3.906 9.54-5.859 14.94-5.859"/>
  <path d="m1568.9 722.86c3.12 0 5.76 0.813 7.91 2.441 2.01 1.758 3.02 3.971 3.02 6.641 0 4.492-2.31 8.691-6.93 12.597-4.69 3.906-9.7 5.86-15.04 5.86-3.12 0-5.76-0.814-7.91-2.442-2.02-1.758-3.03-3.971-3.03-6.64 0-4.493 2.35-8.692 7.03-12.598 4.56-3.906 9.54-5.859 14.95-5.859"/>
  <path d="m1763.7 710.35c3.13 0 5.76 0.814 7.91 2.441 2.02 1.758 3.03 3.972 3.03 6.641 0 4.492-2.31 8.691-6.93 12.597-4.69 3.907-9.7 5.86-15.04 5.86-3.13 0-5.76-0.814-7.91-2.442-2.02-1.757-3.03-3.971-3.03-6.64 0-4.492 2.34-8.692 7.03-12.598 4.56-3.906 9.54-5.859 14.94-5.859"/>
  <path d="m1934.3 697.85c3.13 0 5.76 0.814 7.91 2.441 2.02 1.758 3.03 3.972 3.03 6.641 0 4.492-2.31 8.691-6.94 12.598-4.68 3.906-9.7 5.859-15.03 5.859-3.13 0-5.77-0.814-7.91-2.441-2.02-1.758-3.03-3.972-3.03-6.641 0-4.492 2.34-8.691 7.03-12.598 4.56-3.906 9.54-5.859 14.94-5.859"/>
  <path d="m2115 697.85c3.13 0 5.76 0.814 7.91 2.441 2.02 1.758 3.03 3.972 3.03 6.641 0 4.492-2.31 8.691-6.93 12.598-4.69 3.906-9.7 5.859-15.04 5.859-3.13 0-5.77-0.814-7.91-2.441-2.02-1.758-3.03-3.972-3.03-6.641 0-4.492 2.34-8.691 7.03-12.598 4.56-3.906 9.54-5.859 14.94-5.859"/>
  <path d="m2207.7 685.35c3.12 0 5.76 0.814 7.91 2.442 2.02 1.757 3.03 3.971 3.03 6.64 0 4.492-2.32 8.692-6.94 12.598-4.69 3.906-9.7 5.859-15.04 5.859-3.12 0-5.76-0.814-7.91-2.441-2.02-1.758-3.02-3.972-3.02-6.641 0-4.492 2.34-8.691 7.03-12.597 4.55-3.907 9.53-5.86 14.94-5.86"/>
  <path d="m2355.9 685.35c3.12 0 5.76 0.814 7.91 2.442 2.01 1.757 3.02 3.971 3.02 6.64 0 4.492-2.31 8.692-6.93 12.598-4.69 3.906-9.7 5.859-15.04 5.859-3.12 0-5.76-0.814-7.91-2.441-2.02-1.758-3.03-3.972-3.03-6.641 0-4.492 2.35-8.691 7.03-12.597 4.56-3.907 9.54-5.86 14.95-5.86"/>
  <path d="m825.18 1022.9c3.125 0 5.762 0.81 7.911 2.44 2.018 1.76 3.027 3.97 3.027 6.64 0 4.49-2.311 8.69-6.934 12.6-4.687 3.91-9.7 5.86-15.039 5.86-3.125 0-5.761-0.82-7.91-2.44-2.018-1.76-3.027-3.97-3.027-6.64 0-4.5 2.344-8.69 7.031-12.6 4.557-3.91 9.538-5.86 14.941-5.86"/>
  <path d="m923.41 1035.4c3.125 0 5.762 0.81 7.911 2.44 2.018 1.76 3.027 3.97 3.027 6.64 0 4.49-2.311 8.69-6.934 12.6-4.687 3.91-9.7 5.86-15.039 5.86-3.125 0-5.762-0.81-7.91-2.44-2.018-1.76-3.027-3.97-3.027-6.64 0-4.49 2.343-8.69 7.031-12.6 4.557-3.91 9.538-5.86 14.941-5.86"/>
  <path d="m1021.6 1047.9c3.13 0 5.77 0.81 7.91 2.44 2.02 1.76 3.03 3.97 3.03 6.64 0 4.5-2.31 8.69-6.93 12.6-4.69 3.91-9.7 5.86-15.04 5.86-3.13 0-5.76-0.81-7.91-2.44-2.02-1.76-3.03-3.97-3.03-6.64 0-4.49 2.35-8.69 7.03-12.6 4.56-3.91 9.54-5.86 14.94-5.86"/>
  <path d="m1119.9 1035.4c3.12 0 5.76 0.81 7.91 2.44 2.01 1.76 3.02 3.97 3.02 6.64 0 4.49-2.31 8.69-6.93 12.6-4.69 3.91-9.7 5.86-15.04 5.86-3.12 0-5.76-0.81-7.91-2.44-2.02-1.76-3.03-3.97-3.03-6.64 0-4.49 2.35-8.69 7.03-12.6 4.56-3.91 9.54-5.86 14.95-5.86"/>
  <path d="m1252.6 1047.9c3.13 0 5.76 0.81 7.91 2.44 2.02 1.76 3.03 3.97 3.03 6.64 0 4.5-2.31 8.69-6.93 12.6-4.69 3.91-9.7 5.86-15.04 5.86-3.13 0-5.76-0.81-7.91-2.44-2.02-1.76-3.03-3.97-3.03-6.64 0-4.49 2.34-8.69 7.03-12.6 4.56-3.91 9.54-5.86 14.94-5.86"/>
  <path d="m1433.4 1080.1c0-1.11-0.42-2.05-1.27-2.83-0.84-0.85-1.82-1.27-2.93-1.27-1.95 0-5.89 1.95-11.81 5.86-6.12 3.97-9.87 6.8-11.23 8.49-0.72 0.91-1.08 1.86-1.08 2.84 0 1.1 0.43 2.05 1.27 2.83 0.78 0.84 1.76 1.27 2.93 1.27 1.89 0 5.86-1.96 11.92-5.86 5.99-3.91 9.7-6.74 11.13-8.5 0.72-0.85 1.07-1.79 1.07-2.83m-5.17-7.23c5.6 0 8.4 2.41 8.4 7.23 0 2.34-0.69 5.08-2.05 8.2-1.37 3.06-3.19 5.41-5.47 7.03-5.02 3.39-11.3 5.08-18.85 5.08-5.6 0-8.4-2.41-8.4-7.22 0-2.15 0.68-4.86 2.05-8.11 1.3-3.13 3.13-5.5 5.47-7.13 5.01-3.38 11.3-5.08 18.85-5.08"/>
  <path d="m1757.8 1072.9c3.12 0 5.76 0.82 7.91 2.44 2.01 1.76 3.02 3.98 3.02 6.64 0 4.5-2.31 8.7-6.93 12.6-4.69 3.91-9.7 5.86-15.04 5.86-3.12 0-5.76-0.81-7.91-2.44-2.02-1.76-3.03-3.97-3.03-6.64 0-4.49 2.35-8.69 7.03-12.6 4.56-3.9 9.54-5.86 14.95-5.86"/>
  <path d="m616.72 361.02h0.586c0.26-0.065 0.488-0.098 0.684-0.098 7.291 0 13.281 2.572 17.968 7.715 4.688 5.078 7.032 11.003 7.032 17.774 0 8.398-3.483 15.234-10.45 20.508-1.822 1.432-4.199 2.604-7.128 3.515 0.325 4.232 0.488 7.65 0.488 10.254 0 0.521-0.065 2.409-0.195 5.664-0.261 6.055-2.344 11.296-6.25 15.723-3.777 4.362-8.464 6.543-14.063 6.543-5.273 0-9.766-1.856-13.477-5.567-3.71-3.776-5.566-8.333-5.566-13.672 0-2.799 1.074-5.175 3.223-7.128 2.213-1.954 4.785-2.93 7.715-2.93 2.604 0 4.785 1.009 6.543 3.027 1.822 1.888 2.734 4.232 2.734 7.031 0 2.54-0.912 4.721-2.734 6.543-1.823 1.823-4.004 2.735-6.543 2.735-1.042 0-2.051-0.195-3.028-0.586 2.865 4.232 6.673 6.348 11.426 6.348 4.492 0 8.171-1.823 11.035-5.469 2.995-3.776 4.623-8.171 4.883-13.184 0.13-3.125 0.195-4.915 0.195-5.371 0-3.646-0.13-6.641-0.39-8.984-3.256 0.521-6.153 0.781-8.692 0.781-9.049 0-16.764-3.581-23.144-10.742-6.25-7.227-9.375-15.821-9.375-25.781 0-2.084 0.195-4.2 0.586-6.348 0.39-1.758 0.879-3.679 1.464-5.762 0.326-1.172 1.205-3.06 2.637-5.664 0.521-0.781 1.107-1.758 1.758-2.93 0.651-1.171 1.107-1.953 1.367-2.343 0.651-1.302 1.921-3.06 3.809-5.274 0.521-0.586 1.058-1.237 1.611-1.953 0.554-0.716 1.026-1.302 1.416-1.758 0.391-0.455 0.684-0.814 0.879-1.074s1.66-1.986 4.395-5.176c0.651-0.651 1.285-1.351 1.904-2.099 0.618-0.749 1.123-1.335 1.514-1.758 0.39-0.423 0.683-0.733 0.878-0.928-2.343-7.747-3.808-13.932-4.394-18.555-0.456-3.71-0.684-8.789-0.684-15.234 0-5.664 1.302-10.97 3.907-15.918 2.539-5.143 6.087-9.342 10.644-12.598 0.261-0.195 0.586-0.293 0.977-0.293 0.455 0 0.781 0.098 0.976 0.293 3.516 4.232 6.543 9.734 9.082 16.504 2.604 6.771 3.907 12.924 3.907 18.457 0 6.25-1.498 12.11-4.493 17.579-3.385 5.794-7.747 11.783-13.086 17.968 1.368 4.297 3.19 11.035 5.469 20.215m8.301 45.41c3.385-1.237 6.022-3.353 7.91-6.347 2.083-2.865 3.125-6.088 3.125-9.668 0-4.623-1.562-8.724-4.687-12.305-3.191-3.711-7.26-5.794-12.207-6.25 2.799 13.737 4.752 25.26 5.859 34.57m-37.793-22.558c0 6.445 2.604 12.109 7.812 16.992 5.339 4.752 11.329 7.129 17.969 7.129 2.735 0 5.404-0.196 8.008-0.586-1.042-9.896-3.092-21.745-6.152-35.547-3.711 0.391-6.674 1.693-8.887 3.906-2.148 2.279-3.223 4.85-3.223 7.715 0 4.948 2.637 8.952 7.91 12.012 0.456 0.455 0.684 0.944 0.684 1.465 0 0.52-0.228 1.009-0.684 1.464-0.39 0.456-0.878 0.684-1.464 0.684-0.065 0-0.358-0.065-0.879-0.195-3.711-2.019-6.576-4.623-8.594-7.813-1.888-3.385-2.832-6.803-2.832-10.254 0-4.492 1.4-8.561 4.199-12.207 2.93-3.646 6.738-5.989 11.426-7.031-1.823-7.292-3.32-12.988-4.492-17.09-1.042 1.172-2.295 2.588-3.76 4.248s-2.328 2.653-2.588 2.979c-2.344 3.06-4.134 5.436-5.371 7.129-2.214 3.06-3.841 5.696-4.883 7.91-1.107 2.474-2.083 5.176-2.93 8.105-0.846 2.8-1.269 5.795-1.269 8.985m32.617-99.317c-4.883 2.409-8.724 5.86-11.523 10.352-2.865 4.622-4.297 9.603-4.297 14.941 0 4.688 1.172 11.003 3.515 18.946 4.688-5.665 8.204-10.905 10.547-15.723 2.474-5.078 3.711-10.384 3.711-15.918 0-4.167-0.651-8.366-1.953-12.598"/>
  <path d="m616.72 686.04h0.586c0.26-0.066 0.488-0.098 0.684-0.098 7.291 0 13.281 2.572 17.968 7.715 4.688 5.078 7.032 11.002 7.032 17.773 0 8.399-3.483 15.235-10.45 20.508-1.822 1.432-4.199 2.604-7.128 3.516 0.325 4.231 0.488 7.649 0.488 10.254 0 0.52-0.065 2.408-0.195 5.664-0.261 6.054-2.344 11.295-6.25 15.722-3.777 4.362-8.464 6.543-14.063 6.543-5.273 0-9.766-1.855-13.477-5.566-3.71-3.776-5.566-8.334-5.566-13.672 0-2.8 1.074-5.176 3.223-7.129 2.213-1.953 4.785-2.93 7.715-2.93 2.604 0 4.785 1.009 6.543 3.028 1.822 1.888 2.734 4.231 2.734 7.031 0 2.539-0.912 4.72-2.734 6.543-1.823 1.823-4.004 2.734-6.543 2.734-1.042 0-2.051-0.195-3.028-0.586 2.865 4.232 6.673 6.348 11.426 6.348 4.492 0 8.171-1.823 11.035-5.469 2.995-3.776 4.623-8.17 4.883-13.183 0.13-3.125 0.195-4.916 0.195-5.371 0-3.646-0.13-6.641-0.39-8.985-3.256 0.521-6.153 0.781-8.692 0.781-9.049 0-16.764-3.58-23.144-10.742-6.25-7.226-9.375-15.82-9.375-25.781 0-2.083 0.195-4.199 0.586-6.348 0.39-1.757 0.879-3.678 1.464-5.761 0.326-1.172 1.205-3.06 2.637-5.664 0.521-0.782 1.107-1.758 1.758-2.93s1.107-1.953 1.367-2.344c0.651-1.302 1.921-3.06 3.809-5.273 0.521-0.586 1.058-1.237 1.611-1.953 0.554-0.717 1.026-1.303 1.416-1.758 0.391-0.456 0.684-0.814 0.879-1.074 0.195-0.261 1.66-1.986 4.395-5.176 0.651-0.651 1.285-1.351 1.904-2.1 0.618-0.749 1.123-1.334 1.514-1.758 0.39-0.423 0.683-0.732 0.878-0.927-2.343-7.748-3.808-13.933-4.394-18.555-0.456-3.711-0.684-8.789-0.684-15.234 0-5.665 1.302-10.971 3.907-15.918 2.539-5.144 6.087-9.343 10.644-12.598 0.261-0.195 0.586-0.293 0.977-0.293 0.455 0 0.781 0.098 0.976 0.293 3.516 4.232 6.543 9.733 9.082 16.504 2.604 6.771 3.907 12.923 3.907 18.457 0 6.25-1.498 12.109-4.493 17.578-3.385 5.794-7.747 11.784-13.086 17.969 1.368 4.297 3.19 11.035 5.469 20.215m8.301 45.41c3.385-1.237 6.022-3.353 7.91-6.348 2.083-2.865 3.125-6.087 3.125-9.668 0-4.622-1.562-8.724-4.687-12.305-3.191-3.711-7.26-5.794-12.207-6.25 2.799 13.737 4.752 25.261 5.859 34.571m-37.793-22.559c0 6.445 2.604 12.11 7.812 16.992 5.339 4.753 11.329 7.129 17.969 7.129 2.735 0 5.404-0.195 8.008-0.586-1.042-9.896-3.092-21.745-6.152-35.547-3.711 0.391-6.674 1.693-8.887 3.907-2.148 2.278-3.223 4.85-3.223 7.715 0 4.947 2.637 8.951 7.91 12.011 0.456 0.456 0.684 0.944 0.684 1.465s-0.228 1.009-0.684 1.465c-0.39 0.456-0.878 0.684-1.464 0.684-0.065 0-0.358-0.066-0.879-0.196-3.711-2.018-6.576-4.622-8.594-7.812-1.888-3.386-2.832-6.804-2.832-10.254 0-4.492 1.4-8.561 4.199-12.207 2.93-3.646 6.738-5.99 11.426-7.031-1.823-7.292-3.32-12.989-4.492-17.09-1.042 1.172-2.295 2.588-3.76 4.248s-2.328 2.653-2.588 2.978c-2.344 3.06-4.134 5.436-5.371 7.129-2.214 3.06-3.841 5.697-4.883 7.91-1.107 2.474-2.083 5.176-2.93 8.106-0.846 2.799-1.269 5.794-1.269 8.984m32.617-99.316c-4.883 2.409-8.724 5.859-11.523 10.351-2.865 4.623-4.297 9.603-4.297 14.942 0 4.687 1.172 11.002 3.515 18.945 4.688-5.664 8.204-10.905 10.547-15.723 2.474-5.078 3.711-10.384 3.711-15.918 0-4.166-0.651-8.366-1.953-12.597"/>
  <path d="m616.72 1011.1h0.586c0.26-0.06 0.488-0.09 0.684-0.09 7.291 0 13.281 2.57 17.968 7.71 4.688 5.08 7.032 11 7.032 17.77 0 8.4-3.483 15.24-10.45 20.51-1.822 1.43-4.199 2.61-7.128 3.52 0.325 4.23 0.488 7.65 0.488 10.25 0 0.52-0.065 2.41-0.195 5.67-0.261 6.05-2.344 11.29-6.25 15.72-3.777 4.36-8.464 6.54-14.063 6.54-5.273 0-9.766-1.85-13.477-5.57-3.71-3.77-5.566-8.33-5.566-13.67 0-2.8 1.074-5.17 3.223-7.13 2.213-1.95 4.785-2.93 7.715-2.93 2.604 0 4.785 1.01 6.543 3.03 1.822 1.89 2.734 4.23 2.734 7.03 0 2.54-0.912 4.72-2.734 6.55-1.823 1.82-4.004 2.73-6.543 2.73-1.042 0-2.051-0.2-3.028-0.59 2.865 4.24 6.673 6.35 11.426 6.35 4.492 0 8.171-1.82 11.035-5.47 2.995-3.77 4.623-8.17 4.883-13.18 0.13-3.13 0.195-4.92 0.195-5.37 0-3.65-0.13-6.64-0.39-8.99-3.256 0.52-6.153 0.78-8.692 0.78-9.049 0-16.764-3.58-23.144-10.74-6.25-7.22-9.375-15.82-9.375-25.78 0-2.08 0.195-4.2 0.586-6.35 0.39-1.75 0.879-3.67 1.464-5.76 0.326-1.17 1.205-3.06 2.637-5.66 0.521-0.78 1.107-1.76 1.758-2.93s1.107-1.95 1.367-2.35c0.651-1.3 1.921-3.06 3.809-5.27 0.521-0.58 1.058-1.24 1.611-1.95 0.554-0.718 1.026-1.304 1.416-1.76 0.391-0.456 0.684-0.814 0.879-1.074s1.66-1.986 4.395-5.176c0.651-0.651 1.285-1.351 1.904-2.099 0.618-0.749 1.123-1.335 1.514-1.758 0.39-0.423 0.683-0.733 0.878-0.928-2.343-7.747-3.808-13.932-4.394-18.555-0.456-3.711-0.684-8.789-0.684-15.234 0-5.664 1.302-10.97 3.907-15.918 2.539-5.143 6.087-9.342 10.644-12.598 0.261-0.195 0.586-0.293 0.977-0.293 0.455 0 0.781 0.098 0.976 0.293 3.516 4.232 6.543 9.733 9.082 16.504 2.604 6.771 3.907 12.923 3.907 18.457 0 6.25-1.498 12.11-4.493 17.578-3.385 5.795-7.747 11.784-13.086 17.969 1.368 4.302 3.19 11.032 5.469 20.212m8.301 45.41c3.385-1.23 6.022-3.35 7.91-6.34 2.083-2.87 3.125-6.09 3.125-9.67 0-4.62-1.562-8.73-4.687-12.31-3.191-3.71-7.26-5.79-12.207-6.25 2.799 13.74 4.752 25.26 5.859 34.57m-37.793-22.56c0 6.45 2.604 12.11 7.812 17 5.339 4.75 11.329 7.13 17.969 7.13 2.735 0 5.404-0.2 8.008-0.59-1.042-9.9-3.092-21.75-6.152-35.55-3.711 0.39-6.674 1.7-8.887 3.91-2.148 2.28-3.223 4.85-3.223 7.71 0 4.95 2.637 8.96 7.91 12.02 0.456 0.45 0.684 0.94 0.684 1.46s-0.228 1.01-0.684 1.47c-0.39 0.45-0.878 0.68-1.464 0.68-0.065 0-0.358-0.07-0.879-0.2-3.711-2.01-6.576-4.62-8.594-7.81-1.888-3.38-2.832-6.8-2.832-10.25 0-4.49 1.4-8.56 4.199-12.21 2.93-3.65 6.738-5.99 11.426-7.03-1.823-7.29-3.32-12.99-4.492-17.091-1.042 1.171-2.295 2.591-3.76 4.251s-2.328 2.65-2.588 2.98c-2.344 3.06-4.134 5.43-5.371 7.12-2.214 3.06-3.841 5.7-4.883 7.91-1.107 2.48-2.083 5.18-2.93 8.11-0.846 2.8-1.269 5.79-1.269 8.98m32.617-99.312c-4.883 2.409-8.724 5.86-11.523 10.352-2.865 4.622-4.297 9.603-4.297 14.941 0 4.688 1.172 11.003 3.515 18.945 4.688-5.664 8.204-10.904 10.547-15.722 2.474-5.078 3.711-10.384 3.711-15.918 0-4.167-0.651-8.366-1.953-12.598"/>
  <path d="m723.12 370v7.715c0 2.734 0.131 4.915 0.391 6.542 2.148-1.822 3.678-3.19 4.59-4.101 1.042-1.042 2.083-2.474 3.125-4.297s1.562-3.646 1.562-5.469-0.39-3.385-1.172-4.687c-0.781-1.302-1.822-1.953-3.125-1.953-1.562 0-2.864 0.586-3.906 1.757-0.976 1.303-1.465 2.8-1.465 4.493m-4.101 17.871-1.27-59.473c0.912-0.521 1.823-0.781 2.735-0.781 0.911 0 1.823 0.26 2.734 0.781l-0.781 34.473c2.669-2.279 5.729-3.418 9.179-3.418 2.54 0 4.655 1.041 6.348 3.125 1.693 2.083 2.539 4.459 2.539 7.129 0 1.692-0.553 3.483-1.66 5.371-1.042 1.758-2.148 3.125-3.32 4.101-0.651 0.521-2.311 1.823-4.981 3.907-0.781 0.586-1.709 1.269-2.783 2.05-1.074 0.782-1.741 1.27-2.002 1.465-0.456 0.261-0.879 0.781-1.269 1.563-0.456 0.651-0.977 1.204-1.563 1.66-0.456 0.391-1.009 0.586-1.66 0.586s-1.172-0.228-1.563-0.684c-0.455-0.455-0.683-1.074-0.683-1.855"/>
  <path d="m698.12 320v7.714c0 2.735 0.13 4.916 0.39 6.543 2.149-1.823 3.679-3.19 4.59-4.101 1.042-1.042 2.084-2.474 3.125-4.297 1.042-1.823 1.563-3.646 1.563-5.469s-0.391-3.385-1.172-4.687-1.823-1.953-3.125-1.953c-1.563 0-2.865 0.585-3.906 1.757-0.977 1.302-1.465 2.8-1.465 4.493m-4.102 17.871-1.269-59.473c0.911-0.521 1.823-0.781 2.734-0.781 0.912 0 1.823 0.26 2.734 0.781l-0.781 34.473c2.67-2.279 5.729-3.418 9.18-3.418 2.539 0 4.655 1.041 6.348 3.125 1.692 2.083 2.539 4.459 2.539 7.129 0 1.692-0.554 3.483-1.661 5.371-1.041 1.757-2.148 3.125-3.32 4.101-0.651 0.521-2.311 1.823-4.98 3.906-0.782 0.586-1.709 1.27-2.784 2.051-1.074 0.782-1.741 1.27-2.001 1.465-0.456 0.261-0.879 0.781-1.27 1.563-0.456 0.651-0.977 1.204-1.562 1.66-0.456 0.39-1.01 0.586-1.661 0.586s-1.172-0.228-1.562-0.684c-0.456-0.456-0.684-1.074-0.684-1.855"/>
  <path d="m673.12 357.5v7.715c0 2.734 0.13 4.915 0.391 6.543 2.148-1.823 3.678-3.19 4.59-4.102 1.041-1.042 2.083-2.474 3.125-4.297 1.041-1.823 1.562-3.646 1.562-5.468 0-1.823-0.39-3.386-1.172-4.688-0.781-1.302-1.823-1.953-3.125-1.953-1.562 0-2.864 0.586-3.906 1.758-0.976 1.302-1.465 2.799-1.465 4.492m-4.101 17.871-1.27-59.473c0.912-0.521 1.823-0.781 2.735-0.781 0.911 0 1.822 0.26 2.734 0.781l-0.781 34.473c2.669-2.279 5.729-3.418 9.179-3.418 2.539 0 4.655 1.042 6.348 3.125s2.539 4.46 2.539 7.129c0 1.693-0.553 3.483-1.66 5.371-1.042 1.758-2.149 3.125-3.32 4.102-0.651 0.52-2.312 1.822-4.981 3.906-0.781 0.586-1.709 1.269-2.783 2.051-1.074 0.781-1.742 1.269-2.002 1.464-0.456 0.261-0.879 0.782-1.27 1.563-0.455 0.651-0.976 1.204-1.562 1.66-0.456 0.391-1.009 0.586-1.66 0.586s-1.172-0.228-1.563-0.684c-0.455-0.455-0.683-1.074-0.683-1.855"/>
  <path d="m723.12 695.02v7.715c0 2.734 0.131 4.915 0.391 6.543 2.148-1.823 3.678-3.19 4.59-4.102 1.042-1.041 2.083-2.474 3.125-4.296 1.042-1.823 1.562-3.646 1.562-5.469s-0.39-3.386-1.172-4.688c-0.781-1.302-1.822-1.953-3.125-1.953-1.562 0-2.864 0.586-3.906 1.758-0.976 1.302-1.465 2.799-1.465 4.492m-4.101 17.871-1.27-59.472c0.912-0.521 1.823-0.782 2.735-0.782 0.911 0 1.823 0.261 2.734 0.782l-0.781 34.472c2.669-2.278 5.729-3.418 9.179-3.418 2.54 0 4.655 1.042 6.348 3.125 1.693 2.084 2.539 4.46 2.539 7.129 0 1.693-0.553 3.483-1.66 5.371-1.042 1.758-2.148 3.125-3.32 4.102-0.651 0.521-2.311 1.823-4.981 3.906-0.781 0.586-1.709 1.27-2.783 2.051s-1.741 1.269-2.002 1.465c-0.456 0.26-0.879 0.781-1.269 1.562-0.456 0.651-0.977 1.205-1.563 1.66-0.456 0.391-1.009 0.586-1.66 0.586s-1.172-0.228-1.563-0.683c-0.455-0.456-0.683-1.075-0.683-1.856"/>
  <path d="m698.12 645.02v7.715c0 2.734 0.13 4.915 0.39 6.543 2.149-1.823 3.679-3.19 4.59-4.102 1.042-1.041 2.084-2.474 3.125-4.297 1.042-1.823 1.563-3.645 1.563-5.468s-0.391-3.386-1.172-4.688-1.823-1.953-3.125-1.953c-1.563 0-2.865 0.586-3.906 1.758-0.977 1.302-1.465 2.799-1.465 4.492m-4.102 17.871-1.269-59.473c0.911-0.52 1.823-0.781 2.734-0.781 0.912 0 1.823 0.261 2.734 0.781l-0.781 34.473c2.67-2.279 5.729-3.418 9.18-3.418 2.539 0 4.655 1.042 6.348 3.125 1.692 2.083 2.539 4.46 2.539 7.129 0 1.693-0.554 3.483-1.661 5.371-1.041 1.758-2.148 3.125-3.32 4.102-0.651 0.521-2.311 1.823-4.98 3.906-0.782 0.586-1.709 1.269-2.784 2.051-1.074 0.781-1.741 1.269-2.001 1.465-0.456 0.26-0.879 0.781-1.27 1.562-0.456 0.651-0.977 1.204-1.562 1.66-0.456 0.391-1.01 0.586-1.661 0.586s-1.172-0.228-1.562-0.683c-0.456-0.456-0.684-1.075-0.684-1.856"/>
  <path d="m673.12 682.52v7.715c0 2.735 0.13 4.916 0.391 6.543 2.148-1.823 3.678-3.19 4.59-4.101 1.041-1.042 2.083-2.474 3.125-4.297 1.041-1.823 1.562-3.646 1.562-5.469s-0.39-3.385-1.172-4.688c-0.781-1.302-1.823-1.953-3.125-1.953-1.562 0-2.864 0.586-3.906 1.758-0.976 1.302-1.465 2.8-1.465 4.492m-4.101 17.871-1.27-59.472c0.912-0.521 1.823-0.781 2.735-0.781 0.911 0 1.822 0.26 2.734 0.781l-0.781 34.472c2.669-2.278 5.729-3.418 9.179-3.418 2.539 0 4.655 1.042 6.348 3.125 1.693 2.084 2.539 4.46 2.539 7.129 0 1.693-0.553 3.483-1.66 5.371-1.042 1.758-2.149 3.125-3.32 4.102-0.651 0.521-2.312 1.823-4.981 3.906-0.781 0.586-1.709 1.27-2.783 2.051s-1.742 1.27-2.002 1.465c-0.456 0.26-0.879 0.781-1.27 1.562-0.455 0.651-0.976 1.205-1.562 1.661-0.456 0.39-1.009 0.586-1.66 0.586s-1.172-0.228-1.563-0.684c-0.455-0.456-0.683-1.074-0.683-1.856"/>
  <path d="m723.12 1020v7.71c0 2.74 0.131 4.92 0.391 6.54 2.148-1.82 3.678-3.19 4.59-4.1 1.042-1.04 2.083-2.47 3.125-4.29 1.042-1.83 1.562-3.65 1.562-5.47 0-1.83-0.39-3.39-1.172-4.69-0.781-1.3-1.822-1.95-3.125-1.95-1.562 0-2.864 0.58-3.906 1.75-0.976 1.31-1.465 2.8-1.465 4.5m-4.101 17.87-1.27-59.475c0.912-0.521 1.823-0.781 2.735-0.781 0.911 0 1.823 0.26 2.734 0.781l-0.781 34.475c2.669-2.28 5.729-3.42 9.179-3.42 2.54 0 4.655 1.04 6.348 3.12 1.693 2.09 2.539 4.46 2.539 7.13 0 1.7-0.553 3.49-1.66 5.37-1.042 1.76-2.148 3.13-3.32 4.11-0.651 0.52-2.311 1.82-4.981 3.9-0.781 0.59-1.709 1.27-2.783 2.05s-1.741 1.27-2.002 1.47c-0.456 0.26-0.879 0.78-1.269 1.56-0.456 0.65-0.977 1.21-1.563 1.66-0.456 0.39-1.009 0.59-1.66 0.59s-1.172-0.23-1.563-0.69c-0.455-0.45-0.683-1.07-0.683-1.85"/>
  <path d="m698.12 970.04v7.715c0 2.735 0.13 4.916 0.39 6.543 2.149-1.823 3.679-3.19 4.59-4.101 1.042-1.042 2.084-2.474 3.125-4.297 1.042-1.823 1.563-3.646 1.563-5.469s-0.391-3.385-1.172-4.687-1.823-1.954-3.125-1.954c-1.563 0-2.865 0.586-3.906 1.758-0.977 1.302-1.465 2.8-1.465 4.492m-4.102 17.872-1.269-59.473c0.911-0.521 1.823-0.781 2.734-0.781 0.912 0 1.823 0.26 2.734 0.781l-0.781 34.473c2.67-2.279 5.729-3.418 9.18-3.418 2.539 0 4.655 1.041 6.348 3.125 1.692 2.083 2.539 4.459 2.539 7.129 0 1.692-0.554 3.483-1.661 5.371-1.041 1.757-2.148 3.125-3.32 4.101-0.651 0.521-2.311 1.823-4.98 3.906-0.782 0.586-1.709 1.27-2.784 2.051-1.074 0.781-1.741 1.27-2.001 1.465-0.456 0.26-0.879 0.781-1.27 1.563-0.456 0.651-0.977 1.204-1.562 1.66-0.456 0.39-1.01 0.586-1.661 0.586s-1.172-0.228-1.562-0.684c-0.456-0.456-0.684-1.074-0.684-1.855"/>
  <path d="m673.12 1007.5v7.71c0 2.74 0.13 4.92 0.391 6.54 2.148-1.82 3.678-3.19 4.59-4.1 1.041-1.04 2.083-2.47 3.125-4.29 1.041-1.83 1.562-3.65 1.562-5.47 0-1.83-0.39-3.39-1.172-4.69-0.781-1.3-1.823-1.95-3.125-1.95-1.562 0-2.864 0.58-3.906 1.75-0.976 1.31-1.465 2.8-1.465 4.5m-4.101 17.87-1.27-59.476c0.912-0.521 1.823-0.781 2.735-0.781 0.911 0 1.822 0.26 2.734 0.781l-0.781 34.476c2.669-2.28 5.729-3.42 9.179-3.42 2.539 0 4.655 1.04 6.348 3.12 1.693 2.09 2.539 4.46 2.539 7.13 0 1.7-0.553 3.49-1.66 5.37-1.042 1.76-2.149 3.13-3.32 4.11-0.651 0.52-2.312 1.82-4.981 3.9-0.781 0.59-1.709 1.27-2.783 2.05s-1.742 1.27-2.002 1.47c-0.456 0.26-0.879 0.78-1.27 1.56-0.455 0.65-0.976 1.2-1.562 1.66-0.456 0.39-1.009 0.59-1.66 0.59s-1.172-0.23-1.563-0.69c-0.455-0.45-0.683-1.07-0.683-1.85"/>
  <path d="m788.5 312.78c1.954 0 3.614-0.227 4.981-0.683s2.246-0.684 2.637-0.684c0.455 0 0.813 0.13 1.074 0.391 0.195 0.195 0.325 0.423 0.391 0.684 0 0.13-0.066 0.325-0.196 0.585l-28.418 33.008h16.699v-13.086c0-0.846 0.228-1.562 0.684-2.148 0.781-0.651 1.432-1.042 1.953-1.172 0.847-0.391 1.888-1.302 3.125-2.734 1.042-1.172 2.279-3.223 3.711-6.153 0.195-0.39 0.488-0.586 0.879-0.586 0.781 0 1.237 0.456 1.367 1.368v24.511h7.129c0.912 0 1.432 0.489 1.563 1.465 0 0.977-0.521 1.465-1.563 1.465h-7.129v0.781c0 2.604 0.651 4.818 1.953 6.641 1.498 1.823 3.256 2.734 5.274 2.734 0.781 0 1.172 0.391 1.172 1.172s-0.391 1.172-1.172 1.172c-1.367 0-3.581-0.195-6.641-0.586-2.799-0.456-4.98-0.684-6.543-0.684-1.627 0-3.808 0.228-6.543 0.684-2.929 0.391-5.11 0.586-6.543 0.586-0.781 0-1.172-0.391-1.172-1.172s0.391-1.172 1.172-1.172c2.018 0 3.776-0.911 5.274-2.734 1.367-1.888 2.05-4.102 2.05-6.641v-0.781h-16.699c-1.107 0-1.888-0.26-2.344-0.781-0.52-0.391-0.781-0.912-0.781-1.563 0-0.195 0.489-0.879 1.465-2.051 1.107-1.302 2.279-2.897 3.516-4.785 1.432-2.213 2.799-4.492 4.101-6.836 1.433-2.669 2.572-5.729 3.418-9.179 0.977-3.516 1.465-7.097 1.465-10.743 0-1.041 0.456-1.562 1.367-1.562 0.196 0 0.619 0.098 1.27 0.293 0.195 0.065 0.602 0.163 1.221 0.293 0.618 0.13 1.123 0.26 1.513 0.391 1.172 0.195 2.279 0.292 3.32 0.292"/>
  <path d="m788.5 362.96c1.954 0 3.614-0.228 4.981-0.684s2.246-0.684 2.637-0.684c0.455 0 0.813 0.131 1.074 0.391 0.195 0.195 0.325 0.423 0.391 0.684 0 0.13-0.066 0.325-0.196 0.585l-28.418 33.008h16.699v-13.086c0-0.846 0.228-1.562 0.684-2.148 0.781-0.651 1.432-1.042 1.953-1.172 0.847-0.391 1.888-1.302 3.125-2.734 1.042-1.172 2.279-3.223 3.711-6.153 0.195-0.39 0.488-0.586 0.879-0.586 0.781 0 1.237 0.456 1.367 1.368v24.511h7.129c0.912 0 1.432 0.489 1.563 1.465 0 0.977-0.521 1.465-1.563 1.465h-7.129v0.781c0 2.604 0.651 4.818 1.953 6.641 1.498 1.823 3.256 2.734 5.274 2.734 0.781 0 1.172 0.391 1.172 1.172s-0.391 1.172-1.172 1.172c-1.367 0-3.581-0.195-6.641-0.586-2.799-0.456-4.98-0.684-6.543-0.684-1.627 0-3.808 0.228-6.543 0.684-2.929 0.391-5.11 0.586-6.543 0.586-0.781 0-1.172-0.391-1.172-1.172s0.391-1.172 1.172-1.172c2.018 0 3.776-0.911 5.274-2.734 1.367-1.888 2.05-4.102 2.05-6.641v-0.781h-16.699c-1.107 0-1.888-0.26-2.344-0.781-0.52-0.391-0.781-0.912-0.781-1.563 0-0.195 0.489-0.879 1.465-2.051 1.107-1.302 2.279-2.897 3.516-4.785 1.432-2.213 2.799-4.492 4.101-6.836 1.433-2.669 2.572-5.729 3.418-9.179 0.977-3.516 1.465-7.097 1.465-10.743 0-1.041 0.456-1.562 1.367-1.562 0.196 0 0.619 0.098 1.27 0.293 0.195 0.065 0.602 0.163 1.221 0.293 0.618 0.13 1.123 0.26 1.513 0.391 1.172 0.195 2.279 0.293 3.32 0.293"/>
  <path d="m1924 598.04c-1.3-1.302-1.95-2.897-1.95-4.785s0.65-3.483 1.95-4.785 2.9-1.953 4.78-1.953c1.89 0 3.49 0.651 4.79 1.953s1.95 2.897 1.95 4.785-0.65 3.483-1.95 4.785-2.9 1.953-4.79 1.953c-1.88 0-3.48-0.651-4.78-1.953m-6.54-33.593c3.38-1.693 7.16-2.539 11.32-2.539 4.17 0 7.95 0.846 11.33 2.539 3.71 1.692 6.64 3.808 8.79 6.347 2.41 2.735 4.46 5.502 6.15 8.301 1.76 2.865 3.13 5.762 4.11 8.691 0.84 2.409 1.56 4.753 2.14 7.032 0.46 1.758 0.69 2.994 0.69 3.711 0 0.325-0.2 0.683-0.59 1.074-0.52 0.26-0.94 0.39-1.27 0.39-0.97 0-1.63-0.585-1.95-1.757-1.24-7.357-4.62-13.607-10.16-18.75-5.53-4.948-11.94-7.422-19.24-7.422-7.29 0-13.7 2.474-19.23 7.422-5.54 5.143-8.92 11.393-10.16 18.75-0.2 1.172-0.85 1.757-1.95 1.757-0.33 0-0.75-0.13-1.27-0.39-0.39-0.391-0.59-0.749-0.59-1.074 0-0.717 0.23-1.953 0.68-3.711 0.59-2.279 1.31-4.623 2.15-7.032 0.98-2.929 2.35-5.826 4.1-8.691 1.7-2.799 3.75-5.566 6.16-8.301 2.28-2.669 5.21-4.785 8.79-6.347"/>
  <path d="m1414.4 934.68c-1.3-1.303-1.95-2.898-1.95-4.786s0.65-3.483 1.95-4.785c1.31-1.302 2.9-1.953 4.79-1.953s3.48 0.651 4.78 1.953c1.31 1.302 1.96 2.897 1.96 4.785s-0.65 3.483-1.96 4.786c-1.3 1.302-2.89 1.953-4.78 1.953s-3.48-0.651-4.79-1.953m-6.54-33.594c3.39-1.693 7.16-2.539 11.33-2.539s7.94 0.846 11.33 2.539c3.71 1.693 6.64 3.808 8.79 6.347 2.4 2.735 4.46 5.502 6.15 8.301 1.76 2.865 3.12 5.762 4.1 8.692 0.85 2.409 1.56 4.752 2.15 7.031 0.45 1.758 0.68 2.995 0.68 3.711 0 0.325-0.19 0.683-0.58 1.074-0.52 0.26-0.95 0.391-1.27 0.391-0.98 0-1.63-0.586-1.96-1.758-1.23-7.357-4.62-13.607-10.15-18.75-5.54-4.948-11.95-7.422-19.24-7.422s-13.71 2.474-19.24 7.422c-5.53 5.143-8.92 11.393-10.16 18.75-0.19 1.172-0.84 1.758-1.95 1.758-0.32 0-0.75-0.131-1.27-0.391-0.39-0.391-0.58-0.749-0.58-1.074 0-0.716 0.22-1.953 0.68-3.711 0.59-2.279 1.3-4.622 2.15-7.031 0.97-2.93 2.34-5.827 4.1-8.692 1.69-2.799 3.74-5.566 6.15-8.301 2.28-2.669 5.21-4.785 8.79-6.347"/>
  <path d="m832.88 954.92 199.71 25.415v12.602l-199.71-25.416v-12.601" fill-rule="evenodd"/>
  <path d="m895.12 374.1v-25h3.125c0 3.711 0.716 7.422 2.148 11.132 1.563 4.037 3.288 7.553 5.176 10.547 1.367 2.149 3.418 5.437 6.153 9.864 2.083 3.385 3.841 6.933 5.273 10.644s2.148 7.422 2.148 11.133c0 6.771-1.399 13.672-4.199 20.703-0.521 0.781-1.139 1.172-1.855 1.172-0.651 0-1.237-0.26-1.758-0.781-0.391-0.391-0.586-0.879-0.586-1.465v-0.488c2.799-6.446 4.199-12.826 4.199-19.141 0-3.255-0.976-6.771-2.929-10.547-1.954-3.841-3.939-6.901-5.958-9.18-2.278-2.669-4.882-5.533-7.812-8.593h-3.125"/>
  <path d="m1054.8 374.1v-25h3.12c0 3.711 0.72 7.422 2.15 11.132 1.56 4.037 3.29 7.553 5.18 10.547 1.36 2.149 3.41 5.437 6.15 9.864 2.08 3.385 3.84 6.933 5.27 10.644s2.15 7.422 2.15 11.133c0 6.771-1.4 13.672-4.2 20.703-0.52 0.781-1.14 1.172-1.86 1.172-0.65 0-1.23-0.26-1.75-0.781-0.39-0.391-0.59-0.879-0.59-1.465v-0.488c2.8-6.446 4.2-12.826 4.2-19.141 0-3.255-0.98-6.771-2.93-10.547-1.95-3.841-3.94-6.901-5.96-9.18-2.28-2.669-4.88-5.533-7.81-8.593h-3.12"/>
  <path d="m1246.6 324.1c0 3.32 0.72 6.641 2.15 9.961 1.37 3.255 3.06 6.348 5.08 9.277l5.86 8.594c1.95 2.669 3.65 5.762 5.08 9.277 1.43 3.256 2.15 6.543 2.15 9.864 0 3.06-0.78 6.25-2.35 9.57 1.96 3.971 2.93 7.845 2.93 11.621 0 5.99-1.4 12.11-4.2 18.36-0.52 0.781-1.14 1.171-1.85 1.171-0.65 0-1.24-0.26-1.76-0.781-0.39-0.39-0.59-0.879-0.59-1.465v-0.488c2.8-5.534 4.2-11.133 4.2-16.797 0-2.539-0.48-4.883-1.46-7.031-1.17-2.539-2.61-4.883-4.3-7.031-2.15-2.8-3.84-4.818-5.08-6.055-1.69-1.693-3.64-3.548-5.86-5.566v7.519h-3.12v-50h3.12m15.34 51.66c0.45-1.367 0.68-2.929 0.68-4.687 0-2.279-0.46-4.59-1.37-6.934-0.97-2.344-2.34-4.72-4.1-7.129-1.63-2.018-3.29-4.004-4.98-5.957-1.3-1.432-3.16-3.32-5.57-5.664 0 2.669 0.56 5.501 1.66 8.496 1.18 2.8 2.38 5.241 3.62 7.324 1.43 2.214 3.19 4.721 5.27 7.52s3.68 5.143 4.79 7.031"/>
  <path d="m1352.7 324.1c0 3.32 0.72 6.641 2.15 9.961 1.37 3.255 3.06 6.348 5.08 9.277l5.86 8.594c1.95 2.669 3.65 5.762 5.08 9.277 1.43 3.256 2.15 6.543 2.15 9.864 0 3.06-0.78 6.25-2.35 9.57 1.96 3.971 2.93 7.845 2.93 11.621 0 5.99-1.4 12.11-4.2 18.36-0.52 0.781-1.14 1.171-1.85 1.171-0.65 0-1.24-0.26-1.76-0.781-0.39-0.39-0.59-0.879-0.59-1.465v-0.488c2.8-5.534 4.2-11.133 4.2-16.797 0-2.539-0.49-4.883-1.46-7.031-1.17-2.539-2.61-4.883-4.3-7.031-2.15-2.8-3.84-4.818-5.08-6.055-1.69-1.693-3.64-3.548-5.86-5.566v7.519h-3.12v-50h3.12m15.34 51.66c0.45-1.367 0.68-2.929 0.68-4.687 0-2.279-0.46-4.59-1.37-6.934-0.97-2.344-2.34-4.72-4.1-7.129-1.63-2.018-3.29-4.004-4.98-5.957-1.3-1.432-3.16-3.32-5.57-5.664 0 2.669 0.56 5.501 1.66 8.496 1.18 2.8 2.38 5.241 3.62 7.324 1.43 2.214 3.19 4.721 5.27 7.52s3.68 5.143 4.79 7.031"/>
  <path d="m1455.7 349.1v-25h3.12c0 3.711 0.72 7.422 2.15 11.133 1.56 4.036 3.29 7.552 5.18 10.547 1.36 2.148 3.42 5.436 6.15 9.863 2.08 3.385 3.84 6.934 5.27 10.645 1.44 3.711 2.15 7.421 2.15 11.132 0 6.771-1.4 13.672-4.2 20.704-0.52 0.781-1.14 1.171-1.85 1.171-0.65 0-1.24-0.26-1.76-0.781-0.39-0.39-0.59-0.879-0.59-1.465v-0.488c2.8-6.445 4.2-12.825 4.2-19.141 0-3.255-0.97-6.77-2.93-10.546-1.95-3.842-3.94-6.902-5.95-9.18-2.28-2.669-4.89-5.534-7.82-8.594h-3.12"/>
  <path d="m1625.5 349.1v-25h3.13c0 3.711 0.72 7.422 2.15 11.133 1.56 4.036 3.29 7.552 5.17 10.547 1.37 2.148 3.42 5.436 6.16 9.863 2.08 3.385 3.84 6.934 5.27 10.645s2.15 7.421 2.15 11.132c0 6.771-1.4 13.672-4.2 20.704-0.52 0.781-1.14 1.171-1.86 1.171-0.65 0-1.23-0.26-1.75-0.781-0.4-0.39-0.59-0.879-0.59-1.465v-0.488c2.8-6.445 4.2-12.825 4.2-19.141 0-3.255-0.98-6.77-2.93-10.546-1.95-3.842-3.94-6.902-5.96-9.18-2.28-2.669-4.88-5.534-7.81-8.594h-3.13"/>
  <path d="m1795.3 349.1v-25h3.13c0 3.711 0.71 7.422 2.14 11.133 1.57 4.036 3.29 7.552 5.18 10.547 1.37 2.148 3.42 5.436 6.15 9.863 2.09 3.385 3.84 6.934 5.28 10.645 1.43 3.711 2.14 7.421 2.14 11.132 0 6.771-1.4 13.672-4.19 20.704-0.53 0.781-1.14 1.171-1.86 1.171-0.65 0-1.24-0.26-1.76-0.781-0.39-0.39-0.58-0.879-0.58-1.465v-0.488c2.8-6.445 4.2-12.825 4.2-19.141 0-3.255-0.98-6.77-2.93-10.546-1.96-3.842-3.94-6.902-5.96-9.18-2.28-2.669-4.88-5.534-7.81-8.594h-3.13"/>
  <path d="m2198.6 361.6v-25h3.13c0 3.711 0.71 7.422 2.15 11.133 1.56 4.036 3.28 7.552 5.17 10.547 1.37 2.148 3.42 5.436 6.15 9.863 2.09 3.385 3.84 6.933 5.28 10.644 1.43 3.711 2.15 7.422 2.15 11.133 0 6.771-1.4 13.672-4.2 20.703-0.52 0.782-1.14 1.172-1.86 1.172-0.65 0-1.24-0.26-1.76-0.781-0.39-0.391-0.58-0.879-0.58-1.465v-0.488c2.8-6.445 4.2-12.826 4.2-19.141 0-3.255-0.98-6.771-2.93-10.547-1.96-3.841-3.94-6.901-5.96-9.179-2.28-2.67-4.88-5.534-7.81-8.594h-3.13"/>
  <path d="m2408.8 349.1c0 3.32 0.72 6.64 2.15 9.961 1.37 3.255 3.06 6.347 5.08 9.277l5.86 8.594c1.95 2.669 3.64 5.761 5.08 9.277 1.43 3.255 2.14 6.543 2.14 9.863 0 3.06-0.78 6.25-2.34 9.571 1.95 3.971 2.93 7.845 2.93 11.621 0 5.989-1.4 12.109-4.2 18.359-0.52 0.781-1.14 1.172-1.85 1.172-0.65 0-1.24-0.26-1.76-0.781-0.39-0.391-0.59-0.879-0.59-1.465v-0.488c2.8-5.534 4.2-11.133 4.2-16.797 0-2.539-0.49-4.883-1.46-7.032-1.18-2.539-2.61-4.882-4.3-7.031-2.15-2.799-3.84-4.817-5.08-6.054-1.69-1.693-3.64-3.549-5.86-5.567v7.52h-3.12v-50h3.12m15.33 51.66c0.46-1.367 0.69-2.93 0.69-4.688 0-2.278-0.46-4.59-1.37-6.933-0.98-2.344-2.34-4.72-4.1-7.129-1.63-2.018-3.29-4.004-4.98-5.957-1.3-1.432-3.16-3.321-5.57-5.664 0 2.669 0.56 5.501 1.66 8.496 1.17 2.799 2.38 5.241 3.62 7.324 1.43 2.214 3.19 4.72 5.27 7.52 2.08 2.799 3.68 5.143 4.78 7.031"/>
  <path d="m836 636.62c0 3.32 0.716 6.64 2.148 9.961 1.367 3.255 3.06 6.347 5.078 9.277l5.86 8.594c1.953 2.669 3.645 5.762 5.078 9.277 1.432 3.255 2.148 6.543 2.148 9.863 0 3.06-0.781 6.25-2.344 9.571 1.954 3.971 2.93 7.845 2.93 11.621 0 5.989-1.4 12.109-4.199 18.359-0.521 0.781-1.139 1.172-1.856 1.172-0.651 0-1.237-0.26-1.757-0.781-0.391-0.391-0.586-0.879-0.586-1.465v-0.488c2.799-5.534 4.199-11.133 4.199-16.797 0-2.539-0.488-4.883-1.465-7.031-1.172-2.539-2.604-4.883-4.297-7.032-2.148-2.799-3.841-4.817-5.078-6.054-1.693-1.693-3.646-3.549-5.859-5.567v7.52h-3.125v-50h3.125m15.332 51.66c0.455-1.367 0.683-2.93 0.683-4.688 0-2.278-0.455-4.589-1.367-6.933-0.976-2.344-2.344-4.72-4.101-7.129-1.628-2.018-3.288-4.004-4.981-5.957-1.302-1.432-3.157-3.32-5.566-5.664 0 2.669 0.553 5.501 1.66 8.496 1.172 2.799 2.376 5.241 3.613 7.324 1.432 2.214 3.19 4.72 5.274 7.52 2.083 2.799 3.678 5.143 4.785 7.031"/>
  <path d="m924.54 636.62c0 3.32 0.716 6.64 2.148 9.961 1.367 3.255 3.06 6.347 5.078 9.277l5.86 8.594c1.953 2.669 3.645 5.762 5.078 9.277 1.432 3.255 2.148 6.543 2.148 9.863 0 3.06-0.781 6.25-2.344 9.571 1.954 3.971 2.93 7.845 2.93 11.621 0 5.989-1.4 12.109-4.199 18.359-0.521 0.781-1.139 1.172-1.856 1.172-0.651 0-1.237-0.26-1.757-0.781-0.391-0.391-0.586-0.879-0.586-1.465v-0.488c2.799-5.534 4.199-11.133 4.199-16.797 0-2.539-0.488-4.883-1.465-7.031-1.172-2.539-2.604-4.883-4.297-7.032-2.148-2.799-3.841-4.817-5.078-6.054-1.693-1.693-3.646-3.549-5.859-5.567v7.52h-3.125v-50h3.125m15.332 51.66c0.455-1.367 0.683-2.93 0.683-4.688 0-2.278-0.455-4.589-1.367-6.933-0.976-2.344-2.344-4.72-4.101-7.129-1.628-2.018-3.288-4.004-4.981-5.957-1.302-1.432-3.157-3.32-5.566-5.664 0 2.669 0.553 5.501 1.66 8.496 1.172 2.799 2.376 5.241 3.613 7.324 1.432 2.214 3.19 4.72 5.274 7.52 2.083 2.799 3.678 5.143 4.785 7.031"/>
  <path d="m1010 661.62v-25h3.12c0 3.711 0.72 7.422 2.15 11.133 1.56 4.036 3.29 7.552 5.17 10.546 1.37 2.149 3.42 5.437 6.16 9.864 2.08 3.385 3.84 6.933 5.27 10.644s2.15 7.422 2.15 11.133c0 6.771-1.4 13.672-4.2 20.703-0.52 0.781-1.14 1.172-1.86 1.172-0.65 0-1.23-0.26-1.75-0.781-0.39-0.391-0.59-0.879-0.59-1.465v-0.488c2.8-6.446 4.2-12.826 4.2-19.141 0-3.255-0.98-6.771-2.93-10.547-1.95-3.841-3.94-6.901-5.96-9.179-2.28-2.67-4.88-5.534-7.81-8.594h-3.12"/>
  <path d="m1151.6 661.62v-25h3.13c0 3.711 0.71 7.422 2.14 11.133 1.57 4.036 3.29 7.552 5.18 10.546 1.37 2.149 3.42 5.437 6.15 9.864 2.09 3.385 3.84 6.933 5.28 10.644 1.43 3.711 2.14 7.422 2.14 11.133 0 6.771-1.39 13.672-4.19 20.703-0.53 0.781-1.14 1.172-1.86 1.172-0.65 0-1.24-0.26-1.76-0.781-0.39-0.391-0.58-0.879-0.58-1.465v-0.488c2.8-6.446 4.2-12.826 4.2-19.141 0-3.255-0.98-6.771-2.93-10.547-1.96-3.841-3.94-6.901-5.96-9.179-2.28-2.67-4.88-5.534-7.81-8.594h-3.13"/>
  <path d="m1293.3 652.24v-25h3.12c0 3.711 0.72 7.422 2.15 11.133 1.56 4.036 3.29 7.552 5.18 10.547 1.36 2.148 3.41 5.436 6.15 9.863 2.08 3.386 3.84 6.934 5.27 10.645s2.15 7.422 2.15 11.133c0 6.77-1.4 13.671-4.2 20.703-0.52 0.781-1.14 1.172-1.85 1.172-0.65 0-1.24-0.261-1.76-0.782-0.39-0.39-0.59-0.879-0.59-1.465v-0.488c2.8-6.445 4.2-12.825 4.2-19.14 0-3.256-0.97-6.771-2.93-10.547-1.95-3.842-3.94-6.901-5.96-9.18-2.27-2.669-4.88-5.534-7.81-8.594h-3.12"/>
  <path d="m1434.9 661.62v-25h3.13c0 3.711 0.71 7.422 2.15 11.133 1.56 4.036 3.28 7.552 5.17 10.546 1.37 2.149 3.42 5.437 6.15 9.864 2.09 3.385 3.85 6.933 5.28 10.644s2.15 7.422 2.15 11.133c0 6.771-1.4 13.672-4.2 20.703-0.52 0.781-1.14 1.172-1.86 1.172-0.65 0-1.23-0.26-1.76-0.781-0.39-0.391-0.58-0.879-0.58-1.465v-0.488c2.8-6.446 4.2-12.826 4.2-19.141 0-3.255-0.98-6.771-2.93-10.547-1.96-3.841-3.94-6.901-5.96-9.179-2.28-2.67-4.88-5.534-7.81-8.594h-3.13"/>
  <path d="m1771.4 661.62v-25h3.12c0 3.711 0.72 7.422 2.15 11.133 1.56 4.036 3.29 7.552 5.18 10.546 1.36 2.149 3.41 5.437 6.15 9.864 2.08 3.385 3.84 6.933 5.27 10.644s2.15 7.422 2.15 11.133c0 6.771-1.4 13.672-4.2 20.703-0.52 0.781-1.14 1.172-1.86 1.172-0.65 0-1.23-0.26-1.75-0.781-0.39-0.391-0.59-0.879-0.59-1.465v-0.488c2.8-6.446 4.2-12.826 4.2-19.141 0-3.255-0.98-6.771-2.93-10.547-1.95-3.841-3.94-6.901-5.96-9.179-2.27-2.67-4.88-5.534-7.81-8.594h-3.12"/>
  <path d="m1942 636.62v-25h3.13c0 3.711 0.72 7.422 2.15 11.133 1.56 4.036 3.29 7.552 5.17 10.547 1.37 2.148 3.42 5.436 6.16 9.863 2.08 3.386 3.84 6.934 5.27 10.645s2.15 7.422 2.15 11.133c0 6.77-1.4 13.671-4.2 20.703-0.52 0.781-1.14 1.172-1.86 1.172-0.65 0-1.23-0.261-1.76-0.782-0.39-0.39-0.58-0.879-0.58-1.465v-0.488c2.8-6.445 4.2-12.825 4.2-19.14 0-3.256-0.98-6.771-2.93-10.547-1.95-3.842-3.94-6.901-5.96-9.18-2.28-2.669-4.88-5.534-7.81-8.594h-3.13"/>
  <path d="m2125.9 624.12c0 3.32 0.72 6.641 2.15 9.961 1.37 3.255 3.06 6.348 5.08 9.277l5.86 8.594c1.95 2.669 3.64 5.762 5.07 9.277 1.44 3.256 2.15 6.543 2.15 9.864 0 3.06-0.78 6.25-2.34 9.57 1.95 3.971 2.93 7.845 2.93 11.621 0 5.99-1.4 12.109-4.2 18.359-0.52 0.782-1.14 1.172-1.86 1.172-0.65 0-1.23-0.26-1.75-0.781-0.39-0.391-0.59-0.879-0.59-1.465v-0.488c2.8-5.534 4.2-11.133 4.2-16.797 0-2.539-0.49-4.883-1.47-7.031-1.17-2.539-2.6-4.883-4.29-7.031-2.15-2.8-3.84-4.818-5.08-6.055-1.69-1.693-3.65-3.548-5.86-5.567v7.52h-3.13v-50h3.13m15.33 51.66c0.46-1.367 0.69-2.93 0.69-4.687 0-2.279-0.46-4.59-1.37-6.934-0.98-2.344-2.35-4.72-4.1-7.129-1.63-2.018-3.29-4.004-4.98-5.957-1.31-1.432-3.16-3.32-5.57-5.664 0 2.669 0.55 5.501 1.66 8.496 1.17 2.8 2.38 5.241 3.61 7.324 1.44 2.214 3.19 4.72 5.28 7.52 2.08 2.799 3.68 5.143 4.78 7.031"/>
  <path d="m2215.4 642.87v-25h3.13c0 3.711 0.71 7.421 2.14 11.132 1.57 4.037 3.29 7.552 5.18 10.547 1.37 2.149 3.42 5.436 6.15 9.864 2.09 3.385 3.84 6.933 5.28 10.644 1.43 3.711 2.14 7.422 2.14 11.133 0 6.771-1.4 13.672-4.19 20.703-0.53 0.781-1.14 1.172-1.86 1.172-0.65 0-1.24-0.261-1.76-0.781-0.39-0.391-0.58-0.879-0.58-1.465v-0.488c2.8-6.446 4.2-12.826 4.2-19.141 0-3.255-0.98-6.771-2.93-10.547-1.96-3.841-3.94-6.901-5.96-9.18-2.28-2.669-4.88-5.534-7.81-8.593h-3.13"/>
  <path d="m2363.6 642.87v-25h3.12c0 3.711 0.72 7.421 2.15 11.132 1.56 4.037 3.29 7.552 5.18 10.547 1.37 2.149 3.42 5.436 6.15 9.864 2.08 3.385 3.84 6.933 5.27 10.644 1.44 3.711 2.15 7.422 2.15 11.133 0 6.771-1.4 13.672-4.2 20.703-0.52 0.781-1.14 1.172-1.85 1.172-0.65 0-1.24-0.261-1.76-0.781-0.39-0.391-0.59-0.879-0.59-1.465v-0.488c2.8-6.446 4.2-12.826 4.2-19.141 0-3.255-0.97-6.771-2.93-10.547-1.95-3.841-3.94-6.901-5.95-9.18-2.28-2.669-4.89-5.534-7.82-8.593h-3.12"/>
  <path d="m1127.6 986.64v-25h3.12c0 3.711 0.72 7.422 2.15 11.133 1.56 4.037 3.29 7.552 5.18 10.547 1.36 2.148 3.42 5.436 6.15 9.863 2.08 3.383 3.84 6.933 5.27 10.643 1.44 3.71 2.15 7.42 2.15 11.13 0 6.78-1.4 13.68-4.2 20.71-0.52 0.78-1.14 1.17-1.85 1.17-0.65 0-1.24-0.26-1.76-0.78-0.39-0.39-0.59-0.88-0.59-1.47v-0.48c2.8-6.45 4.2-12.83 4.2-19.15 0-3.25-0.97-6.77-2.93-10.54-1.95-3.84-3.94-6.9-5.95-9.18-2.28-2.671-4.89-5.536-7.82-8.596h-3.12"/>
  <path d="m1260.3 999.14v-25.005h3.12c0 3.711 0.72 7.422 2.15 11.133 1.56 4.036 3.29 7.552 5.18 10.542 1.36 2.15 3.41 5.44 6.15 9.87 2.08 3.38 3.84 6.93 5.27 10.64s2.15 7.42 2.15 11.14c0 6.77-1.4 13.67-4.2 20.7-0.52 0.78-1.14 1.17-1.85 1.17-0.66 0-1.24-0.26-1.76-0.78-0.39-0.39-0.59-0.88-0.59-1.47v-0.48c2.8-6.45 4.2-12.83 4.2-19.14 0-3.26-0.98-6.78-2.93-10.55-1.95-3.84-3.94-6.9-5.96-9.18-2.27-2.67-4.88-5.54-7.81-8.59h-3.12"/>
  <path d="m910.15 1095.7c7.967-1.3 11.95-4.06 11.95-8.3 0-1.36-0.408-2.46-1.225-3.3-0.817-0.83-1.892-1.25-3.225-1.25-2.033 0-3.9 1.12-5.6 3.35l-0.8-0.25c0.833-1.6 1.975-2.86 3.425-3.8 1.45-0.93 3.042-1.4 4.775-1.4 2 0 3.667 0.6 5 1.8s2 2.72 2 4.55c0 1.7-0.542 3.07-1.625 4.1-1.083 1.04-3.142 2.14-6.175 3.3v0.15c3.2 1.47 4.8 3.95 4.8 7.45 0 3.47-1.283 6.47-3.85 9-2.567 2.54-5.933 3.8-10.1 3.8-3.733 0-5.6-0.98-5.6-2.95 0-1.3 0.733-1.95 2.2-1.95 0.833 0 1.95 0.5 3.35 1.5s2.55 1.5 3.45 1.5c1.8 0 3.342-0.75 4.625-2.27s1.925-3.49 1.925-5.93c0-3.13-0.783-5.3-2.35-6.5s-3.883-1.8-6.95-1.8v-0.8"/>
  <path d="m2212.3 453.11c-1.1-1.107-1.66-2.442-1.66-4.004 0-1.563 0.56-2.897 1.66-4.004 1.11-1.107 2.44-1.66 4.01-1.66 1.56 0 2.89 0.553 4 1.66s1.66 2.441 1.66 4.004c0 1.562-0.55 2.897-1.66 4.004s-2.44 1.66-4 1.66c-1.57 0-2.9-0.553-4.01-1.66"/>
  <path d="m1955.7 728.13c-1.1-1.107-1.66-2.441-1.66-4.004 0-1.562 0.56-2.897 1.66-4.004 1.11-1.106 2.45-1.66 4.01-1.66s2.9 0.554 4 1.66c1.11 1.107 1.66 2.442 1.66 4.004 0 1.563-0.55 2.897-1.66 4.004-1.1 1.107-2.44 1.66-4 1.66s-2.9-0.553-4.01-1.66"/>
</svg>
