<?xml version="1.0" encoding="utf-8"?>
<svg xmlns="http://www.w3.org/2000/svg" version="1.2" viewBox="560 230 1926 541">
  <title>Chapter 3 score.</title>
  <path d="m560 306.63h1926.1" fill="none" stroke="#000" stroke-linejoin="bevel" stroke-width="2"/>
  <path d="m560 331.63h1926.1" fill="none" stroke="#000" stroke-linejoin="bevel" stroke-width="2"/>
  <path d="m560 356.63h1926.1" fill="none" stroke="#000" stroke-linejoin="bevel" stroke-width="2"/>
  <path d="m560 381.63h1926.1" fill="none" stroke="#000" stroke-linejoin="bevel" stroke-width="2"/>
  <path d="m560 406.64h1926.1" fill="none" stroke="#000" stroke-linejoin="bevel" stroke-width="2"/>
  <path d="m560 631.65h1926.1" fill="none" stroke="#000" stroke-linejoin="bevel" stroke-width="2"/>
  <path d="m560 656.65h1926.1" fill="none" stroke="#000" stroke-linejoin="bevel" stroke-width="2"/>
  <path d="m560 681.65h1926.1" fill="none" stroke="#000" stroke-linejoin="bevel" stroke-width="2"/>
  <path d="m560 706.66h1926.1" fill="none" stroke="#000" stroke-linejoin="bevel" stroke-width="2"/>
  <path d="m560 731.66h1926.1" fill="none" stroke="#000" stroke-linejoin="bevel" stroke-width="2"/>
  <path d="m1910.4 343.98c77.11 39.366 310.93 27.509 389.7 13.115-78.91 18.392-312.73 30.249-389.7-13.115" fill-rule="evenodd" stroke="#000" stroke-linecap="round" stroke-linejoin="round" stroke-width="1.75"/>
  <path d="m1275 621.65c26.75-36.733 87.19-42.983 120.89-12.501-33.29-26.503-93.73-20.253-120.89 12.501" fill-rule="evenodd" stroke="#000" stroke-linecap="round" stroke-linejoin="round" stroke-width="1.75"/>
  <path d="m1283 709.33c2.71-0.233 53.19 27.391 85.02-8.515-31.43 39.887-81.91 12.262-85.02 8.515" fill-rule="evenodd" stroke="#000" stroke-linecap="round" stroke-linejoin="round" stroke-width="1.75"/>
  <path d="m2201.7 716.66c20.09 32.833 72.87 45.334 105.55 25.002-33.6 24.224-86.38 11.723-105.55-25.002" fill-rule="evenodd" stroke="#000" stroke-linecap="round" stroke-linejoin="round" stroke-width="1.75"/>
  <path d="m2201.7 636.94c17.24-41.792 68.02-57.19 101.57-30.796-32.39-22.566-83.17-7.168-101.57 30.796" fill-rule="evenodd" stroke="#000" stroke-linecap="round" stroke-linejoin="round" stroke-width="1.75"/>
  <path d="m1084.5 305.63v102.01" stroke="#000" stroke-linejoin="bevel" stroke-width="4"/>
  <path d="m1828.8 305.63v102.01" stroke="#000" stroke-linejoin="bevel" stroke-width="4"/>
  <path d="m2484.1 305.63v102.01" stroke="#000" stroke-linejoin="bevel" stroke-width="4"/>
  <path d="m1231.5 630.65v102.01" stroke="#000" stroke-linejoin="bevel" stroke-width="4"/>
  <path d="m1617.3 630.65v102.01" stroke="#000" stroke-linejoin="bevel" stroke-width="4"/>
  <path d="m2158.2 630.65v102.01" stroke="#000" stroke-linejoin="bevel" stroke-width="4"/>
  <path d="m2308.1 302.88-32.26 20.001" stroke="#000" stroke-linejoin="bevel" stroke-width="3.25"/>
  <path d="m811.12 315.03v7.714c0 2.735 0.13 4.916 0.391 6.543 2.148-1.823 3.678-3.19 4.589-4.101 1.042-1.042 2.084-2.474 3.125-4.297 1.042-1.823 1.563-3.646 1.563-5.469s-0.391-3.385-1.172-4.687-1.823-1.953-3.125-1.953c-1.562 0-2.864 0.585-3.906 1.757-0.977 1.302-1.465 2.8-1.465 4.493m-4.102 17.871-1.269-59.473c0.911-0.521 1.823-0.781 2.734-0.781 0.912 0 1.823 0.26 2.735 0.781l-0.782 34.473c2.67-2.279 5.73-3.418 9.18-3.418 2.539 0 4.655 1.041 6.348 3.125 1.692 2.083 2.539 4.459 2.539 7.129 0 1.692-0.554 3.483-1.66 5.371-1.042 1.757-2.149 3.125-3.321 4.101-0.651 0.521-2.311 1.823-4.98 3.906-0.781 0.586-1.709 1.27-2.783 2.051-1.075 0.782-1.742 1.27-2.002 1.465-0.456 0.261-0.879 0.781-1.27 1.563-0.456 0.651-0.976 1.204-1.562 1.66-0.456 0.39-1.009 0.586-1.66 0.586-0.652 0-1.172-0.228-1.563-0.684-0.456-0.456-0.684-1.074-0.684-1.855"/>
  <path d="m1104.1 315.03v7.714c0 2.735 0.13 4.916 0.39 6.543 2.15-1.823 3.68-3.19 4.59-4.101 1.04-1.042 2.08-2.474 3.12-4.297s1.57-3.646 1.57-5.469-0.39-3.385-1.18-4.687c-0.78-1.302-1.82-1.953-3.12-1.953-1.56 0-2.87 0.585-3.91 1.757-0.97 1.302-1.46 2.8-1.46 4.493m-4.1 17.871-1.27-59.473c0.91-0.521 1.82-0.781 2.73-0.781s1.82 0.26 2.74 0.781l-0.79 34.473c2.67-2.279 5.73-3.418 9.18-3.418 2.54 0 4.66 1.041 6.35 3.125 1.69 2.083 2.54 4.459 2.54 7.129 0 1.692-0.55 3.483-1.66 5.371-1.04 1.757-2.15 3.125-3.32 4.101-0.65 0.521-2.31 1.823-4.98 3.906-0.78 0.586-1.71 1.27-2.78 2.051-1.08 0.782-1.75 1.27-2.01 1.465-0.45 0.261-0.87 0.781-1.27 1.563-0.45 0.651-0.97 1.204-1.56 1.66-0.45 0.39-1.01 0.586-1.66 0.586s-1.17-0.228-1.56-0.684c-0.46-0.456-0.68-1.074-0.68-1.855"/>
  <path d="m1848.4 315.03v7.714c0 2.735 0.13 4.916 0.39 6.543 2.15-1.823 3.68-3.19 4.59-4.101 1.05-1.042 2.09-2.474 3.13-4.297s1.56-3.646 1.56-5.469-0.39-3.385-1.17-4.687-1.82-1.953-3.13-1.953c-1.56 0-2.86 0.585-3.9 1.757-0.98 1.302-1.47 2.8-1.47 4.493m-4.1 17.871-1.27-59.473c0.91-0.521 1.83-0.781 2.74-0.781s1.82 0.26 2.73 0.781l-0.78 34.473c2.67-2.279 5.73-3.418 9.18-3.418 2.54 0 4.65 1.041 6.35 3.125 1.69 2.083 2.54 4.459 2.54 7.129 0 1.692-0.56 3.483-1.66 5.371-1.05 1.757-2.15 3.125-3.32 4.101-0.66 0.521-2.32 1.823-4.98 3.906-0.79 0.586-1.71 1.27-2.79 2.051-1.07 0.782-1.74 1.27-2 1.465-0.46 0.261-0.88 0.781-1.27 1.563-0.46 0.651-0.98 1.204-1.56 1.66-0.46 0.39-1.01 0.586-1.66 0.586s-1.17-0.228-1.56-0.684c-0.46-0.456-0.69-1.074-0.69-1.855"/>
  <path d="m865.5 314.43v-82.809" stroke="#000" stroke-linecap="round" stroke-linejoin="bevel" stroke-width="3.25"/>
  <path d="m1029.6 339.44v-82.81" stroke="#000" stroke-linecap="round" stroke-linejoin="bevel" stroke-width="3.25"/>
  <path d="m1158.5 314.43v-64.058" stroke="#000" stroke-linecap="round" stroke-linejoin="bevel" stroke-width="3.25"/>
  <path d="m1389.7 339.44v-70.309" stroke="#000" stroke-linecap="round" stroke-linejoin="bevel" stroke-width="3.25"/>
  <path d="m1508.3 314.43v-70.309" stroke="#000" stroke-linecap="round" stroke-linejoin="bevel" stroke-width="3.25"/>
  <path d="m1626.8 314.43v-64.058" stroke="#000" stroke-linecap="round" stroke-linejoin="bevel" stroke-width="3.25"/>
  <path d="m1902.8 314.43v-64.058" stroke="#000" stroke-linecap="round" stroke-linejoin="bevel" stroke-width="3.25"/>
  <path d="m2073.3 315.29v-64.914" stroke="#000" stroke-linecap="round" stroke-linejoin="bevel" stroke-width="3.25"/>
  <path d="m2343.8 339.44v-70.309" stroke="#000" stroke-linecap="round" stroke-linejoin="bevel" stroke-width="3.25"/>
  <path d="m2288.3 340.84v-57.967" stroke="#000" stroke-linecap="round" stroke-linejoin="bevel" stroke-width="2.28"/>
  <path d="m784.5 714.46v-129.69" stroke="#000" stroke-linecap="round" stroke-linejoin="bevel" stroke-width="3.25"/>
  <path d="m908.4 714.46v-129.69" stroke="#000" stroke-linecap="round" stroke-linejoin="bevel" stroke-width="3.25"/>
  <path d="m1032.3 714.46v-129.69" stroke="#000" stroke-linecap="round" stroke-linejoin="bevel" stroke-width="3.25"/>
  <path d="m1109.7 714.46v-129.69" stroke="#000" stroke-linecap="round" stroke-linejoin="bevel" stroke-width="3.25"/>
  <path d="m1260.2 648.85v110.94" stroke="#000" stroke-linecap="round" stroke-linejoin="bevel" stroke-width="3.25"/>
  <path d="m1380.1 635.57v133.59" stroke="#000" stroke-linecap="round" stroke-linejoin="bevel" stroke-width="3.25"/>
  <path d="m1675.6 726.96v-132.81" stroke="#000" stroke-linecap="round" stroke-linejoin="bevel" stroke-width="3.25"/>
  <path d="m1808.7 726.96v-132.81" stroke="#000" stroke-linecap="round" stroke-linejoin="bevel" stroke-width="3.25"/>
  <path d="m1941.9 714.46v-120.31" stroke="#000" stroke-linecap="round" stroke-linejoin="bevel" stroke-width="3.25"/>
  <path d="m2025.1 701.96v-107.81" stroke="#000" stroke-linecap="round" stroke-linejoin="bevel" stroke-width="3.25"/>
  <path d="m2216.5 689.46v-95.311" stroke="#000" stroke-linecap="round" stroke-linejoin="bevel" stroke-width="3.25"/>
  <path d="m2323 715.32v-149.29" stroke="#000" stroke-linecap="round" stroke-linejoin="bevel" stroke-width="3.25"/>
  <path d="m856.18 305.36c3.125 0 5.762 0.813 7.911 2.441 2.018 1.758 3.027 3.971 3.027 6.641 0 4.492-2.311 8.691-6.934 12.597-4.687 3.907-9.7 5.86-15.039 5.86-3.125 0-5.761-0.814-7.91-2.442-2.018-1.758-3.027-3.971-3.027-6.64 0-4.493 2.344-8.692 7.031-12.598 4.557-3.906 9.538-5.859 14.941-5.859"/>
  <path d="m1020.3 330.36c3.13 0 5.76 0.814 7.91 2.442 2.02 1.757 3.03 3.971 3.03 6.64 0 4.492-2.31 8.692-6.93 12.598-4.69 3.906-9.7 5.859-15.04 5.859-3.13 0-5.76-0.814-7.91-2.441-2.02-1.758-3.03-3.972-3.03-6.641 0-4.492 2.34-8.691 7.03-12.597 4.56-3.907 9.54-5.86 14.94-5.86"/>
  <path d="m1149.1 305.36c3.13 0 5.77 0.813 7.91 2.441 2.02 1.758 3.03 3.971 3.03 6.641 0 4.492-2.31 8.691-6.93 12.597-4.69 3.907-9.7 5.86-15.04 5.86-3.13 0-5.76-0.814-7.91-2.442-2.02-1.758-3.03-3.971-3.03-6.64 0-4.493 2.35-8.692 7.03-12.598 4.56-3.906 9.54-5.859 14.94-5.859"/>
  <path d="m1380.4 330.36c3.12 0 5.76 0.814 7.91 2.442 2.02 1.757 3.02 3.971 3.02 6.64 0 4.492-2.31 8.692-6.93 12.598-4.69 3.906-9.7 5.859-15.04 5.859-3.12 0-5.76-0.814-7.91-2.441-2.02-1.758-3.03-3.972-3.03-6.641 0-4.492 2.35-8.691 7.04-12.597 4.55-3.907 9.53-5.86 14.94-5.86"/>
  <path d="m1499 305.36c3.13 0 5.77 0.813 7.91 2.441 2.02 1.758 3.03 3.971 3.03 6.641 0 4.492-2.31 8.691-6.93 12.597-4.69 3.907-9.7 5.86-15.04 5.86-3.13 0-5.76-0.814-7.91-2.442-2.02-1.758-3.03-3.971-3.03-6.64 0-4.493 2.35-8.692 7.03-12.598 4.56-3.906 9.54-5.859 14.94-5.859"/>
  <path d="m1617.5 305.36c3.13 0 5.76 0.813 7.91 2.441 2.02 1.758 3.03 3.971 3.03 6.641 0 4.492-2.31 8.691-6.93 12.597-4.69 3.907-9.7 5.86-15.04 5.86-3.13 0-5.76-0.814-7.91-2.442-2.02-1.758-3.03-3.971-3.03-6.64 0-4.493 2.34-8.692 7.03-12.598 4.56-3.906 9.54-5.859 14.94-5.859"/>
  <path d="m1893.5 305.36c3.12 0 5.76 0.813 7.91 2.441 2.02 1.758 3.03 3.971 3.03 6.641 0 4.492-2.31 8.691-6.94 12.597-4.68 3.907-9.7 5.86-15.04 5.86-3.12 0-5.76-0.814-7.91-2.442-2.01-1.758-3.02-3.971-3.02-6.64 0-4.493 2.34-8.692 7.03-12.598 4.56-3.906 9.54-5.859 14.94-5.859"/>
  <path d="m2071.8 312.59c0-1.107-0.42-2.051-1.27-2.832-0.85-0.846-1.82-1.269-2.93-1.269-1.95 0-5.89 1.953-11.82 5.859-6.12 3.971-9.86 6.803-11.23 8.496-0.71 0.911-1.07 1.856-1.07 2.832 0 1.107 0.42 2.051 1.27 2.832 0.78 0.846 1.76 1.27 2.93 1.27 1.89 0 5.86-1.953 11.91-5.86 5.99-3.906 9.7-6.738 11.14-8.496 0.71-0.846 1.07-1.79 1.07-2.832m-5.18-7.226c5.6 0 8.4 2.408 8.4 7.226 0 2.344-0.68 5.078-2.05 8.203-1.36 3.06-3.19 5.404-5.47 7.032-5.01 3.385-11.29 5.078-18.84 5.078-5.6 0-8.4-2.409-8.4-7.227 0-2.148 0.68-4.85 2.05-8.105 1.3-3.125 3.12-5.502 5.47-7.129 5.01-3.386 11.29-5.078 18.84-5.078"/>
  <path d="m2334.5 330.36c3.12 0 5.76 0.814 7.91 2.442 2.02 1.757 3.03 3.971 3.03 6.64 0 4.492-2.32 8.692-6.94 12.598-4.69 3.906-9.7 5.859-15.04 5.859-3.12 0-5.76-0.814-7.91-2.441-2.02-1.758-3.02-3.972-3.02-6.641 0-4.492 2.34-8.691 7.03-12.597 4.55-3.907 9.53-5.86 14.94-5.86"/>
  <path d="m2281.8 334.49c2.1876 0 4.0334 0.5697 5.5374 1.7091 1.4128 1.2305 2.1193 2.7801 2.1193 4.6487 0 3.1447-1.618 6.0844-4.8538 8.8189-3.2815 2.7345-6.7909 4.1018-10.528 4.1018-2.1876 0-4.0334-0.5697-5.5374-1.7091-1.4129-1.2305-2.1193-2.7801-2.1193-4.6487 0-3.1447 1.6407-6.0844 4.9222-8.8189 3.1903-2.7345 6.6768-4.1018 10.46-4.1018" stroke-width=".70004"/>
  <path d="m775.18 705.39c3.125 0 5.762 0.814 7.91 2.441 2.019 1.758 3.028 3.972 3.028 6.641 0 4.492-2.312 8.691-6.934 12.597-4.687 3.907-9.7 5.86-15.039 5.86-3.125 0-5.762-0.814-7.91-2.442-2.018-1.757-3.028-3.971-3.028-6.64 0-4.492 2.344-8.692 7.032-12.598 4.557-3.906 9.537-5.859 14.941-5.859"/>
  <path d="m775.18 667.88c3.125 0 5.762 0.814 7.91 2.442 2.019 1.758 3.028 3.971 3.028 6.64 0 4.493-2.312 8.692-6.934 12.598-4.687 3.906-9.7 5.859-15.039 5.859-3.125 0-5.762-0.813-7.91-2.441-2.018-1.758-3.028-3.971-3.028-6.641 0-4.492 2.344-8.691 7.032-12.597 4.557-3.906 9.537-5.86 14.941-5.86"/>
  <path d="m775.18 642.88c3.125 0 5.762 0.814 7.91 2.441 2.019 1.758 3.028 3.972 3.028 6.641 0 4.492-2.312 8.691-6.934 12.598-4.687 3.906-9.7 5.859-15.039 5.859-3.125 0-5.762-0.814-7.91-2.442-2.018-1.757-3.028-3.971-3.028-6.64 0-4.492 2.344-8.692 7.032-12.598 4.557-3.906 9.537-5.859 14.941-5.859"/>
  <path d="m899.08 705.39c3.125 0 5.762 0.814 7.91 2.441 2.019 1.758 3.028 3.972 3.028 6.641 0 4.492-2.311 8.691-6.934 12.597-4.687 3.907-9.7 5.86-15.039 5.86-3.125 0-5.762-0.814-7.91-2.442-2.018-1.757-3.027-3.971-3.027-6.64 0-4.492 2.343-8.692 7.031-12.598 4.557-3.906 9.538-5.859 14.941-5.859"/>
  <path d="m899.08 667.88c3.125 0 5.762 0.814 7.91 2.442 2.019 1.758 3.028 3.971 3.028 6.64 0 4.493-2.311 8.692-6.934 12.598-4.687 3.906-9.7 5.859-15.039 5.859-3.125 0-5.762-0.813-7.91-2.441-2.018-1.758-3.027-3.971-3.027-6.641 0-4.492 2.343-8.691 7.031-12.597 4.557-3.906 9.538-5.86 14.941-5.86"/>
  <path d="m899.08 642.88c3.125 0 5.762 0.814 7.91 2.441 2.019 1.758 3.028 3.972 3.028 6.641 0 4.492-2.311 8.691-6.934 12.598-4.687 3.906-9.7 5.859-15.039 5.859-3.125 0-5.762-0.814-7.91-2.442-2.018-1.757-3.027-3.971-3.027-6.64 0-4.492 2.343-8.692 7.031-12.598 4.557-3.906 9.538-5.859 14.941-5.859"/>
  <path d="m1023 705.39c3.13 0 5.76 0.814 7.91 2.441 2.02 1.758 3.03 3.972 3.03 6.641 0 4.492-2.31 8.691-6.93 12.597-4.69 3.907-9.7 5.86-15.04 5.86-3.13 0-5.76-0.814-7.91-2.442-2.02-1.757-3.03-3.971-3.03-6.64 0-4.492 2.34-8.692 7.03-12.598 4.56-3.906 9.54-5.859 14.94-5.859"/>
  <path d="m1023 667.88c3.13 0 5.76 0.814 7.91 2.442 2.02 1.758 3.03 3.971 3.03 6.64 0 4.493-2.31 8.692-6.93 12.598-4.69 3.906-9.7 5.859-15.04 5.859-3.13 0-5.76-0.813-7.91-2.441-2.02-1.758-3.03-3.971-3.03-6.641 0-4.492 2.34-8.691 7.03-12.597 4.56-3.906 9.54-5.86 14.94-5.86"/>
  <path d="m1023 642.88c3.13 0 5.76 0.814 7.91 2.441 2.02 1.758 3.03 3.972 3.03 6.641 0 4.492-2.31 8.691-6.93 12.598-4.69 3.906-9.7 5.859-15.04 5.859-3.13 0-5.76-0.814-7.91-2.442-2.02-1.757-3.03-3.971-3.03-6.64 0-4.492 2.34-8.692 7.03-12.598 4.56-3.906 9.54-5.859 14.94-5.859"/>
  <path d="m1100.4 705.39c3.13 0 5.76 0.814 7.91 2.441 2.02 1.758 3.03 3.972 3.03 6.641 0 4.492-2.31 8.691-6.93 12.597-4.69 3.907-9.71 5.86-15.04 5.86-3.13 0-5.77-0.814-7.91-2.442-2.02-1.757-3.03-3.971-3.03-6.64 0-4.492 2.34-8.692 7.03-12.598 4.56-3.906 9.54-5.859 14.94-5.859"/>
  <path d="m1100.4 667.88c3.13 0 5.76 0.814 7.91 2.442 2.02 1.758 3.03 3.971 3.03 6.64 0 4.493-2.31 8.692-6.93 12.598-4.69 3.906-9.71 5.859-15.04 5.859-3.13 0-5.77-0.813-7.91-2.441-2.02-1.758-3.03-3.971-3.03-6.641 0-4.492 2.34-8.691 7.03-12.597 4.56-3.906 9.54-5.86 14.94-5.86"/>
  <path d="m1100.4 642.88c3.13 0 5.76 0.814 7.91 2.441 2.02 1.758 3.03 3.972 3.03 6.641 0 4.492-2.31 8.691-6.93 12.598-4.69 3.906-9.71 5.859-15.04 5.859-3.13 0-5.77-0.814-7.91-2.442-2.02-1.757-3.03-3.971-3.03-6.64 0-4.492 2.34-8.692 7.03-12.598 4.56-3.906 9.54-5.859 14.94-5.859"/>
  <path d="m1280.5 667.88c3.13 0 5.77 0.814 7.91 2.442 2.02 1.758 3.03 3.971 3.03 6.64 0 4.493-2.31 8.692-6.93 12.598-4.69 3.906-9.7 5.859-15.04 5.859-3.13 0-5.76-0.813-7.91-2.441-2.02-1.758-3.03-3.971-3.03-6.641 0-4.492 2.35-8.691 7.03-12.597 4.56-3.906 9.54-5.86 14.94-5.86"/>
  <path d="m1280.5 630.38c3.13 0 5.77 0.814 7.91 2.441 2.02 1.758 3.03 3.972 3.03 6.641 0 4.492-2.31 8.691-6.93 12.598-4.69 3.906-9.7 5.859-15.04 5.859-3.13 0-5.76-0.814-7.91-2.441-2.02-1.758-3.03-3.972-3.03-6.641 0-4.492 2.35-8.691 7.03-12.598 4.56-3.906 9.54-5.859 14.94-5.859"/>
  <path d="m1410.1 687.61c0-1.107-0.42-2.051-1.27-2.832-0.84-0.847-1.82-1.27-2.93-1.27-1.95 0-5.89 1.953-11.81 5.86-6.12 3.971-9.87 6.803-11.23 8.496-0.72 0.911-1.08 1.855-1.08 2.832 0 1.106 0.43 2.05 1.27 2.832 0.78 0.846 1.76 1.269 2.93 1.269 1.89 0 5.86-1.953 11.92-5.859 5.98-3.906 9.7-6.738 11.13-8.496 0.71-0.847 1.07-1.791 1.07-2.832m-5.17-7.227c5.6 0 8.4 2.409 8.4 7.227 0 2.343-0.69 5.078-2.06 8.203-1.36 3.06-3.19 5.404-5.46 7.031-5.02 3.386-11.3 5.078-18.85 5.078-5.6 0-8.4-2.409-8.4-7.226 0-2.149 0.68-4.851 2.05-8.106 1.3-3.125 3.13-5.501 5.47-7.129 5.01-3.385 11.29-5.078 18.85-5.078"/>
  <path d="m1410.1 625.11c0-1.107-0.42-2.051-1.27-2.832-0.84-0.847-1.82-1.27-2.93-1.27-1.95 0-5.89 1.953-11.81 5.86-6.12 3.971-9.87 6.803-11.23 8.496-0.72 0.911-1.08 1.855-1.08 2.832 0 1.107 0.43 2.051 1.27 2.832 0.78 0.846 1.76 1.269 2.93 1.269 1.89 0 5.86-1.953 11.92-5.859 5.98-3.906 9.7-6.738 11.13-8.496 0.71-0.847 1.07-1.791 1.07-2.832m-5.17-7.227c5.6 0 8.4 2.409 8.4 7.227 0 2.344-0.69 5.078-2.06 8.203-1.36 3.06-3.19 5.404-5.46 7.031-5.02 3.386-11.3 5.078-18.85 5.078-5.6 0-8.4-2.409-8.4-7.226 0-2.149 0.68-4.851 2.05-8.106 1.3-3.125 3.13-5.501 5.47-7.129 5.01-3.385 11.29-5.078 18.85-5.078"/>
  <path d="m1666.3 717.89c3.12 0 5.76 0.813 7.91 2.441 2.02 1.758 3.03 3.971 3.03 6.641 0 4.492-2.31 8.691-6.94 12.597-4.68 3.906-9.7 5.86-15.04 5.86-3.12 0-5.76-0.814-7.91-2.442-2.01-1.758-3.02-3.971-3.02-6.64 0-4.493 2.34-8.692 7.03-12.598 4.56-3.906 9.54-5.859 14.94-5.859"/>
  <path d="m1666.3 692.88c3.12 0 5.76 0.814 7.91 2.441 2.02 1.758 3.03 3.972 3.03 6.641 0 4.492-2.31 8.691-6.94 12.598-4.68 3.906-9.7 5.859-15.04 5.859-3.12 0-5.76-0.814-7.91-2.441-2.01-1.758-3.02-3.972-3.02-6.641 0-4.492 2.34-8.691 7.03-12.598 4.56-3.906 9.54-5.859 14.94-5.859"/>
  <path d="m1666.3 655.38c3.12 0 5.76 0.813 7.91 2.441 2.02 1.758 3.03 3.971 3.03 6.641 0 4.492-2.31 8.691-6.94 12.597-4.68 3.907-9.7 5.86-15.04 5.86-3.12 0-5.76-0.814-7.91-2.442-2.01-1.758-3.02-3.971-3.02-6.64 0-4.493 2.34-8.692 7.03-12.598 4.56-3.906 9.54-5.859 14.94-5.859"/>
  <path d="m1799.4 717.89c3.13 0 5.76 0.813 7.91 2.441 2.02 1.758 3.03 3.971 3.03 6.641 0 4.492-2.31 8.691-6.93 12.597-4.69 3.906-9.7 5.86-15.04 5.86-3.13 0-5.76-0.814-7.91-2.442-2.02-1.758-3.03-3.971-3.03-6.64 0-4.493 2.34-8.692 7.03-12.598 4.56-3.906 9.54-5.859 14.94-5.859"/>
  <path d="m1799.4 692.88c3.13 0 5.76 0.814 7.91 2.441 2.02 1.758 3.03 3.972 3.03 6.641 0 4.492-2.31 8.691-6.93 12.598-4.69 3.906-9.7 5.859-15.04 5.859-3.13 0-5.76-0.814-7.91-2.441-2.02-1.758-3.03-3.972-3.03-6.641 0-4.492 2.34-8.691 7.03-12.598 4.56-3.906 9.54-5.859 14.94-5.859"/>
  <path d="m1799.4 655.38c3.13 0 5.76 0.813 7.91 2.441 2.02 1.758 3.03 3.971 3.03 6.641 0 4.492-2.31 8.691-6.93 12.597-4.69 3.907-9.7 5.86-15.04 5.86-3.13 0-5.76-0.814-7.91-2.442-2.02-1.758-3.03-3.971-3.03-6.64 0-4.493 2.34-8.692 7.03-12.598 4.56-3.906 9.54-5.859 14.94-5.859"/>
  <path d="m1932.6 705.39c3.13 0 5.77 0.814 7.91 2.441 2.02 1.758 3.03 3.972 3.03 6.641 0 4.492-2.31 8.691-6.93 12.597-4.69 3.907-9.7 5.86-15.04 5.86-3.13 0-5.76-0.814-7.91-2.442-2.02-1.757-3.03-3.971-3.03-6.64 0-4.492 2.35-8.692 7.03-12.598 4.56-3.906 9.54-5.859 14.94-5.859"/>
  <path d="m1932.6 680.38c3.13 0 5.77 0.814 7.91 2.442 2.02 1.757 3.03 3.971 3.03 6.64 0 4.492-2.31 8.692-6.93 12.598-4.69 3.906-9.7 5.859-15.04 5.859-3.13 0-5.76-0.814-7.91-2.441-2.02-1.758-3.03-3.972-3.03-6.641 0-4.492 2.35-8.691 7.03-12.597 4.56-3.907 9.54-5.86 14.94-5.86"/>
  <path d="m1932.6 655.38c3.13 0 5.77 0.813 7.91 2.441 2.02 1.758 3.03 3.971 3.03 6.641 0 4.492-2.31 8.691-6.93 12.597-4.69 3.907-9.7 5.86-15.04 5.86-3.13 0-5.76-0.814-7.91-2.442-2.02-1.758-3.03-3.971-3.03-6.64 0-4.493 2.35-8.692 7.03-12.598 4.56-3.906 9.54-5.859 14.94-5.859"/>
  <path d="m2015.8 692.88c3.13 0 5.76 0.814 7.91 2.441 2.02 1.758 3.03 3.972 3.03 6.641 0 4.492-2.31 8.691-6.94 12.598-4.68 3.906-9.7 5.859-15.03 5.859-3.13 0-5.77-0.814-7.91-2.441-2.02-1.758-3.03-3.972-3.03-6.641 0-4.492 2.34-8.691 7.03-12.598 4.56-3.906 9.54-5.859 14.94-5.859"/>
  <path d="m2045.5 667.88c3.12 0 5.76 0.814 7.91 2.442 2.01 1.758 3.02 3.971 3.02 6.64 0 4.493-2.31 8.692-6.93 12.598-4.69 3.906-9.7 5.859-15.04 5.859-3.12 0-5.76-0.813-7.91-2.441-2.02-1.758-3.03-3.971-3.03-6.641 0-4.492 2.35-8.691 7.04-12.597 4.55-3.906 9.53-5.86 14.94-5.86"/>
  <path d="m2015.8 655.38c3.13 0 5.76 0.813 7.91 2.441 2.02 1.758 3.03 3.971 3.03 6.641 0 4.492-2.31 8.691-6.94 12.597-4.68 3.907-9.7 5.86-15.03 5.86-3.13 0-5.77-0.814-7.91-2.442-2.02-1.758-3.03-3.971-3.03-6.64 0-4.493 2.34-8.692 7.03-12.598 4.56-3.906 9.54-5.859 14.94-5.859"/>
  <path d="m2207.2 680.38c3.12 0 5.76 0.814 7.91 2.442 2.01 1.757 3.02 3.971 3.02 6.64 0 4.492-2.31 8.692-6.93 12.598-4.69 3.906-9.7 5.859-15.04 5.859-3.12 0-5.76-0.814-7.91-2.441-2.02-1.758-3.03-3.972-3.03-6.641 0-4.492 2.35-8.691 7.03-12.597 4.56-3.907 9.54-5.86 14.95-5.86"/>
  <path d="m2207.2 655.38c3.12 0 5.76 0.813 7.91 2.441 2.01 1.758 3.02 3.971 3.02 6.641 0 4.492-2.31 8.691-6.93 12.597-4.69 3.907-9.7 5.86-15.04 5.86-3.12 0-5.76-0.814-7.91-2.442-2.02-1.758-3.03-3.971-3.03-6.64 0-4.493 2.35-8.692 7.03-12.598 4.56-3.906 9.54-5.859 14.95-5.859"/>
  <path d="m2321.4 712.61c0-1.106-0.42-2.05-1.26-2.832-0.85-0.846-1.83-1.269-2.93-1.269-1.96 0-5.9 1.953-11.82 5.859-6.12 3.971-9.86 6.804-11.23 8.496-0.72 0.912-1.08 1.856-1.08 2.832 0 1.107 0.43 2.051 1.27 2.832 0.79 0.847 1.76 1.27 2.93 1.27 1.89 0 5.86-1.953 11.92-5.86 5.99-3.906 9.7-6.738 11.13-8.496 0.72-0.846 1.07-1.79 1.07-2.832m-5.17-7.226c5.6 0 8.4 2.409 8.4 7.226 0 2.344-0.69 5.078-2.05 8.203-1.37 3.06-3.19 5.404-5.47 7.032-5.02 3.385-11.3 5.078-18.85 5.078-5.6 0-8.4-2.409-8.4-7.227 0-2.148 0.69-4.85 2.05-8.105 1.3-3.125 3.13-5.502 5.47-7.129 5.01-3.386 11.3-5.078 18.85-5.078"/>
  <path d="m2321.4 687.61c0-1.107-0.42-2.051-1.26-2.832-0.85-0.847-1.83-1.27-2.93-1.27-1.96 0-5.9 1.953-11.82 5.86-6.12 3.971-9.86 6.803-11.23 8.496-0.72 0.911-1.08 1.855-1.08 2.832 0 1.106 0.43 2.05 1.27 2.832 0.79 0.846 1.76 1.269 2.93 1.269 1.89 0 5.86-1.953 11.92-5.859 5.99-3.906 9.7-6.738 11.13-8.496 0.72-0.847 1.07-1.791 1.07-2.832m-5.17-7.227c5.6 0 8.4 2.409 8.4 7.227 0 2.343-0.69 5.078-2.05 8.203-1.37 3.06-3.19 5.404-5.47 7.031-5.02 3.386-11.3 5.078-18.85 5.078-5.6 0-8.4-2.409-8.4-7.226 0-2.149 0.69-4.851 2.05-8.106 1.3-3.125 3.13-5.501 5.47-7.129 5.01-3.385 11.3-5.078 18.85-5.078"/>
  <path d="m2321.4 625.11c0-1.107-0.42-2.051-1.26-2.832-0.85-0.847-1.83-1.27-2.93-1.27-1.96 0-5.9 1.953-11.82 5.86-6.12 3.971-9.86 6.803-11.23 8.496-0.72 0.911-1.08 1.855-1.08 2.832 0 1.107 0.43 2.051 1.27 2.832 0.79 0.846 1.76 1.269 2.93 1.269 1.89 0 5.86-1.953 11.92-5.859 5.99-3.906 9.7-6.738 11.13-8.496 0.72-0.847 1.07-1.791 1.07-2.832m-5.17-7.227c5.6 0 8.4 2.409 8.4 7.227 0 2.344-0.69 5.078-2.05 8.203-1.37 3.06-3.19 5.404-5.47 7.031-5.02 3.386-11.3 5.078-18.85 5.078-5.6 0-8.4-2.409-8.4-7.226 0-2.149 0.69-4.851 2.05-8.106 1.3-3.125 3.13-5.501 5.47-7.129 5.01-3.385 11.3-5.078 18.85-5.078"/>
  <path d="m616.72 356.05h0.586c0.26-0.065 0.488-0.098 0.684-0.098 7.291 0 13.281 2.572 17.968 7.715 4.688 5.078 7.032 11.003 7.032 17.774 0 8.398-3.484 15.234-10.45 20.508-1.823 1.432-4.199 2.604-7.129 3.515 0.326 4.232 0.489 7.65 0.489 10.254 0 0.521-0.065 2.409-0.196 5.664-0.26 6.055-2.343 11.296-6.25 15.723-3.776 4.362-8.463 6.543-14.062 6.543-5.274 0-9.766-1.856-13.477-5.567-3.711-3.776-5.566-8.333-5.566-13.672 0-2.799 1.074-5.175 3.223-7.128 2.213-1.954 4.785-2.93 7.714-2.93 2.605 0 4.786 1.009 6.543 3.027 1.823 1.888 2.735 4.232 2.735 7.031 0 2.54-0.912 4.721-2.735 6.543-1.823 1.823-4.004 2.735-6.543 2.735-1.041 0-2.05-0.195-3.027-0.586 2.865 4.232 6.673 6.348 11.426 6.348 4.492 0 8.17-1.823 11.035-5.469 2.995-3.776 4.622-8.171 4.883-13.184 0.13-3.125 0.195-4.915 0.195-5.371 0-3.646-0.13-6.641-0.39-8.984-3.256 0.521-6.153 0.781-8.692 0.781-9.049 0-16.764-3.581-23.144-10.742-6.25-7.227-9.375-15.821-9.375-25.781 0-2.084 0.195-4.2 0.586-6.348 0.39-1.758 0.878-3.679 1.464-5.762 0.326-1.172 1.205-3.06 2.637-5.664 0.521-0.781 1.107-1.758 1.758-2.93 0.651-1.171 1.107-1.953 1.367-2.343 0.651-1.302 1.921-3.06 3.809-5.274 0.52-0.586 1.058-1.237 1.611-1.953s1.025-1.302 1.416-1.758c0.391-0.455 0.684-0.814 0.879-1.074s1.66-1.986 4.394-5.176c0.651-0.651 1.286-1.351 1.905-2.099 0.618-0.749 1.123-1.335 1.513-1.758 0.391-0.423 0.684-0.733 0.879-0.928-2.343-7.747-3.808-13.932-4.394-18.555-0.456-3.71-0.684-8.789-0.684-15.234 0-5.664 1.302-10.97 3.906-15.918 2.54-5.143 6.088-9.342 10.645-12.598 0.26-0.195 0.586-0.293 0.977-0.293 0.455 0 0.781 0.098 0.976 0.293 3.516 4.232 6.543 9.734 9.082 16.504 2.604 6.771 3.906 12.924 3.906 18.457 0 6.25-1.497 12.11-4.492 17.579-3.385 5.794-7.747 11.783-13.086 17.968 1.367 4.297 3.19 11.035 5.469 20.215m8.301 45.41c3.385-1.237 6.022-3.353 7.91-6.347 2.083-2.865 3.125-6.088 3.125-9.668 0-4.623-1.563-8.724-4.688-12.305-3.19-3.711-7.259-5.794-12.207-6.25 2.8 13.737 4.753 25.26 5.86 34.57m-37.793-22.558c0 6.445 2.604 12.109 7.812 16.992 5.339 4.752 11.328 7.129 17.969 7.129 2.734 0 5.404-0.196 8.008-0.586-1.042-9.896-3.093-21.745-6.152-35.547-3.711 0.391-6.674 1.693-8.887 3.906-2.149 2.279-3.223 4.85-3.223 7.715 0 4.948 2.637 8.952 7.91 12.012 0.456 0.455 0.684 0.944 0.684 1.465 0 0.52-0.228 1.009-0.684 1.464-0.39 0.456-0.879 0.684-1.465 0.684-0.065 0-0.358-0.065-0.878-0.195-3.711-2.019-6.576-4.623-8.594-7.813-1.888-3.385-2.832-6.803-2.832-10.254 0-4.492 1.4-8.561 4.199-12.207 2.93-3.646 6.738-5.989 11.426-7.031-1.823-7.292-3.321-12.988-4.492-17.09-1.042 1.172-2.295 2.588-3.76 4.248s-2.328 2.653-2.588 2.979c-2.344 3.06-4.134 5.436-5.371 7.129-2.214 3.06-3.841 5.696-4.883 7.91-1.107 2.474-2.083 5.176-2.93 8.105-0.846 2.8-1.269 5.795-1.269 8.985m32.617-99.317c-4.883 2.409-8.724 5.86-11.523 10.352-2.865 4.622-4.297 9.603-4.297 14.941 0 4.688 1.172 11.003 3.515 18.946 4.688-5.665 8.203-10.905 10.547-15.723 2.474-5.078 3.711-10.384 3.711-15.918 0-4.167-0.651-8.366-1.953-12.598"/>
  <path d="m616.72 681.07h0.586c0.26-0.066 0.488-0.098 0.684-0.098 7.291 0 13.281 2.572 17.968 7.715 4.688 5.078 7.032 11.002 7.032 17.773 0 8.399-3.484 15.235-10.45 20.508-1.823 1.432-4.199 2.604-7.129 3.516 0.326 4.231 0.489 7.649 0.489 10.254 0 0.52-0.065 2.408-0.196 5.664-0.26 6.054-2.343 11.295-6.25 15.722-3.776 4.362-8.463 6.543-14.062 6.543-5.274 0-9.766-1.855-13.477-5.566-3.711-3.776-5.566-8.334-5.566-13.672 0-2.8 1.074-5.176 3.223-7.129 2.213-1.953 4.785-2.93 7.714-2.93 2.605 0 4.786 1.009 6.543 3.028 1.823 1.888 2.735 4.231 2.735 7.031 0 2.539-0.912 4.72-2.735 6.543s-4.004 2.734-6.543 2.734c-1.041 0-2.05-0.195-3.027-0.586 2.865 4.232 6.673 6.348 11.426 6.348 4.492 0 8.17-1.823 11.035-5.469 2.995-3.776 4.622-8.17 4.883-13.183 0.13-3.125 0.195-4.916 0.195-5.371 0-3.646-0.13-6.641-0.39-8.985-3.256 0.521-6.153 0.781-8.692 0.781-9.049 0-16.764-3.58-23.144-10.742-6.25-7.226-9.375-15.82-9.375-25.781 0-2.083 0.195-4.199 0.586-6.348 0.39-1.757 0.878-3.678 1.464-5.761 0.326-1.172 1.205-3.06 2.637-5.664 0.521-0.782 1.107-1.758 1.758-2.93s1.107-1.953 1.367-2.344c0.651-1.302 1.921-3.06 3.809-5.273 0.52-0.586 1.058-1.237 1.611-1.953 0.553-0.717 1.025-1.303 1.416-1.758 0.391-0.456 0.684-0.814 0.879-1.074 0.195-0.261 1.66-1.986 4.394-5.176 0.651-0.651 1.286-1.351 1.905-2.1 0.618-0.749 1.123-1.334 1.513-1.758 0.391-0.423 0.684-0.732 0.879-0.927-2.343-7.748-3.808-13.933-4.394-18.555-0.456-3.711-0.684-8.789-0.684-15.234 0-5.665 1.302-10.971 3.906-15.918 2.54-5.144 6.088-9.343 10.645-12.598 0.26-0.195 0.586-0.293 0.977-0.293 0.455 0 0.781 0.098 0.976 0.293 3.516 4.232 6.543 9.733 9.082 16.504 2.604 6.771 3.906 12.923 3.906 18.457 0 6.25-1.497 12.109-4.492 17.578-3.385 5.794-7.747 11.784-13.086 17.969 1.367 4.297 3.19 11.035 5.469 20.215m8.301 45.41c3.385-1.237 6.022-3.353 7.91-6.348 2.083-2.865 3.125-6.087 3.125-9.668 0-4.622-1.563-8.724-4.688-12.305-3.19-3.711-7.259-5.794-12.207-6.25 2.8 13.737 4.753 25.261 5.86 34.571m-37.793-22.559c0 6.445 2.604 12.11 7.812 16.992 5.339 4.753 11.328 7.129 17.969 7.129 2.734 0 5.404-0.195 8.008-0.586-1.042-9.896-3.093-21.745-6.152-35.547-3.711 0.391-6.674 1.693-8.887 3.907-2.149 2.278-3.223 4.85-3.223 7.715 0 4.947 2.637 8.951 7.91 12.011 0.456 0.456 0.684 0.944 0.684 1.465s-0.228 1.009-0.684 1.465c-0.39 0.456-0.879 0.684-1.465 0.684-0.065 0-0.358-0.066-0.878-0.196-3.711-2.018-6.576-4.622-8.594-7.812-1.888-3.386-2.832-6.804-2.832-10.254 0-4.492 1.4-8.561 4.199-12.207 2.93-3.646 6.738-5.99 11.426-7.031-1.823-7.292-3.321-12.989-4.492-17.09-1.042 1.172-2.295 2.588-3.76 4.248s-2.328 2.653-2.588 2.978c-2.344 3.06-4.134 5.436-5.371 7.129-2.214 3.06-3.841 5.697-4.883 7.91-1.107 2.474-2.083 5.176-2.93 8.106-0.846 2.799-1.269 5.794-1.269 8.984m32.617-99.316c-4.883 2.409-8.724 5.859-11.523 10.351-2.865 4.623-4.297 9.603-4.297 14.942 0 4.687 1.172 11.002 3.515 18.945 4.688-5.664 8.203-10.905 10.547-15.723 2.474-5.078 3.711-10.384 3.711-15.918 0-4.166-0.651-8.366-1.953-12.597"/>
  <path d="m673.12 352.53v7.715c0 2.734 0.13 4.915 0.391 6.543 2.148-1.823 3.678-3.19 4.59-4.102 1.041-1.042 2.083-2.474 3.125-4.297 1.041-1.823 1.562-3.646 1.562-5.468 0-1.823-0.391-3.386-1.172-4.688s-1.823-1.953-3.125-1.953c-1.562 0-2.864 0.586-3.906 1.758-0.977 1.302-1.465 2.799-1.465 4.492m-4.101 17.871-1.27-59.473c0.911-0.521 1.823-0.781 2.734-0.781 0.912 0 1.823 0.26 2.735 0.781l-0.781 34.473c2.669-2.279 5.729-3.418 9.179-3.418 2.539 0 4.655 1.042 6.348 3.125s2.539 4.46 2.539 7.129c0 1.693-0.553 3.483-1.66 5.371-1.042 1.758-2.149 3.125-3.321 4.102-0.651 0.52-2.311 1.822-4.98 3.906-0.781 0.586-1.709 1.269-2.783 2.051-1.074 0.781-1.742 1.269-2.002 1.464-0.456 0.261-0.879 0.782-1.27 1.563-0.455 0.651-0.976 1.204-1.562 1.66-0.456 0.391-1.009 0.586-1.66 0.586s-1.172-0.228-1.563-0.684c-0.456-0.455-0.683-1.074-0.683-1.855"/>
  <path d="m673.12 677.55v7.715c0 2.735 0.13 4.916 0.391 6.543 2.148-1.823 3.678-3.19 4.59-4.101 1.041-1.042 2.083-2.474 3.125-4.297 1.041-1.823 1.562-3.646 1.562-5.469s-0.391-3.385-1.172-4.688c-0.781-1.302-1.823-1.953-3.125-1.953-1.562 0-2.864 0.586-3.906 1.758-0.977 1.302-1.465 2.8-1.465 4.492m-4.101 17.871-1.27-59.472c0.911-0.521 1.823-0.781 2.734-0.781 0.912 0 1.823 0.26 2.735 0.781l-0.781 34.472c2.669-2.278 5.729-3.418 9.179-3.418 2.539 0 4.655 1.042 6.348 3.125 1.693 2.084 2.539 4.46 2.539 7.129 0 1.693-0.553 3.483-1.66 5.371-1.042 1.758-2.149 3.125-3.321 4.102-0.651 0.521-2.311 1.823-4.98 3.906-0.781 0.586-1.709 1.27-2.783 2.051s-1.742 1.27-2.002 1.465c-0.456 0.26-0.879 0.781-1.27 1.562-0.455 0.651-0.976 1.205-1.562 1.661-0.456 0.39-1.009 0.586-1.66 0.586s-1.172-0.228-1.563-0.684c-0.456-0.456-0.683-1.074-0.683-1.856"/>
  <path d="m738.49 307.81c1.953 0 3.613-0.227 4.981-0.683 1.367-0.456 2.246-0.684 2.636-0.684 0.456 0 0.814 0.13 1.075 0.391 0.195 0.195 0.325 0.423 0.39 0.684 0 0.13-0.065 0.325-0.195 0.585l-28.418 33.008h16.699v-13.086c0-0.846 0.228-1.562 0.684-2.148 0.781-0.651 1.432-1.042 1.953-1.172 0.846-0.391 1.888-1.302 3.125-2.734 1.042-1.172 2.279-3.223 3.711-6.153 0.195-0.39 0.488-0.586 0.879-0.586 0.781 0 1.237 0.456 1.367 1.368v24.511h7.129c0.911 0 1.432 0.489 1.562 1.465 0 0.977-0.521 1.465-1.562 1.465h-7.129v0.781c0 2.604 0.651 4.818 1.953 6.641 1.497 1.823 3.255 2.734 5.273 2.734 0.782 0 1.172 0.391 1.172 1.172s-0.39 1.172-1.172 1.172c-1.367 0-3.58-0.195-6.64-0.586-2.8-0.456-4.981-0.684-6.543-0.684-1.628 0-3.809 0.228-6.543 0.684-2.93 0.391-5.111 0.586-6.543 0.586-0.781 0-1.172-0.391-1.172-1.172s0.391-1.172 1.172-1.172c2.018 0 3.776-0.911 5.273-2.734 1.368-1.888 2.051-4.102 2.051-6.641v-0.781h-16.699c-1.107 0-1.888-0.26-2.344-0.781-0.521-0.391-0.781-0.912-0.781-1.563 0-0.195 0.488-0.879 1.465-2.051 1.107-1.302 2.278-2.897 3.515-4.785 1.433-2.213 2.8-4.492 4.102-6.836 1.432-2.669 2.572-5.729 3.418-9.179 0.977-3.516 1.465-7.097 1.465-10.743 0-1.041 0.456-1.562 1.367-1.562 0.195 0 0.618 0.098 1.27 0.293 0.195 0.065 0.602 0.163 1.22 0.293 0.619 0.13 1.123 0.26 1.514 0.391 1.172 0.195 2.279 0.292 3.32 0.292"/>
  <path d="m738.49 357.99c1.953 0 3.613-0.228 4.981-0.684 1.367-0.456 2.246-0.684 2.636-0.684 0.456 0 0.814 0.131 1.075 0.391 0.195 0.195 0.325 0.423 0.39 0.684 0 0.13-0.065 0.325-0.195 0.585l-28.418 33.008h16.699v-13.086c0-0.846 0.228-1.562 0.684-2.148 0.781-0.651 1.432-1.042 1.953-1.172 0.846-0.391 1.888-1.302 3.125-2.734 1.042-1.172 2.279-3.223 3.711-6.153 0.195-0.39 0.488-0.586 0.879-0.586 0.781 0 1.237 0.456 1.367 1.368v24.511h7.129c0.911 0 1.432 0.489 1.562 1.465 0 0.977-0.521 1.465-1.562 1.465h-7.129v0.781c0 2.604 0.651 4.818 1.953 6.641 1.497 1.823 3.255 2.734 5.273 2.734 0.782 0 1.172 0.391 1.172 1.172s-0.39 1.172-1.172 1.172c-1.367 0-3.58-0.195-6.64-0.586-2.8-0.456-4.981-0.684-6.543-0.684-1.628 0-3.809 0.228-6.543 0.684-2.93 0.391-5.111 0.586-6.543 0.586-0.781 0-1.172-0.391-1.172-1.172s0.391-1.172 1.172-1.172c2.018 0 3.776-0.911 5.273-2.734 1.368-1.888 2.051-4.102 2.051-6.641v-0.781h-16.699c-1.107 0-1.888-0.26-2.344-0.781-0.521-0.391-0.781-0.912-0.781-1.563 0-0.195 0.488-0.879 1.465-2.051 1.107-1.302 2.278-2.897 3.515-4.785 1.433-2.213 2.8-4.492 4.102-6.836 1.432-2.669 2.572-5.729 3.418-9.179 0.977-3.516 1.465-7.097 1.465-10.743 0-1.041 0.456-1.562 1.367-1.562 0.195 0 0.618 0.098 1.27 0.293 0.195 0.065 0.602 0.163 1.22 0.293 0.619 0.13 1.123 0.26 1.514 0.391 1.172 0.195 2.279 0.293 3.32 0.293"/>
  <path d="m847.71 376.28c0-1.172 0.651-2.474 1.953-3.906 0.977-1.042 2.409-2.279 4.297-3.711 1.432-0.977 2.832-2.442 4.199-4.395 1.302-1.888 1.953-3.938 1.953-6.152 0-2.604-0.846-4.915-2.539-6.934l-3.515-4.199c-0.261-0.26-0.391-0.586-0.391-0.976 0-0.391 0.195-0.749 0.586-1.075 0.456-0.325 0.846-0.488 1.172-0.488 0.455 0 0.813 0.195 1.074 0.586l15.137 17.969c0.651 0.846 0.976 1.693 0.976 2.539 0 1.172-0.651 2.474-1.953 3.906-0.846 0.912-2.246 2.149-4.199 3.711-1.498 0.912-2.93 2.376-4.297 4.395-1.302 1.888-1.953 3.938-1.953 6.152 0 2.734 0.781 5.046 2.344 6.934l8.398 9.863c0.195 0.195 0.358 0.521 0.488 0.976 0 0.456-0.162 0.847-0.488 1.172-0.456 0.326-0.846 0.489-1.172 0.489-0.13 0-0.651-0.359-1.562-1.075-0.977-0.781-2.279-1.53-3.907-2.246-1.823-0.716-3.613-1.074-5.371-1.074-1.627 0-2.962 0.456-4.004 1.367-0.911 0.912-1.367 2.669-1.367 5.274 0 3.971 0.944 7.096 2.832 9.375 0.196 0.26 0.228 0.586 0.098 0.976-0.13 0.261-0.358 0.391-0.684 0.391-0.455 0-1.465-1.172-3.027-3.516-1.628-2.474-3.158-5.306-4.59-8.496-1.497-3.385-2.246-6.185-2.246-8.398 0-2.8 1.335-4.2 4.004-4.2 3.06 0 7.031 1.042 11.914 3.125l-13.184-15.82c-0.651-0.846-0.976-1.693-0.976-2.539"/>
  <path d="m1463.7 422.26h-35.54c-0.65 0-0.98-0.326-0.98-0.977v-13.672c0-0.651 0.33-0.976 0.98-0.976h35.54c0.65 0 0.98 0.325 0.98 0.976v13.672c0 0.651-0.33 0.977-0.98 0.977"/>
  <path d="m2170.5 422.26h-35.55c-0.65 0-0.98-0.326-0.98-0.977v-13.672c0-0.651 0.33-0.976 0.98-0.976h35.55c0.65 0 0.97 0.325 0.97 0.976v13.672c0 0.651-0.32 0.977-0.97 0.977"/>
  <path d="m863.87 256.62v-25h3.125c0 3.711 0.716 7.421 2.148 11.132 1.563 4.037 3.288 7.552 5.176 10.547 1.367 2.149 3.418 5.436 6.152 9.864 2.084 3.385 3.841 6.933 5.274 10.644 1.432 3.711 2.148 7.422 2.148 11.133 0 6.771-1.4 13.672-4.199 20.703-0.521 0.781-1.139 1.172-1.856 1.172-0.651 0-1.237-0.261-1.757-0.781-0.391-0.391-0.586-0.879-0.586-1.465v-0.488c2.799-6.446 4.199-12.826 4.199-19.141 0-3.255-0.977-6.771-2.93-10.547-1.953-3.841-3.939-6.901-5.957-9.18-2.278-2.669-4.883-5.534-7.812-8.593h-3.125"/>
  <path d="m1031.1 256.63c0 3.32 0.72 6.641 2.15 9.961 1.37 3.255 3.06 6.348 5.08 9.277l5.86 8.594c1.95 2.669 3.64 5.762 5.08 9.278 1.43 3.255 2.14 6.543 2.14 9.863 0 3.06-0.78 6.25-2.34 9.57 1.95 3.971 2.93 7.845 2.93 11.621 0 5.99-1.4 12.11-4.2 18.36-0.52 0.781-1.14 1.171-1.85 1.171-0.66 0-1.24-0.26-1.76-0.781-0.39-0.39-0.59-0.879-0.59-1.465v-0.488c2.8-5.534 4.2-11.133 4.2-16.797 0-2.539-0.49-4.883-1.46-7.031-1.18-2.539-2.61-4.883-4.3-7.031-2.15-2.8-3.84-4.818-5.08-6.055-1.69-1.693-3.64-3.548-5.86-5.566v7.519h-3.12v-50h3.12m15.33 51.66c0.46-1.367 0.69-2.929 0.69-4.687 0-2.279-0.46-4.59-1.37-6.934-0.98-2.344-2.34-4.72-4.1-7.129-1.63-2.018-3.29-4.004-4.98-5.957-1.3-1.432-3.16-3.32-5.57-5.664 0 2.669 0.55 5.502 1.66 8.496 1.17 2.8 2.38 5.241 3.61 7.325 1.44 2.213 3.2 4.72 5.28 7.519 2.08 2.8 3.68 5.143 4.78 7.031"/>
  <path d="m1388.1 294.13v-25h3.13c0 3.711 0.71 7.422 2.14 11.133 1.57 4.036 3.29 7.552 5.18 10.547 1.37 2.148 3.42 5.436 6.15 9.863 2.09 3.385 3.84 6.934 5.28 10.644 1.43 3.711 2.14 7.422 2.14 11.133 0 6.771-1.4 13.672-4.2 20.703-0.52 0.782-1.13 1.172-1.85 1.172-0.65 0-1.24-0.26-1.76-0.781-0.39-0.391-0.58-0.879-0.58-1.465v-0.488c2.8-6.445 4.19-12.826 4.19-19.141 0-3.255-0.97-6.771-2.92-10.547-1.96-3.841-3.94-6.901-5.96-9.179-2.28-2.67-4.88-5.534-7.81-8.594h-3.13"/>
  <path d="m1506.7 269.12v-25h3.12c0 3.711 0.72 7.422 2.15 11.133 1.56 4.037 3.29 7.552 5.18 10.547 1.36 2.148 3.42 5.436 6.15 9.863 2.08 3.386 3.84 6.934 5.27 10.645 1.44 3.711 2.15 7.422 2.15 11.133 0 6.771-1.4 13.672-4.2 20.703-0.52 0.781-1.14 1.172-1.85 1.172-0.65 0-1.24-0.261-1.76-0.782-0.39-0.39-0.59-0.878-0.59-1.464v-0.489c2.8-6.445 4.2-12.825 4.2-19.14 0-3.256-0.97-6.771-2.93-10.547-1.95-3.841-3.94-6.901-5.95-9.18-2.28-2.669-4.89-5.534-7.82-8.594h-3.12"/>
  <path d="m2287.2 300.38v-17.501h2.1876c0 2.5978 0.5014 5.1956 1.504 7.7934 1.0939 2.8257 2.3016 5.2868 3.6233 7.3833 0.9571 1.504 2.3928 3.8056 4.307 6.9048 1.4584 2.3699 2.6889 4.8538 3.6916 7.4516 1.0026 2.5978 1.5039 5.1956 1.5039 7.7934 0 4.7398-0.9798 9.5709-2.9396 14.493-0.3646 0.54694-0.7975 0.82038-1.2988 0.82038-0.4558 0-0.866-0.18229-1.2307-0.54688-0.2734-0.2735-0.4101-0.61526-0.4101-1.0255v-0.34183c1.9598-4.512 2.9396-8.9784 2.9396-13.399 0-2.2788-0.6836-4.7399-2.0509-7.3833-1.3673-2.6889-2.7573-4.831-4.1702-6.4261-1.5951-1.8686-3.4182-3.874-5.4691-6.016h-2.1876" stroke-width=".70004"/>
  <path d="m1030.7 609.77v-25h3.12c0 3.711 0.72 7.422 2.15 11.133 1.56 4.036 3.29 7.552 5.17 10.547 1.37 2.148 3.42 5.436 6.16 9.863 2.08 3.385 3.84 6.933 5.27 10.644s2.15 7.422 2.15 11.133c0 6.771-1.4 13.672-4.2 20.703-0.52 0.782-1.14 1.172-1.86 1.172-0.65 0-1.23-0.26-1.75-0.781-0.39-0.391-0.59-0.879-0.59-1.465v-0.488c2.8-6.446 4.2-12.826 4.2-19.141 0-3.255-0.98-6.771-2.93-10.547-1.95-3.841-3.94-6.901-5.96-9.179-2.28-2.67-4.88-5.534-7.81-8.594h-3.12"/>
  <path d="m1940.3 619.15v-25h3.12c0 3.711 0.72 7.422 2.15 11.133 1.56 4.037 3.29 7.552 5.18 10.547 1.36 2.149 3.41 5.436 6.15 9.863 2.08 3.386 3.84 6.934 5.27 10.645s2.15 7.422 2.15 11.133c0 6.771-1.4 13.672-4.2 20.703-0.52 0.781-1.14 1.172-1.85 1.172-0.65 0-1.24-0.261-1.76-0.782-0.39-0.39-0.59-0.878-0.59-1.464v-0.489c2.8-6.445 4.2-12.825 4.2-19.14 0-3.255-0.97-6.771-2.93-10.547-1.95-3.841-3.94-6.901-5.95-9.18-2.28-2.669-4.89-5.534-7.82-8.594h-3.12"/>
  <path d="m877.53 323.13c-1.107-1.107-1.661-2.441-1.661-4.004 0-1.562 0.554-2.897 1.661-4.004 1.106-1.107 2.441-1.66 4.004-1.66 1.562 0 2.897 0.553 4.003 1.66 1.107 1.107 1.661 2.442 1.661 4.004 0 1.563-0.554 2.897-1.661 4.004-1.106 1.107-2.441 1.66-4.003 1.66-1.563 0-2.898-0.553-4.004-1.66"/>
  <path d="m1170.5 323.13c-1.11-1.107-1.66-2.441-1.66-4.004 0-1.562 0.55-2.897 1.66-4.004s2.44-1.66 4-1.66 2.9 0.553 4.01 1.66c1.1 1.107 1.66 2.442 1.66 4.004 0 1.563-0.56 2.897-1.66 4.004-1.11 1.107-2.45 1.66-4.01 1.66s-2.89-0.553-4-1.66"/>
  <path d="m1638.9 323.13c-1.11-1.107-1.66-2.441-1.66-4.004 0-1.562 0.55-2.897 1.66-4.004 1.1-1.107 2.44-1.66 4-1.66s2.9 0.553 4 1.66c1.11 1.107 1.66 2.442 1.66 4.004 0 1.563-0.55 2.897-1.66 4.004-1.1 1.107-2.44 1.66-4 1.66s-2.9-0.553-4-1.66"/>
  <path d="m1121.8 723.16c-1.11-1.107-1.66-2.441-1.66-4.004 0-1.562 0.55-2.897 1.66-4.004 1.1-1.106 2.44-1.66 4-1.66s2.9 0.554 4 1.66c1.11 1.107 1.66 2.442 1.66 4.004 0 1.563-0.55 2.897-1.66 4.004-1.1 1.107-2.44 1.66-4 1.66s-2.9-0.553-4-1.66"/>
  <path d="m1121.8 698.16c-1.11-1.107-1.66-2.442-1.66-4.004 0-1.563 0.55-2.897 1.66-4.004 1.1-1.107 2.44-1.66 4-1.66s2.9 0.553 4 1.66c1.11 1.107 1.66 2.441 1.66 4.004 0 1.562-0.55 2.897-1.66 4.004-1.1 1.106-2.44 1.66-4 1.66s-2.9-0.554-4-1.66"/>
  <path d="m1121.8 673.16c-1.11-1.107-1.66-2.441-1.66-4.004 0-1.562 0.55-2.897 1.66-4.004 1.1-1.107 2.44-1.66 4-1.66s2.9 0.553 4 1.66c1.11 1.107 1.66 2.442 1.66 4.004 0 1.563-0.55 2.897-1.66 4.004-1.1 1.107-2.44 1.66-4 1.66s-2.9-0.553-4-1.66"/>
  <path d="m1423.7 698.16c-1.11-1.107-1.66-2.442-1.66-4.004 0-1.563 0.55-2.897 1.66-4.004s2.44-1.66 4-1.66c1.57 0 2.9 0.553 4.01 1.66s1.66 2.441 1.66 4.004c0 1.562-0.55 2.897-1.66 4.004-1.11 1.106-2.44 1.66-4.01 1.66-1.56 0-2.89-0.554-4-1.66"/>
  <path d="m1423.7 648.15c-1.11-1.106-1.66-2.441-1.66-4.003 0-1.563 0.55-2.898 1.66-4.004 1.11-1.107 2.44-1.66 4-1.66 1.57 0 2.9 0.553 4.01 1.66 1.11 1.106 1.66 2.441 1.66 4.004 0 1.562-0.55 2.897-1.66 4.003-1.11 1.107-2.44 1.661-4.01 1.661-1.56 0-2.89-0.554-4-1.661"/>
  <path d="m2066.8 723.16c-1.11-1.107-1.66-2.441-1.66-4.004 0-1.562 0.55-2.897 1.66-4.004 1.11-1.106 2.44-1.66 4-1.66 1.57 0 2.9 0.554 4.01 1.66 1.11 1.107 1.66 2.442 1.66 4.004 0 1.563-0.55 2.897-1.66 4.004s-2.44 1.66-4.01 1.66c-1.56 0-2.89-0.553-4-1.66"/>
  <path d="m2066.8 698.16c-1.11-1.107-1.66-2.442-1.66-4.004 0-1.563 0.55-2.897 1.66-4.004s2.44-1.66 4-1.66c1.57 0 2.9 0.553 4.01 1.66s1.66 2.441 1.66 4.004c0 1.562-0.55 2.897-1.66 4.004-1.11 1.106-2.44 1.66-4.01 1.66-1.56 0-2.89-0.554-4-1.66"/>
  <path d="m2066.8 673.16c-1.11-1.107-1.66-2.441-1.66-4.004 0-1.562 0.55-2.897 1.66-4.004s2.44-1.66 4-1.66c1.57 0 2.9 0.553 4.01 1.66s1.66 2.442 1.66 4.004c0 1.563-0.55 2.897-1.66 4.004s-2.44 1.66-4.01 1.66c-1.56 0-2.89-0.553-4-1.66"/>
</svg>
