<?xml version="1.0" encoding="utf-8"?>
<svg xmlns="http://www.w3.org/2000/svg" version="1.2" viewBox="560 270 1926 543">
  <title>Chapter 2 score.</title>
  <path d="m560 311.6h1926.1" fill="none" stroke="#000" stroke-linejoin="bevel" stroke-width="2"/>
  <path d="m560 336.6h1926.1" fill="none" stroke="#000" stroke-linejoin="bevel" stroke-width="2"/>
  <path d="m560 361.6h1926.1" fill="none" stroke="#000" stroke-linejoin="bevel" stroke-width="2"/>
  <path d="m560 386.6h1926.1" fill="none" stroke="#000" stroke-linejoin="bevel" stroke-width="2"/>
  <path d="m560 411.6h1926.1" fill="none" stroke="#000" stroke-linejoin="bevel" stroke-width="2"/>
  <path d="m560 636.62h1926.1" fill="none" stroke="#000" stroke-linejoin="bevel" stroke-width="2"/>
  <path d="m560 661.62h1926.1" fill="none" stroke="#000" stroke-linejoin="bevel" stroke-width="2"/>
  <path d="m560 686.62h1926.1" fill="none" stroke="#000" stroke-linejoin="bevel" stroke-width="2"/>
  <path d="m560 711.62h1926.1" fill="none" stroke="#000" stroke-linejoin="bevel" stroke-width="2"/>
  <path d="m560 736.62h1926.1" fill="none" stroke="#000" stroke-linejoin="bevel" stroke-width="2"/>
  <path d="m1473.6 554.17c62.78-35.58 213.21 3.507 250.73 65.145-38.52-57.766-188.96-96.853-250.73-65.145" fill-rule="evenodd" stroke="#000" stroke-linecap="round" stroke-linejoin="round" stroke-width="1.75"/>
  <path d="m1470 759c43.81 30.502 175.23 30.502 219.04 0-43.81 34.502-175.23 34.502-219.04 0" fill-rule="evenodd" stroke="#000" stroke-linecap="round" stroke-linejoin="round" stroke-width="1.75"/>
  <path d="m1018.2 310.6v102.01" stroke="#000" stroke-linejoin="bevel" stroke-width="4"/>
  <path d="m1523.3 310.6v102.01" stroke="#000" stroke-linejoin="bevel" stroke-width="4"/>
  <path d="m1979.1 310.6v102.01" stroke="#000" stroke-linejoin="bevel" stroke-width="4"/>
  <path d="m2484.1 310.6v102.01" stroke="#000" stroke-linejoin="bevel" stroke-width="4"/>
  <path d="m1406.2 635.62v102.01" stroke="#000" stroke-linejoin="bevel" stroke-width="4"/>
  <path d="m2114.8 635.62v102.01" stroke="#000" stroke-linejoin="bevel" stroke-width="4"/>
  <path d="m1305 436.6h47.92" stroke="#000" stroke-linecap="square" stroke-linejoin="bevel" stroke-width="4"/>
  <path d="m1552.3 461.61h47.92" stroke="#000" stroke-linecap="square" stroke-linejoin="bevel" stroke-width="4"/>
  <path d="m1552.3 436.6h47.92" stroke="#000" stroke-linecap="square" stroke-linejoin="bevel" stroke-width="4"/>
  <path d="m1668.2 461.61h47.91" stroke="#000" stroke-linecap="square" stroke-linejoin="bevel" stroke-width="4"/>
  <path d="m1668.2 436.6h47.91" stroke="#000" stroke-linecap="square" stroke-linejoin="bevel" stroke-width="4"/>
  <path d="m784.99 786.63h47.917" stroke="#000" stroke-linecap="square" stroke-linejoin="bevel" stroke-width="4"/>
  <path d="m784.99 761.63h47.917" stroke="#000" stroke-linecap="square" stroke-linejoin="bevel" stroke-width="4"/>
  <path d="m954.9 786.63h47.92" stroke="#000" stroke-linecap="square" stroke-linejoin="bevel" stroke-width="4"/>
  <path d="m954.9 761.63h47.92" stroke="#000" stroke-linecap="square" stroke-linejoin="bevel" stroke-width="4"/>
  <path d="m2143.4 753.82v57.808" stroke="#000" stroke-linecap="round" stroke-linejoin="bevel" stroke-width="3.25"/>
  <path d="m2302.3 753.82v57.808" stroke="#000" stroke-linecap="round" stroke-linejoin="bevel" stroke-width="3.25"/>
  <path d="m868.82 420.26v-108.67" stroke="#000" stroke-linecap="round" stroke-linejoin="bevel" stroke-width="3.25"/>
  <path d="m1078.3 420.26v-108.67" stroke="#000" stroke-linecap="round" stroke-linejoin="bevel" stroke-width="3.25"/>
  <path d="m1343.7 431.91v-107.81" stroke="#000" stroke-linecap="round" stroke-linejoin="bevel" stroke-width="3.25"/>
  <path d="m1448.2 419.41v-107.81" stroke="#000" stroke-linecap="round" stroke-linejoin="bevel" stroke-width="3.25"/>
  <path d="m1591.1 456.91v-120.31" stroke="#000" stroke-linecap="round" stroke-linejoin="bevel" stroke-width="3.25"/>
  <path d="m1707 456.91v-120.31" stroke="#000" stroke-linecap="round" stroke-linejoin="bevel" stroke-width="3.25"/>
  <path d="m1823.8 395.26v-102.42" stroke="#000" stroke-linecap="round" stroke-linejoin="bevel" stroke-width="3.25"/>
  <path d="m2039.2 395.26v-102.42" stroke="#000" stroke-linecap="round" stroke-linejoin="bevel" stroke-width="3.25"/>
  <path d="m2304.6 419.41v-107.81" stroke="#000" stroke-linecap="round" stroke-linejoin="bevel" stroke-width="3.25"/>
  <path d="m2409 394.41v-101.56" stroke="#000" stroke-linecap="round" stroke-linejoin="bevel" stroke-width="3.25"/>
  <path d="m823.78 781.93v-132.81" stroke="#000" stroke-linecap="round" stroke-linejoin="bevel" stroke-width="3.25"/>
  <path d="m993.69 781.93v-132.81" stroke="#000" stroke-linecap="round" stroke-linejoin="bevel" stroke-width="3.25"/>
  <path d="m1164.5 732.78v-114.92" stroke="#000" stroke-linecap="round" stroke-linejoin="bevel" stroke-width="3.25"/>
  <path d="m1464.4 744.43v-107.81" stroke="#000" stroke-linecap="round" stroke-linejoin="bevel" stroke-width="3.25"/>
  <path d="m1624.4 719.43v-89.061" stroke="#000" stroke-linecap="round" stroke-linejoin="bevel" stroke-width="3.25"/>
  <path d="m1724.3 744.43v-101.56" stroke="#000" stroke-linecap="round" stroke-linejoin="bevel" stroke-width="3.25"/>
  <path d="m1824.2 744.43v-117.19" stroke="#000" stroke-linecap="round" stroke-linejoin="bevel" stroke-width="3.25"/>
  <path d="m1984.2 744.43v-107.81" stroke="#000" stroke-linecap="round" stroke-linejoin="bevel" stroke-width="3.25"/>
  <path d="m2173.1 744.43v-82.81" stroke="#000" stroke-linecap="round" stroke-linejoin="bevel" stroke-width="3.25"/>
  <path d="m2332 744.43v-82.81" stroke="#000" stroke-linecap="round" stroke-linejoin="bevel" stroke-width="3.25"/>
  <path d="m2163.8 735.36c3.12 0 5.76 0.814 7.91 2.442 2.02 1.758 3.03 3.971 3.03 6.64 0 4.493-2.31 8.692-6.94 12.598-4.68 3.906-9.7 5.859-15.04 5.859-3.12 0-5.76-0.813-7.91-2.441-2.01-1.758-3.02-3.971-3.02-6.641 0-4.492 2.34-8.691 7.03-12.597 4.55-3.907 9.54-5.86 14.94-5.86"/>
  <path d="m2322.7 735.36c3.12 0 5.76 0.814 7.91 2.442 2.01 1.758 3.02 3.971 3.02 6.64 0 4.493-2.31 8.692-6.93 12.598-4.69 3.906-9.7 5.859-15.04 5.859-3.12 0-5.76-0.813-7.91-2.441-2.02-1.758-3.03-3.971-3.03-6.641 0-4.492 2.35-8.691 7.03-12.597 4.56-3.907 9.54-5.86 14.95-5.86"/>
  <path d="m867.27 417.56c0-1.106-0.423-2.05-1.269-2.832-0.846-0.846-1.823-1.269-2.93-1.269-1.953 0-5.892 1.953-11.816 5.859-6.12 3.972-9.863 6.804-11.231 8.496-0.716 0.912-1.074 1.856-1.074 2.832 0 1.107 0.423 2.051 1.27 2.832 0.781 0.847 1.757 1.27 2.929 1.27 1.888 0 5.86-1.953 11.914-5.859 5.99-3.907 9.701-6.739 11.133-8.497 0.716-0.846 1.074-1.79 1.074-2.832m-5.175-7.226c5.599 0 8.398 2.409 8.398 7.226 0 2.344-0.684 5.079-2.051 8.204-1.367 3.059-3.19 5.403-5.468 7.031-5.013 3.385-11.296 5.078-18.848 5.078-5.599 0-8.399-2.409-8.399-7.227 0-2.148 0.684-4.85 2.051-8.105 1.302-3.125 3.125-5.501 5.469-7.129 5.013-3.385 11.296-5.078 18.848-5.078"/>
  <path d="m867.27 392.56c0-1.107-0.423-2.051-1.269-2.832-0.846-0.847-1.823-1.27-2.93-1.27-1.953 0-5.892 1.953-11.816 5.86-6.12 3.971-9.863 6.803-11.231 8.496-0.716 0.911-1.074 1.855-1.074 2.832 0 1.107 0.423 2.051 1.27 2.832 0.781 0.846 1.757 1.269 2.929 1.269 1.888 0 5.86-1.953 11.914-5.859 5.99-3.906 9.701-6.738 11.133-8.496 0.716-0.846 1.074-1.79 1.074-2.832m-5.175-7.227c5.599 0 8.398 2.409 8.398 7.227 0 2.344-0.684 5.078-2.051 8.203-1.367 3.06-3.19 5.404-5.468 7.031-5.013 3.386-11.296 5.078-18.848 5.078-5.599 0-8.399-2.409-8.399-7.226 0-2.149 0.684-4.85 2.051-8.106 1.302-3.125 3.125-5.501 5.469-7.129 5.013-3.385 11.296-5.078 18.848-5.078"/>
  <path d="m1076.7 417.56c0-1.106-0.42-2.05-1.27-2.832-0.84-0.846-1.82-1.269-2.93-1.269-1.95 0-5.89 1.953-11.81 5.859-6.12 3.972-9.87 6.804-11.23 8.496-0.72 0.912-1.08 1.856-1.08 2.832 0 1.107 0.43 2.051 1.27 2.832 0.78 0.847 1.76 1.27 2.93 1.27 1.89 0 5.86-1.953 11.92-5.859 5.98-3.907 9.7-6.739 11.13-8.497 0.71-0.846 1.07-1.79 1.07-2.832m-5.17-7.226c5.6 0 8.39 2.409 8.39 7.226 0 2.344-0.68 5.079-2.05 8.204-1.36 3.059-3.19 5.403-5.46 7.031-5.02 3.385-11.3 5.078-18.85 5.078-5.6 0-8.4-2.409-8.4-7.227 0-2.148 0.68-4.85 2.05-8.105 1.3-3.125 3.13-5.501 5.47-7.129 5.01-3.385 11.29-5.078 18.85-5.078"/>
  <path d="m1076.7 392.56c0-1.107-0.42-2.051-1.27-2.832-0.84-0.847-1.82-1.27-2.93-1.27-1.95 0-5.89 1.953-11.81 5.86-6.12 3.971-9.87 6.803-11.23 8.496-0.72 0.911-1.08 1.855-1.08 2.832 0 1.107 0.43 2.051 1.27 2.832 0.78 0.846 1.76 1.269 2.93 1.269 1.89 0 5.86-1.953 11.92-5.859 5.98-3.906 9.7-6.738 11.13-8.496 0.71-0.846 1.07-1.79 1.07-2.832m-5.17-7.227c5.6 0 8.39 2.409 8.39 7.227 0 2.344-0.68 5.078-2.05 8.203-1.36 3.06-3.19 5.404-5.46 7.031-5.02 3.386-11.3 5.078-18.85 5.078-5.6 0-8.4-2.409-8.4-7.226 0-2.149 0.68-4.85 2.05-8.106 1.3-3.125 3.13-5.501 5.47-7.129 5.01-3.385 11.29-5.078 18.85-5.078"/>
  <path d="m1334.4 422.84c3.13 0 5.76 0.813 7.91 2.441 2.02 1.758 3.03 3.971 3.03 6.641 0 4.492-2.31 8.691-6.93 12.597-4.69 3.907-9.7 5.86-15.04 5.86-3.13 0-5.76-0.814-7.91-2.442-2.02-1.758-3.03-3.971-3.03-6.64 0-4.493 2.34-8.692 7.03-12.598 4.56-3.906 9.54-5.859 14.94-5.859"/>
  <path d="m1334.4 397.83c3.13 0 5.76 0.814 7.91 2.441 2.02 1.758 3.03 3.972 3.03 6.641 0 4.492-2.31 8.692-6.93 12.598-4.69 3.906-9.7 5.859-15.04 5.859-3.13 0-5.76-0.814-7.91-2.441-2.02-1.758-3.03-3.972-3.03-6.641 0-4.492 2.34-8.691 7.03-12.598 4.56-3.906 9.54-5.859 14.94-5.859"/>
  <path d="m1438.8 410.34c3.13 0 5.76 0.814 7.91 2.441 2.02 1.758 3.03 3.972 3.03 6.641 0 4.492-2.31 8.691-6.93 12.598-4.69 3.906-9.7 5.859-15.04 5.859-3.13 0-5.76-0.814-7.91-2.441-2.02-1.758-3.03-3.972-3.03-6.641 0-4.492 2.34-8.692 7.03-12.598 4.56-3.906 9.54-5.859 14.94-5.859"/>
  <path d="m1438.8 385.33c3.13 0 5.76 0.814 7.91 2.442 2.02 1.758 3.03 3.971 3.03 6.64 0 4.493-2.31 8.692-6.93 12.598-4.69 3.906-9.7 5.859-15.04 5.859-3.13 0-5.76-0.813-7.91-2.441-2.02-1.758-3.03-3.971-3.03-6.641 0-4.492 2.34-8.691 7.03-12.597 4.56-3.907 9.54-5.86 14.94-5.86"/>
  <path d="m1581.7 447.84c3.13 0 5.77 0.814 7.91 2.442 2.02 1.757 3.03 3.971 3.03 6.64 0 4.492-2.31 8.692-6.93 12.598-4.69 3.906-9.7 5.859-15.04 5.859-3.13 0-5.76-0.814-7.91-2.441-2.02-1.758-3.03-3.971-3.03-6.641 0-4.492 2.35-8.691 7.03-12.597 4.56-3.907 9.54-5.86 14.94-5.86"/>
  <path d="m1581.7 410.34c3.13 0 5.77 0.814 7.91 2.441 2.02 1.758 3.03 3.972 3.03 6.641 0 4.492-2.31 8.691-6.93 12.598-4.69 3.906-9.7 5.859-15.04 5.859-3.13 0-5.76-0.814-7.91-2.441-2.02-1.758-3.03-3.972-3.03-6.641 0-4.492 2.35-8.692 7.03-12.598 4.56-3.906 9.54-5.859 14.94-5.859"/>
  <path d="m1697.7 447.84c3.13 0 5.76 0.814 7.91 2.442 2.02 1.757 3.03 3.971 3.03 6.64 0 4.492-2.31 8.692-6.94 12.598-4.68 3.906-9.7 5.859-15.03 5.859-3.13 0-5.77-0.814-7.92-2.441-2.01-1.758-3.02-3.971-3.02-6.641 0-4.492 2.34-8.691 7.03-12.597 4.56-3.907 9.54-5.86 14.94-5.86"/>
  <path d="m1697.7 410.34c3.13 0 5.76 0.814 7.91 2.441 2.02 1.758 3.03 3.972 3.03 6.641 0 4.492-2.31 8.691-6.94 12.598-4.68 3.906-9.7 5.859-15.03 5.859-3.13 0-5.77-0.814-7.92-2.441-2.01-1.758-3.02-3.972-3.02-6.641 0-4.492 2.34-8.692 7.03-12.598 4.56-3.906 9.54-5.859 14.94-5.859"/>
  <path d="m1822.2 392.56c0-1.107-0.42-2.051-1.27-2.832-0.84-0.847-1.82-1.27-2.93-1.27-1.95 0-5.89 1.953-11.81 5.86-6.12 3.971-9.86 6.803-11.23 8.496-0.72 0.911-1.08 1.855-1.08 2.832 0 1.107 0.43 2.051 1.27 2.832 0.78 0.846 1.76 1.269 2.93 1.269 1.89 0 5.86-1.953 11.92-5.859 5.99-3.906 9.7-6.738 11.13-8.496 0.72-0.846 1.07-1.79 1.07-2.832m-5.17-7.227c5.6 0 8.4 2.409 8.4 7.227 0 2.344-0.69 5.078-2.05 8.203-1.37 3.06-3.19 5.404-5.47 7.031-5.02 3.386-11.3 5.078-18.85 5.078-5.6 0-8.4-2.409-8.4-7.226 0-2.149 0.68-4.85 2.05-8.106 1.3-3.125 3.13-5.501 5.47-7.129 5.01-3.385 11.3-5.078 18.85-5.078"/>
  <path d="m1822.2 367.56c0-1.106-0.42-2.051-1.27-2.832-0.84-0.846-1.82-1.269-2.93-1.269-1.95 0-5.89 1.953-11.81 5.859-6.12 3.971-9.86 6.803-11.23 8.496-0.72 0.912-1.08 1.856-1.08 2.832 0 1.107 0.43 2.051 1.27 2.832 0.78 0.847 1.76 1.27 2.93 1.27 1.89 0 5.86-1.953 11.92-5.86 5.99-3.906 9.7-6.738 11.13-8.496 0.72-0.846 1.07-1.79 1.07-2.832m-5.17-7.226c5.6 0 8.4 2.409 8.4 7.226 0 2.344-0.69 5.078-2.05 8.203-1.37 3.06-3.19 5.404-5.47 7.032-5.02 3.385-11.3 5.078-18.85 5.078-5.6 0-8.4-2.409-8.4-7.227 0-2.148 0.68-4.85 2.05-8.105 1.3-3.125 3.13-5.502 5.47-7.129 5.01-3.386 11.3-5.078 18.85-5.078"/>
  <path d="m2037.6 392.56c0-1.107-0.42-2.051-1.27-2.832-0.84-0.847-1.82-1.27-2.93-1.27-1.95 0-5.89 1.953-11.81 5.86-6.12 3.971-9.87 6.803-11.23 8.496-0.72 0.911-1.08 1.855-1.08 2.832 0 1.107 0.43 2.051 1.27 2.832 0.78 0.846 1.76 1.269 2.93 1.269 1.89 0 5.86-1.953 11.92-5.859 5.99-3.906 9.7-6.738 11.13-8.496 0.72-0.846 1.07-1.79 1.07-2.832m-5.17-7.227c5.6 0 8.4 2.409 8.4 7.227 0 2.344-0.69 5.078-2.05 8.203-1.37 3.06-3.19 5.404-5.47 7.031-5.02 3.386-11.3 5.078-18.85 5.078-5.6 0-8.4-2.409-8.4-7.226 0-2.149 0.68-4.85 2.05-8.106 1.3-3.125 3.13-5.501 5.47-7.129 5.01-3.385 11.3-5.078 18.85-5.078"/>
  <path d="m2037.6 367.56c0-1.106-0.42-2.051-1.27-2.832-0.84-0.846-1.82-1.269-2.93-1.269-1.95 0-5.89 1.953-11.81 5.859-6.12 3.971-9.87 6.803-11.23 8.496-0.72 0.912-1.08 1.856-1.08 2.832 0 1.107 0.43 2.051 1.27 2.832 0.78 0.847 1.76 1.27 2.93 1.27 1.89 0 5.86-1.953 11.92-5.86 5.99-3.906 9.7-6.738 11.13-8.496 0.72-0.846 1.07-1.79 1.07-2.832m-5.17-7.226c5.6 0 8.4 2.409 8.4 7.226 0 2.344-0.69 5.078-2.05 8.203-1.37 3.06-3.19 5.404-5.47 7.032-5.02 3.385-11.3 5.078-18.85 5.078-5.6 0-8.4-2.409-8.4-7.227 0-2.148 0.68-4.85 2.05-8.105 1.3-3.125 3.13-5.502 5.47-7.129 5.01-3.386 11.3-5.078 18.85-5.078"/>
  <path d="m2295.3 410.34c3.13 0 5.76 0.814 7.91 2.441 2.02 1.758 3.03 3.972 3.03 6.641 0 4.492-2.31 8.691-6.93 12.598-4.69 3.906-9.7 5.859-15.04 5.859-3.13 0-5.76-0.814-7.91-2.441-2.02-1.758-3.03-3.972-3.03-6.641 0-4.492 2.34-8.692 7.03-12.598 4.56-3.906 9.54-5.859 14.94-5.859"/>
  <path d="m2295.3 385.33c3.13 0 5.76 0.814 7.91 2.442 2.02 1.758 3.03 3.971 3.03 6.64 0 4.493-2.31 8.692-6.93 12.598-4.69 3.906-9.7 5.859-15.04 5.859-3.13 0-5.76-0.813-7.91-2.441-2.02-1.758-3.03-3.971-3.03-6.641 0-4.492 2.34-8.691 7.03-12.597 4.56-3.907 9.54-5.86 14.94-5.86"/>
  <path d="m2399.7 385.33c3.13 0 5.76 0.814 7.91 2.442 2.02 1.758 3.03 3.971 3.03 6.64 0 4.493-2.31 8.692-6.93 12.598-4.69 3.906-9.7 5.859-15.04 5.859-3.13 0-5.76-0.813-7.91-2.441-2.02-1.758-3.03-3.971-3.03-6.641 0-4.492 2.34-8.691 7.03-12.597 4.56-3.907 9.54-5.86 14.94-5.86"/>
  <path d="m2399.7 360.33c3.13 0 5.76 0.814 7.91 2.441 2.02 1.758 3.03 3.971 3.03 6.641 0 4.492-2.31 8.691-6.93 12.597-4.69 3.907-9.7 5.86-15.04 5.86-3.13 0-5.76-0.814-7.91-2.442-2.02-1.757-3.03-3.971-3.03-6.64 0-4.492 2.34-8.692 7.03-12.598 4.56-3.906 9.54-5.859 14.94-5.859"/>
  <path d="m814.46 772.86c3.125 0 5.762 0.813 7.91 2.441 2.018 1.758 3.027 3.971 3.027 6.641 0 4.492-2.311 8.691-6.933 12.597-4.688 3.907-9.701 5.86-15.039 5.86-3.125 0-5.762-0.814-7.91-2.442-2.019-1.757-3.028-3.971-3.028-6.64 0-4.492 2.344-8.692 7.032-12.598 4.557-3.906 9.537-5.859 14.941-5.859"/>
  <path d="m814.46 722.86c3.125 0 5.762 0.813 7.91 2.441 2.018 1.758 3.027 3.971 3.027 6.641 0 4.492-2.311 8.691-6.933 12.597-4.688 3.906-9.701 5.86-15.039 5.86-3.125 0-5.762-0.814-7.91-2.442-2.019-1.758-3.028-3.971-3.028-6.64 0-4.493 2.344-8.692 7.032-12.598 4.557-3.906 9.537-5.859 14.941-5.859"/>
  <path d="m984.37 772.86c3.125 0 5.761 0.813 7.91 2.441 2.018 1.758 3.028 3.971 3.028 6.641 0 4.492-2.312 8.691-6.934 12.597-4.688 3.907-9.701 5.86-15.039 5.86-3.125 0-5.762-0.814-7.911-2.442-2.018-1.757-3.027-3.971-3.027-6.64 0-4.492 2.344-8.692 7.031-12.598 4.558-3.906 9.538-5.859 14.942-5.859"/>
  <path d="m984.37 722.86c3.125 0 5.761 0.813 7.91 2.441 2.018 1.758 3.028 3.971 3.028 6.641 0 4.492-2.312 8.691-6.934 12.597-4.688 3.906-9.701 5.86-15.039 5.86-3.125 0-5.762-0.814-7.911-2.442-2.018-1.758-3.027-3.971-3.027-6.64 0-4.493 2.344-8.692 7.031-12.598 4.558-3.906 9.538-5.859 14.942-5.859"/>
  <path d="m1163 730.08c0-1.107-0.42-2.051-1.27-2.832-0.85-0.846-1.82-1.269-2.93-1.269-1.95 0-5.89 1.953-11.82 5.859-6.12 3.971-9.86 6.803-11.23 8.496-0.71 0.911-1.07 1.855-1.07 2.832 0 1.107 0.42 2.051 1.27 2.832 0.78 0.846 1.76 1.27 2.93 1.27 1.89 0 5.86-1.954 11.91-5.86 5.99-3.906 9.7-6.738 11.13-8.496 0.72-0.846 1.08-1.79 1.08-2.832m-5.18-7.226c5.6 0 8.4 2.408 8.4 7.226 0 2.344-0.68 5.078-2.05 8.203-1.37 3.06-3.19 5.404-5.47 7.031-5.01 3.386-11.29 5.079-18.85 5.079-5.6 0-8.39-2.409-8.39-7.227 0-2.148 0.68-4.85 2.05-8.105 1.3-3.125 3.12-5.502 5.46-7.129 5.02-3.386 11.3-5.078 18.85-5.078"/>
  <path d="m1163 692.58c0-1.107-0.42-2.051-1.27-2.832-0.85-0.847-1.82-1.27-2.93-1.27-1.95 0-5.89 1.953-11.82 5.86-6.12 3.971-9.86 6.803-11.23 8.496-0.71 0.911-1.07 1.855-1.07 2.832 0 1.106 0.42 2.05 1.27 2.832 0.78 0.846 1.76 1.269 2.93 1.269 1.89 0 5.86-1.953 11.91-5.859 5.99-3.906 9.7-6.738 11.13-8.496 0.72-0.847 1.08-1.791 1.08-2.832m-5.18-7.227c5.6 0 8.4 2.409 8.4 7.227 0 2.343-0.68 5.078-2.05 8.203-1.37 3.06-3.19 5.404-5.47 7.031-5.01 3.386-11.29 5.078-18.85 5.078-5.6 0-8.39-2.409-8.39-7.226 0-2.149 0.68-4.851 2.05-8.106 1.3-3.125 3.12-5.501 5.46-7.129 5.02-3.385 11.3-5.078 18.85-5.078"/>
  <path d="m1455.1 735.36c3.12 0 5.76 0.814 7.91 2.442 2.01 1.758 3.02 3.971 3.02 6.64 0 4.493-2.31 8.692-6.93 12.598-4.69 3.906-9.7 5.859-15.04 5.859-3.12 0-5.76-0.813-7.91-2.441-2.02-1.758-3.03-3.971-3.03-6.641 0-4.492 2.35-8.691 7.03-12.597 4.56-3.907 9.54-5.86 14.95-5.86"/>
  <path d="m1455.1 710.35c3.12 0 5.76 0.814 7.91 2.441 2.01 1.758 3.02 3.972 3.02 6.641 0 4.492-2.31 8.691-6.93 12.597-4.69 3.907-9.7 5.86-15.04 5.86-3.12 0-5.76-0.814-7.91-2.442-2.02-1.757-3.03-3.971-3.03-6.64 0-4.492 2.35-8.692 7.03-12.598 4.56-3.906 9.54-5.859 14.95-5.859"/>
  <path d="m1615.1 710.35c3.12 0 5.76 0.814 7.91 2.441 2.02 1.758 3.02 3.972 3.02 6.641 0 4.492-2.31 8.691-6.93 12.597-4.69 3.907-9.7 5.86-15.04 5.86-3.12 0-5.76-0.814-7.91-2.442-2.02-1.757-3.03-3.971-3.03-6.64 0-4.492 2.35-8.692 7.04-12.598 4.55-3.906 9.53-5.859 14.94-5.859"/>
  <path d="m1615.1 685.35c3.12 0 5.76 0.814 7.91 2.442 2.02 1.757 3.02 3.971 3.02 6.64 0 4.492-2.31 8.692-6.93 12.598-4.69 3.906-9.7 5.859-15.04 5.859-3.12 0-5.76-0.814-7.91-2.441-2.02-1.758-3.03-3.972-3.03-6.641 0-4.492 2.35-8.691 7.04-12.597 4.55-3.907 9.53-5.86 14.94-5.86"/>
  <path d="m1715 735.36c3.13 0 5.76 0.814 7.91 2.442 2.02 1.758 3.03 3.971 3.03 6.64 0 4.493-2.31 8.692-6.93 12.598-4.69 3.906-9.71 5.859-15.04 5.859-3.13 0-5.77-0.813-7.91-2.441-2.02-1.758-3.03-3.971-3.03-6.641 0-4.492 2.34-8.691 7.03-12.597 4.56-3.907 9.54-5.86 14.94-5.86"/>
  <path d="m1715 710.35c3.13 0 5.76 0.814 7.91 2.441 2.02 1.758 3.03 3.972 3.03 6.641 0 4.492-2.31 8.691-6.93 12.597-4.69 3.907-9.71 5.86-15.04 5.86-3.13 0-5.77-0.814-7.91-2.442-2.02-1.757-3.03-3.971-3.03-6.64 0-4.492 2.34-8.692 7.03-12.598 4.56-3.906 9.54-5.859 14.94-5.859"/>
  <path d="m1814.9 735.36c3.12 0 5.76 0.814 7.91 2.442 2.01 1.758 3.02 3.971 3.02 6.64 0 4.493-2.31 8.692-6.93 12.598-4.69 3.906-9.7 5.859-15.04 5.859-3.12 0-5.76-0.813-7.91-2.441-2.02-1.758-3.03-3.971-3.03-6.641 0-4.492 2.35-8.691 7.03-12.597 4.56-3.907 9.54-5.86 14.95-5.86"/>
  <path d="m1814.9 697.85c3.12 0 5.76 0.814 7.91 2.441 2.01 1.758 3.02 3.972 3.02 6.641 0 4.492-2.31 8.691-6.93 12.598-4.69 3.906-9.7 5.859-15.04 5.859-3.12 0-5.76-0.814-7.91-2.441-2.02-1.758-3.03-3.972-3.03-6.641 0-4.492 2.35-8.691 7.03-12.598 4.56-3.906 9.54-5.859 14.95-5.859"/>
  <path d="m1974.9 735.36c3.12 0 5.76 0.814 7.91 2.442 2.01 1.758 3.02 3.971 3.02 6.64 0 4.493-2.31 8.692-6.93 12.598-4.69 3.906-9.7 5.859-15.04 5.859-3.12 0-5.76-0.813-7.91-2.441-2.02-1.758-3.03-3.971-3.03-6.641 0-4.492 2.35-8.691 7.03-12.597 4.56-3.907 9.54-5.86 14.95-5.86"/>
  <path d="m1974.9 710.35c3.12 0 5.76 0.814 7.91 2.441 2.01 1.758 3.02 3.972 3.02 6.641 0 4.492-2.31 8.691-6.93 12.597-4.69 3.907-9.7 5.86-15.04 5.86-3.12 0-5.76-0.814-7.91-2.442-2.02-1.757-3.03-3.971-3.03-6.64 0-4.492 2.35-8.692 7.03-12.598 4.56-3.906 9.54-5.859 14.95-5.859"/>
  <path d="m2163.8 735.36c3.12 0 5.76 0.814 7.91 2.442 2.02 1.758 3.03 3.971 3.03 6.64 0 4.493-2.31 8.692-6.94 12.598-4.68 3.906-9.7 5.859-15.04 5.859-3.12 0-5.76-0.813-7.91-2.441-2.01-1.758-3.02-3.971-3.02-6.641 0-4.492 2.34-8.691 7.03-12.597 4.55-3.907 9.54-5.86 14.94-5.86"/>
  <path d="m2322.7 735.36c3.12 0 5.76 0.814 7.91 2.442 2.01 1.758 3.02 3.971 3.02 6.64 0 4.493-2.31 8.692-6.93 12.598-4.69 3.906-9.7 5.859-15.04 5.859-3.12 0-5.76-0.813-7.91-2.441-2.02-1.758-3.03-3.971-3.03-6.641 0-4.492 2.35-8.691 7.03-12.597 4.56-3.907 9.54-5.86 14.95-5.86"/>
  <path d="m616.72 361.02h0.586c0.26-0.065 0.488-0.098 0.684-0.098 7.291 0 13.281 2.572 17.968 7.715 4.688 5.078 7.032 11.003 7.032 17.774 0 8.398-3.483 15.234-10.45 20.508-1.822 1.432-4.199 2.604-7.128 3.515 0.325 4.232 0.488 7.65 0.488 10.254 0 0.521-0.065 2.409-0.195 5.664-0.261 6.055-2.344 11.296-6.25 15.723-3.777 4.362-8.464 6.543-14.063 6.543-5.273 0-9.766-1.856-13.477-5.567-3.71-3.776-5.566-8.333-5.566-13.672 0-2.799 1.074-5.175 3.223-7.128 2.213-1.954 4.785-2.93 7.715-2.93 2.604 0 4.785 1.009 6.543 3.027 1.822 1.888 2.734 4.232 2.734 7.031 0 2.54-0.912 4.721-2.734 6.543-1.823 1.823-4.004 2.735-6.543 2.735-1.042 0-2.051-0.195-3.028-0.586 2.865 4.232 6.673 6.348 11.426 6.348 4.492 0 8.171-1.823 11.035-5.469 2.995-3.776 4.623-8.171 4.883-13.184 0.13-3.125 0.195-4.915 0.195-5.371 0-3.646-0.13-6.641-0.39-8.984-3.256 0.521-6.153 0.781-8.692 0.781-9.049 0-16.764-3.581-23.144-10.742-6.25-7.227-9.375-15.821-9.375-25.781 0-2.084 0.195-4.2 0.586-6.348 0.39-1.758 0.879-3.679 1.464-5.762 0.326-1.172 1.205-3.06 2.637-5.664 0.521-0.781 1.107-1.758 1.758-2.93 0.651-1.171 1.107-1.953 1.367-2.343 0.651-1.302 1.921-3.06 3.809-5.274 0.521-0.586 1.058-1.237 1.611-1.953 0.554-0.716 1.026-1.302 1.416-1.758 0.391-0.455 0.684-0.814 0.879-1.074s1.66-1.986 4.395-5.176c0.651-0.651 1.285-1.351 1.904-2.099 0.618-0.749 1.123-1.335 1.514-1.758 0.39-0.423 0.683-0.733 0.878-0.928-2.343-7.747-3.808-13.932-4.394-18.555-0.456-3.71-0.684-8.789-0.684-15.234 0-5.664 1.302-10.97 3.907-15.918 2.539-5.143 6.087-9.342 10.644-12.598 0.261-0.195 0.586-0.293 0.977-0.293 0.455 0 0.781 0.098 0.976 0.293 3.516 4.232 6.543 9.734 9.082 16.504 2.604 6.771 3.907 12.924 3.907 18.457 0 6.25-1.498 12.11-4.493 17.579-3.385 5.794-7.747 11.783-13.086 17.968 1.368 4.297 3.19 11.035 5.469 20.215m8.301 45.41c3.385-1.237 6.022-3.353 7.91-6.347 2.083-2.865 3.125-6.088 3.125-9.668 0-4.623-1.562-8.724-4.687-12.305-3.191-3.711-7.26-5.794-12.207-6.25 2.799 13.737 4.752 25.26 5.859 34.57m-37.793-22.558c0 6.445 2.604 12.109 7.812 16.992 5.339 4.752 11.329 7.129 17.969 7.129 2.735 0 5.404-0.196 8.008-0.586-1.042-9.896-3.092-21.745-6.152-35.547-3.711 0.391-6.674 1.693-8.887 3.906-2.148 2.279-3.223 4.85-3.223 7.715 0 4.948 2.637 8.952 7.91 12.012 0.456 0.455 0.684 0.944 0.684 1.465 0 0.52-0.228 1.009-0.684 1.464-0.39 0.456-0.878 0.684-1.464 0.684-0.065 0-0.358-0.065-0.879-0.195-3.711-2.019-6.576-4.623-8.594-7.813-1.888-3.385-2.832-6.803-2.832-10.254 0-4.492 1.4-8.561 4.199-12.207 2.93-3.646 6.738-5.989 11.426-7.031-1.823-7.292-3.32-12.988-4.492-17.09-1.042 1.172-2.295 2.588-3.76 4.248s-2.328 2.653-2.588 2.979c-2.344 3.06-4.134 5.436-5.371 7.129-2.214 3.06-3.841 5.696-4.883 7.91-1.107 2.474-2.083 5.176-2.93 8.105-0.846 2.8-1.269 5.795-1.269 8.985m32.617-99.317c-4.883 2.409-8.724 5.86-11.523 10.352-2.865 4.622-4.297 9.603-4.297 14.941 0 4.688 1.172 11.003 3.515 18.946 4.688-5.665 8.204-10.905 10.547-15.723 2.474-5.078 3.711-10.384 3.711-15.918 0-4.167-0.651-8.366-1.953-12.598"/>
  <path d="m616.72 686.04h0.586c0.26-0.066 0.488-0.098 0.684-0.098 7.291 0 13.281 2.572 17.968 7.715 4.688 5.078 7.032 11.002 7.032 17.773 0 8.399-3.483 15.235-10.45 20.508-1.822 1.432-4.199 2.604-7.128 3.516 0.325 4.231 0.488 7.649 0.488 10.254 0 0.52-0.065 2.408-0.195 5.664-0.261 6.054-2.344 11.295-6.25 15.722-3.777 4.362-8.464 6.543-14.063 6.543-5.273 0-9.766-1.855-13.477-5.566-3.71-3.776-5.566-8.334-5.566-13.672 0-2.8 1.074-5.176 3.223-7.129 2.213-1.953 4.785-2.93 7.715-2.93 2.604 0 4.785 1.009 6.543 3.028 1.822 1.888 2.734 4.231 2.734 7.031 0 2.539-0.912 4.72-2.734 6.543-1.823 1.823-4.004 2.734-6.543 2.734-1.042 0-2.051-0.195-3.028-0.586 2.865 4.232 6.673 6.348 11.426 6.348 4.492 0 8.171-1.823 11.035-5.469 2.995-3.776 4.623-8.17 4.883-13.183 0.13-3.125 0.195-4.916 0.195-5.371 0-3.646-0.13-6.641-0.39-8.985-3.256 0.521-6.153 0.781-8.692 0.781-9.049 0-16.764-3.58-23.144-10.742-6.25-7.226-9.375-15.82-9.375-25.781 0-2.083 0.195-4.199 0.586-6.348 0.39-1.757 0.879-3.678 1.464-5.761 0.326-1.172 1.205-3.06 2.637-5.664 0.521-0.782 1.107-1.758 1.758-2.93s1.107-1.953 1.367-2.344c0.651-1.302 1.921-3.06 3.809-5.273 0.521-0.586 1.058-1.237 1.611-1.953 0.554-0.717 1.026-1.303 1.416-1.758 0.391-0.456 0.684-0.814 0.879-1.074 0.195-0.261 1.66-1.986 4.395-5.176 0.651-0.651 1.285-1.351 1.904-2.1 0.618-0.749 1.123-1.334 1.514-1.758 0.39-0.423 0.683-0.732 0.878-0.927-2.343-7.748-3.808-13.933-4.394-18.555-0.456-3.711-0.684-8.789-0.684-15.234 0-5.665 1.302-10.971 3.907-15.918 2.539-5.144 6.087-9.343 10.644-12.598 0.261-0.195 0.586-0.293 0.977-0.293 0.455 0 0.781 0.098 0.976 0.293 3.516 4.232 6.543 9.733 9.082 16.504 2.604 6.771 3.907 12.923 3.907 18.457 0 6.25-1.498 12.109-4.493 17.578-3.385 5.794-7.747 11.784-13.086 17.969 1.368 4.297 3.19 11.035 5.469 20.215m8.301 45.41c3.385-1.237 6.022-3.353 7.91-6.348 2.083-2.865 3.125-6.087 3.125-9.668 0-4.622-1.562-8.724-4.687-12.305-3.191-3.711-7.26-5.794-12.207-6.25 2.799 13.737 4.752 25.261 5.859 34.571m-37.793-22.559c0 6.445 2.604 12.11 7.812 16.992 5.339 4.753 11.329 7.129 17.969 7.129 2.735 0 5.404-0.195 8.008-0.586-1.042-9.896-3.092-21.745-6.152-35.547-3.711 0.391-6.674 1.693-8.887 3.907-2.148 2.278-3.223 4.85-3.223 7.715 0 4.947 2.637 8.951 7.91 12.011 0.456 0.456 0.684 0.944 0.684 1.465s-0.228 1.009-0.684 1.465c-0.39 0.456-0.878 0.684-1.464 0.684-0.065 0-0.358-0.066-0.879-0.196-3.711-2.018-6.576-4.622-8.594-7.812-1.888-3.386-2.832-6.804-2.832-10.254 0-4.492 1.4-8.561 4.199-12.207 2.93-3.646 6.738-5.99 11.426-7.031-1.823-7.292-3.32-12.989-4.492-17.09-1.042 1.172-2.295 2.588-3.76 4.248s-2.328 2.653-2.588 2.978c-2.344 3.06-4.134 5.436-5.371 7.129-2.214 3.06-3.841 5.697-4.883 7.91-1.107 2.474-2.083 5.176-2.93 8.106-0.846 2.799-1.269 5.794-1.269 8.984m32.617-99.316c-4.883 2.409-8.724 5.859-11.523 10.351-2.865 4.623-4.297 9.603-4.297 14.942 0 4.687 1.172 11.002 3.515 18.945 4.688-5.664 8.204-10.905 10.547-15.723 2.474-5.078 3.711-10.384 3.711-15.918 0-4.166-0.651-8.366-1.953-12.597"/>
  <path d="m714.53 380.25c0 1.237-0.618 1.855-1.855 1.855s-1.856-0.618-1.856-1.855v-14.453l-8.301 3.125v15.82c0 1.237-0.618 1.856-1.855 1.856s-1.856-0.619-1.856-1.856v-14.551l-3.125 1.172c-0.065 0.065-0.325 0.098-0.781 0.098-0.521 0-0.976-0.195-1.367-0.586s-0.586-0.846-0.586-1.367v-6.055c0-0.976 0.423-1.595 1.27-1.855l4.589-1.563v-16.015l-3.125 1.074c-0.065 0.065-0.325 0.097-0.781 0.097-0.521 0-0.976-0.195-1.367-0.586-0.391-0.39-0.586-0.846-0.586-1.367v-6.054c0-0.912 0.423-1.498 1.27-1.758l4.589-1.758v-15.723c0-1.237 0.619-1.855 1.856-1.855s1.855 0.618 1.855 1.855v14.453l8.301-3.125v-15.82c0-1.237 0.619-1.855 1.856-1.855s1.855 0.618 1.855 1.855v14.551l3.223-1.172c0.065-0.065 0.293-0.098 0.683-0.098 0.456 0 0.944 0.196 1.465 0.586 0.391 0.391 0.586 0.847 0.586 1.368v6.054c0 0.912-0.456 1.53-1.367 1.856l-4.59 1.562v16.016l3.223-1.074c0.065-0.066 0.293-0.098 0.683-0.098 0.456 0 0.944 0.195 1.465 0.586 0.391 0.39 0.586 0.846 0.586 1.367v6.055c0 0.846-0.456 1.432-1.367 1.758l-4.59 1.757v15.723m-3.711-40.625-8.301 2.93v16.015l8.301-2.929v-16.016"/>
  <path d="m689.53 342.75c0 1.237-0.618 1.855-1.855 1.855s-1.855-0.618-1.855-1.855v-14.453l-8.301 3.125v15.82c0 1.237-0.619 1.855-1.856 1.855s-1.855-0.618-1.855-1.855v-14.551l-3.125 1.172c-0.065 0.065-0.326 0.098-0.781 0.098-0.521 0-0.977-0.196-1.368-0.586-0.39-0.391-0.586-0.847-0.586-1.368v-6.054c0-0.977 0.424-1.595 1.27-1.856l4.59-1.562v-16.016l-3.125 1.074c-0.065 0.066-0.326 0.098-0.781 0.098-0.521 0-0.977-0.195-1.368-0.586-0.39-0.391-0.586-0.846-0.586-1.367v-6.055c0-0.911 0.424-1.497 1.27-1.758l4.59-1.757v-15.723c0-1.237 0.618-1.856 1.855-1.856s1.856 0.619 1.856 1.856v14.453l8.301-3.125v-15.82c0-1.237 0.618-1.856 1.855-1.856s1.855 0.619 1.855 1.856v14.551l3.223-1.172c0.065-0.065 0.293-0.098 0.684-0.098 0.455 0 0.944 0.195 1.465 0.586 0.39 0.391 0.585 0.846 0.585 1.367v6.055c0 0.911-0.455 1.53-1.367 1.855l-4.59 1.563v16.015l3.223-1.074c0.065-0.065 0.293-0.097 0.684-0.097 0.455 0 0.944 0.195 1.465 0.585 0.39 0.391 0.585 0.847 0.585 1.368v6.054c0 0.847-0.455 1.433-1.367 1.758l-4.59 1.758v15.723m-3.71-40.625-8.301 2.929v16.016l8.301-2.93v-16.015"/>
  <path d="m714.53 705.27c0 1.237-0.618 1.856-1.855 1.856s-1.856-0.619-1.856-1.856v-14.453l-8.301 3.125v15.821c0 1.237-0.618 1.855-1.855 1.855s-1.856-0.618-1.856-1.855v-14.551l-3.125 1.172c-0.065 0.065-0.325 0.097-0.781 0.097-0.521 0-0.976-0.195-1.367-0.586-0.391-0.39-0.586-0.846-0.586-1.367v-6.054c0-0.977 0.423-1.595 1.27-1.856l4.589-1.562v-16.016l-3.125 1.074c-0.065 0.065-0.325 0.098-0.781 0.098-0.521 0-0.976-0.195-1.367-0.586s-0.586-0.846-0.586-1.367v-6.055c0-0.911 0.423-1.497 1.27-1.758l4.589-1.758v-15.722c0-1.237 0.619-1.856 1.856-1.856s1.855 0.619 1.855 1.856v14.453l8.301-3.125v-15.82c0-1.237 0.619-1.856 1.856-1.856s1.855 0.619 1.855 1.856v14.55l3.223-1.171c0.065-0.066 0.293-0.098 0.683-0.098 0.456 0 0.944 0.195 1.465 0.586 0.391 0.39 0.586 0.846 0.586 1.367v6.055c0 0.911-0.456 1.53-1.367 1.855l-4.59 1.563v16.015l3.223-1.074c0.065-0.065 0.293-0.098 0.683-0.098 0.456 0 0.944 0.196 1.465 0.586 0.391 0.391 0.586 0.847 0.586 1.368v6.054c0 0.847-0.456 1.432-1.367 1.758l-4.59 1.758v15.722m-3.711-40.625-8.301 2.93v16.016l8.301-2.93v-16.016"/>
  <path d="m689.53 667.77c0 1.237-0.618 1.856-1.855 1.856s-1.855-0.619-1.855-1.856v-14.453l-8.301 3.125v15.82c0 1.237-0.619 1.856-1.856 1.856s-1.855-0.619-1.855-1.856v-14.55l-3.125 1.171c-0.065 0.066-0.326 0.098-0.781 0.098-0.521 0-0.977-0.195-1.368-0.586-0.39-0.391-0.586-0.846-0.586-1.367v-6.055c0-0.976 0.424-1.595 1.27-1.855l4.59-1.563v-16.015l-3.125 1.074c-0.065 0.065-0.326 0.098-0.781 0.098-0.521 0-0.977-0.196-1.368-0.586-0.39-0.391-0.586-0.847-0.586-1.368v-6.054c0-0.912 0.424-1.498 1.27-1.758l4.59-1.758v-15.723c0-1.237 0.618-1.855 1.855-1.855s1.856 0.618 1.856 1.855v14.454l8.301-3.125v-15.821c0-1.237 0.618-1.855 1.855-1.855s1.855 0.618 1.855 1.855v14.551l3.223-1.172c0.065-0.065 0.293-0.098 0.684-0.098 0.455 0 0.944 0.196 1.465 0.586 0.39 0.391 0.585 0.847 0.585 1.368v6.054c0 0.912-0.455 1.53-1.367 1.856l-4.59 1.562v16.016l3.223-1.074c0.065-0.065 0.293-0.098 0.684-0.098 0.455 0 0.944 0.195 1.465 0.586 0.39 0.391 0.585 0.846 0.585 1.367v6.055c0 0.846-0.455 1.432-1.367 1.758l-4.59 1.757v15.723m-3.71-40.625-8.301 2.93v16.015l8.301-2.929v-16.016"/>
  <path d="m768.28 312.78c1.954 0 3.614-0.227 4.981-0.683s2.246-0.684 2.637-0.684c0.455 0 0.813 0.13 1.074 0.391 0.195 0.195 0.325 0.423 0.39 0.684 0 0.13-0.065 0.325-0.195 0.585l-28.418 33.008h16.699v-13.086c0-0.846 0.228-1.562 0.684-2.148 0.781-0.651 1.432-1.042 1.953-1.172 0.847-0.391 1.888-1.302 3.125-2.734 1.042-1.172 2.279-3.223 3.711-6.153 0.195-0.39 0.488-0.586 0.879-0.586 0.781 0 1.237 0.456 1.367 1.368v24.511h7.129c0.912 0 1.432 0.489 1.563 1.465 0 0.977-0.521 1.465-1.563 1.465h-7.129v0.781c0 2.604 0.651 4.818 1.953 6.641 1.498 1.823 3.256 2.734 5.274 2.734 0.781 0 1.172 0.391 1.172 1.172s-0.391 1.172-1.172 1.172c-1.367 0-3.581-0.195-6.641-0.586-2.799-0.456-4.98-0.684-6.543-0.684-1.627 0-3.808 0.228-6.543 0.684-2.93 0.391-5.11 0.586-6.543 0.586-0.781 0-1.172-0.391-1.172-1.172s0.391-1.172 1.172-1.172c2.018 0 3.776-0.911 5.274-2.734 1.367-1.888 2.05-4.102 2.05-6.641v-0.781h-16.699c-1.107 0-1.888-0.26-2.344-0.781-0.52-0.391-0.781-0.912-0.781-1.563 0-0.195 0.488-0.879 1.465-2.051 1.107-1.302 2.279-2.897 3.516-4.785 1.432-2.213 2.799-4.492 4.101-6.836 1.433-2.669 2.572-5.729 3.418-9.179 0.977-3.516 1.465-7.097 1.465-10.743 0-1.041 0.456-1.562 1.367-1.562 0.196 0 0.619 0.098 1.27 0.293 0.195 0.065 0.602 0.163 1.22 0.293 0.619 0.13 1.124 0.26 1.514 0.391 1.172 0.195 2.279 0.292 3.32 0.292"/>
  <path d="m768.28 362.96c1.954 0 3.614-0.228 4.981-0.684s2.246-0.684 2.637-0.684c0.455 0 0.813 0.131 1.074 0.391 0.195 0.195 0.325 0.423 0.39 0.684 0 0.13-0.065 0.325-0.195 0.585l-28.418 33.008h16.699v-13.086c0-0.846 0.228-1.562 0.684-2.148 0.781-0.651 1.432-1.042 1.953-1.172 0.847-0.391 1.888-1.302 3.125-2.734 1.042-1.172 2.279-3.223 3.711-6.153 0.195-0.39 0.488-0.586 0.879-0.586 0.781 0 1.237 0.456 1.367 1.368v24.511h7.129c0.912 0 1.432 0.489 1.563 1.465 0 0.977-0.521 1.465-1.563 1.465h-7.129v0.781c0 2.604 0.651 4.818 1.953 6.641 1.498 1.823 3.256 2.734 5.274 2.734 0.781 0 1.172 0.391 1.172 1.172s-0.391 1.172-1.172 1.172c-1.367 0-3.581-0.195-6.641-0.586-2.799-0.456-4.98-0.684-6.543-0.684-1.627 0-3.808 0.228-6.543 0.684-2.93 0.391-5.11 0.586-6.543 0.586-0.781 0-1.172-0.391-1.172-1.172s0.391-1.172 1.172-1.172c2.018 0 3.776-0.911 5.274-2.734 1.367-1.888 2.05-4.102 2.05-6.641v-0.781h-16.699c-1.107 0-1.888-0.26-2.344-0.781-0.52-0.391-0.781-0.912-0.781-1.563 0-0.195 0.488-0.879 1.465-2.051 1.107-1.302 2.279-2.897 3.516-4.785 1.432-2.213 2.799-4.492 4.101-6.836 1.433-2.669 2.572-5.729 3.418-9.179 0.977-3.516 1.465-7.097 1.465-10.743 0-1.041 0.456-1.562 1.367-1.562 0.196 0 0.619 0.098 1.27 0.293 0.195 0.065 0.602 0.163 1.22 0.293 0.619 0.13 1.124 0.26 1.514 0.391 1.172 0.195 2.279 0.293 3.32 0.293"/>
  <path d="m1622.7 623.66 103.19 12.907v12.598l-103.19-12.907v-12.598" fill-rule="evenodd"/>
  <path d="m1342.1 349.1v-25h3.12c0 3.711 0.72 7.422 2.15 11.133 1.56 4.036 3.29 7.552 5.17 10.547 1.37 2.148 3.42 5.436 6.16 9.863 2.08 3.385 3.84 6.934 5.27 10.645s2.15 7.421 2.15 11.132c0 6.771-1.4 13.672-4.2 20.704-0.52 0.781-1.14 1.171-1.86 1.171-0.65 0-1.23-0.26-1.75-0.781-0.39-0.39-0.59-0.879-0.59-1.465v-0.488c2.8-6.445 4.2-12.825 4.2-19.141 0-3.255-0.98-6.77-2.93-10.546-1.95-3.842-3.94-6.902-5.96-9.18-2.28-2.669-4.88-5.534-7.81-8.594h-3.12"/>
  <path d="m1446.5 336.6v-25h3.12c0 3.711 0.72 7.422 2.15 11.133 1.56 4.037 3.29 7.552 5.17 10.547 1.37 2.148 3.42 5.436 6.16 9.863 2.08 3.386 3.84 6.934 5.27 10.645s2.15 7.422 2.15 11.133c0 6.77-1.4 13.671-4.2 20.703-0.52 0.781-1.14 1.172-1.86 1.172-0.65 0-1.23-0.261-1.75-0.782-0.39-0.39-0.59-0.879-0.59-1.464v-0.489c2.8-6.445 4.2-12.825 4.2-19.14 0-3.256-0.98-6.771-2.93-10.547-1.95-3.841-3.94-6.901-5.96-9.18-2.28-2.669-4.88-5.534-7.81-8.594h-3.12"/>
  <path d="m2303 336.6v-25h3.12c0 3.711 0.72 7.422 2.15 11.133 1.56 4.037 3.29 7.552 5.18 10.547 1.36 2.148 3.41 5.436 6.15 9.863 2.08 3.386 3.84 6.934 5.27 10.645s2.15 7.422 2.15 11.133c0 6.77-1.4 13.671-4.2 20.703-0.52 0.781-1.14 1.172-1.85 1.172-0.66 0-1.24-0.261-1.76-0.782-0.39-0.39-0.59-0.879-0.59-1.464v-0.489c2.8-6.445 4.2-12.825 4.2-19.14 0-3.256-0.98-6.771-2.93-10.547-1.95-3.841-3.94-6.901-5.96-9.18-2.27-2.669-4.88-5.534-7.81-8.594h-3.12"/>
  <path d="m2407.4 317.85v-25h3.12c0 3.711 0.72 7.422 2.15 11.133 1.56 4.036 3.29 7.552 5.18 10.547 1.36 2.148 3.41 5.436 6.15 9.863 2.08 3.386 3.84 6.934 5.27 10.645s2.15 7.422 2.15 11.132c0 6.771-1.4 13.672-4.2 20.704-0.52 0.781-1.14 1.171-1.85 1.171-0.66 0-1.24-0.26-1.76-0.781-0.39-0.39-0.59-0.879-0.59-1.465v-0.488c2.8-6.445 4.2-12.825 4.2-19.141 0-3.255-0.98-6.77-2.93-10.546-1.95-3.842-3.94-6.901-5.96-9.18-2.27-2.669-4.88-5.534-7.81-8.594h-3.12"/>
  <path d="m1090.3 428.11c-1.11-1.106-1.66-2.441-1.66-4.004 0-1.562 0.55-2.897 1.66-4.004 1.11-1.106 2.44-1.66 4-1.66 1.57 0 2.9 0.554 4.01 1.66 1.11 1.107 1.66 2.442 1.66 4.004 0 1.563-0.55 2.898-1.66 4.004-1.11 1.107-2.44 1.66-4.01 1.66-1.56 0-2.89-0.553-4-1.66"/>
  <path d="m1090.3 403.11c-1.11-1.107-1.66-2.442-1.66-4.004 0-1.563 0.55-2.897 1.66-4.004s2.44-1.66 4-1.66c1.57 0 2.9 0.553 4.01 1.66s1.66 2.441 1.66 4.004c0 1.562-0.55 2.897-1.66 4.004-1.11 1.106-2.44 1.66-4.01 1.66-1.56 0-2.89-0.554-4-1.66"/>
  <path d="m2051.2 403.11c-1.1-1.107-1.66-2.442-1.66-4.004 0-1.563 0.56-2.897 1.66-4.004 1.11-1.107 2.44-1.66 4.01-1.66 1.56 0 2.89 0.553 4 1.66s1.66 2.441 1.66 4.004c0 1.562-0.55 2.897-1.66 4.004-1.11 1.106-2.44 1.66-4 1.66-1.57 0-2.9-0.554-4.01-1.66"/>
  <path d="m2051.2 378.1c-1.1-1.107-1.66-2.441-1.66-4.004 0-1.562 0.56-2.897 1.66-4.004 1.11-1.106 2.44-1.66 4.01-1.66 1.56 0 2.89 0.554 4 1.66 1.11 1.107 1.66 2.442 1.66 4.004 0 1.563-0.55 2.897-1.66 4.004s-2.44 1.66-4 1.66c-1.57 0-2.9-0.553-4.01-1.66"/>
</svg>
