<?xml version="1.0" encoding="utf-8"?>
<svg xmlns="http://www.w3.org/2000/svg" version="1.2" viewBox="560 270 1926 518">
	<title>Chapter 14 score.</title>
	<path d="m560 311.6h1926.1" fill="none" stroke="#000" stroke-linejoin="bevel" stroke-width="2"/>
	<path d="m560 336.6h1926.1" fill="none" stroke="#000" stroke-linejoin="bevel" stroke-width="2"/>
	<path d="m560 361.6h1926.1" fill="none" stroke="#000" stroke-linejoin="bevel" stroke-width="2"/>
	<path d="m560 386.6h1926.1" fill="none" stroke="#000" stroke-linejoin="bevel" stroke-width="2"/>
	<path d="m560 411.6h1926.1" fill="none" stroke="#000" stroke-linejoin="bevel" stroke-width="2"/>
	<path d="m560 636.62h1926.1" fill="none" stroke="#000" stroke-linejoin="bevel" stroke-width="2"/>
	<path d="m560 661.62h1926.1" fill="none" stroke="#000" stroke-linejoin="bevel" stroke-width="2"/>
	<path d="m560 686.62h1926.1" fill="none" stroke="#000" stroke-linejoin="bevel" stroke-width="2"/>
	<path d="m560 711.62h1926.1" fill="none" stroke="#000" stroke-linejoin="bevel" stroke-width="2"/>
	<path d="m560 736.62h1926.1" fill="none" stroke="#000" stroke-linejoin="bevel" stroke-width="2"/>
	<path d="m1714.7 310.6v102.01" fill="none" stroke="#000" stroke-linejoin="bevel" stroke-width="4"/>
	<path d="m2484.1 335.6v102.01" fill="none" stroke="#000" stroke-linejoin="bevel" stroke-width="4"/>
	<path d="m1693.3 635.62v102.01" fill="none" stroke="#000" stroke-linejoin="bevel" stroke-width="4"/>
	<path d="m2461.6 635.62v102.01" fill="none" stroke="#000" stroke-linejoin="bevel" stroke-width="4"/>
	<path d="m2479.9 635.62v102.01" fill="none" stroke="#000" stroke-linejoin="bevel" stroke-width="12.5"/>
	<path d="m983.41 761.63h47.913" fill="none" stroke="#000" stroke-linecap="square" stroke-linejoin="bevel" stroke-width="4"/>
	<path d="m1116.8 761.63h47.92" fill="none" stroke="#000" stroke-linecap="square" stroke-linejoin="bevel" stroke-width="4"/>
	<path d="m862.24 394.41v-82.81" fill="none" stroke="#000" stroke-linecap="round" stroke-linejoin="bevel" stroke-width="3.25"/>
	<path d="m1109.7 406.91v-82.81" fill="none" stroke="#000" stroke-linecap="round" stroke-linejoin="bevel" stroke-width="3.25"/>
	<path d="m1236.6 419.41v-82.81" fill="none" stroke="#000" stroke-linecap="round" stroke-linejoin="bevel" stroke-width="3.25"/>
	<path d="m1363.4 394.41v-82.81" fill="none" stroke="#000" stroke-linecap="round" stroke-linejoin="bevel" stroke-width="3.25"/>
	<path d="m1490.3 356.9v-73.434" fill="none" stroke="#000" stroke-linecap="round" stroke-linejoin="bevel" stroke-width="3.25"/>
	<path d="m1617.2 356.9v-73.434" fill="none" stroke="#000" stroke-linecap="round" stroke-linejoin="bevel" stroke-width="3.25"/>
	<path d="m1743.3 353.8v76.56" fill="none" stroke="#000" stroke-linecap="round" stroke-linejoin="bevel" stroke-width="3.25"/>
	<path d="m1933.2 366.3v82.81" fill="none" stroke="#000" stroke-linecap="round" stroke-linejoin="bevel" stroke-width="3.25"/>
	<path d="m2007.6 353.8v82.81" fill="none" stroke="#000" stroke-linecap="round" stroke-linejoin="bevel" stroke-width="3.25"/>
	<path d="m2082 341.3v82.809" fill="none" stroke="#000" stroke-linecap="round" stroke-linejoin="bevel" stroke-width="3.25"/>
	<path d="m2201 353.8v82.81" fill="none" stroke="#000" stroke-linecap="round" stroke-linejoin="bevel" stroke-width="3.25"/>
	<path d="m809.5 744.43v-107.81" fill="none" stroke="#000" stroke-linecap="round" stroke-linejoin="bevel" stroke-width="3.25"/>
	<path d="m1022.2 756.93v-107.81" fill="none" stroke="#000" stroke-linecap="round" stroke-linejoin="bevel" stroke-width="3.25"/>
	<path d="m1155.6 769.43v-107.81" fill="none" stroke="#000" stroke-linecap="round" stroke-linejoin="bevel" stroke-width="3.25"/>
	<path d="m1289 744.43v-107.81" fill="none" stroke="#000" stroke-linecap="round" stroke-linejoin="bevel" stroke-width="3.25"/>
	<path d="m1422.4 706.93v-126.56" fill="none" stroke="#000" stroke-linecap="round" stroke-linejoin="bevel" stroke-width="3.25"/>
	<path d="m1555.8 706.93v-145.31" fill="none" stroke="#000" stroke-linecap="round" stroke-linejoin="bevel" stroke-width="3.25"/>
	<path d="m1639.2 706.93v-145.31" fill="none" stroke="#000" stroke-linecap="round" stroke-linejoin="bevel" stroke-width="3.25"/>
	<path d="m1751.6 719.43v-129.69" fill="none" stroke="#000" stroke-linecap="round" stroke-linejoin="bevel" stroke-width="3.25"/>
	<path d="m1870.8 719.43v-129.69" fill="none" stroke="#000" stroke-linecap="round" stroke-linejoin="bevel" stroke-width="3.25"/>
	<path d="m1990.1 731.93v-132.81" fill="none" stroke="#000" stroke-linecap="round" stroke-linejoin="bevel" stroke-width="3.25"/>
	<path d="m2109.3 731.93v-132.81" fill="none" stroke="#000" stroke-linecap="round" stroke-linejoin="bevel" stroke-width="3.25"/>
	<path d="m2229.5 745.28v-136.79" fill="none" stroke="#000" stroke-linecap="round" stroke-linejoin="bevel" stroke-width="3.25"/>
	<path d="m852.92 385.33c3.125 0 5.761 0.814 7.91 2.442 2.018 1.758 3.027 3.971 3.027 6.64 0 4.493-2.311 8.692-6.934 12.598-4.687 3.906-9.7 5.859-15.039 5.859-3.125 0-5.761-0.813-7.91-2.441-2.018-1.758-3.027-3.971-3.027-6.641 0-4.492 2.344-8.691 7.031-12.597 4.557-3.907 9.538-5.86 14.942-5.86"/>
	<path d="m1100.4 397.83c3.12 0 5.76 0.814 7.91 2.441 2.02 1.758 3.03 3.972 3.03 6.641 0 4.492-2.31 8.692-6.94 12.598-4.68 3.906-9.7 5.859-15.04 5.859-3.12 0-5.76-0.814-7.91-2.441-2.01-1.758-3.02-3.972-3.02-6.641 0-4.492 2.34-8.691 7.03-12.598 4.56-3.906 9.54-5.859 14.94-5.859"/>
	<path d="m1227.3 410.34c3.13 0 5.77 0.814 7.91 2.441 2.02 1.758 3.03 3.972 3.03 6.641 0 4.492-2.31 8.691-6.93 12.598-4.69 3.906-9.7 5.859-15.04 5.859-3.13 0-5.76-0.814-7.91-2.441-2.02-1.758-3.03-3.972-3.03-6.641 0-4.492 2.35-8.692 7.03-12.598 4.56-3.906 9.54-5.859 14.94-5.859"/>
	<path d="m1354.1 385.33c3.12 0 5.76 0.814 7.91 2.442 2.02 1.758 3.03 3.971 3.03 6.64 0 4.493-2.31 8.692-6.94 12.598-4.68 3.906-9.7 5.859-15.04 5.859-3.12 0-5.76-0.813-7.91-2.441-2.01-1.758-3.02-3.971-3.02-6.641 0-4.492 2.34-8.691 7.03-12.597 4.55-3.907 9.54-5.86 14.94-5.86"/>
	<path d="m1481 347.83c3.13 0 5.77 0.814 7.91 2.441 2.02 1.758 3.03 3.972 3.03 6.641 0 4.492-2.31 8.691-6.93 12.598-4.69 3.906-9.7 5.859-15.04 5.859-3.13 0-5.76-0.814-7.91-2.441-2.02-1.758-3.03-3.972-3.03-6.641 0-4.492 2.34-8.691 7.03-12.598 4.56-3.906 9.54-5.859 14.94-5.859"/>
	<path d="m1607.8 347.83c3.12 0 5.76 0.814 7.91 2.441 2.02 1.758 3.03 3.972 3.03 6.641 0 4.492-2.32 8.691-6.94 12.598-4.68 3.906-9.7 5.859-15.04 5.859-3.12 0-5.76-0.814-7.91-2.441-2.01-1.758-3.02-3.972-3.02-6.641 0-4.492 2.34-8.691 7.03-12.598 4.55-3.906 9.54-5.859 14.94-5.859"/>
	<path d="m1763.7 335.33c3.12 0 5.76 0.814 7.91 2.442 2.01 1.757 3.02 3.971 3.02 6.64 0 4.492-2.31 8.692-6.93 12.598-4.69 3.906-9.7 5.859-15.04 5.859-3.12 0-5.76-0.814-7.91-2.441-2.02-1.758-3.03-3.972-3.03-6.641 0-4.492 2.35-8.691 7.03-12.597 4.56-3.907 9.54-5.86 14.95-5.86"/>
	<path d="m1953.5 347.83c3.12 0 5.76 0.814 7.91 2.441 2.02 1.758 3.02 3.972 3.02 6.641 0 4.492-2.31 8.691-6.93 12.598-4.69 3.906-9.7 5.859-15.04 5.859-3.12 0-5.76-0.814-7.91-2.441-2.02-1.758-3.03-3.972-3.03-6.641 0-4.492 2.35-8.691 7.04-12.598 4.55-3.906 9.53-5.859 14.94-5.859"/>
	<path d="m2027.9 335.33c3.13 0 5.77 0.814 7.92 2.442 2.01 1.757 3.02 3.971 3.02 6.64 0 4.492-2.31 8.692-6.93 12.598-4.69 3.906-9.7 5.859-15.04 5.859-3.13 0-5.76-0.814-7.91-2.441-2.02-1.758-3.03-3.972-3.03-6.641 0-4.492 2.35-8.691 7.03-12.597 4.56-3.907 9.54-5.86 14.94-5.86"/>
	<path d="m2102.3 322.83c3.13 0 5.76 0.814 7.91 2.442 2.02 1.758 3.03 3.971 3.03 6.64 0 4.493-2.31 8.692-6.93 12.598-4.69 3.906-9.7 5.859-15.04 5.859-3.13 0-5.76-0.813-7.91-2.441-2.02-1.758-3.03-3.971-3.03-6.641 0-4.492 2.34-8.691 7.03-12.597 4.56-3.907 9.54-5.86 14.94-5.86"/>
	<path d="m2221.4 335.33c3.13 0 5.77 0.814 7.91 2.442 2.02 1.757 3.03 3.971 3.03 6.64 0 4.492-2.31 8.692-6.93 12.598-4.69 3.906-9.7 5.859-15.04 5.859-3.13 0-5.76-0.814-7.91-2.441-2.02-1.758-3.03-3.972-3.03-6.641 0-4.492 2.35-8.691 7.03-12.597 4.56-3.907 9.54-5.86 14.94-5.86"/>
	<path d="m800.18 735.36c3.125 0 5.762 0.814 7.91 2.442 2.018 1.758 3.027 3.971 3.027 6.64 0 4.493-2.311 8.692-6.933 12.598-4.688 3.906-9.701 5.859-15.039 5.859-3.125 0-5.762-0.813-7.91-2.441-2.019-1.758-3.028-3.971-3.028-6.641 0-4.492 2.344-8.691 7.031-12.597 4.558-3.907 9.538-5.86 14.942-5.86"/>
	<path d="m800.18 710.35c3.125 0 5.762 0.814 7.91 2.441 2.018 1.758 3.027 3.972 3.027 6.641 0 4.492-2.311 8.691-6.933 12.597-4.688 3.907-9.701 5.86-15.039 5.86-3.125 0-5.762-0.814-7.91-2.442-2.019-1.757-3.028-3.971-3.028-6.64 0-4.492 2.344-8.692 7.031-12.598 4.558-3.906 9.538-5.859 14.942-5.859"/>
	<path d="m1012.9 747.86c3.12 0 5.76 0.814 7.91 2.442 2.02 1.757 3.03 3.971 3.03 6.64 0 4.492-2.31 8.692-6.94 12.598-4.68 3.906-9.7 5.859-15.04 5.859-3.12 0-5.76-0.814-7.91-2.441-2.014-1.758-3.023-3.972-3.023-6.641 0-4.492 2.343-8.691 7.033-12.598 4.56-3.906 9.54-5.859 14.94-5.859"/>
	<path d="m1012.9 722.86c3.12 0 5.76 0.813 7.91 2.441 2.02 1.758 3.03 3.971 3.03 6.641 0 4.492-2.31 8.691-6.94 12.597-4.68 3.906-9.7 5.86-15.04 5.86-3.12 0-5.76-0.814-7.91-2.442-2.014-1.758-3.023-3.971-3.023-6.64 0-4.493 2.343-8.692 7.033-12.598 4.56-3.906 9.54-5.859 14.94-5.859"/>
	<path d="m1146.3 760.36c3.12 0 5.76 0.814 7.91 2.441 2.01 1.758 3.02 3.972 3.02 6.641 0 4.492-2.31 8.691-6.93 12.598-4.69 3.906-9.7 5.859-15.04 5.859-3.12 0-5.76-0.814-7.91-2.441-2.02-1.758-3.03-3.972-3.03-6.641 0-4.492 2.35-8.691 7.03-12.598 4.56-3.906 9.54-5.859 14.95-5.859"/>
	<path d="m1146.3 735.36c3.12 0 5.76 0.814 7.91 2.442 2.01 1.758 3.02 3.971 3.02 6.64 0 4.493-2.31 8.692-6.93 12.598-4.69 3.906-9.7 5.859-15.04 5.859-3.12 0-5.76-0.813-7.91-2.441-2.02-1.758-3.03-3.971-3.03-6.641 0-4.492 2.35-8.691 7.03-12.597 4.56-3.907 9.54-5.86 14.95-5.86"/>
	<path d="m1279.7 735.36c3.13 0 5.76 0.814 7.91 2.442 2.02 1.758 3.03 3.971 3.03 6.64 0 4.493-2.31 8.692-6.93 12.598-4.69 3.906-9.7 5.859-15.04 5.859-3.13 0-5.76-0.813-7.91-2.441-2.02-1.758-3.03-3.971-3.03-6.641 0-4.492 2.34-8.691 7.03-12.597 4.56-3.907 9.54-5.86 14.94-5.86"/>
	<path d="m1279.7 710.35c3.13 0 5.76 0.814 7.91 2.441 2.02 1.758 3.03 3.972 3.03 6.641 0 4.492-2.31 8.691-6.93 12.597-4.69 3.907-9.7 5.86-15.04 5.86-3.13 0-5.76-0.814-7.91-2.442-2.02-1.757-3.03-3.971-3.03-6.64 0-4.492 2.34-8.692 7.03-12.598 4.56-3.906 9.54-5.859 14.94-5.859"/>
	<path d="m1413.1 697.85c3.12 0 5.76 0.814 7.91 2.441 2.02 1.758 3.03 3.972 3.03 6.641 0 4.492-2.31 8.691-6.94 12.598-4.68 3.906-9.7 5.859-15.04 5.859-3.12 0-5.76-0.814-7.91-2.441-2.01-1.758-3.02-3.972-3.02-6.641 0-4.492 2.34-8.691 7.03-12.598 4.56-3.906 9.54-5.859 14.94-5.859"/>
	<path d="m1413.1 635.35c3.12 0 5.76 0.814 7.91 2.441 2.02 1.758 3.03 3.972 3.03 6.641 0 4.492-2.31 8.691-6.94 12.598-4.68 3.906-9.7 5.859-15.04 5.859-3.12 0-5.76-0.814-7.91-2.441-2.01-1.758-3.02-3.972-3.02-6.641 0-4.492 2.34-8.691 7.03-12.598 4.56-3.906 9.54-5.859 14.94-5.859"/>
	<path d="m1546.5 697.85c3.12 0 5.76 0.814 7.91 2.441 2.01 1.758 3.02 3.972 3.02 6.641 0 4.492-2.31 8.691-6.93 12.598-4.69 3.906-9.7 5.859-15.04 5.859-3.12 0-5.76-0.814-7.91-2.441-2.02-1.758-3.03-3.972-3.03-6.641 0-4.492 2.35-8.691 7.04-12.598 4.55-3.906 9.53-5.859 14.94-5.859"/>
	<path d="m1546.5 635.35c3.12 0 5.76 0.814 7.91 2.441 2.01 1.758 3.02 3.972 3.02 6.641 0 4.492-2.31 8.691-6.93 12.598-4.69 3.906-9.7 5.859-15.04 5.859-3.12 0-5.76-0.814-7.91-2.441-2.02-1.758-3.03-3.972-3.03-6.641 0-4.492 2.35-8.691 7.04-12.598 4.55-3.906 9.53-5.859 14.94-5.859"/>
	<path d="m1629.9 697.85c3.12 0 5.76 0.814 7.91 2.441 2.01 1.758 3.02 3.972 3.02 6.641 0 4.492-2.31 8.691-6.93 12.598-4.69 3.906-9.7 5.859-15.04 5.859-3.12 0-5.76-0.814-7.91-2.441-2.02-1.758-3.03-3.972-3.03-6.641 0-4.492 2.35-8.691 7.03-12.598 4.56-3.906 9.54-5.859 14.95-5.859"/>
	<path d="m1629.9 635.35c3.12 0 5.76 0.814 7.91 2.441 2.01 1.758 3.02 3.972 3.02 6.641 0 4.492-2.31 8.691-6.93 12.598-4.69 3.906-9.7 5.859-15.04 5.859-3.12 0-5.76-0.814-7.91-2.441-2.02-1.758-3.03-3.972-3.03-6.641 0-4.492 2.35-8.691 7.03-12.598 4.56-3.906 9.54-5.859 14.95-5.859"/>
	<path d="m1742.3 710.35c3.12 0 5.76 0.814 7.91 2.441 2.02 1.758 3.02 3.972 3.02 6.641 0 4.492-2.31 8.691-6.93 12.597-4.69 3.907-9.7 5.86-15.04 5.86-3.12 0-5.76-0.814-7.91-2.442-2.02-1.757-3.03-3.971-3.03-6.64 0-4.492 2.35-8.692 7.04-12.598 4.55-3.906 9.53-5.859 14.94-5.859"/>
	<path d="m1742.3 647.85c3.12 0 5.76 0.814 7.91 2.441 2.02 1.758 3.02 3.972 3.02 6.641 0 4.492-2.31 8.691-6.93 12.598-4.69 3.906-9.7 5.859-15.04 5.859-3.12 0-5.76-0.814-7.91-2.442-2.02-1.757-3.03-3.971-3.03-6.64 0-4.492 2.35-8.692 7.04-12.598 4.55-3.906 9.53-5.859 14.94-5.859"/>
	<path d="m1861.5 710.35c3.12 0 5.76 0.814 7.91 2.441 2.01 1.758 3.02 3.972 3.02 6.641 0 4.492-2.31 8.691-6.93 12.597-4.69 3.907-9.7 5.86-15.04 5.86-3.12 0-5.76-0.814-7.91-2.442-2.02-1.757-3.03-3.971-3.03-6.64 0-4.492 2.35-8.692 7.03-12.598 4.56-3.906 9.54-5.859 14.95-5.859"/>
	<path d="m1861.5 647.85c3.12 0 5.76 0.814 7.91 2.441 2.01 1.758 3.02 3.972 3.02 6.641 0 4.492-2.31 8.691-6.93 12.598-4.69 3.906-9.7 5.859-15.04 5.859-3.12 0-5.76-0.814-7.91-2.442-2.02-1.757-3.03-3.971-3.03-6.64 0-4.492 2.35-8.692 7.03-12.598 4.56-3.906 9.54-5.859 14.95-5.859"/>
	<path d="m1980.8 722.86c3.12 0 5.76 0.813 7.91 2.441 2.01 1.758 3.02 3.971 3.02 6.641 0 4.492-2.31 8.691-6.93 12.597-4.69 3.906-9.7 5.86-15.04 5.86-3.12 0-5.76-0.814-7.91-2.442-2.02-1.758-3.03-3.971-3.03-6.64 0-4.493 2.35-8.692 7.03-12.598 4.56-3.906 9.54-5.859 14.95-5.859"/>
	<path d="m1980.8 660.35c3.12 0 5.76 0.813 7.91 2.441 2.01 1.758 3.02 3.971 3.02 6.641 0 4.492-2.31 8.691-6.93 12.597-4.69 3.907-9.7 5.86-15.04 5.86-3.12 0-5.76-0.814-7.91-2.442-2.02-1.758-3.03-3.971-3.03-6.64 0-4.493 2.35-8.692 7.03-12.598 4.56-3.906 9.54-5.859 14.95-5.859"/>
	<path d="m2100 722.86c3.13 0 5.77 0.813 7.91 2.441 2.02 1.758 3.03 3.971 3.03 6.641 0 4.492-2.31 8.691-6.93 12.597-4.69 3.906-9.7 5.86-15.04 5.86-3.13 0-5.76-0.814-7.91-2.442-2.02-1.758-3.03-3.971-3.03-6.64 0-4.493 2.35-8.692 7.03-12.598 4.56-3.906 9.54-5.859 14.94-5.859"/>
	<path d="m2100 660.35c3.13 0 5.77 0.813 7.91 2.441 2.02 1.758 3.03 3.971 3.03 6.641 0 4.492-2.31 8.691-6.93 12.597-4.69 3.907-9.7 5.86-15.04 5.86-3.13 0-5.76-0.814-7.91-2.442-2.02-1.758-3.03-3.971-3.03-6.64 0-4.493 2.35-8.692 7.03-12.598 4.56-3.906 9.54-5.859 14.94-5.859"/>
	<path d="m2227.9 742.58c0-1.107-0.42-2.051-1.27-2.832-0.84-0.846-1.82-1.27-2.93-1.27-1.95 0-5.89 1.953-11.81 5.86-6.12 3.971-9.87 6.803-11.23 8.496-0.72 0.911-1.08 1.855-1.08 2.832 0 1.107 0.42 2.051 1.27 2.832 0.78 0.846 1.76 1.269 2.93 1.269 1.89 0 5.86-1.953 11.91-5.859 5.99-3.906 9.71-6.738 11.14-8.496 0.71-0.846 1.07-1.79 1.07-2.832m-5.17-7.227c5.59 0 8.39 2.409 8.39 7.227 0 2.344-0.68 5.078-2.05 8.203-1.36 3.06-3.19 5.404-5.47 7.031-5.01 3.386-11.29 5.078-18.84 5.078-5.6 0-8.4-2.408-8.4-7.226 0-2.149 0.68-4.85 2.05-8.106 1.3-3.125 3.12-5.501 5.47-7.129 5.01-3.385 11.29-5.078 18.85-5.078"/>
	<path d="m2227.9 680.08c0-1.107-0.42-2.051-1.27-2.832-0.84-0.846-1.82-1.27-2.93-1.27-1.95 0-5.89 1.954-11.81 5.86-6.12 3.971-9.87 6.803-11.23 8.496-0.72 0.911-1.08 1.855-1.08 2.832 0 1.107 0.42 2.051 1.27 2.832 0.78 0.846 1.76 1.269 2.93 1.269 1.89 0 5.86-1.953 11.91-5.859 5.99-3.906 9.71-6.738 11.14-8.496 0.71-0.846 1.07-1.79 1.07-2.832m-5.17-7.227c5.59 0 8.39 2.409 8.39 7.227 0 2.344-0.68 5.078-2.05 8.203-1.36 3.06-3.19 5.404-5.47 7.031-5.01 3.386-11.29 5.078-18.84 5.078-5.6 0-8.4-2.408-8.4-7.226 0-2.149 0.68-4.85 2.05-8.106 1.3-3.125 3.12-5.501 5.47-7.128 5.01-3.386 11.29-5.079 18.85-5.079"/>
	<path d="m616.72 361.02h0.586c0.26-0.065 0.488-0.098 0.684-0.098 7.291 0 13.281 2.572 17.968 7.715 4.688 5.078 7.032 11.003 7.032 17.774 0 8.398-3.483 15.234-10.45 20.508-1.822 1.432-4.199 2.604-7.128 3.515 0.325 4.232 0.488 7.65 0.488 10.254 0 0.521-0.065 2.409-0.195 5.664-0.261 6.055-2.344 11.296-6.25 15.723-3.777 4.362-8.464 6.543-14.063 6.543-5.273 0-9.766-1.856-13.477-5.567-3.71-3.776-5.566-8.333-5.566-13.672 0-2.799 1.074-5.175 3.223-7.128 2.213-1.954 4.785-2.93 7.715-2.93 2.604 0 4.785 1.009 6.543 3.027 1.822 1.888 2.734 4.232 2.734 7.031 0 2.54-0.912 4.721-2.734 6.543-1.823 1.823-4.004 2.735-6.543 2.735-1.042 0-2.051-0.195-3.028-0.586 2.865 4.232 6.673 6.348 11.426 6.348 4.492 0 8.171-1.823 11.035-5.469 2.995-3.776 4.623-8.171 4.883-13.184 0.13-3.125 0.195-4.915 0.195-5.371 0-3.646-0.13-6.641-0.39-8.984-3.256 0.521-6.153 0.781-8.692 0.781-9.049 0-16.764-3.581-23.144-10.742-6.25-7.227-9.375-15.821-9.375-25.781 0-2.084 0.195-4.2 0.586-6.348 0.39-1.758 0.879-3.679 1.464-5.762 0.326-1.172 1.205-3.06 2.637-5.664 0.521-0.781 1.107-1.758 1.758-2.93 0.651-1.171 1.107-1.953 1.367-2.343 0.651-1.302 1.921-3.06 3.809-5.274 0.521-0.586 1.058-1.237 1.611-1.953 0.554-0.716 1.026-1.302 1.416-1.758 0.391-0.455 0.684-0.814 0.879-1.074s1.66-1.986 4.395-5.176c0.651-0.651 1.285-1.351 1.904-2.099 0.618-0.749 1.123-1.335 1.514-1.758 0.39-0.423 0.683-0.733 0.878-0.928-2.343-7.747-3.808-13.932-4.394-18.555-0.456-3.71-0.684-8.789-0.684-15.234 0-5.664 1.302-10.97 3.907-15.918 2.539-5.143 6.087-9.342 10.644-12.598 0.261-0.195 0.586-0.293 0.977-0.293 0.455 0 0.781 0.098 0.976 0.293 3.516 4.232 6.543 9.734 9.082 16.504 2.604 6.771 3.907 12.924 3.907 18.457 0 6.25-1.498 12.11-4.493 17.579-3.385 5.794-7.747 11.783-13.086 17.968 1.368 4.297 3.19 11.035 5.469 20.215m8.301 45.41c3.385-1.237 6.022-3.353 7.91-6.347 2.083-2.865 3.125-6.088 3.125-9.668 0-4.623-1.562-8.724-4.687-12.305-3.191-3.711-7.26-5.794-12.207-6.25 2.799 13.737 4.752 25.26 5.859 34.57m-37.793-22.558c0 6.445 2.604 12.109 7.812 16.992 5.339 4.752 11.329 7.129 17.969 7.129 2.735 0 5.404-0.196 8.008-0.586-1.042-9.896-3.092-21.745-6.152-35.547-3.711 0.391-6.674 1.693-8.887 3.906-2.148 2.279-3.223 4.85-3.223 7.715 0 4.948 2.637 8.952 7.91 12.012 0.456 0.455 0.684 0.944 0.684 1.465 0 0.52-0.228 1.009-0.684 1.464-0.39 0.456-0.878 0.684-1.464 0.684-0.065 0-0.358-0.065-0.879-0.195-3.711-2.019-6.576-4.623-8.594-7.813-1.888-3.385-2.832-6.803-2.832-10.254 0-4.492 1.4-8.561 4.199-12.207 2.93-3.646 6.738-5.989 11.426-7.031-1.823-7.292-3.32-12.988-4.492-17.09-1.042 1.172-2.295 2.588-3.76 4.248s-2.328 2.653-2.588 2.979c-2.344 3.06-4.134 5.436-5.371 7.129-2.214 3.06-3.841 5.696-4.883 7.91-1.107 2.474-2.083 5.176-2.93 8.105-0.846 2.8-1.269 5.795-1.269 8.985m32.617-99.317c-4.883 2.409-8.724 5.86-11.523 10.352-2.865 4.622-4.297 9.603-4.297 14.941 0 4.688 1.172 11.003 3.515 18.946 4.688-5.665 8.204-10.905 10.547-15.723 2.474-5.078 3.711-10.384 3.711-15.918 0-4.167-0.651-8.366-1.953-12.598"/>
	<path d="m616.72 686.04h0.586c0.26-0.066 0.488-0.098 0.684-0.098 7.291 0 13.281 2.572 17.968 7.715 4.688 5.078 7.032 11.002 7.032 17.773 0 8.399-3.483 15.235-10.45 20.508-1.822 1.432-4.199 2.604-7.128 3.516 0.325 4.231 0.488 7.649 0.488 10.254 0 0.52-0.065 2.408-0.195 5.664-0.261 6.054-2.344 11.295-6.25 15.722-3.777 4.362-8.464 6.543-14.063 6.543-5.273 0-9.766-1.855-13.477-5.566-3.71-3.776-5.566-8.334-5.566-13.672 0-2.8 1.074-5.176 3.223-7.129 2.213-1.953 4.785-2.93 7.715-2.93 2.604 0 4.785 1.009 6.543 3.028 1.822 1.888 2.734 4.231 2.734 7.031 0 2.539-0.912 4.72-2.734 6.543-1.823 1.823-4.004 2.734-6.543 2.734-1.042 0-2.051-0.195-3.028-0.586 2.865 4.232 6.673 6.348 11.426 6.348 4.492 0 8.171-1.823 11.035-5.469 2.995-3.776 4.623-8.17 4.883-13.183 0.13-3.125 0.195-4.916 0.195-5.371 0-3.646-0.13-6.641-0.39-8.985-3.256 0.521-6.153 0.781-8.692 0.781-9.049 0-16.764-3.58-23.144-10.742-6.25-7.226-9.375-15.82-9.375-25.781 0-2.083 0.195-4.199 0.586-6.348 0.39-1.757 0.879-3.678 1.464-5.761 0.326-1.172 1.205-3.06 2.637-5.664 0.521-0.782 1.107-1.758 1.758-2.93s1.107-1.953 1.367-2.344c0.651-1.302 1.921-3.06 3.809-5.273 0.521-0.586 1.058-1.237 1.611-1.953 0.554-0.717 1.026-1.303 1.416-1.758 0.391-0.456 0.684-0.814 0.879-1.074 0.195-0.261 1.66-1.986 4.395-5.176 0.651-0.651 1.285-1.351 1.904-2.1 0.618-0.749 1.123-1.334 1.514-1.758 0.39-0.423 0.683-0.732 0.878-0.927-2.343-7.748-3.808-13.933-4.394-18.555-0.456-3.711-0.684-8.789-0.684-15.234 0-5.665 1.302-10.971 3.907-15.918 2.539-5.144 6.087-9.343 10.644-12.598 0.261-0.195 0.586-0.293 0.977-0.293 0.455 0 0.781 0.098 0.976 0.293 3.516 4.232 6.543 9.733 9.082 16.504 2.604 6.771 3.907 12.923 3.907 18.457 0 6.25-1.498 12.109-4.493 17.578-3.385 5.794-7.747 11.784-13.086 17.969 1.368 4.297 3.19 11.035 5.469 20.215m8.301 45.41c3.385-1.237 6.022-3.353 7.91-6.348 2.083-2.865 3.125-6.087 3.125-9.668 0-4.622-1.562-8.724-4.687-12.305-3.191-3.711-7.26-5.794-12.207-6.25 2.799 13.737 4.752 25.261 5.859 34.571m-37.793-22.559c0 6.445 2.604 12.11 7.812 16.992 5.339 4.753 11.329 7.129 17.969 7.129 2.735 0 5.404-0.195 8.008-0.586-1.042-9.896-3.092-21.745-6.152-35.547-3.711 0.391-6.674 1.693-8.887 3.907-2.148 2.278-3.223 4.85-3.223 7.715 0 4.947 2.637 8.951 7.91 12.011 0.456 0.456 0.684 0.944 0.684 1.465s-0.228 1.009-0.684 1.465c-0.39 0.456-0.878 0.684-1.464 0.684-0.065 0-0.358-0.066-0.879-0.196-3.711-2.018-6.576-4.622-8.594-7.812-1.888-3.386-2.832-6.804-2.832-10.254 0-4.492 1.4-8.561 4.199-12.207 2.93-3.646 6.738-5.99 11.426-7.031-1.823-7.292-3.32-12.989-4.492-17.09-1.042 1.172-2.295 2.588-3.76 4.248s-2.328 2.653-2.588 2.978c-2.344 3.06-4.134 5.436-5.371 7.129-2.214 3.06-3.841 5.697-4.883 7.91-1.107 2.474-2.083 5.176-2.93 8.106-0.846 2.799-1.269 5.794-1.269 8.984m32.617-99.316c-4.883 2.409-8.724 5.859-11.523 10.351-2.865 4.623-4.297 9.603-4.297 14.942 0 4.687 1.172 11.002 3.515 18.945 4.688-5.664 8.204-10.905 10.547-15.723 2.474-5.078 3.711-10.384 3.711-15.918 0-4.166-0.651-8.366-1.953-12.597"/>
	<path d="m698.12 320v7.714c0 2.735 0.13 4.916 0.39 6.543 2.149-1.823 3.679-3.19 4.59-4.101 1.042-1.042 2.084-2.474 3.125-4.297 1.042-1.823 1.563-3.646 1.563-5.469s-0.391-3.385-1.172-4.687-1.823-1.953-3.125-1.953c-1.563 0-2.865 0.585-3.906 1.757-0.977 1.302-1.465 2.8-1.465 4.493m-4.102 17.871-1.269-59.473c0.911-0.521 1.823-0.781 2.734-0.781 0.912 0 1.823 0.26 2.734 0.781l-0.781 34.473c2.67-2.279 5.729-3.418 9.18-3.418 2.539 0 4.655 1.041 6.348 3.125 1.692 2.083 2.539 4.459 2.539 7.129 0 1.692-0.554 3.483-1.661 5.371-1.041 1.757-2.148 3.125-3.32 4.101-0.651 0.521-2.311 1.823-4.98 3.906-0.782 0.586-1.709 1.27-2.784 2.051-1.074 0.782-1.741 1.27-2.001 1.465-0.456 0.261-0.879 0.781-1.27 1.563-0.456 0.651-0.977 1.204-1.562 1.66-0.456 0.39-1.01 0.586-1.661 0.586s-1.172-0.228-1.562-0.684c-0.456-0.456-0.684-1.074-0.684-1.855"/>
	<path d="m673.12 357.5v7.715c0 2.734 0.13 4.915 0.391 6.543 2.148-1.823 3.678-3.19 4.59-4.102 1.041-1.042 2.083-2.474 3.125-4.297 1.041-1.823 1.562-3.646 1.562-5.468 0-1.823-0.39-3.386-1.172-4.688-0.781-1.302-1.823-1.953-3.125-1.953-1.562 0-2.864 0.586-3.906 1.758-0.976 1.302-1.465 2.799-1.465 4.492m-4.101 17.871-1.27-59.473c0.912-0.521 1.823-0.781 2.735-0.781 0.911 0 1.822 0.26 2.734 0.781l-0.781 34.473c2.669-2.279 5.729-3.418 9.179-3.418 2.539 0 4.655 1.042 6.348 3.125s2.539 4.46 2.539 7.129c0 1.693-0.553 3.483-1.66 5.371-1.042 1.758-2.149 3.125-3.32 4.102-0.651 0.52-2.312 1.822-4.981 3.906-0.781 0.586-1.709 1.269-2.783 2.051-1.074 0.781-1.742 1.269-2.002 1.464-0.456 0.261-0.879 0.782-1.27 1.563-0.455 0.651-0.976 1.204-1.562 1.66-0.456 0.391-1.009 0.586-1.66 0.586s-1.172-0.228-1.563-0.684c-0.455-0.455-0.683-1.074-0.683-1.855"/>
	<path d="m698.12 645.02v7.715c0 2.734 0.13 4.915 0.39 6.543 2.149-1.823 3.679-3.19 4.59-4.102 1.042-1.041 2.084-2.474 3.125-4.297 1.042-1.823 1.563-3.645 1.563-5.468s-0.391-3.386-1.172-4.688-1.823-1.953-3.125-1.953c-1.563 0-2.865 0.586-3.906 1.758-0.977 1.302-1.465 2.799-1.465 4.492m-4.102 17.871-1.269-59.473c0.911-0.52 1.823-0.781 2.734-0.781 0.912 0 1.823 0.261 2.734 0.781l-0.781 34.473c2.67-2.279 5.729-3.418 9.18-3.418 2.539 0 4.655 1.042 6.348 3.125 1.692 2.083 2.539 4.46 2.539 7.129 0 1.693-0.554 3.483-1.661 5.371-1.041 1.758-2.148 3.125-3.32 4.102-0.651 0.521-2.311 1.823-4.98 3.906-0.782 0.586-1.709 1.269-2.784 2.051-1.074 0.781-1.741 1.269-2.001 1.465-0.456 0.26-0.879 0.781-1.27 1.562-0.456 0.651-0.977 1.204-1.562 1.66-0.456 0.391-1.01 0.586-1.661 0.586s-1.172-0.228-1.562-0.683c-0.456-0.456-0.684-1.075-0.684-1.856"/>
	<path d="m673.12 682.52v7.715c0 2.735 0.13 4.916 0.391 6.543 2.148-1.823 3.678-3.19 4.59-4.101 1.041-1.042 2.083-2.474 3.125-4.297 1.041-1.823 1.562-3.646 1.562-5.469s-0.39-3.385-1.172-4.688c-0.781-1.302-1.823-1.953-3.125-1.953-1.562 0-2.864 0.586-3.906 1.758-0.976 1.302-1.465 2.8-1.465 4.492m-4.101 17.871-1.27-59.472c0.912-0.521 1.823-0.781 2.735-0.781 0.911 0 1.822 0.26 2.734 0.781l-0.781 34.472c2.669-2.278 5.729-3.418 9.179-3.418 2.539 0 4.655 1.042 6.348 3.125 1.693 2.084 2.539 4.46 2.539 7.129 0 1.693-0.553 3.483-1.66 5.371-1.042 1.758-2.149 3.125-3.32 4.102-0.651 0.521-2.312 1.823-4.981 3.906-0.781 0.586-1.709 1.27-2.783 2.051s-1.742 1.27-2.002 1.465c-0.456 0.26-0.879 0.781-1.27 1.562-0.455 0.651-0.976 1.205-1.562 1.661-0.456 0.39-1.009 0.586-1.66 0.586s-1.172-0.228-1.563-0.684c-0.455-0.456-0.683-1.074-0.683-1.856"/>
	<path d="m763.5 312.78c1.953 0 3.613-0.227 4.98-0.683 1.368-0.456 2.246-0.684 2.637-0.684 0.456 0 0.814 0.13 1.074 0.391 0.196 0.195 0.326 0.423 0.391 0.684 0 0.13-0.065 0.325-0.195 0.585l-28.418 33.008h16.699v-13.086c0-0.846 0.228-1.562 0.683-2.148 0.782-0.651 1.433-1.042 1.954-1.172 0.846-0.391 1.888-1.302 3.125-2.734 1.041-1.172 2.278-3.223 3.711-6.153 0.195-0.39 0.488-0.586 0.878-0.586 0.782 0 1.237 0.456 1.368 1.368v24.511h7.129c0.911 0 1.432 0.489 1.562 1.465 0 0.977-0.521 1.465-1.562 1.465h-7.129v0.781c0 2.604 0.651 4.818 1.953 6.641 1.497 1.823 3.255 2.734 5.273 2.734 0.781 0 1.172 0.391 1.172 1.172s-0.391 1.172-1.172 1.172c-1.367 0-3.581-0.195-6.64-0.586-2.8-0.456-4.981-0.684-6.543-0.684-1.628 0-3.809 0.228-6.543 0.684-2.93 0.391-5.111 0.586-6.543 0.586-0.782 0-1.172-0.391-1.172-1.172s0.39-1.172 1.172-1.172c2.018 0 3.776-0.911 5.273-2.734 1.367-1.888 2.051-4.102 2.051-6.641v-0.781h-16.699c-1.107 0-1.888-0.26-2.344-0.781-0.521-0.391-0.781-0.912-0.781-1.563 0-0.195 0.488-0.879 1.465-2.051 1.106-1.302 2.278-2.897 3.515-4.785 1.432-2.213 2.8-4.492 4.102-6.836 1.432-2.669 2.571-5.729 3.418-9.179 0.976-3.516 1.465-7.097 1.465-10.743 0-1.041 0.455-1.562 1.367-1.562 0.195 0 0.618 0.098 1.269 0.293 0.196 0.065 0.602 0.163 1.221 0.293 0.618 0.13 1.123 0.26 1.514 0.391 1.171 0.195 2.278 0.292 3.32 0.292"/>
	<path d="m763.5 362.96c1.953 0 3.613-0.228 4.98-0.684 1.368-0.456 2.246-0.684 2.637-0.684 0.456 0 0.814 0.131 1.074 0.391 0.196 0.195 0.326 0.423 0.391 0.684 0 0.13-0.065 0.325-0.195 0.585l-28.418 33.008h16.699v-13.086c0-0.846 0.228-1.562 0.683-2.148 0.782-0.651 1.433-1.042 1.954-1.172 0.846-0.391 1.888-1.302 3.125-2.734 1.041-1.172 2.278-3.223 3.711-6.153 0.195-0.39 0.488-0.586 0.878-0.586 0.782 0 1.237 0.456 1.368 1.368v24.511h7.129c0.911 0 1.432 0.489 1.562 1.465 0 0.977-0.521 1.465-1.562 1.465h-7.129v0.781c0 2.604 0.651 4.818 1.953 6.641 1.497 1.823 3.255 2.734 5.273 2.734 0.781 0 1.172 0.391 1.172 1.172s-0.391 1.172-1.172 1.172c-1.367 0-3.581-0.195-6.64-0.586-2.8-0.456-4.981-0.684-6.543-0.684-1.628 0-3.809 0.228-6.543 0.684-2.93 0.391-5.111 0.586-6.543 0.586-0.782 0-1.172-0.391-1.172-1.172s0.39-1.172 1.172-1.172c2.018 0 3.776-0.911 5.273-2.734 1.367-1.888 2.051-4.102 2.051-6.641v-0.781h-16.699c-1.107 0-1.888-0.26-2.344-0.781-0.521-0.391-0.781-0.912-0.781-1.563 0-0.195 0.488-0.879 1.465-2.051 1.106-1.302 2.278-2.897 3.515-4.785 1.432-2.213 2.8-4.492 4.102-6.836 1.432-2.669 2.571-5.729 3.418-9.179 0.976-3.516 1.465-7.097 1.465-10.743 0-1.041 0.455-1.562 1.367-1.562 0.195 0 0.618 0.098 1.269 0.293 0.196 0.065 0.602 0.163 1.221 0.293 0.618 0.13 1.123 0.26 1.514 0.391 1.171 0.195 2.278 0.293 3.32 0.293"/>
	<path d="m2317.9 353.79c0-1.172 0.65-2.474 1.95-3.906 0.98-1.042 2.41-2.279 4.3-3.711 1.43-0.977 2.83-2.442 4.2-4.395 1.3-1.888 1.95-3.939 1.95-6.152 0-2.604-0.85-4.915-2.54-6.934l-3.51-4.199c-0.26-0.26-0.39-0.586-0.39-0.976 0-0.391 0.19-0.749 0.58-1.075 0.46-0.325 0.85-0.488 1.17-0.488 0.46 0 0.82 0.195 1.08 0.586l15.13 17.969c0.65 0.846 0.98 1.692 0.98 2.539 0 1.172-0.65 2.474-1.95 3.906-0.85 0.911-2.25 2.148-4.2 3.711-1.5 0.911-2.93 2.376-4.3 4.394-1.3 1.889-1.95 3.939-1.95 6.153 0 2.734 0.78 5.045 2.34 6.933l8.4 9.864c0.2 0.195 0.36 0.521 0.49 0.976 0 0.456-0.16 0.847-0.49 1.172-0.46 0.326-0.85 0.488-1.17 0.488-0.13 0-0.65-0.358-1.56-1.074-0.98-0.781-2.28-1.53-3.91-2.246-1.82-0.716-3.61-1.074-5.37-1.074-1.63 0-2.96 0.456-4.01 1.367-0.91 0.912-1.36 2.669-1.36 5.274 0 3.971 0.94 7.096 2.83 9.375 0.19 0.26 0.23 0.585 0.1 0.976-0.13 0.26-0.36 0.391-0.69 0.391-0.45 0-1.46-1.172-3.02-3.516-1.63-2.474-3.16-5.306-4.59-8.496-1.5-3.385-2.25-6.185-2.25-8.398 0-2.8 1.33-4.2 4-4.2 3.06 0 7.04 1.042 11.92 3.125l-13.19-15.82c-0.65-0.846-0.97-1.693-0.97-2.539"/>
	<path d="m1108.1 349.1v-25h3.13c0 3.711 0.71 7.422 2.15 11.133 1.56 4.036 3.28 7.552 5.17 10.547 1.37 2.148 3.42 5.436 6.15 9.863 2.09 3.385 3.85 6.934 5.28 10.645s2.15 7.421 2.15 11.132c0 6.771-1.4 13.672-4.2 20.704-0.52 0.781-1.14 1.171-1.86 1.171-0.65 0-1.24-0.26-1.76-0.781-0.39-0.39-0.58-0.879-0.58-1.465v-0.488c2.8-6.445 4.2-12.825 4.2-19.141 0-3.255-0.98-6.77-2.93-10.546-1.96-3.842-3.94-6.902-5.96-9.18-2.28-2.669-4.88-5.534-7.81-8.594h-3.13"/>
	<path d="m1235 361.6v-25h3.12c0 3.711 0.72 7.422 2.15 11.133 1.56 4.036 3.29 7.552 5.18 10.547 1.36 2.148 3.41 5.436 6.15 9.863 2.08 3.385 3.84 6.933 5.27 10.644s2.15 7.422 2.15 11.133c0 6.771-1.4 13.672-4.2 20.703-0.52 0.782-1.14 1.172-1.85 1.172-0.65 0-1.24-0.26-1.76-0.781-0.39-0.391-0.59-0.879-0.59-1.465v-0.488c2.8-6.445 4.2-12.826 4.2-19.141 0-3.255-0.97-6.771-2.93-10.547-1.95-3.841-3.94-6.901-5.95-9.179-2.28-2.67-4.89-5.534-7.82-8.594h-3.12"/>
	<path d="m1361.8 336.6v-25h3.13c0 3.711 0.71 7.422 2.15 11.133 1.56 4.037 3.28 7.552 5.17 10.547 1.37 2.148 3.42 5.436 6.15 9.863 2.09 3.386 3.85 6.934 5.28 10.645s2.15 7.422 2.15 11.133c0 6.77-1.4 13.671-4.2 20.703-0.52 0.781-1.14 1.172-1.86 1.172-0.65 0-1.24-0.261-1.76-0.782-0.39-0.39-0.58-0.879-0.58-1.464v-0.489c2.8-6.445 4.2-12.825 4.2-19.14 0-3.256-0.98-6.771-2.93-10.547-1.96-3.841-3.94-6.901-5.96-9.18-2.28-2.669-4.88-5.534-7.81-8.594h-3.13"/>
	<path d="m1488.7 308.47v-25h3.12c0 3.71 0.72 7.421 2.15 11.132 1.56 4.037 3.29 7.552 5.18 10.547 1.36 2.149 3.41 5.436 6.15 9.864 2.08 3.385 3.84 6.933 5.27 10.644s2.15 7.422 2.15 11.133c0 6.771-1.4 13.672-4.2 20.703-0.52 0.781-1.14 1.172-1.85 1.172-0.66 0-1.24-0.261-1.76-0.781-0.39-0.391-0.59-0.879-0.59-1.465v-0.489c2.8-6.445 4.2-12.825 4.2-19.14 0-3.255-0.98-6.771-2.93-10.547-1.95-3.841-3.94-6.901-5.96-9.18-2.27-2.669-4.88-5.534-7.81-8.593h-3.12"/>
	<path d="m1615.5 308.47v-25h3.13c0 3.71 0.71 7.421 2.15 11.132 1.56 4.037 3.28 7.552 5.17 10.547 1.37 2.149 3.42 5.436 6.15 9.864 2.09 3.385 3.84 6.933 5.28 10.644 1.43 3.711 2.15 7.422 2.15 11.133 0 6.771-1.4 13.672-4.2 20.703-0.52 0.781-1.14 1.172-1.86 1.172-0.65 0-1.24-0.261-1.76-0.781-0.39-0.391-0.58-0.879-0.58-1.465v-0.489c2.8-6.445 4.2-12.825 4.2-19.14 0-3.255-0.98-6.771-2.93-10.547-1.96-3.841-3.94-6.901-5.96-9.18-2.28-2.669-4.88-5.534-7.81-8.593h-3.13"/>
	<path d="m1934.7 429.09c2.6-1.497 5.08-3.027 7.42-4.589 2.48-1.758 4.69-3.516 6.64-5.274 2.35-2.148 4.14-4.362 5.37-6.64 1.31-2.474 1.96-4.916 1.96-7.325 0-2.278-0.46-4.59-1.37-6.933-0.72 0.911-2.83 2.995-6.35 6.25-2.67 2.474-4.95 4.72-6.83 6.738-1.7 1.823-3.26 4.102-4.69 6.836-1.43 2.799-2.15 5.631-2.15 8.496v2.441m26.86-46.289c0 3.907-1.24 7.78-3.72 11.621 1.63 3.451 2.45 7.064 2.45 10.84 0 3.19-0.88 6.413-2.64 9.668-1.89 3.516-4.01 6.38-6.35 8.594l-7.62 7.422c-2.54 2.604-4.65 5.436-6.34 8.496-1.76 3.125-2.64 6.348-2.64 9.668h-3.13v-50h3.13v7.519c15.1-7.877 22.66-15.82 22.66-23.828 0-1.757-0.46-3.808-1.37-6.152v-0.391c0-0.52 0.19-1.041 0.58-1.562 0.53-0.521 1.11-0.781 1.76-0.781s1.24 0.39 1.76 1.172c0.59 1.041 0.91 2.05 0.98 3.027 0.06 0.456 0.13 1.042 0.19 1.758l0.2 1.074c0.06 0.456 0.1 1.074 0.1 1.855"/>
	<path d="m2009.1 416.59c2.6-1.498 5.08-3.028 7.42-4.59 2.47-1.758 4.69-3.516 6.64-5.274 2.34-2.148 4.13-4.362 5.37-6.64 1.3-2.474 1.95-4.916 1.95-7.324 0-2.279-0.45-4.59-1.36-6.934-0.72 0.911-2.84 2.995-6.35 6.25-2.67 2.474-4.95 4.72-6.84 6.738-1.69 1.823-3.25 4.102-4.68 6.836-1.44 2.8-2.15 5.632-2.15 8.496v2.442m26.85-46.289c0 3.906-1.23 7.78-3.71 11.621 1.63 3.45 2.44 7.063 2.44 10.84 0 3.19-0.88 6.412-2.63 9.667-1.89 3.516-4.01 6.381-6.35 8.594l-7.62 7.422c-2.54 2.604-4.65 5.436-6.35 8.496-1.75 3.125-2.63 6.348-2.63 9.668h-3.13v-50h3.13v7.52c15.1-7.878 22.65-15.821 22.65-23.828 0-1.758-0.45-3.809-1.36-6.153v-0.39c0-0.521 0.19-1.042 0.58-1.563 0.52-0.521 1.11-0.781 1.76-0.781s1.24 0.39 1.76 1.172c0.58 1.041 0.91 2.051 0.97 3.027 0.07 0.456 0.13 1.042 0.2 1.758l0.2 1.074c0.06 0.456 0.09 1.074 0.09 1.856"/>
	<path d="m2103.1 351.74c1.5 0 3.1 2.442 4.79 7.324 1.63 4.818 2.44 9.408 2.44 13.77 0 3.711-0.91 7.389-2.73 11.035-1.89 3.906-4.14 7.292-6.74 10.156l-8.01 8.985c-2.47 2.864-4.69 6.185-6.64 9.961-1.82 3.645-2.74 7.356-2.74 11.132h-3.12v-25h3.12c1.76-1.106 4.37-2.864 7.82-5.273 1.56-1.172 3.9-3.125 7.03-5.859 2.54-2.344 4.46-4.753 5.76-7.227 1.37-2.604 2.05-5.241 2.05-7.91 0-6.185-1.79-12.337-5.37-18.457v-0.391c0-0.586 0.2-1.074 0.59-1.465 0.52-0.52 1.1-0.781 1.75-0.781"/>
	<path d="m2222.2 364.24c1.49 0 3.09 2.441 4.78 7.324 1.63 4.818 2.44 9.408 2.44 13.77 0 3.711-0.91 7.389-2.73 11.035-1.89 3.906-4.14 7.291-6.74 10.156l-8.01 8.984c-2.47 2.865-4.69 6.185-6.64 9.961-1.82 3.646-2.73 7.357-2.73 11.133h-3.13v-25h3.13c1.75-1.107 4.36-2.864 7.81-5.273 1.56-1.172 3.91-3.125 7.03-5.86 2.54-2.343 4.46-4.752 5.76-7.226 1.37-2.604 2.05-5.241 2.05-7.91 0-6.185-1.79-12.338-5.37-18.457v-0.391c0-0.586 0.2-1.074 0.59-1.465 0.52-0.521 1.1-0.781 1.76-0.781"/>
	<path d="m1020.6 674.12v-25h3.13c0 3.711 0.71 7.421 2.15 11.132 1.56 4.037 3.28 7.552 5.17 10.547 1.37 2.149 3.42 5.436 6.15 9.864 2.09 3.385 3.85 6.933 5.28 10.644s2.15 7.422 2.15 11.133c0 6.771-1.4 13.672-4.2 20.703-0.52 0.781-1.14 1.172-1.86 1.172-0.65 0-1.24-0.261-1.76-0.781-0.39-0.391-0.58-0.879-0.58-1.465v-0.488c2.8-6.446 4.2-12.826 4.2-19.141 0-3.255-0.98-6.771-2.93-10.547-1.96-3.841-3.94-6.901-5.96-9.18-2.28-2.669-4.88-5.534-7.81-8.593h-3.13"/>
	<path d="m1154 686.62v-25h3.12c0 3.711 0.72 7.422 2.15 11.133 1.57 4.037 3.29 7.552 5.18 10.547 1.37 2.148 3.42 5.436 6.15 9.863 2.08 3.386 3.84 6.934 5.27 10.645 1.44 3.711 2.15 7.422 2.15 11.133 0 6.771-1.4 13.672-4.2 20.703-0.52 0.781-1.14 1.172-1.85 1.172-0.65 0-1.24-0.261-1.76-0.782-0.39-0.39-0.59-0.878-0.59-1.464v-0.489c2.8-6.445 4.2-12.825 4.2-19.14 0-3.256-0.97-6.771-2.93-10.547-1.95-3.841-3.93-6.901-5.95-9.18-2.28-2.669-4.89-5.534-7.82-8.594h-3.12"/>
	<path d="m1287.4 661.62v-25h3.12c0 3.711 0.72 7.422 2.15 11.133 1.56 4.036 3.29 7.552 5.18 10.546 1.36 2.149 3.41 5.437 6.15 9.864 2.08 3.385 3.84 6.933 5.27 10.644s2.15 7.422 2.15 11.133c0 6.771-1.4 13.672-4.2 20.703-0.52 0.781-1.14 1.172-1.86 1.172-0.65 0-1.23-0.26-1.75-0.781-0.39-0.391-0.59-0.879-0.59-1.465v-0.488c2.8-6.446 4.2-12.826 4.2-19.141 0-3.255-0.98-6.771-2.93-10.547-1.95-3.841-3.94-6.901-5.96-9.179-2.27-2.67-4.88-5.534-7.81-8.594h-3.12"/>
	<path d="m1420.8 605.36v-25h3.13c0 3.711 0.71 7.422 2.15 11.133 1.56 4.037 3.28 7.552 5.17 10.547 1.37 2.148 3.42 5.436 6.15 9.863 2.09 3.386 3.85 6.934 5.28 10.645s2.15 7.422 2.15 11.133c0 6.77-1.4 13.671-4.2 20.703-0.52 0.781-1.14 1.172-1.86 1.172-0.65 0-1.24-0.261-1.76-0.782-0.39-0.39-0.58-0.879-0.58-1.465v-0.488c2.8-6.445 4.2-12.825 4.2-19.14 0-3.256-0.98-6.771-2.93-10.547-1.96-3.841-3.94-6.901-5.96-9.18-2.28-2.669-4.88-5.534-7.81-8.594h-3.13"/>
	<path d="m1557.3 561.61c0 3.32 0.72 6.641 2.15 9.961 1.37 3.255 3.06 6.348 5.08 9.277l5.86 8.594c1.95 2.669 3.65 5.762 5.08 9.277 1.43 3.256 2.15 6.543 2.15 9.864 0 3.06-0.78 6.25-2.35 9.57 1.96 3.971 2.93 7.845 2.93 11.621 0 5.99-1.4 12.109-4.2 18.359-0.52 0.782-1.14 1.172-1.85 1.172-0.65 0-1.24-0.26-1.76-0.781-0.39-0.391-0.59-0.879-0.59-1.465v-0.488c2.8-5.534 4.2-11.133 4.2-16.797 0-2.539-0.48-4.883-1.46-7.031-1.17-2.539-2.61-4.883-4.3-7.031-2.15-2.8-3.84-4.818-5.08-6.055-1.69-1.693-3.64-3.548-5.86-5.566v7.519h-3.12v-50h3.12m15.34 51.66c0.45-1.367 0.68-2.929 0.68-4.687 0-2.279-0.46-4.59-1.37-6.934-0.97-2.344-2.34-4.72-4.1-7.129-1.63-2.018-3.29-4.004-4.98-5.957-1.3-1.432-3.16-3.32-5.57-5.664 0 2.669 0.56 5.501 1.66 8.496 1.18 2.8 2.38 5.241 3.62 7.324 1.43 2.214 3.19 4.72 5.27 7.52 2.08 2.799 3.68 5.143 4.79 7.031"/>
	<path d="m1640.7 561.61c0 3.32 0.72 6.641 2.15 9.961 1.37 3.255 3.06 6.348 5.08 9.277l5.86 8.594c1.95 2.669 3.65 5.762 5.08 9.277 1.43 3.256 2.15 6.543 2.15 9.864 0 3.06-0.78 6.25-2.35 9.57 1.96 3.971 2.93 7.845 2.93 11.621 0 5.99-1.4 12.109-4.2 18.359-0.52 0.782-1.14 1.172-1.85 1.172-0.65 0-1.24-0.26-1.76-0.781-0.39-0.391-0.59-0.879-0.59-1.465v-0.488c2.8-5.534 4.2-11.133 4.2-16.797 0-2.539-0.49-4.883-1.46-7.031-1.17-2.539-2.61-4.883-4.3-7.031-2.15-2.8-3.84-4.818-5.08-6.055-1.69-1.693-3.64-3.548-5.86-5.566v7.519h-3.12v-50h3.12m15.34 51.66c0.45-1.367 0.68-2.929 0.68-4.687 0-2.279-0.46-4.59-1.37-6.934-0.97-2.344-2.34-4.72-4.1-7.129-1.63-2.018-3.29-4.004-4.98-5.957-1.3-1.432-3.16-3.32-5.57-5.664 0 2.669 0.56 5.501 1.66 8.496 1.18 2.8 2.38 5.241 3.62 7.324 1.43 2.214 3.19 4.72 5.27 7.52 2.08 2.799 3.68 5.143 4.79 7.031"/>
	<path d="m1750 614.74v-25h3.13c0 3.711 0.71 7.422 2.14 11.133 1.57 4.036 3.29 7.552 5.18 10.547 1.37 2.148 3.42 5.436 6.15 9.863 2.08 3.385 3.84 6.933 5.28 10.644 1.43 3.711 2.14 7.422 2.14 11.133 0 6.771-1.4 13.672-4.2 20.703-0.52 0.782-1.14 1.172-1.85 1.172-0.65 0-1.24-0.26-1.76-0.781-0.39-0.391-0.58-0.879-0.58-1.465v-0.488c2.79-6.446 4.19-12.826 4.19-19.141 0-3.255-0.97-6.771-2.93-10.547-1.95-3.841-3.93-6.901-5.95-9.179-2.28-2.67-4.89-5.534-7.81-8.594h-3.13"/>
	<path d="m1869.2 614.74v-25h3.12c0 3.711 0.72 7.422 2.15 11.133 1.57 4.036 3.29 7.552 5.18 10.547 1.37 2.148 3.42 5.436 6.15 9.863 2.08 3.385 3.84 6.933 5.27 10.644 1.44 3.711 2.15 7.422 2.15 11.133 0 6.771-1.4 13.672-4.2 20.703-0.52 0.782-1.14 1.172-1.85 1.172-0.65 0-1.24-0.26-1.76-0.781-0.39-0.391-0.59-0.879-0.59-1.465v-0.488c2.8-6.446 4.2-12.826 4.2-19.141 0-3.255-0.97-6.771-2.93-10.547-1.95-3.841-3.93-6.901-5.95-9.179-2.28-2.67-4.89-5.534-7.82-8.594h-3.12"/>
	<path d="m1988.5 624.12v-25h3.12c0 3.711 0.72 7.422 2.15 11.133 1.56 4.037 3.29 7.552 5.18 10.547 1.36 2.149 3.42 5.436 6.15 9.863 2.08 3.386 3.84 6.934 5.27 10.645 1.44 3.711 2.15 7.422 2.15 11.133 0 6.771-1.4 13.672-4.2 20.703-0.52 0.781-1.14 1.172-1.85 1.172-0.65 0-1.24-0.261-1.76-0.782-0.39-0.39-0.59-0.878-0.59-1.464v-0.489c2.8-6.445 4.2-12.825 4.2-19.14 0-3.255-0.97-6.771-2.93-10.547-1.95-3.841-3.94-6.901-5.95-9.18-2.28-2.669-4.89-5.534-7.82-8.594h-3.12"/>
	<path d="m2107.7 624.12v-25h3.12c0 3.711 0.72 7.422 2.15 11.133 1.56 4.037 3.29 7.552 5.18 10.547 1.36 2.149 3.41 5.436 6.15 9.863 2.08 3.386 3.84 6.934 5.27 10.645s2.15 7.422 2.15 11.133c0 6.771-1.4 13.672-4.2 20.703-0.52 0.781-1.14 1.172-1.85 1.172-0.65 0-1.24-0.261-1.76-0.782-0.39-0.39-0.59-0.878-0.59-1.464v-0.489c2.8-6.445 4.2-12.825 4.2-19.14 0-3.255-0.97-6.771-2.93-10.547-1.95-3.841-3.94-6.901-5.95-9.18-2.28-2.669-4.89-5.534-7.82-8.594h-3.12"/>
	<path d="m874.27 403.11c-1.107-1.107-1.66-2.442-1.66-4.004 0-1.563 0.553-2.897 1.66-4.004s2.441-1.66 4.004-1.66c1.562 0 2.897 0.553 4.004 1.66 1.106 1.107 1.66 2.441 1.66 4.004 0 1.562-0.554 2.897-1.66 4.004-1.107 1.106-2.442 1.66-4.004 1.66-1.563 0-2.897-0.554-4.004-1.66"/>
	<path d="m1785 353.1c-1.11-1.107-1.66-2.442-1.66-4.004 0-1.563 0.55-2.897 1.66-4.004s2.44-1.66 4-1.66c1.57 0 2.9 0.553 4.01 1.66 1.1 1.107 1.66 2.441 1.66 4.004 0 1.562-0.56 2.897-1.66 4.004-1.11 1.106-2.44 1.66-4.01 1.66-1.56 0-2.89-0.554-4-1.66"/>
	<path d="m821.54 753.13c-1.107-1.107-1.66-2.442-1.66-4.004 0-1.563 0.553-2.897 1.66-4.004s2.441-1.66 4.004-1.66c1.562 0 2.897 0.553 4.004 1.66s1.66 2.441 1.66 4.004c0 1.562-0.553 2.897-1.66 4.004s-2.442 1.66-4.004 1.66c-1.563 0-2.897-0.553-4.004-1.66"/>
	<path d="m821.54 728.13c-1.107-1.107-1.66-2.441-1.66-4.004 0-1.562 0.553-2.897 1.66-4.004 1.107-1.106 2.441-1.66 4.004-1.66 1.562 0 2.897 0.554 4.004 1.66 1.107 1.107 1.66 2.442 1.66 4.004 0 1.563-0.553 2.897-1.66 4.004s-2.442 1.66-4.004 1.66c-1.563 0-2.897-0.553-4.004-1.66"/>
</svg>
