<?xml version="1.0" encoding="utf-8"?>
<svg xmlns="http://www.w3.org/2000/svg" version="1.2" viewBox="560 270 1926 518">
	<title>Chapter 11 score.</title>
	<path d="m560 311.6h1926.1" fill="none" stroke="#000" stroke-linejoin="bevel" stroke-width="2"/>
	<path d="m560 336.6h1926.1" fill="none" stroke="#000" stroke-linejoin="bevel" stroke-width="2"/>
	<path d="m560 361.6h1926.1" fill="none" stroke="#000" stroke-linejoin="bevel" stroke-width="2"/>
	<path d="m560 386.6h1926.1" fill="none" stroke="#000" stroke-linejoin="bevel" stroke-width="2"/>
	<path d="m560 411.6h1926.1" fill="none" stroke="#000" stroke-linejoin="bevel" stroke-width="2"/>
	<path d="m560 636.62h1926.1" fill="none" stroke="#000" stroke-linejoin="bevel" stroke-width="2"/>
	<path d="m560 661.62h1926.1" fill="none" stroke="#000" stroke-linejoin="bevel" stroke-width="2"/>
	<path d="m560 686.62h1926.1" fill="none" stroke="#000" stroke-linejoin="bevel" stroke-width="2"/>
	<path d="m560 711.62h1926.1" fill="none" stroke="#000" stroke-linejoin="bevel" stroke-width="2"/>
	<path d="m560 736.62h1926.1" fill="none" stroke="#000" stroke-linejoin="bevel" stroke-width="2"/>
	<path d="m975.04 310.6v102.01" fill="none" stroke="#000" stroke-linejoin="bevel" stroke-width="4"/>
	<path d="m1379.3 310.6v102.01" fill="none" stroke="#000" stroke-linejoin="bevel" stroke-width="4"/>
	<path d="m1753.6 310.6v102.01" fill="none" stroke="#000" stroke-linejoin="bevel" stroke-width="4"/>
	<path d="m2138.2 310.6v102.01" fill="none" stroke="#000" stroke-linejoin="bevel" stroke-width="4"/>
	<path d="m2484.1 310.6v102.01" fill="none" stroke="#000" stroke-linejoin="bevel" stroke-width="4"/>
	<path d="m1117.6 635.62v102.01" fill="none" stroke="#000" stroke-linejoin="bevel" stroke-width="4"/>
	<path d="m1568 635.62v102.01" fill="none" stroke="#000" stroke-linejoin="bevel" stroke-width="4"/>
	<path d="m1896.3 635.62v102.01" fill="none" stroke="#000" stroke-linejoin="bevel" stroke-width="4"/>
	<path d="m2224.6 635.62v102.01" fill="none" stroke="#000" stroke-linejoin="bevel" stroke-width="4"/>
	<path d="m809.84 436.6h47.917" fill="none" stroke="#000" stroke-linecap="square" stroke-linejoin="bevel" stroke-width="4"/>
	<path d="m1004 436.6h47.91" fill="none" stroke="#000" stroke-linecap="square" stroke-linejoin="bevel" stroke-width="4"/>
	<path d="m1229.1 436.6h47.92" fill="none" stroke="#000" stroke-linecap="square" stroke-linejoin="bevel" stroke-width="4"/>
	<path d="m1991.9 436.6h47.92" fill="none" stroke="#000" stroke-linecap="square" stroke-linejoin="bevel" stroke-width="4"/>
	<path d="m2167.2 436.6h47.91" fill="none" stroke="#000" stroke-linecap="square" stroke-linejoin="bevel" stroke-width="4"/>
	<path d="m759.99 761.63h47.917" fill="none" stroke="#000" stroke-linecap="square" stroke-linejoin="bevel" stroke-width="4"/>
	<path d="m974.19 761.63h47.921" fill="none" stroke="#000" stroke-linecap="square" stroke-linejoin="bevel" stroke-width="4"/>
	<path d="m848.64 444.41v-107.81" fill="none" stroke="#000" stroke-linecap="round" stroke-linejoin="bevel" stroke-width="3.25"/>
	<path d="m1042.8 444.41v-142.19" fill="none" stroke="#000" stroke-linecap="round" stroke-linejoin="bevel" stroke-width="3.25"/>
	<path d="m1267.9 431.91v-139.06" fill="none" stroke="#000" stroke-linecap="round" stroke-linejoin="bevel" stroke-width="3.25"/>
	<path d="m1437.6 419.41v-135.94" fill="none" stroke="#000" stroke-linecap="round" stroke-linejoin="bevel" stroke-width="3.25"/>
	<path d="m1650.1 406.91v-132.81" fill="none" stroke="#000" stroke-linecap="round" stroke-linejoin="bevel" stroke-width="3.25"/>
	<path d="m1811.9 419.41v-135.94" fill="none" stroke="#000" stroke-linecap="round" stroke-linejoin="bevel" stroke-width="3.25"/>
	<path d="m2030.7 444.41v-151.56" fill="none" stroke="#000" stroke-linecap="round" stroke-linejoin="bevel" stroke-width="3.25"/>
	<path d="m2206 444.41v-142.19" fill="none" stroke="#000" stroke-linecap="round" stroke-linejoin="bevel" stroke-width="3.25"/>
	<path d="m798.78 769.43v-142.19" fill="none" stroke="#000" stroke-linecap="round" stroke-linejoin="bevel" stroke-width="3.25"/>
	<path d="m1013 756.93v-139.06" fill="none" stroke="#000" stroke-linecap="round" stroke-linejoin="bevel" stroke-width="3.25"/>
	<path d="m1175.9 744.43v-135.94" fill="none" stroke="#000" stroke-linecap="round" stroke-linejoin="bevel" stroke-width="3.25"/>
	<path d="m1316.3 744.43v-135.94" fill="none" stroke="#000" stroke-linecap="round" stroke-linejoin="bevel" stroke-width="3.25"/>
	<path d="m1456.8 731.93v-132.81" fill="none" stroke="#000" stroke-linecap="round" stroke-linejoin="bevel" stroke-width="3.25"/>
	<path d="m1626.3 744.43v-135.94" fill="none" stroke="#000" stroke-linecap="round" stroke-linejoin="bevel" stroke-width="3.25"/>
	<path d="m1954.6 744.43v-126.56" fill="none" stroke="#000" stroke-linecap="round" stroke-linejoin="bevel" stroke-width="3.25"/>
	<path d="m2282.9 744.43v-117.19" fill="none" stroke="#000" stroke-linecap="round" stroke-linejoin="bevel" stroke-width="3.25"/>
	<path d="m839.32 435.34c3.125 0 5.762 0.814 7.91 2.442 2.019 1.758 3.028 3.971 3.028 6.64 0 4.493-2.312 8.692-6.934 12.598-4.687 3.906-9.7 5.859-15.039 5.859-3.125 0-5.762-0.813-7.91-2.441-2.018-1.758-3.028-3.971-3.028-6.641 0-4.492 2.344-8.691 7.032-12.597 4.557-3.906 9.537-5.86 14.941-5.86"/>
	<path d="m839.32 410.34c3.125 0 5.762 0.814 7.91 2.441 2.019 1.758 3.028 3.972 3.028 6.641 0 4.492-2.312 8.691-6.934 12.598-4.687 3.906-9.7 5.859-15.039 5.859-3.125 0-5.762-0.814-7.91-2.441-2.018-1.758-3.028-3.972-3.028-6.641 0-4.492 2.344-8.692 7.032-12.598 4.557-3.906 9.537-5.859 14.941-5.859"/>
	<path d="m1033.5 435.34c3.12 0 5.76 0.814 7.91 2.442 2.02 1.758 3.03 3.971 3.03 6.64 0 4.493-2.31 8.692-6.94 12.598-4.68 3.906-9.7 5.859-15.04 5.859-3.12 0-5.76-0.813-7.91-2.441-2.01-1.758-3.02-3.971-3.02-6.641 0-4.492 2.34-8.691 7.03-12.597 4.56-3.906 9.54-5.86 14.94-5.86"/>
	<path d="m1033.5 372.83c3.12 0 5.76 0.813 7.91 2.441 2.02 1.758 3.03 3.971 3.03 6.641 0 4.492-2.31 8.691-6.94 12.597-4.68 3.906-9.7 5.86-15.04 5.86-3.12 0-5.76-0.814-7.91-2.442-2.01-1.758-3.02-3.971-3.02-6.64 0-4.493 2.34-8.692 7.03-12.598 4.56-3.906 9.54-5.859 14.94-5.859"/>
	<path d="m1258.6 422.84c3.13 0 5.77 0.813 7.92 2.441 2.01 1.758 3.02 3.971 3.02 6.641 0 4.492-2.31 8.691-6.93 12.597-4.69 3.907-9.7 5.86-15.04 5.86-3.13 0-5.76-0.814-7.91-2.442-2.02-1.758-3.03-3.971-3.03-6.64 0-4.493 2.35-8.692 7.03-12.598 4.56-3.906 9.54-5.859 14.94-5.859"/>
	<path d="m1258.6 360.33c3.13 0 5.77 0.814 7.92 2.441 2.01 1.758 3.02 3.971 3.02 6.641 0 4.492-2.31 8.691-6.93 12.597-4.69 3.907-9.7 5.86-15.04 5.86-3.13 0-5.76-0.814-7.91-2.442-2.02-1.757-3.03-3.971-3.03-6.64 0-4.492 2.35-8.692 7.03-12.598 4.56-3.906 9.54-5.859 14.94-5.859"/>
	<path d="m1428.3 410.34c3.12 0 5.76 0.814 7.91 2.441 2.02 1.758 3.03 3.972 3.03 6.641 0 4.492-2.31 8.691-6.94 12.598-4.68 3.906-9.7 5.859-15.04 5.859-3.12 0-5.76-0.814-7.91-2.441-2.01-1.758-3.02-3.972-3.02-6.641 0-4.492 2.34-8.692 7.03-12.598 4.55-3.906 9.54-5.859 14.94-5.859"/>
	<path d="m1428.3 347.83c3.12 0 5.76 0.814 7.91 2.441 2.02 1.758 3.03 3.972 3.03 6.641 0 4.492-2.31 8.691-6.94 12.598-4.68 3.906-9.7 5.859-15.04 5.859-3.12 0-5.76-0.814-7.91-2.441-2.01-1.758-3.02-3.972-3.02-6.641 0-4.492 2.34-8.691 7.03-12.598 4.55-3.906 9.54-5.859 14.94-5.859"/>
	<path d="m1640.8 397.83c3.13 0 5.77 0.814 7.91 2.441 2.02 1.758 3.03 3.972 3.03 6.641 0 4.492-2.31 8.692-6.93 12.598-4.69 3.906-9.7 5.859-15.04 5.859-3.13 0-5.76-0.814-7.91-2.441-2.02-1.758-3.03-3.972-3.03-6.641 0-4.492 2.35-8.691 7.03-12.598 4.56-3.906 9.54-5.859 14.94-5.859"/>
	<path d="m1640.8 335.33c3.13 0 5.77 0.814 7.91 2.442 2.02 1.757 3.03 3.971 3.03 6.64 0 4.492-2.31 8.692-6.93 12.598-4.69 3.906-9.7 5.859-15.04 5.859-3.13 0-5.76-0.814-7.91-2.441-2.02-1.758-3.03-3.972-3.03-6.641 0-4.492 2.35-8.691 7.03-12.597 4.56-3.907 9.54-5.86 14.94-5.86"/>
	<path d="m1802.6 410.34c3.13 0 5.76 0.814 7.91 2.441 2.02 1.758 3.03 3.972 3.03 6.641 0 4.492-2.31 8.691-6.93 12.598-4.69 3.906-9.7 5.859-15.04 5.859-3.13 0-5.76-0.814-7.91-2.441-2.02-1.758-3.03-3.972-3.03-6.641 0-4.492 2.34-8.692 7.03-12.598 4.56-3.906 9.54-5.859 14.94-5.859"/>
	<path d="m1802.6 347.83c3.13 0 5.76 0.814 7.91 2.441 2.02 1.758 3.03 3.972 3.03 6.641 0 4.492-2.31 8.691-6.93 12.598-4.69 3.906-9.7 5.859-15.04 5.859-3.13 0-5.76-0.814-7.91-2.441-2.02-1.758-3.03-3.972-3.03-6.641 0-4.492 2.34-8.691 7.03-12.598 4.56-3.906 9.54-5.859 14.94-5.859"/>
	<path d="m2021.4 435.34c3.13 0 5.76 0.814 7.91 2.442 2.02 1.758 3.03 3.971 3.03 6.64 0 4.493-2.31 8.692-6.93 12.598-4.69 3.906-9.7 5.859-15.04 5.859-3.13 0-5.76-0.813-7.91-2.441-2.02-1.758-3.03-3.971-3.03-6.641 0-4.492 2.34-8.691 7.03-12.597 4.56-3.906 9.54-5.86 14.94-5.86"/>
	<path d="m2021.4 360.33c3.13 0 5.76 0.814 7.91 2.441 2.02 1.758 3.03 3.971 3.03 6.641 0 4.492-2.31 8.691-6.93 12.597-4.69 3.907-9.7 5.86-15.04 5.86-3.13 0-5.76-0.814-7.91-2.442-2.02-1.757-3.03-3.971-3.03-6.64 0-4.492 2.34-8.692 7.03-12.598 4.56-3.906 9.54-5.859 14.94-5.859"/>
	<path d="m2196.6 435.34c3.12 0 5.76 0.814 7.91 2.442 2.02 1.758 3.03 3.971 3.03 6.64 0 4.493-2.31 8.692-6.94 12.598-4.68 3.906-9.7 5.859-15.04 5.859-3.12 0-5.76-0.813-7.91-2.441-2.01-1.758-3.02-3.971-3.02-6.641 0-4.492 2.34-8.691 7.03-12.597 4.55-3.906 9.54-5.86 14.94-5.86"/>
	<path d="m2196.6 372.83c3.12 0 5.76 0.813 7.91 2.441 2.02 1.758 3.03 3.971 3.03 6.641 0 4.492-2.31 8.691-6.94 12.597-4.68 3.906-9.7 5.86-15.04 5.86-3.12 0-5.76-0.814-7.91-2.442-2.01-1.758-3.02-3.971-3.02-6.64 0-4.493 2.34-8.692 7.03-12.598 4.55-3.906 9.54-5.859 14.94-5.859"/>
	<path d="m789.46 760.36c3.125 0 5.762 0.814 7.911 2.441 2.018 1.758 3.027 3.972 3.027 6.641 0 4.492-2.311 8.691-6.934 12.598-4.687 3.906-9.7 5.859-15.039 5.859-3.125 0-5.761-0.814-7.91-2.441-2.018-1.758-3.027-3.972-3.027-6.641 0-4.492 2.344-8.691 7.031-12.598 4.557-3.906 9.538-5.859 14.941-5.859"/>
	<path d="m789.46 697.85c3.125 0 5.762 0.814 7.911 2.441 2.018 1.758 3.027 3.972 3.027 6.641 0 4.492-2.311 8.691-6.934 12.598-4.687 3.906-9.7 5.859-15.039 5.859-3.125 0-5.761-0.814-7.91-2.441-2.018-1.758-3.027-3.972-3.027-6.641 0-4.492 2.344-8.691 7.031-12.598 4.557-3.906 9.538-5.859 14.941-5.859"/>
	<path d="m1003.7 747.86c3.13 0 5.76 0.814 7.91 2.442 2.02 1.757 3.03 3.971 3.03 6.64 0 4.492-2.31 8.692-6.93 12.598-4.69 3.906-9.71 5.859-15.044 5.859-3.125 0-5.762-0.814-7.91-2.441-2.018-1.758-3.027-3.972-3.027-6.641 0-4.492 2.343-8.691 7.031-12.598 4.56-3.906 9.54-5.859 14.94-5.859"/>
	<path d="m1003.7 685.35c3.13 0 5.76 0.814 7.91 2.442 2.02 1.757 3.03 3.971 3.03 6.64 0 4.492-2.31 8.692-6.93 12.598-4.69 3.906-9.71 5.859-15.044 5.859-3.125 0-5.762-0.814-7.91-2.441-2.018-1.758-3.027-3.972-3.027-6.641 0-4.492 2.343-8.691 7.031-12.597 4.56-3.907 9.54-5.86 14.94-5.86"/>
	<path d="m1166.5 735.36c3.12 0 5.76 0.814 7.91 2.442 2.02 1.758 3.03 3.971 3.03 6.64 0 4.493-2.32 8.692-6.94 12.598-4.69 3.906-9.7 5.859-15.04 5.859-3.12 0-5.76-0.813-7.91-2.441-2.02-1.758-3.02-3.971-3.02-6.641 0-4.492 2.34-8.691 7.03-12.597 4.55-3.907 9.53-5.86 14.94-5.86"/>
	<path d="m1166.5 672.85c3.12 0 5.76 0.814 7.91 2.442 2.02 1.758 3.03 3.971 3.03 6.64 0 4.493-2.32 8.692-6.94 12.598-4.69 3.906-9.7 5.859-15.04 5.859-3.12 0-5.76-0.813-7.91-2.441-2.02-1.758-3.02-3.971-3.02-6.641 0-4.492 2.34-8.691 7.03-12.597 4.55-3.906 9.53-5.86 14.94-5.86"/>
	<path d="m1307 735.36c3.12 0 5.76 0.814 7.91 2.442 2.02 1.758 3.02 3.971 3.02 6.64 0 4.493-2.31 8.692-6.93 12.598-4.69 3.906-9.7 5.859-15.04 5.859-3.12 0-5.76-0.813-7.91-2.441-2.02-1.758-3.03-3.971-3.03-6.641 0-4.492 2.35-8.691 7.04-12.597 4.55-3.907 9.53-5.86 14.94-5.86"/>
	<path d="m1307 672.85c3.12 0 5.76 0.814 7.91 2.442 2.02 1.758 3.02 3.971 3.02 6.64 0 4.493-2.31 8.692-6.93 12.598-4.69 3.906-9.7 5.859-15.04 5.859-3.12 0-5.76-0.813-7.91-2.441-2.02-1.758-3.03-3.971-3.03-6.641 0-4.492 2.35-8.691 7.04-12.597 4.55-3.906 9.53-5.86 14.94-5.86"/>
	<path d="m1447.5 722.86c3.12 0 5.76 0.813 7.91 2.441 2.01 1.758 3.02 3.971 3.02 6.641 0 4.492-2.31 8.691-6.93 12.597-4.69 3.906-9.7 5.86-15.04 5.86-3.12 0-5.76-0.814-7.91-2.442-2.02-1.758-3.03-3.971-3.03-6.64 0-4.493 2.35-8.692 7.03-12.598 4.56-3.906 9.54-5.859 14.95-5.859"/>
	<path d="m1447.5 660.35c3.12 0 5.76 0.813 7.91 2.441 2.01 1.758 3.02 3.971 3.02 6.641 0 4.492-2.31 8.691-6.93 12.597-4.69 3.907-9.7 5.86-15.04 5.86-3.12 0-5.76-0.814-7.91-2.442-2.02-1.758-3.03-3.971-3.03-6.64 0-4.493 2.35-8.692 7.03-12.598 4.56-3.906 9.54-5.859 14.95-5.859"/>
	<path d="m1617 735.36c3.12 0 5.76 0.814 7.91 2.442 2.01 1.758 3.02 3.971 3.02 6.64 0 4.493-2.31 8.692-6.93 12.598-4.69 3.906-9.7 5.859-15.04 5.859-3.12 0-5.76-0.813-7.91-2.441-2.02-1.758-3.03-3.971-3.03-6.641 0-4.492 2.35-8.691 7.03-12.597 4.56-3.907 9.54-5.86 14.95-5.86"/>
	<path d="m1617 672.85c3.12 0 5.76 0.814 7.91 2.442 2.01 1.758 3.02 3.971 3.02 6.64 0 4.493-2.31 8.692-6.93 12.598-4.69 3.906-9.7 5.859-15.04 5.859-3.12 0-5.76-0.813-7.91-2.441-2.02-1.758-3.03-3.971-3.03-6.641 0-4.492 2.35-8.691 7.03-12.597 4.56-3.906 9.54-5.86 14.95-5.86"/>
	<path d="m1945.3 735.36c3.13 0 5.76 0.814 7.91 2.442 2.02 1.758 3.03 3.971 3.03 6.64 0 4.493-2.31 8.692-6.94 12.598-4.68 3.906-9.7 5.859-15.04 5.859-3.12 0-5.76-0.813-7.91-2.441-2.01-1.758-3.02-3.971-3.02-6.641 0-4.492 2.34-8.691 7.03-12.597 4.56-3.907 9.54-5.86 14.94-5.86"/>
	<path d="m1945.3 685.35c3.13 0 5.76 0.814 7.91 2.442 2.02 1.757 3.03 3.971 3.03 6.64 0 4.492-2.31 8.692-6.94 12.598-4.68 3.906-9.7 5.859-15.04 5.859-3.12 0-5.76-0.814-7.91-2.441-2.01-1.758-3.02-3.972-3.02-6.641 0-4.492 2.34-8.691 7.03-12.597 4.56-3.907 9.54-5.86 14.94-5.86"/>
	<path d="m2273.6 735.36c3.13 0 5.77 0.814 7.91 2.442 2.02 1.758 3.03 3.971 3.03 6.64 0 4.493-2.31 8.692-6.93 12.598-4.69 3.906-9.7 5.859-15.04 5.859-3.13 0-5.76-0.813-7.91-2.441-2.02-1.758-3.03-3.971-3.03-6.641 0-4.492 2.34-8.691 7.03-12.597 4.56-3.907 9.54-5.86 14.94-5.86"/>
	<path d="m2273.6 697.85c3.13 0 5.77 0.814 7.91 2.441 2.02 1.758 3.03 3.972 3.03 6.641 0 4.492-2.31 8.691-6.93 12.598-4.69 3.906-9.7 5.859-15.04 5.859-3.13 0-5.76-0.814-7.91-2.441-2.02-1.758-3.03-3.972-3.03-6.641 0-4.492 2.34-8.691 7.03-12.598 4.56-3.906 9.54-5.859 14.94-5.859"/>
	<path d="m616.72 361.02h0.586c0.26-0.065 0.488-0.098 0.684-0.098 7.291 0 13.281 2.572 17.968 7.715 4.688 5.078 7.032 11.003 7.032 17.774 0 8.398-3.483 15.234-10.45 20.508-1.822 1.432-4.199 2.604-7.128 3.515 0.325 4.232 0.488 7.65 0.488 10.254 0 0.521-0.065 2.409-0.195 5.664-0.261 6.055-2.344 11.296-6.25 15.723-3.777 4.362-8.464 6.543-14.063 6.543-5.273 0-9.766-1.856-13.477-5.567-3.71-3.776-5.566-8.333-5.566-13.672 0-2.799 1.074-5.175 3.223-7.128 2.213-1.954 4.785-2.93 7.715-2.93 2.604 0 4.785 1.009 6.543 3.027 1.822 1.888 2.734 4.232 2.734 7.031 0 2.54-0.912 4.721-2.734 6.543-1.823 1.823-4.004 2.735-6.543 2.735-1.042 0-2.051-0.195-3.028-0.586 2.865 4.232 6.673 6.348 11.426 6.348 4.492 0 8.171-1.823 11.035-5.469 2.995-3.776 4.623-8.171 4.883-13.184 0.13-3.125 0.195-4.915 0.195-5.371 0-3.646-0.13-6.641-0.39-8.984-3.256 0.521-6.153 0.781-8.692 0.781-9.049 0-16.764-3.581-23.144-10.742-6.25-7.227-9.375-15.821-9.375-25.781 0-2.084 0.195-4.2 0.586-6.348 0.39-1.758 0.879-3.679 1.464-5.762 0.326-1.172 1.205-3.06 2.637-5.664 0.521-0.781 1.107-1.758 1.758-2.93 0.651-1.171 1.107-1.953 1.367-2.343 0.651-1.302 1.921-3.06 3.809-5.274 0.521-0.586 1.058-1.237 1.611-1.953 0.554-0.716 1.026-1.302 1.416-1.758 0.391-0.455 0.684-0.814 0.879-1.074s1.66-1.986 4.395-5.176c0.651-0.651 1.285-1.351 1.904-2.099 0.618-0.749 1.123-1.335 1.514-1.758 0.39-0.423 0.683-0.733 0.878-0.928-2.343-7.747-3.808-13.932-4.394-18.555-0.456-3.71-0.684-8.789-0.684-15.234 0-5.664 1.302-10.97 3.907-15.918 2.539-5.143 6.087-9.342 10.644-12.598 0.261-0.195 0.586-0.293 0.977-0.293 0.455 0 0.781 0.098 0.976 0.293 3.516 4.232 6.543 9.734 9.082 16.504 2.604 6.771 3.907 12.924 3.907 18.457 0 6.25-1.498 12.11-4.493 17.579-3.385 5.794-7.747 11.783-13.086 17.968 1.368 4.297 3.19 11.035 5.469 20.215m8.301 45.41c3.385-1.237 6.022-3.353 7.91-6.347 2.083-2.865 3.125-6.088 3.125-9.668 0-4.623-1.562-8.724-4.687-12.305-3.191-3.711-7.26-5.794-12.207-6.25 2.799 13.737 4.752 25.26 5.859 34.57m-37.793-22.558c0 6.445 2.604 12.109 7.812 16.992 5.339 4.752 11.329 7.129 17.969 7.129 2.735 0 5.404-0.196 8.008-0.586-1.042-9.896-3.092-21.745-6.152-35.547-3.711 0.391-6.674 1.693-8.887 3.906-2.148 2.279-3.223 4.85-3.223 7.715 0 4.948 2.637 8.952 7.91 12.012 0.456 0.455 0.684 0.944 0.684 1.465 0 0.52-0.228 1.009-0.684 1.464-0.39 0.456-0.878 0.684-1.464 0.684-0.065 0-0.358-0.065-0.879-0.195-3.711-2.019-6.576-4.623-8.594-7.813-1.888-3.385-2.832-6.803-2.832-10.254 0-4.492 1.4-8.561 4.199-12.207 2.93-3.646 6.738-5.989 11.426-7.031-1.823-7.292-3.32-12.988-4.492-17.09-1.042 1.172-2.295 2.588-3.76 4.248s-2.328 2.653-2.588 2.979c-2.344 3.06-4.134 5.436-5.371 7.129-2.214 3.06-3.841 5.696-4.883 7.91-1.107 2.474-2.083 5.176-2.93 8.105-0.846 2.8-1.269 5.795-1.269 8.985m32.617-99.317c-4.883 2.409-8.724 5.86-11.523 10.352-2.865 4.622-4.297 9.603-4.297 14.941 0 4.688 1.172 11.003 3.515 18.946 4.688-5.665 8.204-10.905 10.547-15.723 2.474-5.078 3.711-10.384 3.711-15.918 0-4.167-0.651-8.366-1.953-12.598"/>
	<path d="m616.72 686.04h0.586c0.26-0.066 0.488-0.098 0.684-0.098 7.291 0 13.281 2.572 17.968 7.715 4.688 5.078 7.032 11.002 7.032 17.773 0 8.399-3.483 15.235-10.45 20.508-1.822 1.432-4.199 2.604-7.128 3.516 0.325 4.231 0.488 7.649 0.488 10.254 0 0.52-0.065 2.408-0.195 5.664-0.261 6.054-2.344 11.295-6.25 15.722-3.777 4.362-8.464 6.543-14.063 6.543-5.273 0-9.766-1.855-13.477-5.566-3.71-3.776-5.566-8.334-5.566-13.672 0-2.8 1.074-5.176 3.223-7.129 2.213-1.953 4.785-2.93 7.715-2.93 2.604 0 4.785 1.009 6.543 3.028 1.822 1.888 2.734 4.231 2.734 7.031 0 2.539-0.912 4.72-2.734 6.543-1.823 1.823-4.004 2.734-6.543 2.734-1.042 0-2.051-0.195-3.028-0.586 2.865 4.232 6.673 6.348 11.426 6.348 4.492 0 8.171-1.823 11.035-5.469 2.995-3.776 4.623-8.17 4.883-13.183 0.13-3.125 0.195-4.916 0.195-5.371 0-3.646-0.13-6.641-0.39-8.985-3.256 0.521-6.153 0.781-8.692 0.781-9.049 0-16.764-3.58-23.144-10.742-6.25-7.226-9.375-15.82-9.375-25.781 0-2.083 0.195-4.199 0.586-6.348 0.39-1.757 0.879-3.678 1.464-5.761 0.326-1.172 1.205-3.06 2.637-5.664 0.521-0.782 1.107-1.758 1.758-2.93s1.107-1.953 1.367-2.344c0.651-1.302 1.921-3.06 3.809-5.273 0.521-0.586 1.058-1.237 1.611-1.953 0.554-0.717 1.026-1.303 1.416-1.758 0.391-0.456 0.684-0.814 0.879-1.074 0.195-0.261 1.66-1.986 4.395-5.176 0.651-0.651 1.285-1.351 1.904-2.1 0.618-0.749 1.123-1.334 1.514-1.758 0.39-0.423 0.683-0.732 0.878-0.927-2.343-7.748-3.808-13.933-4.394-18.555-0.456-3.711-0.684-8.789-0.684-15.234 0-5.665 1.302-10.971 3.907-15.918 2.539-5.144 6.087-9.343 10.644-12.598 0.261-0.195 0.586-0.293 0.977-0.293 0.455 0 0.781 0.098 0.976 0.293 3.516 4.232 6.543 9.733 9.082 16.504 2.604 6.771 3.907 12.923 3.907 18.457 0 6.25-1.498 12.109-4.493 17.578-3.385 5.794-7.747 11.784-13.086 17.969 1.368 4.297 3.19 11.035 5.469 20.215m8.301 45.41c3.385-1.237 6.022-3.353 7.91-6.348 2.083-2.865 3.125-6.087 3.125-9.668 0-4.622-1.562-8.724-4.687-12.305-3.191-3.711-7.26-5.794-12.207-6.25 2.799 13.737 4.752 25.261 5.859 34.571m-37.793-22.559c0 6.445 2.604 12.11 7.812 16.992 5.339 4.753 11.329 7.129 17.969 7.129 2.735 0 5.404-0.195 8.008-0.586-1.042-9.896-3.092-21.745-6.152-35.547-3.711 0.391-6.674 1.693-8.887 3.907-2.148 2.278-3.223 4.85-3.223 7.715 0 4.947 2.637 8.951 7.91 12.011 0.456 0.456 0.684 0.944 0.684 1.465s-0.228 1.009-0.684 1.465c-0.39 0.456-0.878 0.684-1.464 0.684-0.065 0-0.358-0.066-0.879-0.196-3.711-2.018-6.576-4.622-8.594-7.812-1.888-3.386-2.832-6.804-2.832-10.254 0-4.492 1.4-8.561 4.199-12.207 2.93-3.646 6.738-5.99 11.426-7.031-1.823-7.292-3.32-12.989-4.492-17.09-1.042 1.172-2.295 2.588-3.76 4.248s-2.328 2.653-2.588 2.978c-2.344 3.06-4.134 5.436-5.371 7.129-2.214 3.06-3.841 5.697-4.883 7.91-1.107 2.474-2.083 5.176-2.93 8.106-0.846 2.799-1.269 5.794-1.269 8.984m32.617-99.316c-4.883 2.409-8.724 5.859-11.523 10.351-2.865 4.623-4.297 9.603-4.297 14.942 0 4.687 1.172 11.002 3.515 18.945 4.688-5.664 8.204-10.905 10.547-15.723 2.474-5.078 3.711-10.384 3.711-15.918 0-4.166-0.651-8.366-1.953-12.597"/>
	<path d="m689.53 342.75c0 1.237-0.618 1.855-1.855 1.855s-1.855-0.618-1.855-1.855v-14.453l-8.301 3.125v15.82c0 1.237-0.619 1.855-1.856 1.855s-1.855-0.618-1.855-1.855v-14.551l-3.125 1.172c-0.065 0.065-0.326 0.098-0.781 0.098-0.521 0-0.977-0.196-1.368-0.586-0.39-0.391-0.586-0.847-0.586-1.368v-6.054c0-0.977 0.424-1.595 1.27-1.856l4.59-1.562v-16.016l-3.125 1.074c-0.065 0.066-0.326 0.098-0.781 0.098-0.521 0-0.977-0.195-1.368-0.586-0.39-0.391-0.586-0.846-0.586-1.367v-6.055c0-0.911 0.424-1.497 1.27-1.758l4.59-1.757v-15.723c0-1.237 0.618-1.856 1.855-1.856s1.856 0.619 1.856 1.856v14.453l8.301-3.125v-15.82c0-1.237 0.618-1.856 1.855-1.856s1.855 0.619 1.855 1.856v14.551l3.223-1.172c0.065-0.065 0.293-0.098 0.684-0.098 0.455 0 0.944 0.195 1.465 0.586 0.39 0.391 0.585 0.846 0.585 1.367v6.055c0 0.911-0.455 1.53-1.367 1.855l-4.59 1.563v16.015l3.223-1.074c0.065-0.065 0.293-0.097 0.684-0.097 0.455 0 0.944 0.195 1.465 0.585 0.39 0.391 0.585 0.847 0.585 1.368v6.054c0 0.847-0.455 1.433-1.367 1.758l-4.59 1.758v15.723m-3.71-40.625-8.301 2.929v16.016l8.301-2.93v-16.015"/>
	<path d="m689.53 667.77c0 1.237-0.618 1.856-1.855 1.856s-1.855-0.619-1.855-1.856v-14.453l-8.301 3.125v15.82c0 1.237-0.619 1.856-1.856 1.856s-1.855-0.619-1.855-1.856v-14.55l-3.125 1.171c-0.065 0.066-0.326 0.098-0.781 0.098-0.521 0-0.977-0.195-1.368-0.586-0.39-0.391-0.586-0.846-0.586-1.367v-6.055c0-0.976 0.424-1.595 1.27-1.855l4.59-1.563v-16.015l-3.125 1.074c-0.065 0.065-0.326 0.098-0.781 0.098-0.521 0-0.977-0.196-1.368-0.586-0.39-0.391-0.586-0.847-0.586-1.368v-6.054c0-0.912 0.424-1.498 1.27-1.758l4.59-1.758v-15.723c0-1.237 0.618-1.855 1.855-1.855s1.856 0.618 1.856 1.855v14.454l8.301-3.125v-15.821c0-1.237 0.618-1.855 1.855-1.855s1.855 0.618 1.855 1.855v14.551l3.223-1.172c0.065-0.065 0.293-0.098 0.684-0.098 0.455 0 0.944 0.196 1.465 0.586 0.39 0.391 0.585 0.847 0.585 1.368v6.054c0 0.912-0.455 1.53-1.367 1.856l-4.59 1.562v16.016l3.223-1.074c0.065-0.065 0.293-0.098 0.684-0.098 0.455 0 0.944 0.195 1.465 0.586 0.39 0.391 0.585 0.846 0.585 1.367v6.055c0 0.846-0.455 1.432-1.367 1.758l-4.59 1.757v15.723m-3.71-40.625-8.301 2.93v16.015l8.301-2.929v-16.016"/>
	<path d="m748.74 335.13c0 0.651 0.358 1.27 1.074 1.856 1.042 0.781 1.856 1.367 2.441 1.757 0.782 0.456 1.596 1.498 2.442 3.125 0.716 1.563 1.074 3.483 1.074 5.762 0 4.492-1.66 7.943-4.98 10.352-3.386 2.408-7.683 3.613-12.891 3.613-4.232 0-7.813-1.042-10.742-3.125-3.125-1.953-4.688-4.688-4.688-8.203 0-1.693 0.651-3.255 1.953-4.688 1.368-1.237 2.93-1.855 4.688-1.855 1.823 0 3.32 0.651 4.492 1.953 1.302 1.237 1.953 2.767 1.953 4.59 0 0.846-0.651 1.758-1.953 2.734-1.367 0.912-2.051 1.79-2.051 2.637 0 1.237 0.619 2.148 1.856 2.734s2.734 0.879 4.492 0.879c2.279 0 3.906-1.107 4.883-3.32 0.911-2.409 1.367-5.176 1.367-8.301v-1.66c0-1.888-0.065-3.548-0.195-4.981-0.131-1.106-0.586-2.115-1.368-3.027-0.716-0.911-1.855-1.367-3.417-1.367h-8.008c-0.912 0-1.367-0.488-1.367-1.465 0-0.846 0.455-1.335 1.367-1.465h8.008c1.822 0 3.125-0.586 3.906-1.758 0.651-0.911 1.009-2.539 1.074-4.882v-4.004c0-6.055-2.214-9.082-6.641-9.082-3.906 0-5.892 1.074-5.957 3.222 0 0.716 0.619 1.498 1.856 2.344 1.172 0.846 1.758 1.628 1.758 2.344 0 1.627-0.586 3.027-1.758 4.199-1.107 1.107-2.474 1.66-4.102 1.66-1.562 0-2.897-0.553-4.004-1.66-1.106-1.237-1.66-2.637-1.66-4.199 0-3.06 1.367-5.567 4.102-7.52 2.864-1.823 6.12-2.734 9.765-2.734 4.883 0 8.92 0.944 12.11 2.832 3.19 1.823 4.785 4.687 4.785 8.594 0 2.799-0.293 4.915-0.879 6.347-0.586 1.498-1.237 2.409-1.953 2.735-0.781 0.325-1.432 0.716-1.953 1.172-0.586 0.455-0.879 1.074-0.879 1.855"/>
	<path d="m746.37 382.79c3.255-3.58 4.883-6.966 4.883-10.156 0-2.669-1.14-4.785-3.418-6.347-2.214-1.563-4.948-2.344-8.204-2.344-2.278 0-4.101 0.716-5.468 2.148-1.368 1.433-2.051 3.06-2.051 4.883 0 2.279 1.009 4.036 3.027 5.273l11.231 6.543m3.027 1.661c5.534 3.19 8.301 7.454 8.301 12.793 0 3.971-1.66 7.324-4.981 10.058-3.32 2.865-7.975 4.297-13.964 4.297-5.079 0-9.343-1.302-12.793-3.906-3.646-2.604-5.469-5.957-5.469-10.059 0-1.497 0.456-3.092 1.367-4.785 0.846-1.497 1.693-2.669 2.539-3.516 0.391-0.52 1.628-1.757 3.711-3.711-4.036-2.864-6.087-6.412-6.152-10.644 0-3.581 1.595-6.738 4.785-9.473 3.19-2.604 7.487-3.906 12.89-3.906 4.297 0 8.073 0.977 11.329 2.93 3.125 1.953 4.687 4.655 4.687 8.105-0.13 3.516-2.213 7.455-6.25 11.817m-18.262 2.929c-4.036 3.581-6.119 6.999-6.25 10.254 0 3.321 1.4 6.087 4.2 8.301 2.669 2.214 5.891 3.32 9.668 3.32 2.669 0 4.752-0.846 6.25-2.539 1.562-1.562 2.343-3.483 2.343-5.761 0-2.8-1.139-4.851-3.418-6.153l-12.793-7.422"/>
	<path d="m847.01 361.6v-25h3.125c0 3.711 0.717 7.422 2.149 11.133 1.562 4.036 3.288 7.552 5.176 10.547 1.367 2.148 3.418 5.436 6.152 9.863 2.083 3.385 3.841 6.933 5.273 10.644 1.433 3.711 2.149 7.422 2.149 11.133 0 6.771-1.4 13.672-4.199 20.703-0.521 0.782-1.14 1.172-1.856 1.172-0.651 0-1.237-0.26-1.758-0.781-0.39-0.391-0.586-0.879-0.586-1.465v-0.488c2.8-6.445 4.2-12.826 4.2-19.141 0-3.255-0.977-6.771-2.93-10.547-1.953-3.841-3.939-6.901-5.957-9.179-2.279-2.67-4.883-5.534-7.813-8.594h-3.125"/>
	<path d="m1266.3 317.85v-25h3.12c0 3.711 0.72 7.422 2.15 11.133 1.56 4.036 3.29 7.552 5.18 10.547 1.36 2.148 3.42 5.436 6.15 9.863 2.08 3.386 3.84 6.934 5.27 10.645 1.44 3.711 2.15 7.422 2.15 11.132 0 6.771-1.4 13.672-4.2 20.704-0.52 0.781-1.14 1.171-1.85 1.171-0.65 0-1.24-0.26-1.76-0.781-0.39-0.39-0.59-0.879-0.59-1.465v-0.488c2.8-6.445 4.2-12.825 4.2-19.141 0-3.255-0.97-6.77-2.93-10.546-1.95-3.842-3.94-6.901-5.95-9.18-2.28-2.669-4.89-5.534-7.82-8.594h-3.12"/>
	<path d="m1648.5 299.1v-25h3.12c0 3.711 0.72 7.422 2.15 11.133 1.56 4.036 3.29 7.552 5.18 10.547 1.36 2.148 3.41 5.436 6.15 9.863 2.08 3.385 3.84 6.934 5.27 10.644 1.43 3.711 2.15 7.422 2.15 11.133 0 6.771-1.4 13.672-4.2 20.703-0.52 0.782-1.14 1.172-1.85 1.172-0.65 0-1.24-0.26-1.76-0.781-0.39-0.391-0.59-0.879-0.59-1.465v-0.488c2.8-6.445 4.2-12.826 4.2-19.141 0-3.255-0.97-6.771-2.93-10.547-1.95-3.841-3.94-6.901-5.95-9.179-2.28-2.67-4.89-5.534-7.82-8.594h-3.12"/>
	<path d="m2029.1 317.85v-25h3.12c0 3.711 0.72 7.422 2.15 11.133 1.56 4.036 3.29 7.552 5.18 10.547 1.36 2.148 3.41 5.436 6.15 9.863 2.08 3.386 3.84 6.934 5.27 10.645s2.15 7.422 2.15 11.132c0 6.771-1.4 13.672-4.2 20.704-0.52 0.781-1.14 1.171-1.86 1.171-0.65 0-1.23-0.26-1.75-0.781-0.39-0.39-0.59-0.879-0.59-1.465v-0.488c2.8-6.445 4.2-12.825 4.2-19.141 0-3.255-0.98-6.77-2.93-10.546-1.95-3.842-3.94-6.901-5.96-9.18-2.28-2.669-4.88-5.534-7.81-8.594h-3.12"/>
	<path d="m1011.4 642.87v-25h3.13c0 3.711 0.72 7.421 2.15 11.132 1.56 4.037 3.29 7.552 5.17 10.547 1.37 2.149 3.42 5.436 6.16 9.864 2.08 3.385 3.84 6.933 5.27 10.644s2.15 7.422 2.15 11.133c0 6.771-1.4 13.672-4.2 20.703-0.52 0.781-1.14 1.172-1.86 1.172-0.65 0-1.23-0.261-1.75-0.781-0.4-0.391-0.59-0.879-0.59-1.465v-0.488c2.8-6.446 4.2-12.826 4.2-19.141 0-3.255-0.98-6.771-2.93-10.547-1.95-3.841-3.94-6.901-5.96-9.18-2.28-2.669-4.88-5.534-7.81-8.593h-3.13"/>
	<path d="m1174.2 633.49v-25h3.13c0 3.711 0.71 7.422 2.14 11.133 1.57 4.036 3.29 7.552 5.18 10.547 1.37 2.148 3.42 5.436 6.15 9.863 2.09 3.385 3.84 6.934 5.28 10.645 1.43 3.71 2.14 7.421 2.14 11.132 0 6.771-1.39 13.672-4.19 20.703-0.53 0.782-1.14 1.172-1.86 1.172-0.65 0-1.24-0.26-1.76-0.781-0.39-0.391-0.58-0.879-0.58-1.465v-0.488c2.8-6.445 4.2-12.826 4.2-19.141 0-3.255-0.98-6.771-2.93-10.547-1.96-3.841-3.94-6.901-5.96-9.179-2.28-2.67-4.88-5.534-7.81-8.594h-3.13"/>
	<path d="m1314.7 633.49v-25h3.13c0 3.711 0.71 7.422 2.14 11.133 1.57 4.036 3.29 7.552 5.18 10.547 1.37 2.148 3.42 5.436 6.15 9.863 2.09 3.385 3.84 6.934 5.28 10.645 1.43 3.71 2.14 7.421 2.14 11.132 0 6.771-1.4 13.672-4.2 20.703-0.52 0.782-1.13 1.172-1.85 1.172-0.65 0-1.24-0.26-1.76-0.781-0.39-0.391-0.58-0.879-0.58-1.465v-0.488c2.79-6.445 4.19-12.826 4.19-19.141 0-3.255-0.97-6.771-2.93-10.547-1.95-3.841-3.93-6.901-5.95-9.179-2.28-2.67-4.89-5.534-7.81-8.594h-3.13"/>
	<path d="m1455.2 624.12v-25h3.12c0 3.711 0.72 7.422 2.15 11.133 1.56 4.037 3.29 7.552 5.18 10.547 1.37 2.149 3.42 5.436 6.15 9.863 2.08 3.386 3.84 6.934 5.27 10.645 1.44 3.711 2.15 7.422 2.15 11.133 0 6.771-1.4 13.672-4.2 20.703-0.52 0.781-1.14 1.172-1.85 1.172-0.65 0-1.24-0.261-1.76-0.782-0.39-0.39-0.59-0.878-0.59-1.464v-0.489c2.8-6.445 4.2-12.825 4.2-19.14 0-3.255-0.97-6.771-2.93-10.547-1.95-3.841-3.94-6.901-5.95-9.18-2.28-2.669-4.89-5.534-7.82-8.594h-3.12"/>
	<path d="m2218 453.11c-1.1-1.107-1.66-2.442-1.66-4.004 0-1.563 0.56-2.897 1.66-4.004 1.11-1.107 2.44-1.66 4.01-1.66 1.56 0 2.89 0.553 4 1.66s1.66 2.441 1.66 4.004c0 1.562-0.55 2.897-1.66 4.004s-2.44 1.66-4 1.66c-1.57 0-2.9-0.553-4.01-1.66"/>
	<path d="m2218 403.11c-1.1-1.107-1.66-2.442-1.66-4.004 0-1.563 0.56-2.897 1.66-4.004 1.11-1.107 2.44-1.66 4.01-1.66 1.56 0 2.89 0.553 4 1.66s1.66 2.441 1.66 4.004c0 1.562-0.55 2.897-1.66 4.004-1.11 1.106-2.44 1.66-4 1.66-1.57 0-2.9-0.554-4.01-1.66"/>
	<path d="m1638.3 753.13c-1.11-1.107-1.66-2.442-1.66-4.004 0-1.563 0.55-2.897 1.66-4.004s2.44-1.66 4-1.66c1.57 0 2.9 0.553 4.01 1.66 1.1 1.107 1.66 2.441 1.66 4.004 0 1.562-0.56 2.897-1.66 4.004-1.11 1.107-2.44 1.66-4.01 1.66-1.56 0-2.89-0.553-4-1.66"/>
	<path d="m1638.3 703.13c-1.11-1.107-1.66-2.442-1.66-4.004 0-1.563 0.55-2.897 1.66-4.004s2.44-1.66 4-1.66c1.57 0 2.9 0.553 4.01 1.66 1.1 1.107 1.66 2.441 1.66 4.004 0 1.562-0.56 2.897-1.66 4.004-1.11 1.106-2.44 1.66-4.01 1.66-1.56 0-2.89-0.554-4-1.66"/>
	<path d="m1966.6 753.13c-1.1-1.107-1.66-2.442-1.66-4.004 0-1.563 0.56-2.897 1.66-4.004 1.11-1.107 2.45-1.66 4.01-1.66s2.9 0.553 4 1.66c1.11 1.107 1.66 2.441 1.66 4.004 0 1.562-0.55 2.897-1.66 4.004-1.1 1.107-2.44 1.66-4 1.66s-2.9-0.553-4.01-1.66"/>
	<path d="m1966.6 703.13c-1.1-1.107-1.66-2.442-1.66-4.004 0-1.563 0.56-2.897 1.66-4.004 1.11-1.107 2.45-1.66 4.01-1.66s2.9 0.553 4 1.66c1.11 1.107 1.66 2.441 1.66 4.004 0 1.562-0.55 2.897-1.66 4.004-1.1 1.106-2.44 1.66-4 1.66s-2.9-0.554-4.01-1.66"/>
</svg>
