<?xml version="1.0" encoding="utf-8"?>                                  
<svg xmlns="http://www.w3.org/2000/svg" version="1.2" viewBox="560 270 1926 918">
  <title>An excerpt from “Poor Rosy.”</title>
  <path d="m560 311.6h1926.1" fill="none" stroke="#000" stroke-linejoin="bevel" stroke-width="2"/>
  <path d="m560 336.6h1926.1" fill="none" stroke="#000" stroke-linejoin="bevel" stroke-width="2"/>
  <path d="m560 361.6h1926.1" fill="none" stroke="#000" stroke-linejoin="bevel" stroke-width="2"/>
  <path d="m560 386.6h1926.1" fill="none" stroke="#000" stroke-linejoin="bevel" stroke-width="2"/>
  <path d="m560 411.6h1926.1" fill="none" stroke="#000" stroke-linejoin="bevel" stroke-width="2"/>
  <path d="m560 636.62h1926.1" fill="none" stroke="#000" stroke-linejoin="bevel" stroke-width="2"/>
  <path d="m560 661.62h1926.1" fill="none" stroke="#000" stroke-linejoin="bevel" stroke-width="2"/>
  <path d="m560 686.62h1926.1" fill="none" stroke="#000" stroke-linejoin="bevel" stroke-width="2"/>
  <path d="m560 711.62h1926.1" fill="none" stroke="#000" stroke-linejoin="bevel" stroke-width="2"/>
  <path d="m560 736.62h1926.1" fill="none" stroke="#000" stroke-linejoin="bevel" stroke-width="2"/>
  <path d="m560 961.64h1926.1" fill="none" stroke="#000" stroke-linejoin="bevel" stroke-width="2"/>
  <path d="m560 986.64h1926.1" fill="none" stroke="#000" stroke-linejoin="bevel" stroke-width="2"/>
  <path d="m560 1011.6h1926.1" fill="none" stroke="#000" stroke-linejoin="bevel" stroke-width="2"/>
  <path d="m560 1036.6h1926.1" fill="none" stroke="#000" stroke-linejoin="bevel" stroke-width="2"/>
  <path d="m560 1061.6h1926.1" fill="none" stroke="#000" stroke-linejoin="bevel" stroke-width="2"/>
  <path d="m1349.3 310.6v102.01" fill="none" stroke="#000" stroke-linejoin="bevel" stroke-width="4"/>
  <path d="m1875.8 310.6v102.01" fill="none" stroke="#000" stroke-linejoin="bevel" stroke-width="4"/>
  <path d="m2484.1 310.6v102.01" fill="none" stroke="#000" stroke-linejoin="bevel" stroke-width="4"/>
  <path d="m1216.3 635.62v102.01" fill="none" stroke="#000" stroke-linejoin="bevel" stroke-width="4"/>
  <path d="m1908.6 635.62v102.01" fill="none" stroke="#000" stroke-linejoin="bevel" stroke-width="4"/>
  <path d="m2484.1 635.62v102.01" fill="none" stroke="#000" stroke-linejoin="bevel" stroke-width="4"/>
  <path d="m1748.8 960.64v102" fill="none" stroke="#000" stroke-linejoin="bevel" stroke-width="4"/>
  <path d="m2461.6 960.64v102" fill="none" stroke="#000" stroke-linejoin="bevel" stroke-width="4"/>
  <path d="m2479.9 960.64v102" fill="none" stroke="#000" stroke-linejoin="bevel" stroke-width="12.5"/>
  <path d="m2218.1 761.63h47.92" fill="none" stroke="#000" stroke-linecap="square" stroke-linejoin="bevel" stroke-width="4"/>
  <path d="m983.14 1086.6h47.917" fill="none" stroke="#000" stroke-linecap="square" stroke-linejoin="bevel" stroke-width="4"/>
  <path d="m1128.6 1086.6h47.92" fill="none" stroke="#000" stroke-linecap="square" stroke-linejoin="bevel" stroke-width="4"/>
  <path d="m812.35 341.3v79.684" fill="none" stroke="#000" stroke-linecap="round" stroke-linejoin="bevel" stroke-width="3.25"/>
  <path d="m1050.8 366.3v82.81" fill="none" stroke="#000" stroke-linecap="round" stroke-linejoin="bevel" stroke-width="3.25"/>
  <path d="m1199.9 341.3v82.809" fill="none" stroke="#000" stroke-linecap="round" stroke-linejoin="bevel" stroke-width="3.25"/>
  <path d="m1441 356.9v-70.309" fill="none" stroke="#000" stroke-linecap="round" stroke-linejoin="bevel" stroke-width="3.25"/>
  <path d="m1569.9 369.41v-76.56" fill="none" stroke="#000" stroke-linecap="round" stroke-linejoin="bevel" stroke-width="3.25"/>
  <path d="m1698.8 381.91v-79.684" fill="none" stroke="#000" stroke-linecap="round" stroke-linejoin="bevel" stroke-width="3.25"/>
  <path d="m1969.5 356.9v-73.434" fill="none" stroke="#000" stroke-linecap="round" stroke-linejoin="bevel" stroke-width="3.25"/>
  <path d="m2211.2 369.41v-76.56" fill="none" stroke="#000" stroke-linecap="round" stroke-linejoin="bevel" stroke-width="3.25"/>
  <path d="m2362.3 356.9v-73.434" fill="none" stroke="#000" stroke-linecap="round" stroke-linejoin="bevel" stroke-width="3.25"/>
  <path d="m789.28 706.93v-70.309" fill="none" stroke="#000" stroke-linecap="round" stroke-linejoin="bevel" stroke-width="3.25"/>
  <path d="m916.04 719.43v-76.56" fill="none" stroke="#000" stroke-linecap="round" stroke-linejoin="bevel" stroke-width="3.25"/>
  <path d="m1042.8 731.93v-82.809" fill="none" stroke="#000" stroke-linecap="round" stroke-linejoin="bevel" stroke-width="3.25"/>
  <path d="m1288.9 706.93v-79.685" fill="none" stroke="#000" stroke-linecap="round" stroke-linejoin="bevel" stroke-width="3.25"/>
  <path d="m1451.2 706.93v-79.685" fill="none" stroke="#000" stroke-linecap="round" stroke-linejoin="bevel" stroke-width="3.25"/>
  <path d="m1613.4 719.43v-82.81" fill="none" stroke="#000" stroke-linecap="round" stroke-linejoin="bevel" stroke-width="3.25"/>
  <path d="m1775.6 731.93v-82.809" fill="none" stroke="#000" stroke-linecap="round" stroke-linejoin="bevel" stroke-width="3.25"/>
  <path d="m2000.3 706.93v-79.685" fill="none" stroke="#000" stroke-linecap="round" stroke-linejoin="bevel" stroke-width="3.25"/>
  <path d="m2256.8 769.43v-82.81" fill="none" stroke="#000" stroke-linecap="round" stroke-linejoin="bevel" stroke-width="3.25"/>
  <path d="m789.28 1069.4v-82.81" fill="none" stroke="#000" stroke-linecap="round" stroke-linejoin="bevel" stroke-width="3.25"/>
  <path d="m1021.9 1094.4v-82.81" fill="none" stroke="#000" stroke-linecap="round" stroke-linejoin="bevel" stroke-width="3.25"/>
  <path d="m1167.3 1094.4v-82.81" fill="none" stroke="#000" stroke-linecap="round" stroke-linejoin="bevel" stroke-width="3.25"/>
  <path d="m1312.8 1069.4v-82.81" fill="none" stroke="#000" stroke-linecap="round" stroke-linejoin="bevel" stroke-width="3.25"/>
  <path d="m1545.4 1069.4v-82.81" fill="none" stroke="#000" stroke-linecap="round" stroke-linejoin="bevel" stroke-width="3.25"/>
  <path d="m1850.9 1056.9v-82.801" fill="none" stroke="#000" stroke-linecap="round" stroke-linejoin="bevel" stroke-width="3.25"/>
  <path d="m1071.2 347.83c3.13 0 5.77 0.814 7.91 2.441 2.02 1.758 3.03 3.972 3.03 6.641 0 4.492-2.31 8.691-6.93 12.598-4.69 3.906-9.7 5.859-15.04 5.859-3.13 0-5.76-0.814-7.91-2.441-2.02-1.758-3.03-3.972-3.03-6.641 0-4.492 2.34-8.691 7.03-12.598 4.56-3.906 9.54-5.859 14.94-5.859"/>
  <path d="m1220.2 322.83c3.13 0 5.76 0.814 7.91 2.442 2.02 1.758 3.03 3.971 3.03 6.64 0 4.493-2.31 8.692-6.94 12.598-4.68 3.906-9.7 5.859-15.03 5.859-3.13 0-5.77-0.813-7.92-2.441-2.01-1.758-3.02-3.971-3.02-6.641 0-4.492 2.34-8.691 7.03-12.597 4.56-3.907 9.54-5.86 14.94-5.86"/>
  <path d="m1431.6 347.83c3.13 0 5.76 0.814 7.91 2.441 2.02 1.758 3.03 3.972 3.03 6.641 0 4.492-2.31 8.691-6.94 12.598-4.68 3.906-9.7 5.859-15.03 5.859-3.13 0-5.77-0.814-7.91-2.441-2.02-1.758-3.03-3.972-3.03-6.641 0-4.492 2.34-8.691 7.03-12.598 4.56-3.906 9.54-5.859 14.94-5.859"/>
  <path d="m1560.6 360.33c3.13 0 5.76 0.814 7.91 2.441 2.02 1.758 3.03 3.971 3.03 6.641 0 4.492-2.31 8.691-6.93 12.597-4.69 3.907-9.7 5.86-15.04 5.86-3.13 0-5.76-0.814-7.91-2.442-2.02-1.757-3.03-3.971-3.03-6.64 0-4.492 2.34-8.692 7.03-12.598 4.56-3.906 9.54-5.859 14.94-5.859"/>
  <path d="m1689.5 372.83c3.13 0 5.77 0.813 7.91 2.441 2.02 1.758 3.03 3.971 3.03 6.641 0 4.492-2.31 8.691-6.93 12.597-4.69 3.906-9.7 5.86-15.04 5.86-3.13 0-5.76-0.814-7.91-2.442-2.02-1.758-3.03-3.971-3.03-6.64 0-4.493 2.35-8.692 7.03-12.598 4.56-3.906 9.54-5.859 14.94-5.859"/>
  <path d="m1960.1 347.83c3.12 0 5.76 0.814 7.91 2.441 2.02 1.758 3.03 3.972 3.03 6.641 0 4.492-2.32 8.691-6.94 12.598-4.69 3.906-9.7 5.859-15.04 5.859-3.12 0-5.76-0.814-7.91-2.441-2.02-1.758-3.02-3.972-3.02-6.641 0-4.492 2.34-8.691 7.03-12.598 4.55-3.906 9.53-5.859 14.94-5.859"/>
  <path d="m2201.9 360.33c3.12 0 5.76 0.814 7.91 2.441 2.01 1.758 3.02 3.971 3.02 6.641 0 4.492-2.31 8.691-6.93 12.597-4.69 3.907-9.7 5.86-15.04 5.86-3.13 0-5.76-0.814-7.91-2.442-2.02-1.757-3.03-3.971-3.03-6.64 0-4.492 2.35-8.692 7.03-12.598 4.56-3.906 9.54-5.859 14.95-5.859"/>
  <path d="m2353 347.83c3.12 0 5.76 0.814 7.91 2.441 2.02 1.758 3.03 3.972 3.03 6.641 0 4.492-2.31 8.691-6.94 12.598-4.68 3.906-9.7 5.859-15.04 5.859-3.12 0-5.76-0.814-7.91-2.441-2.01-1.758-3.02-3.972-3.02-6.641 0-4.492 2.34-8.691 7.03-12.598 4.56-3.906 9.54-5.859 14.94-5.859"/>
  <path d="m779.96 697.85c3.125 0 5.762 0.814 7.91 2.441 2.018 1.758 3.027 3.972 3.027 6.641 0 4.492-2.311 8.691-6.933 12.598-4.688 3.906-9.701 5.859-15.039 5.859-3.125 0-5.762-0.814-7.91-2.441-2.019-1.758-3.028-3.972-3.028-6.641 0-4.492 2.344-8.691 7.031-12.598 4.558-3.906 9.538-5.859 14.942-5.859"/>
  <path d="m906.72 710.35c3.125 0 5.762 0.814 7.911 2.441 2.018 1.758 3.027 3.972 3.027 6.641 0 4.492-2.311 8.691-6.934 12.597-4.687 3.907-9.7 5.86-15.039 5.86-3.125 0-5.761-0.814-7.91-2.442-2.018-1.757-3.027-3.971-3.027-6.64 0-4.492 2.343-8.692 7.031-12.598 4.557-3.906 9.538-5.859 14.941-5.859"/>
  <path d="m1033.5 722.86c3.13 0 5.77 0.813 7.91 2.441 2.02 1.758 3.03 3.971 3.03 6.641 0 4.492-2.31 8.691-6.93 12.597-4.69 3.906-9.7 5.86-15.04 5.86-3.13 0-5.76-0.814-7.91-2.442-2.02-1.758-3.03-3.971-3.03-6.64 0-4.493 2.35-8.692 7.03-12.598 4.56-3.906 9.54-5.859 14.94-5.859"/>
  <path d="m1279.6 697.85c3.12 0 5.76 0.814 7.91 2.441 2.02 1.758 3.03 3.972 3.03 6.641 0 4.492-2.32 8.691-6.94 12.598-4.69 3.906-9.7 5.859-15.04 5.859-3.12 0-5.76-0.814-7.91-2.441-2.02-1.758-3.02-3.972-3.02-6.641 0-4.492 2.34-8.691 7.03-12.598 4.55-3.906 9.53-5.859 14.94-5.859"/>
  <path d="m1441.8 697.85c3.12 0 5.76 0.814 7.91 2.441 2.02 1.758 3.03 3.972 3.03 6.641 0 4.492-2.32 8.691-6.94 12.598-4.69 3.906-9.7 5.859-15.04 5.859-3.12 0-5.76-0.814-7.91-2.441-2.02-1.758-3.03-3.972-3.03-6.641 0-4.492 2.35-8.691 7.04-12.598 4.55-3.906 9.53-5.859 14.94-5.859"/>
  <path d="m1604.1 710.35c3.12 0 5.76 0.814 7.91 2.441 2.02 1.758 3.02 3.972 3.02 6.641 0 4.492-2.31 8.691-6.93 12.597-4.69 3.907-9.7 5.86-15.04 5.86-3.12 0-5.76-0.814-7.91-2.442-2.02-1.757-3.03-3.971-3.03-6.64 0-4.492 2.35-8.692 7.04-12.598 4.55-3.906 9.53-5.859 14.94-5.859"/>
  <path d="m1766.3 722.86c3.12 0 5.76 0.813 7.91 2.441 2.01 1.758 3.02 3.971 3.02 6.641 0 4.492-2.31 8.691-6.93 12.597-4.69 3.906-9.7 5.86-15.04 5.86-3.12 0-5.76-0.814-7.91-2.442-2.02-1.758-3.03-3.971-3.03-6.64 0-4.493 2.35-8.692 7.03-12.598 4.56-3.906 9.54-5.859 14.95-5.859"/>
  <path d="m1991 697.85c3.12 0 5.76 0.814 7.91 2.441 2.02 1.758 3.03 3.972 3.03 6.641 0 4.492-2.31 8.691-6.94 12.598-4.68 3.906-9.7 5.859-15.04 5.859-3.12 0-5.76-0.814-7.91-2.441-2.01-1.758-3.02-3.972-3.02-6.641 0-4.492 2.34-8.691 7.03-12.598 4.56-3.906 9.54-5.859 14.94-5.859"/>
  <path d="m2247.5 760.36c3.13 0 5.76 0.814 7.91 2.441 2.02 1.758 3.03 3.972 3.03 6.641 0 4.492-2.31 8.691-6.93 12.598-4.69 3.906-9.71 5.859-15.04 5.859-3.13 0-5.77-0.814-7.91-2.441-2.02-1.758-3.03-3.972-3.03-6.641 0-4.492 2.34-8.691 7.03-12.598 4.56-3.906 9.54-5.859 14.94-5.859"/>
  <path d="m779.96 1060.4c3.125 0 5.762 0.82 7.91 2.44 2.018 1.76 3.027 3.97 3.027 6.64 0 4.5-2.311 8.7-6.933 12.6-4.688 3.91-9.701 5.86-15.039 5.86-3.125 0-5.762-0.81-7.91-2.44-2.019-1.76-3.028-3.97-3.028-6.64 0-4.49 2.344-8.69 7.031-12.6 4.558-3.91 9.538-5.86 14.942-5.86"/>
  <path d="m1012.6 1085.4c3.12 0 5.76 0.82 7.91 2.44 2.01 1.76 3.02 3.98 3.02 6.65 0 4.49-2.31 8.69-6.93 12.59-4.69 3.91-9.7 5.86-15.04 5.86-3.12 0-5.76-0.81-7.91-2.44-2.018-1.76-3.027-3.97-3.027-6.64 0-4.49 2.344-8.69 7.027-12.6 4.56-3.9 9.54-5.86 14.95-5.86"/>
  <path d="m1158 1085.4c3.13 0 5.77 0.82 7.91 2.44 2.02 1.76 3.03 3.98 3.03 6.65 0 4.49-2.31 8.69-6.93 12.59-4.69 3.91-9.7 5.86-15.04 5.86-3.13 0-5.76-0.81-7.91-2.44-2.02-1.76-3.03-3.97-3.03-6.64 0-4.49 2.35-8.69 7.03-12.6 4.56-3.9 9.54-5.86 14.94-5.86"/>
  <path d="m1303.4 1060.4c3.13 0 5.77 0.82 7.91 2.44 2.02 1.76 3.03 3.97 3.03 6.64 0 4.5-2.31 8.7-6.93 12.6-4.69 3.91-9.7 5.86-15.04 5.86-3.13 0-5.76-0.81-7.91-2.44-2.02-1.76-3.03-3.97-3.03-6.64 0-4.49 2.34-8.69 7.03-12.6 4.56-3.91 9.54-5.86 14.94-5.86"/>
  <path d="m1536.1 1060.4c3.12 0 5.76 0.82 7.91 2.44 2.02 1.76 3.03 3.97 3.03 6.64 0 4.5-2.32 8.7-6.94 12.6-4.69 3.91-9.7 5.86-15.04 5.86-3.12 0-5.76-0.81-7.91-2.44-2.02-1.76-3.02-3.97-3.02-6.64 0-4.49 2.34-8.69 7.03-12.6 4.55-3.91 9.53-5.86 14.94-5.86"/>
  <path d="m1841.6 1047.9c3.13 0 5.76 0.81 7.91 2.44 2.02 1.76 3.03 3.97 3.03 6.64 0 4.5-2.31 8.69-6.93 12.6-4.69 3.91-9.7 5.86-15.04 5.86-3.13 0-5.76-0.81-7.91-2.44-2.02-1.76-3.03-3.97-3.03-6.64 0-4.49 2.34-8.69 7.03-12.6 4.56-3.91 9.54-5.86 14.94-5.86"/>
  <path d="m832.7 322.83c3.125 0 5.761 0.814 7.91 2.442 2.018 1.758 3.027 3.971 3.027 6.64 0 4.493-2.311 8.692-6.934 12.598-4.687 3.906-9.7 5.859-15.039 5.859-3.125 0-5.761-0.813-7.91-2.441-2.018-1.758-3.027-3.971-3.027-6.641 0-4.492 2.344-8.691 7.031-12.597 4.557-3.907 9.538-5.86 14.942-5.86"/>
  <path d="m616.72 361.02h0.586c0.26-0.065 0.488-0.098 0.684-0.098 7.291 0 13.281 2.572 17.968 7.715 4.688 5.078 7.032 11.003 7.032 17.774 0 8.398-3.483 15.234-10.45 20.508-1.822 1.432-4.199 2.604-7.128 3.515 0.325 4.232 0.488 7.65 0.488 10.254 0 0.521-0.065 2.409-0.195 5.664-0.261 6.055-2.344 11.296-6.25 15.723-3.777 4.362-8.464 6.543-14.063 6.543-5.273 0-9.766-1.856-13.477-5.567-3.71-3.776-5.566-8.333-5.566-13.672 0-2.799 1.074-5.175 3.223-7.128 2.213-1.954 4.785-2.93 7.715-2.93 2.604 0 4.785 1.009 6.543 3.027 1.822 1.888 2.734 4.232 2.734 7.031 0 2.54-0.912 4.721-2.734 6.543-1.823 1.823-4.004 2.735-6.543 2.735-1.042 0-2.051-0.195-3.028-0.586 2.865 4.232 6.673 6.348 11.426 6.348 4.492 0 8.171-1.823 11.035-5.469 2.995-3.776 4.623-8.171 4.883-13.184 0.13-3.125 0.195-4.915 0.195-5.371 0-3.646-0.13-6.641-0.39-8.984-3.256 0.521-6.153 0.781-8.692 0.781-9.049 0-16.764-3.581-23.144-10.742-6.25-7.227-9.375-15.821-9.375-25.781 0-2.084 0.195-4.2 0.586-6.348 0.39-1.758 0.879-3.679 1.464-5.762 0.326-1.172 1.205-3.06 2.637-5.664 0.521-0.781 1.107-1.758 1.758-2.93 0.651-1.171 1.107-1.953 1.367-2.343 0.651-1.302 1.921-3.06 3.809-5.274 0.521-0.586 1.058-1.237 1.611-1.953 0.554-0.716 1.026-1.302 1.416-1.758 0.391-0.455 0.684-0.814 0.879-1.074s1.66-1.986 4.395-5.176c0.651-0.651 1.285-1.351 1.904-2.099 0.618-0.749 1.123-1.335 1.514-1.758 0.39-0.423 0.683-0.733 0.878-0.928-2.343-7.747-3.808-13.932-4.394-18.555-0.456-3.71-0.684-8.789-0.684-15.234 0-5.664 1.302-10.97 3.907-15.918 2.539-5.143 6.087-9.342 10.644-12.598 0.261-0.195 0.586-0.293 0.977-0.293 0.455 0 0.781 0.098 0.976 0.293 3.516 4.232 6.543 9.734 9.082 16.504 2.604 6.771 3.907 12.924 3.907 18.457 0 6.25-1.498 12.11-4.493 17.579-3.385 5.794-7.747 11.783-13.086 17.968 1.368 4.297 3.19 11.035 5.469 20.215m8.301 45.41c3.385-1.237 6.022-3.353 7.91-6.347 2.083-2.865 3.125-6.088 3.125-9.668 0-4.623-1.562-8.724-4.687-12.305-3.191-3.711-7.26-5.794-12.207-6.25 2.799 13.737 4.752 25.26 5.859 34.57m-37.793-22.558c0 6.445 2.604 12.109 7.812 16.992 5.339 4.752 11.329 7.129 17.969 7.129 2.735 0 5.404-0.196 8.008-0.586-1.042-9.896-3.092-21.745-6.152-35.547-3.711 0.391-6.674 1.693-8.887 3.906-2.148 2.279-3.223 4.85-3.223 7.715 0 4.948 2.637 8.952 7.91 12.012 0.456 0.455 0.684 0.944 0.684 1.465 0 0.52-0.228 1.009-0.684 1.464-0.39 0.456-0.878 0.684-1.464 0.684-0.065 0-0.358-0.065-0.879-0.195-3.711-2.019-6.576-4.623-8.594-7.813-1.888-3.385-2.832-6.803-2.832-10.254 0-4.492 1.4-8.561 4.199-12.207 2.93-3.646 6.738-5.989 11.426-7.031-1.823-7.292-3.32-12.988-4.492-17.09-1.042 1.172-2.295 2.588-3.76 4.248s-2.328 2.653-2.588 2.979c-2.344 3.06-4.134 5.436-5.371 7.129-2.214 3.06-3.841 5.696-4.883 7.91-1.107 2.474-2.083 5.176-2.93 8.105-0.846 2.8-1.269 5.795-1.269 8.985m32.617-99.317c-4.883 2.409-8.724 5.86-11.523 10.352-2.865 4.622-4.297 9.603-4.297 14.941 0 4.688 1.172 11.003 3.515 18.946 4.688-5.665 8.204-10.905 10.547-15.723 2.474-5.078 3.711-10.384 3.711-15.918 0-4.167-0.651-8.366-1.953-12.598"/>
  <path d="m616.72 686.04h0.586c0.26-0.066 0.488-0.098 0.684-0.098 7.291 0 13.281 2.572 17.968 7.715 4.688 5.078 7.032 11.002 7.032 17.773 0 8.399-3.483 15.235-10.45 20.508-1.822 1.432-4.199 2.604-7.128 3.516 0.325 4.231 0.488 7.649 0.488 10.254 0 0.52-0.065 2.408-0.195 5.664-0.261 6.054-2.344 11.295-6.25 15.722-3.777 4.362-8.464 6.543-14.063 6.543-5.273 0-9.766-1.855-13.477-5.566-3.71-3.776-5.566-8.334-5.566-13.672 0-2.8 1.074-5.176 3.223-7.129 2.213-1.953 4.785-2.93 7.715-2.93 2.604 0 4.785 1.009 6.543 3.028 1.822 1.888 2.734 4.231 2.734 7.031 0 2.539-0.912 4.72-2.734 6.543-1.823 1.823-4.004 2.734-6.543 2.734-1.042 0-2.051-0.195-3.028-0.586 2.865 4.232 6.673 6.348 11.426 6.348 4.492 0 8.171-1.823 11.035-5.469 2.995-3.776 4.623-8.17 4.883-13.183 0.13-3.125 0.195-4.916 0.195-5.371 0-3.646-0.13-6.641-0.39-8.985-3.256 0.521-6.153 0.781-8.692 0.781-9.049 0-16.764-3.58-23.144-10.742-6.25-7.226-9.375-15.82-9.375-25.781 0-2.083 0.195-4.199 0.586-6.348 0.39-1.757 0.879-3.678 1.464-5.761 0.326-1.172 1.205-3.06 2.637-5.664 0.521-0.782 1.107-1.758 1.758-2.93s1.107-1.953 1.367-2.344c0.651-1.302 1.921-3.06 3.809-5.273 0.521-0.586 1.058-1.237 1.611-1.953 0.554-0.717 1.026-1.303 1.416-1.758 0.391-0.456 0.684-0.814 0.879-1.074 0.195-0.261 1.66-1.986 4.395-5.176 0.651-0.651 1.285-1.351 1.904-2.1 0.618-0.749 1.123-1.334 1.514-1.758 0.39-0.423 0.683-0.732 0.878-0.927-2.343-7.748-3.808-13.933-4.394-18.555-0.456-3.711-0.684-8.789-0.684-15.234 0-5.665 1.302-10.971 3.907-15.918 2.539-5.144 6.087-9.343 10.644-12.598 0.261-0.195 0.586-0.293 0.977-0.293 0.455 0 0.781 0.098 0.976 0.293 3.516 4.232 6.543 9.733 9.082 16.504 2.604 6.771 3.907 12.923 3.907 18.457 0 6.25-1.498 12.109-4.493 17.578-3.385 5.794-7.747 11.784-13.086 17.969 1.368 4.297 3.19 11.035 5.469 20.215m8.301 45.41c3.385-1.237 6.022-3.353 7.91-6.348 2.083-2.865 3.125-6.087 3.125-9.668 0-4.622-1.562-8.724-4.687-12.305-3.191-3.711-7.26-5.794-12.207-6.25 2.799 13.737 4.752 25.261 5.859 34.571m-37.793-22.559c0 6.445 2.604 12.11 7.812 16.992 5.339 4.753 11.329 7.129 17.969 7.129 2.735 0 5.404-0.195 8.008-0.586-1.042-9.896-3.092-21.745-6.152-35.547-3.711 0.391-6.674 1.693-8.887 3.907-2.148 2.278-3.223 4.85-3.223 7.715 0 4.947 2.637 8.951 7.91 12.011 0.456 0.456 0.684 0.944 0.684 1.465s-0.228 1.009-0.684 1.465c-0.39 0.456-0.878 0.684-1.464 0.684-0.065 0-0.358-0.066-0.879-0.196-3.711-2.018-6.576-4.622-8.594-7.812-1.888-3.386-2.832-6.804-2.832-10.254 0-4.492 1.4-8.561 4.199-12.207 2.93-3.646 6.738-5.99 11.426-7.031-1.823-7.292-3.32-12.989-4.492-17.09-1.042 1.172-2.295 2.588-3.76 4.248s-2.328 2.653-2.588 2.978c-2.344 3.06-4.134 5.436-5.371 7.129-2.214 3.06-3.841 5.697-4.883 7.91-1.107 2.474-2.083 5.176-2.93 8.106-0.846 2.799-1.269 5.794-1.269 8.984m32.617-99.316c-4.883 2.409-8.724 5.859-11.523 10.351-2.865 4.623-4.297 9.603-4.297 14.942 0 4.687 1.172 11.002 3.515 18.945 4.688-5.664 8.204-10.905 10.547-15.723 2.474-5.078 3.711-10.384 3.711-15.918 0-4.166-0.651-8.366-1.953-12.597"/>
  <path d="m616.72 1011.1h0.586c0.26-0.06 0.488-0.09 0.684-0.09 7.291 0 13.281 2.57 17.968 7.71 4.688 5.08 7.032 11 7.032 17.77 0 8.4-3.483 15.24-10.45 20.51-1.822 1.43-4.199 2.61-7.128 3.52 0.325 4.23 0.488 7.65 0.488 10.25 0 0.52-0.065 2.41-0.195 5.67-0.261 6.05-2.344 11.29-6.25 15.72-3.777 4.36-8.464 6.54-14.063 6.54-5.273 0-9.766-1.85-13.477-5.57-3.71-3.77-5.566-8.33-5.566-13.67 0-2.8 1.074-5.17 3.223-7.13 2.213-1.95 4.785-2.93 7.715-2.93 2.604 0 4.785 1.01 6.543 3.03 1.822 1.89 2.734 4.23 2.734 7.03 0 2.54-0.912 4.72-2.734 6.55-1.823 1.82-4.004 2.73-6.543 2.73-1.042 0-2.051-0.2-3.028-0.59 2.865 4.24 6.673 6.35 11.426 6.35 4.492 0 8.171-1.82 11.035-5.47 2.995-3.77 4.623-8.17 4.883-13.18 0.13-3.13 0.195-4.92 0.195-5.37 0-3.65-0.13-6.64-0.39-8.99-3.256 0.52-6.153 0.78-8.692 0.78-9.049 0-16.764-3.58-23.144-10.74-6.25-7.22-9.375-15.82-9.375-25.78 0-2.08 0.195-4.2 0.586-6.35 0.39-1.75 0.879-3.67 1.464-5.76 0.326-1.17 1.205-3.06 2.637-5.66 0.521-0.78 1.107-1.76 1.758-2.93s1.107-1.95 1.367-2.35c0.651-1.3 1.921-3.06 3.809-5.27 0.521-0.58 1.058-1.24 1.611-1.95 0.554-0.718 1.026-1.304 1.416-1.76 0.391-0.456 0.684-0.814 0.879-1.074s1.66-1.986 4.395-5.176c0.651-0.651 1.285-1.351 1.904-2.099 0.618-0.749 1.123-1.335 1.514-1.758 0.39-0.423 0.683-0.733 0.878-0.928-2.343-7.747-3.808-13.932-4.394-18.555-0.456-3.711-0.684-8.789-0.684-15.234 0-5.664 1.302-10.97 3.907-15.918 2.539-5.143 6.087-9.342 10.644-12.598 0.261-0.195 0.586-0.293 0.977-0.293 0.455 0 0.781 0.098 0.976 0.293 3.516 4.232 6.543 9.733 9.082 16.504 2.604 6.771 3.907 12.923 3.907 18.457 0 6.25-1.498 12.11-4.493 17.578-3.385 5.795-7.747 11.784-13.086 17.969 1.368 4.302 3.19 11.032 5.469 20.212m8.301 45.41c3.385-1.23 6.022-3.35 7.91-6.34 2.083-2.87 3.125-6.09 3.125-9.67 0-4.62-1.562-8.73-4.687-12.31-3.191-3.71-7.26-5.79-12.207-6.25 2.799 13.74 4.752 25.26 5.859 34.57m-37.793-22.56c0 6.45 2.604 12.11 7.812 17 5.339 4.75 11.329 7.13 17.969 7.13 2.735 0 5.404-0.2 8.008-0.59-1.042-9.9-3.092-21.75-6.152-35.55-3.711 0.39-6.674 1.7-8.887 3.91-2.148 2.28-3.223 4.85-3.223 7.71 0 4.95 2.637 8.96 7.91 12.02 0.456 0.45 0.684 0.94 0.684 1.46s-0.228 1.01-0.684 1.47c-0.39 0.45-0.878 0.68-1.464 0.68-0.065 0-0.358-0.07-0.879-0.2-3.711-2.01-6.576-4.62-8.594-7.81-1.888-3.38-2.832-6.8-2.832-10.25 0-4.49 1.4-8.56 4.199-12.21 2.93-3.65 6.738-5.99 11.426-7.03-1.823-7.29-3.32-12.99-4.492-17.091-1.042 1.171-2.295 2.591-3.76 4.251s-2.328 2.65-2.588 2.98c-2.344 3.06-4.134 5.43-5.371 7.12-2.214 3.06-3.841 5.7-4.883 7.91-1.107 2.48-2.083 5.18-2.93 8.11-0.846 2.8-1.269 5.79-1.269 8.98m32.617-99.312c-4.883 2.409-8.724 5.86-11.523 10.352-2.865 4.622-4.297 9.603-4.297 14.941 0 4.688 1.172 11.003 3.515 18.945 4.688-5.664 8.204-10.904 10.547-15.722 2.474-5.078 3.711-10.384 3.711-15.918 0-4.167-0.651-8.366-1.953-12.598"/>
  <path d="m689.53 342.75c0 1.237-0.618 1.855-1.855 1.855s-1.855-0.618-1.855-1.855v-14.453l-8.301 3.125v15.82c0 1.237-0.619 1.855-1.856 1.855s-1.855-0.618-1.855-1.855v-14.551l-3.125 1.172c-0.065 0.065-0.326 0.098-0.781 0.098-0.521 0-0.977-0.196-1.368-0.586-0.39-0.391-0.586-0.847-0.586-1.368v-6.054c0-0.977 0.424-1.595 1.27-1.856l4.59-1.562v-16.016l-3.125 1.074c-0.065 0.066-0.326 0.098-0.781 0.098-0.521 0-0.977-0.195-1.368-0.586-0.39-0.391-0.586-0.846-0.586-1.367v-6.055c0-0.911 0.424-1.497 1.27-1.758l4.59-1.757v-15.723c0-1.237 0.618-1.856 1.855-1.856s1.856 0.619 1.856 1.856v14.453l8.301-3.125v-15.82c0-1.237 0.618-1.856 1.855-1.856s1.855 0.619 1.855 1.856v14.551l3.223-1.172c0.065-0.065 0.293-0.098 0.684-0.098 0.455 0 0.944 0.195 1.465 0.586 0.39 0.391 0.585 0.846 0.585 1.367v6.055c0 0.911-0.455 1.53-1.367 1.855l-4.59 1.563v16.015l3.223-1.074c0.065-0.065 0.293-0.097 0.684-0.097 0.455 0 0.944 0.195 1.465 0.585 0.39 0.391 0.585 0.847 0.585 1.368v6.054c0 0.847-0.455 1.433-1.367 1.758l-4.59 1.758v15.723m-3.71-40.625-8.301 2.929v16.016l8.301-2.93v-16.015"/>
  <path d="m689.53 667.77c0 1.237-0.618 1.856-1.855 1.856s-1.855-0.619-1.855-1.856v-14.453l-8.301 3.125v15.82c0 1.237-0.619 1.856-1.856 1.856s-1.855-0.619-1.855-1.856v-14.55l-3.125 1.171c-0.065 0.066-0.326 0.098-0.781 0.098-0.521 0-0.977-0.195-1.368-0.586-0.39-0.391-0.586-0.846-0.586-1.367v-6.055c0-0.976 0.424-1.595 1.27-1.855l4.59-1.563v-16.015l-3.125 1.074c-0.065 0.065-0.326 0.098-0.781 0.098-0.521 0-0.977-0.196-1.368-0.586-0.39-0.391-0.586-0.847-0.586-1.368v-6.054c0-0.912 0.424-1.498 1.27-1.758l4.59-1.758v-15.723c0-1.237 0.618-1.855 1.855-1.855s1.856 0.618 1.856 1.855v14.454l8.301-3.125v-15.821c0-1.237 0.618-1.855 1.855-1.855s1.855 0.618 1.855 1.855v14.551l3.223-1.172c0.065-0.065 0.293-0.098 0.684-0.098 0.455 0 0.944 0.196 1.465 0.586 0.39 0.391 0.585 0.847 0.585 1.368v6.054c0 0.912-0.455 1.53-1.367 1.856l-4.59 1.562v16.016l3.223-1.074c0.065-0.065 0.293-0.098 0.684-0.098 0.455 0 0.944 0.195 1.465 0.586 0.39 0.391 0.585 0.846 0.585 1.367v6.055c0 0.846-0.455 1.432-1.367 1.758l-4.59 1.757v15.723m-3.71-40.625-8.301 2.93v16.015l8.301-2.929v-16.016"/>
  <path d="m689.53 992.79c0 1.237-0.618 1.855-1.855 1.855s-1.855-0.618-1.855-1.855v-14.454l-8.301 3.125v15.822c0 1.24-0.619 1.85-1.856 1.85s-1.855-0.61-1.855-1.85v-14.552l-3.125 1.172c-0.065 0.065-0.326 0.098-0.781 0.098-0.521 0-0.977-0.196-1.368-0.586-0.39-0.391-0.586-0.847-0.586-1.368v-6.054c0-0.977 0.424-1.595 1.27-1.856l4.59-1.562v-16.016l-3.125 1.074c-0.065 0.065-0.326 0.098-0.781 0.098-0.521 0-0.977-0.195-1.368-0.586-0.39-0.391-0.586-0.846-0.586-1.367v-6.055c0-0.911 0.424-1.497 1.27-1.758l4.59-1.757v-15.723c0-1.237 0.618-1.856 1.855-1.856s1.856 0.619 1.856 1.856v14.453l8.301-3.125v-15.82c0-1.237 0.618-1.856 1.855-1.856s1.855 0.619 1.855 1.856v14.551l3.223-1.172c0.065-0.065 0.293-0.098 0.684-0.098 0.455 0 0.944 0.195 1.465 0.586 0.39 0.391 0.585 0.846 0.585 1.367v6.055c0 0.911-0.455 1.53-1.367 1.855l-4.59 1.563v16.015l3.223-1.074c0.065-0.065 0.293-0.097 0.684-0.097 0.455 0 0.944 0.195 1.465 0.585 0.39 0.391 0.585 0.847 0.585 1.368v6.054c0 0.847-0.455 1.433-1.367 1.758l-4.59 1.758v15.723m-3.71-40.625-8.301 2.929v16.016l8.301-2.93v-16.015"/>
  <path d="m745.46 361.6c-1.954 0-3.711-0.358-5.274-1.074-1.562-0.716-2.669-1.465-3.32-2.246-0.847-0.977-1.693-1.726-2.539-2.247-1.042-0.716-2.116-1.074-3.223-1.074-1.693 0-3.092 0.521-4.199 1.563-1.172 0.976-1.823 2.311-1.953 4.004-0.131 0.716-0.521 1.074-1.172 1.074-0.781 0-1.172-0.358-1.172-1.074 0-2.539 0.586-4.818 1.758-6.836 1.172-2.084 2.604-3.809 4.297-5.176 1.432-1.237 3.32-2.734 5.664-4.492 0.39-0.326 1.22-1.009 2.49-2.051 1.269-1.042 2.327-1.921 3.174-2.637 1.692-1.432 3.157-3.32 4.394-5.664 1.172-2.344 1.758-4.883 1.758-7.617 0-3.32-0.553-6.185-1.66-8.594-1.172-2.343-2.962-3.515-5.371-3.515-1.498 0-2.702 0.325-3.613 0.976-0.977 0.651-1.465 1.53-1.465 2.637 0 0.911 0.586 2.051 1.758 3.418 1.171 1.367 1.757 2.506 1.757 3.418 0 1.953-0.683 3.613-2.05 4.98-1.303 1.302-2.898 1.953-4.786 1.953-1.953 0-3.613-0.683-4.98-2.05-1.302-1.433-1.953-3.06-1.953-4.883 0-3.711 1.497-6.771 4.492-9.18s6.608-3.613 10.84-3.613c5.013 0 9.375 1.367 13.086 4.101 3.711 2.605 5.566 6.055 5.566 10.352 0 2.93-0.521 5.436-1.562 7.52-0.977 2.213-2.442 3.938-4.395 5.175-2.213 1.433-4.134 2.539-5.762 3.321-2.278 1.041-4.557 2.018-6.835 2.929-2.735 1.107-4.851 2.149-6.348 3.125 0.846-0.195 1.725-0.293 2.637-0.293 2.994 0 6.119 0.977 9.375 2.93 3.32 1.953 5.891 2.93 7.714 2.93 1.107 0 1.986-0.196 2.637-0.586 0.651-0.391 1.074-0.814 1.27-1.27 0.26-0.651 0.488-1.107 0.683-1.367 0.261-0.391 0.586-0.586 0.977-0.586 0.781 0 1.172 0.391 1.172 1.172 0 1.823-1.302 4.036-3.907 6.641-2.539 2.604-5.859 3.906-9.96 3.906"/>
  <path d="m743.28 362.96c1.953 0 3.613-0.228 4.98-0.684 1.368-0.456 2.246-0.684 2.637-0.684 0.456 0 0.814 0.131 1.074 0.391 0.196 0.195 0.326 0.423 0.391 0.684 0 0.13-0.065 0.325-0.195 0.585l-28.418 33.008h16.699v-13.086c0-0.846 0.228-1.562 0.683-2.148 0.782-0.651 1.433-1.042 1.954-1.172 0.846-0.391 1.888-1.302 3.125-2.734 1.041-1.172 2.278-3.223 3.711-6.153 0.195-0.39 0.488-0.586 0.878-0.586 0.782 0 1.237 0.456 1.368 1.368v24.511h7.129c0.911 0 1.432 0.489 1.562 1.465 0 0.977-0.521 1.465-1.562 1.465h-7.129v0.781c0 2.604 0.651 4.818 1.953 6.641 1.497 1.823 3.255 2.734 5.273 2.734 0.781 0 1.172 0.391 1.172 1.172s-0.391 1.172-1.172 1.172c-1.367 0-3.581-0.195-6.64-0.586-2.8-0.456-4.981-0.684-6.543-0.684-1.628 0-3.809 0.228-6.543 0.684-2.93 0.391-5.111 0.586-6.543 0.586-0.782 0-1.172-0.391-1.172-1.172s0.39-1.172 1.172-1.172c2.018 0 3.776-0.911 5.273-2.734 1.367-1.888 2.051-4.102 2.051-6.641v-0.781h-16.699c-1.107 0-1.888-0.26-2.344-0.781-0.521-0.391-0.781-0.912-0.781-1.563 0-0.195 0.488-0.879 1.464-2.051 1.107-1.302 2.279-2.897 3.516-4.785 1.432-2.213 2.8-4.492 4.102-6.836 1.432-2.669 2.571-5.729 3.418-9.179 0.976-3.516 1.464-7.097 1.464-10.743 0-1.041 0.456-1.562 1.368-1.562 0.195 0 0.618 0.098 1.269 0.293 0.196 0.065 0.602 0.163 1.221 0.293 0.618 0.13 1.123 0.26 1.514 0.391 1.171 0.195 2.278 0.293 3.32 0.293"/>
  <path d="m2139 1003.8c0-1.17 0.65-2.47 1.96-3.9 0.97-1.04 2.41-2.28 4.29-3.71 1.44-0.98 2.84-2.444 4.2-4.397 1.3-1.888 1.96-3.939 1.96-6.152 0-2.604-0.85-4.916-2.54-6.934l-3.52-4.199c-0.26-0.26-0.39-0.586-0.39-0.977 0-0.39 0.2-0.748 0.59-1.074 0.45-0.325 0.84-0.488 1.17-0.488 0.45 0 0.81 0.195 1.07 0.586l15.14 17.969c0.65 0.846 0.98 1.692 0.98 2.539 0 1.172-0.66 2.477-1.96 3.907-0.84 0.91-2.24 2.15-4.2 3.71-1.49 0.91-2.93 2.38-4.29 4.39-1.31 1.89-1.96 3.94-1.96 6.16 0 2.73 0.78 5.04 2.35 6.93l8.4 9.86c0.19 0.2 0.35 0.52 0.48 0.98 0 0.46-0.16 0.85-0.48 1.17-0.46 0.33-0.85 0.49-1.18 0.49-0.13 0-0.65-0.36-1.56-1.07-0.98-0.79-2.28-1.53-3.91-2.25-1.82-0.72-3.61-1.07-5.37-1.07-1.62 0-2.96 0.45-4 1.36-0.91 0.91-1.37 2.67-1.37 5.28 0 3.97 0.95 7.09 2.83 9.37 0.2 0.26 0.23 0.59 0.1 0.98-0.13 0.26-0.36 0.39-0.68 0.39-0.46 0-1.47-1.17-3.03-3.52-1.63-2.47-3.16-5.3-4.59-8.49-1.5-3.39-2.24-6.19-2.24-8.4 0-2.8 1.33-4.2 4-4.2 3.06 0 7.03 1.04 11.91 3.12l-13.18-15.82c-0.65-0.84-0.98-1.69-0.98-2.54"/>
  <path d="m1439.3 280.18 132.2 6.408v12.516l-132.2-6.408v-12.516" fill-rule="evenodd"/>
  <path d="m787.66 630.2 130.01 6.41v12.516l-130.01-6.41v-12.516" fill-rule="evenodd"/>
  <path d="m1072 376.74c1.5 0 3.1 2.441 4.79 7.324 1.63 4.818 2.44 9.407 2.44 13.769 0 3.711-0.91 7.39-2.73 11.036-1.89 3.906-4.14 7.291-6.74 10.156l-8.01 8.984c-2.47 2.865-4.69 6.185-6.64 9.961-1.82 3.646-2.73 7.357-2.73 11.133h-3.13v-25h3.13c1.75-1.107 4.36-2.865 7.81-5.273 1.56-1.172 3.9-3.125 7.03-5.86 2.54-2.344 4.46-4.752 5.76-7.226 1.37-2.605 2.05-5.241 2.05-7.911 0-6.184-1.79-12.337-5.37-18.457v-0.39c0-0.586 0.2-1.074 0.59-1.465 0.52-0.521 1.1-0.781 1.75-0.781"/>
  <path d="m1221 351.74c1.5 0 3.09 2.442 4.79 7.324 1.62 4.818 2.44 9.408 2.44 13.77 0 3.711-0.91 7.389-2.74 11.035-1.88 3.906-4.13 7.292-6.73 10.156l-8.01 8.985c-2.48 2.864-4.69 6.185-6.64 9.961-1.83 3.645-2.74 7.356-2.74 11.132h-3.12v-25h3.12c1.76-1.106 4.36-2.864 7.82-5.273 1.56-1.172 3.9-3.125 7.03-5.859 2.54-2.344 4.46-4.753 5.76-7.227 1.37-2.604 2.05-5.241 2.05-7.91 0-6.185-1.79-12.337-5.37-18.457v-0.391c0-0.586 0.19-1.074 0.58-1.465 0.52-0.52 1.11-0.781 1.76-0.781"/>
  <path d="m2209.6 317.85v-25h3.12c0 3.711 0.72 7.422 2.15 11.133 1.56 4.036 3.29 7.552 5.18 10.547 1.36 2.148 3.42 5.436 6.15 9.863 2.08 3.386 3.84 6.934 5.27 10.645 1.44 3.711 2.15 7.422 2.15 11.132 0 6.771-1.4 13.672-4.2 20.704-0.52 0.781-1.14 1.171-1.85 1.171-0.65 0-1.24-0.26-1.76-0.781-0.39-0.39-0.59-0.879-0.59-1.465v-0.488c2.8-6.445 4.2-12.825 4.2-19.141 0-3.255-0.97-6.77-2.93-10.546-1.95-3.842-3.94-6.901-5.95-9.18-2.28-2.669-4.89-5.534-7.82-8.594h-3.12"/>
  <path d="m2360.7 308.47v-25h3.13c0 3.71 0.71 7.421 2.15 11.132 1.56 4.037 3.28 7.552 5.17 10.547 1.37 2.149 3.42 5.436 6.15 9.864 2.09 3.385 3.85 6.933 5.28 10.644s2.15 7.422 2.15 11.133c0 6.771-1.4 13.672-4.2 20.703-0.52 0.781-1.14 1.172-1.86 1.172-0.65 0-1.24-0.261-1.76-0.781-0.39-0.391-0.58-0.879-0.58-1.465v-0.489c2.8-6.445 4.2-12.825 4.2-19.14 0-3.255-0.98-6.771-2.93-10.547-1.96-3.841-3.94-6.901-5.96-9.18-2.28-2.669-4.88-5.534-7.81-8.593h-3.13"/>
  <path d="m1287.3 652.24v-25h3.13c0 3.711 0.71 7.422 2.15 11.133 1.56 4.036 3.28 7.552 5.17 10.547 1.37 2.148 3.42 5.436 6.15 9.863 2.09 3.386 3.84 6.934 5.28 10.645 1.43 3.711 2.15 7.422 2.15 11.133 0 6.77-1.4 13.671-4.2 20.703-0.52 0.781-1.14 1.172-1.86 1.172-0.65 0-1.24-0.261-1.76-0.782-0.39-0.39-0.58-0.879-0.58-1.465v-0.488c2.8-6.445 4.2-12.825 4.2-19.14 0-3.256-0.98-6.771-2.93-10.547-1.96-3.842-3.94-6.901-5.96-9.18-2.28-2.669-4.88-5.534-7.81-8.594h-3.13"/>
  <path d="m1449.5 652.24v-25h3.13c0 3.711 0.71 7.422 2.14 11.133 1.57 4.036 3.29 7.552 5.18 10.547 1.37 2.148 3.42 5.436 6.15 9.863 2.09 3.386 3.84 6.934 5.28 10.645 1.43 3.711 2.14 7.422 2.14 11.133 0 6.77-1.4 13.671-4.19 20.703-0.53 0.781-1.14 1.172-1.86 1.172-0.65 0-1.24-0.261-1.76-0.782-0.39-0.39-0.58-0.879-0.58-1.465v-0.488c2.8-6.445 4.2-12.825 4.2-19.14 0-3.256-0.98-6.771-2.93-10.547-1.96-3.842-3.94-6.901-5.96-9.18-2.28-2.669-4.88-5.534-7.81-8.594h-3.13"/>
  <path d="m1611.8 661.62v-25h3.13c0 3.711 0.71 7.422 2.14 11.133 1.57 4.036 3.29 7.552 5.18 10.546 1.37 2.149 3.42 5.437 6.15 9.864 2.09 3.385 3.84 6.933 5.28 10.644 1.43 3.711 2.14 7.422 2.14 11.133 0 6.771-1.4 13.672-4.2 20.703-0.52 0.781-1.13 1.172-1.85 1.172-0.65 0-1.24-0.26-1.76-0.781-0.39-0.391-0.58-0.879-0.58-1.465v-0.488c2.79-6.446 4.19-12.826 4.19-19.141 0-3.255-0.97-6.771-2.93-10.547-1.95-3.841-3.93-6.901-5.95-9.179-2.28-2.67-4.89-5.534-7.81-8.594h-3.13"/>
  <path d="m1774 674.12v-25h3.12c0 3.711 0.72 7.421 2.15 11.132 1.57 4.037 3.29 7.552 5.18 10.547 1.37 2.149 3.42 5.436 6.15 9.864 2.08 3.385 3.84 6.933 5.27 10.644 1.44 3.711 2.15 7.422 2.15 11.133 0 6.771-1.4 13.672-4.2 20.703-0.52 0.781-1.14 1.172-1.85 1.172-0.65 0-1.24-0.261-1.76-0.781-0.39-0.391-0.59-0.879-0.59-1.465v-0.488c2.8-6.446 4.2-12.826 4.2-19.141 0-3.255-0.97-6.771-2.93-10.547-1.95-3.841-3.93-6.901-5.95-9.18-2.28-2.669-4.89-5.534-7.82-8.593h-3.12"/>
  <path d="m787.66 1011.6v-25.004h3.125c0 3.711 0.716 7.422 2.149 11.134 1.562 4.04 3.287 7.55 5.175 10.55 1.368 2.14 3.418 5.43 6.153 9.86 2.083 3.38 3.841 6.93 5.273 10.64s2.149 7.43 2.149 11.14c0 6.77-1.4 13.67-4.2 20.7-0.521 0.78-1.139 1.17-1.855 1.17-0.651 0-1.237-0.26-1.758-0.78-0.391-0.39-0.586-0.88-0.586-1.46v-0.49c2.8-6.45 4.199-12.83 4.199-19.14 0-3.26-0.976-6.77-2.929-10.55-1.953-3.84-3.939-6.9-5.957-9.18-2.279-2.67-4.883-5.53-7.813-8.59h-3.125"/>
  <path d="m1023.4 1011.6c0 3.32 0.72 6.64 2.15 9.96 1.37 3.25 3.06 6.35 5.08 9.28l5.86 8.59c1.95 2.67 3.65 5.76 5.08 9.28 1.43 3.25 2.15 6.54 2.15 9.86 0 3.06-0.79 6.25-2.35 9.57 1.96 3.97 2.93 7.85 2.93 11.62 0 5.99-1.4 12.11-4.2 18.36-0.52 0.78-1.14 1.17-1.85 1.17-0.65 0-1.24-0.26-1.76-0.78-0.39-0.39-0.59-0.88-0.59-1.46v-0.49c2.8-5.54 4.2-11.13 4.2-16.8 0-2.54-0.49-4.88-1.46-7.03-1.17-2.54-2.61-4.88-4.3-7.03-2.15-2.8-3.84-4.82-5.08-6.06-1.69-1.69-3.64-3.54-5.86-5.56v7.52h-3.12v-50h3.12m15.34 51.66c0.45-1.37 0.68-2.93 0.68-4.69 0-2.28-0.46-4.59-1.37-6.93-0.97-2.35-2.34-4.72-4.1-7.13-1.63-2.02-3.29-4.01-4.98-5.96-1.3-1.43-3.16-3.32-5.57-5.66 0 2.67 0.56 5.5 1.66 8.49 1.18 2.8 2.38 5.24 3.62 7.33 1.43 2.21 3.19 4.72 5.27 7.52s3.68 5.14 4.79 7.03"/>
  <path d="m1168.8 1011.6c0 3.32 0.72 6.64 2.15 9.96 1.37 3.25 3.06 6.35 5.08 9.28l5.86 8.59c1.95 2.67 3.64 5.76 5.08 9.28 1.43 3.25 2.15 6.54 2.15 9.86 0 3.06-0.79 6.25-2.35 9.57 1.95 3.97 2.93 7.85 2.93 11.62 0 5.99-1.4 12.11-4.2 18.36-0.52 0.78-1.14 1.17-1.85 1.17-0.65 0-1.24-0.26-1.76-0.78-0.39-0.39-0.59-0.88-0.59-1.46v-0.49c2.8-5.54 4.2-11.13 4.2-16.8 0-2.54-0.49-4.88-1.46-7.03-1.17-2.54-2.61-4.88-4.3-7.03-2.15-2.8-3.84-4.82-5.08-6.06-1.69-1.69-3.64-3.54-5.86-5.56v7.52h-3.12v-50h3.12m15.33 51.66c0.46-1.37 0.69-2.93 0.69-4.69 0-2.28-0.46-4.59-1.37-6.93-0.98-2.35-2.34-4.72-4.1-7.13-1.63-2.02-3.29-4.01-4.98-5.96-1.3-1.43-3.16-3.32-5.57-5.66 0 2.67 0.56 5.5 1.66 8.49 1.17 2.8 2.38 5.24 3.62 7.33 1.43 2.21 3.19 4.72 5.27 7.52s3.68 5.14 4.78 7.03"/>
  <path d="m1311.1 1011.6v-25.004h3.12c0 3.711 0.72 7.422 2.15 11.134 1.56 4.04 3.29 7.55 5.18 10.55 1.36 2.14 3.41 5.43 6.15 9.86 2.08 3.38 3.84 6.93 5.27 10.64s2.15 7.43 2.15 11.14c0 6.77-1.4 13.67-4.2 20.7-0.52 0.78-1.14 1.17-1.85 1.17-0.66 0-1.24-0.26-1.76-0.78-0.39-0.39-0.59-0.88-0.59-1.46v-0.49c2.8-6.45 4.2-12.83 4.2-19.14 0-3.26-0.98-6.77-2.93-10.55-1.95-3.84-3.94-6.9-5.96-9.18-2.27-2.67-4.88-5.53-7.81-8.59h-3.12"/>
  <path d="m1543.8 1011.6v-25.004h3.13c0 3.711 0.71 7.422 2.14 11.134 1.57 4.04 3.29 7.55 5.18 10.55 1.37 2.14 3.42 5.43 6.15 9.86 2.09 3.38 3.84 6.93 5.28 10.64 1.43 3.71 2.14 7.43 2.14 11.14 0 6.77-1.39 13.67-4.19 20.7-0.53 0.78-1.14 1.17-1.86 1.17-0.65 0-1.24-0.26-1.76-0.78-0.39-0.39-0.58-0.88-0.58-1.46v-0.49c2.8-6.45 4.2-12.83 4.2-19.14 0-3.26-0.98-6.77-2.93-10.55-1.96-3.84-3.94-6.9-5.96-9.18-2.28-2.67-4.88-5.53-7.81-8.59h-3.13"/>
  <path d="m804.36 485.68c0 0.953-0.11 1.87-0.33 2.75s-0.651 1.815-1.293 2.805c-0.641 0.99-1.494 1.842-2.557 2.557-1.064 0.715-2.512 1.311-4.345 1.788-1.834 0.477-3.96 0.715-6.38 0.715-1.1 0-2.365-0.055-3.795-0.165v10.01c0 2.017 0.321 3.327 0.962 3.932 0.642 0.605 2.044 0.945 4.208 1.018v1.045h-15.4v-1.045c2.09-0.183 3.382-0.578 3.877-1.183s0.743-2.062 0.743-4.372v-23.815c0-1.98-0.257-3.245-0.77-3.795-0.514-0.55-1.797-0.935-3.85-1.155v-1.045h14.52c1.65 0 3.245 0.156 4.785 0.467 1.54 0.312 3.071 0.816 4.592 1.513 1.522 0.697 2.741 1.723 3.658 3.08 0.916 1.357 1.375 2.988 1.375 4.895m-18.7-6.05v14.3c1.283 0.11 2.328 0.165 3.135 0.165 6.38 0 9.57-2.695 9.57-8.085 0-2.823-0.88-4.904-2.64-6.243-1.76-1.338-4.492-2.007-8.195-2.007-0.734 0-1.229 0.128-1.485 0.385-0.257 0.257-0.385 0.752-0.385 1.485m34.147 7.205c3.52 0 6.416 1.173 8.69 3.52 2.273 2.347 3.41 5.317 3.41 8.91 0 3.813-1.174 7.003-3.52 9.57-2.347 2.567-5.244 3.85-8.69 3.85-3.447 0-6.316-1.238-8.608-3.713-2.291-2.475-3.437-5.564-3.437-9.267 0-3.777 1.127-6.866 3.382-9.268 2.255-2.401 5.179-3.602 8.773-3.602m-7.205 10.175c0 3.923 0.715 7.26 2.145 10.01s3.3 4.125 5.61 4.125c2.053 0 3.666-0.88 4.84-2.64 1.173-1.76 1.76-4.198 1.76-7.315 0-3.777-0.734-6.857-2.2-9.24-1.467-2.383-3.355-3.575-5.665-3.575-1.944 0-3.511 0.788-4.703 2.365-1.191 1.577-1.787 3.667-1.787 6.27m34.205-10.175c3.52 0 6.416 1.173 8.69 3.52 2.273 2.347 3.41 5.317 3.41 8.91 0 3.813-1.174 7.003-3.52 9.57-2.347 2.567-5.244 3.85-8.69 3.85-3.447 0-6.316-1.238-8.608-3.713-2.291-2.475-3.437-5.564-3.437-9.267 0-3.777 1.127-6.866 3.382-9.268 2.255-2.401 5.179-3.602 8.773-3.602m-7.205 10.175c0 3.923 0.715 7.26 2.145 10.01s3.3 4.125 5.61 4.125c2.053 0 3.666-0.88 4.84-2.64 1.173-1.76 1.76-4.198 1.76-7.315 0-3.777-0.734-6.857-2.2-9.24-1.467-2.383-3.355-3.575-5.665-3.575-1.944 0-3.511 0.788-4.703 2.365-1.191 1.577-1.787 3.667-1.787 6.27m37.23-4.785c-0.55 0-1.229-0.321-2.035-0.963-0.807-0.641-1.339-0.962-1.595-0.962-0.734 0-1.559 0.532-2.475 1.595-0.917 1.063-1.375 2.035-1.375 2.915v12.375c0 1.577 0.311 2.64 0.935 3.19 0.623 0.55 1.87 0.862 3.74 0.935v0.825h-13.2v-0.825c1.76-0.33 2.851-0.697 3.272-1.1 0.422-0.403 0.633-1.302 0.633-2.695v-13.75c0-1.21-0.138-2.063-0.413-2.558s-0.761-0.742-1.457-0.742c-0.587 0-1.229 0.073-1.925 0.22v-0.88c2.933-0.953 5.646-1.943 8.14-2.97l0.275 0.11v5.06c1.356-1.943 2.511-3.291 3.465-4.043 0.953-0.751 1.998-1.127 3.135-1.127 0.953 0 1.696 0.257 2.227 0.77 0.532 0.513 0.798 1.228 0.798 2.145 0 0.77-0.193 1.375-0.578 1.815s-0.907 0.66-1.567 0.66"/>
  <path d="m1050.1 475.73c1.57 0 3.08 0.128 4.51 0.385s2.9 0.706 4.42 1.347c1.53 0.642 2.75 1.641 3.66 2.998 0.92 1.357 1.38 3.007 1.38 4.95 0 4.877-3.23 7.92-9.68 9.13-0.11 0.037-0.2 0.055-0.28 0.055l11.33 13.915c0.77 0.917 1.5 1.558 2.17 1.925 0.68 0.367 1.55 0.587 2.62 0.66v1.045h-8.86l-13.09-16.94-3.08 0.11v10.835c0 1.98 0.3 3.263 0.88 3.85 0.59 0.587 1.95 0.953 4.07 1.1v1.045h-15.23v-1.045c2.05-0.147 3.34-0.541 3.87-1.183 0.54-0.641 0.8-2.099 0.8-4.372v-23.815c0-1.943-0.26-3.199-0.8-3.768-0.53-0.568-1.82-0.962-3.87-1.182v-1.045h15.18m-4.9 17.545c4.44-0.073 7.69-0.66 9.76-1.76 2.08-1.1 3.11-3.172 3.11-6.215 0-2.567-0.81-4.464-2.45-5.693-1.63-1.228-4.17-1.842-7.61-1.842-1.1 0-1.85 0.137-2.23 0.412-0.39 0.275-0.58 0.798-0.58 1.568v13.53m39.09-6.435c3.52 0 6.42 1.173 8.69 3.52 2.28 2.347 3.41 5.317 3.41 8.91 0 3.813-1.17 7.003-3.52 9.57-2.34 2.567-5.24 3.85-8.69 3.85-3.44 0-6.31-1.238-8.6-3.713-2.3-2.475-3.44-5.564-3.44-9.267 0-3.777 1.13-6.866 3.38-9.268 2.26-2.401 5.18-3.602 8.77-3.602m-7.2 10.175c0 3.923 0.71 7.26 2.14 10.01s3.3 4.125 5.61 4.125c2.06 0 3.67-0.88 4.84-2.64 1.18-1.76 1.76-4.198 1.76-7.315 0-3.777-0.73-6.857-2.2-9.24-1.46-2.383-3.35-3.575-5.66-3.575-1.94 0-3.51 0.788-4.7 2.365-1.2 1.577-1.79 3.667-1.79 6.27"/>
  <path d="m1206.4 487.94c0.04 0 0.33-0.183 0.88-0.55h0.61l0.22 7.48h-0.83c-0.62-2.457-1.39-4.198-2.31-5.225-0.91-1.027-2.16-1.54-3.74-1.54-1.24 0-2.26 0.348-3.05 1.045s-1.18 1.595-1.18 2.695c0 1.577 0.79 2.823 2.36 3.74l5.94 3.52c1.65 0.99 2.83 1.989 3.55 2.997 0.71 1.009 1.07 2.191 1.07 3.548 0 1.907-0.76 3.557-2.28 4.95s-3.35 2.09-5.47 2.09c-0.92 0-2.15-0.165-3.69-0.495s-2.49-0.495-2.86-0.495c-0.55 0-0.97 0.22-1.26 0.66h-0.72v-8.58h0.88c0.59 2.567 1.29 4.382 2.09 5.445 1.18 1.503 2.81 2.255 4.9 2.255 1.39 0 2.5-0.358 3.32-1.073 0.83-0.715 1.24-1.677 1.24-2.887 0-1.65-0.95-3.025-2.86-4.125l-3.19-1.815c-2.34-1.32-4-2.585-4.98-3.795-0.97-1.21-1.45-2.585-1.45-4.125 0-1.98 0.7-3.603 2.11-4.868 1.42-1.265 3.2-1.897 5.37-1.897 1.21 0 2.34 0.174 3.41 0.522 1.06 0.349 1.7 0.523 1.92 0.523m13.24 31.57c1.03 0 2.11-1.137 3.25-3.41s1.7-3.942 1.7-5.005c0-0.477-0.8-2.328-2.42-5.555l-7.26-15.62c-0.44-0.953-1.37-1.54-2.8-1.76v-0.77h11.33v0.825c-1.17 0.037-2 0.165-2.48 0.385-0.47 0.22-0.71 0.587-0.71 1.1 0 0.55 0.18 1.247 0.55 2.09l6.32 13.915 5.34-15.18c0.15-0.33 0.22-0.642 0.22-0.935 0-0.917-0.88-1.375-2.64-1.375v-0.825h7.42v0.825c-0.66 0.073-1.18 0.284-1.56 0.632-0.39 0.349-0.75 0.963-1.08 1.843l-8.47 22.44c-1.46 3.96-2.92 6.783-4.37 8.47s-3.09 2.53-4.92 2.53c-1.17 0-2.15-0.303-2.92-0.908s-1.15-1.365-1.15-2.282c0-0.66 0.24-1.228 0.71-1.705 0.48-0.477 1.03-0.715 1.65-0.715 0.81 0 1.67 0.165 2.59 0.495s1.48 0.495 1.7 0.495m25.89-7.26s-0.14 0.037-0.44 0.11c-0.33 0.073-0.67 0.11-1.04 0.11-0.99 0-1.78-0.248-2.37-0.743-0.58-0.495-0.88-1.182-0.88-2.062 0-0.917 0.31-1.668 0.91-2.255 0.61-0.587 1.39-0.88 2.34-0.88 1.25 0 2.29 0.467 3.13 1.402 0.85 0.935 1.27 2.1 1.27 3.493 0 1.65-0.57 3.245-1.71 4.785-1.13 1.54-2.62 2.768-4.45 3.685l-0.5-1.045c3.01-2.053 4.51-3.997 4.51-5.83 0-0.513-0.25-0.77-0.77-0.77"/>
  <path d="m1376.5 490.52v-0.88c2.31-0.697 4.95-1.632 7.92-2.805l0.33 0.11v4.235c2.34-2.897 4.98-4.345 7.92-4.345 2.67 0 4.87 1.1 6.6 3.3 1.72 2.2 2.58 5.005 2.58 8.415 0 3.997-1.11 7.352-3.33 10.065-2.21 2.713-4.95 4.07-8.22 4.07-1.17 0-2.15-0.165-2.94-0.495s-1.66-0.953-2.61-1.87v8.635c0 1.723 0.29 2.832 0.88 3.327 0.58 0.495 1.9 0.761 3.96 0.798v0.99h-13.31v-0.935c1.61-0.147 2.66-0.458 3.13-0.935 0.48-0.477 0.72-1.43 0.72-2.86v-25.74c0-1.283-0.15-2.127-0.44-2.53-0.3-0.403-0.9-0.605-1.82-0.605-0.58 0-1.04 0.018-1.37 0.055m8.25 3.245v13.53c0 0.807 0.63 1.613 1.89 2.42 1.27 0.807 2.54 1.21 3.83 1.21 1.98 0 3.58-0.944 4.81-2.833 1.23-1.888 1.84-4.354 1.84-7.397 0-3.19-0.61-5.748-1.84-7.673s-2.87-2.887-4.92-2.887c-1.29 0-2.54 0.403-3.77 1.21s-1.84 1.613-1.84 2.42m32.01-6.93c3.52 0 6.41 1.173 8.69 3.52 2.27 2.347 3.41 5.317 3.41 8.91 0 3.813-1.18 7.003-3.52 9.57-2.35 2.567-5.25 3.85-8.69 3.85-3.45 0-6.32-1.238-8.61-3.713s-3.44-5.564-3.44-9.267c0-3.777 1.13-6.866 3.38-9.268 2.26-2.401 5.18-3.602 8.78-3.602m-7.21 10.175c0 3.923 0.72 7.26 2.15 10.01s3.3 4.125 5.61 4.125c2.05 0 3.66-0.88 4.84-2.64 1.17-1.76 1.76-4.198 1.76-7.315 0-3.777-0.74-6.857-2.2-9.24-1.47-2.383-3.36-3.575-5.67-3.575-1.94 0-3.51 0.788-4.7 2.365s-1.79 3.667-1.79 6.27m34.21-10.175c3.52 0 6.41 1.173 8.69 3.52 2.27 2.347 3.41 5.317 3.41 8.91 0 3.813-1.18 7.003-3.52 9.57-2.35 2.567-5.25 3.85-8.69 3.85-3.45 0-6.32-1.238-8.61-3.713s-3.44-5.564-3.44-9.267c0-3.777 1.13-6.866 3.38-9.268 2.26-2.401 5.18-3.602 8.78-3.602m-7.21 10.175c0 3.923 0.72 7.26 2.15 10.01s3.3 4.125 5.61 4.125c2.05 0 3.66-0.88 4.84-2.64 1.17-1.76 1.76-4.198 1.76-7.315 0-3.777-0.74-6.857-2.2-9.24-1.47-2.383-3.36-3.575-5.67-3.575-1.94 0-3.51 0.788-4.7 2.365s-1.79 3.667-1.79 6.27m37.23-4.785c-0.55 0-1.23-0.321-2.03-0.963-0.81-0.641-1.34-0.962-1.6-0.962-0.73 0-1.56 0.532-2.47 1.595-0.92 1.063-1.38 2.035-1.38 2.915v12.375c0 1.577 0.31 2.64 0.94 3.19 0.62 0.55 1.87 0.862 3.74 0.935v0.825h-13.2v-0.825c1.76-0.33 2.85-0.697 3.27-1.1s0.63-1.302 0.63-2.695v-13.75c0-1.21-0.14-2.063-0.41-2.558-0.28-0.495-0.76-0.742-1.46-0.742-0.58 0-1.23 0.073-1.92 0.22v-0.88c2.93-0.953 5.64-1.943 8.14-2.97l0.27 0.11v5.06c1.36-1.943 2.51-3.291 3.47-4.043 0.95-0.751 2-1.127 3.13-1.127 0.96 0 1.7 0.257 2.23 0.77s0.8 1.228 0.8 2.145c0 0.77-0.2 1.375-0.58 1.815-0.39 0.44-0.91 0.66-1.57 0.66"/>
  <path d="m1655.4 509.17c0-0.697 0.25-1.338 0.74-1.925 0.5-0.587 1.88-1.943 4.15-4.07-1.83-0.917-3.14-1.943-3.93-3.08s-1.18-2.567-1.18-4.29c0-2.493 0.89-4.611 2.67-6.353 1.78-1.741 3.95-2.612 6.51-2.612 1.43 0 2.97 0.302 4.6 0.907s2.98 0.908 4.04 0.908h4.23v2.145h-4.56c0.7 1.577 1.04 3.117 1.04 4.62 0 2.53-0.85 4.583-2.55 6.16-1.71 1.577-3.72 2.365-6.03 2.365-0.44 0-1.48-0.092-3.13-0.275-0.73 0.22-1.47 0.715-2.2 1.485s-1.1 1.43-1.1 1.98c0 0.88 1.43 1.375 4.29 1.485l7.09 0.33c2.02 0.073 3.63 0.642 4.84 1.705s1.82 2.457 1.82 4.18c0 2.64-1.51 4.849-4.54 6.627-3.02 1.779-6.28 2.668-9.76 2.668-2.6 0-4.84-0.523-6.71-1.568s-2.81-2.3-2.81-3.767c0-1.027 0.42-2.044 1.24-3.053 0.83-1.008 2.21-2.227 4.15-3.657-1.13-0.55-1.9-1.027-2.31-1.43-0.4-0.403-0.6-0.898-0.6-1.485m4.07 3.08c-1.14 1.357-1.87 2.328-2.2 2.915s-0.5 1.192-0.5 1.815c0 1.21 0.74 2.182 2.2 2.915 1.47 0.733 3.41 1.1 5.83 1.1 3.12 0 5.63-0.495 7.54-1.485s2.86-2.273 2.86-3.85c0-0.99-0.51-1.687-1.54-2.09s-2.79-0.605-5.28-0.605c-3.7 0-6.67-0.238-8.91-0.715m10.01-14.685c0-0.623-0.07-1.375-0.22-2.255s-0.4-1.879-0.77-2.998c-0.37-1.118-0.95-2.053-1.76-2.805-0.81-0.751-1.78-1.127-2.92-1.127-1.28 0-2.28 0.458-2.99 1.375-0.72 0.917-1.08 2.182-1.08 3.795 0 3.153 0.59 5.445 1.76 6.875 1.18 1.43 2.46 2.145 3.85 2.145 1.29 0 2.3-0.449 3.03-1.348 0.73-0.898 1.1-2.117 1.1-3.657m9.67 9.24c0-0.66 0.07-1.274 0.22-1.843 0.14-0.568 0.4-1.1 0.77-1.595 0.36-0.495 0.71-0.944 1.04-1.347s0.83-0.816 1.49-1.238c0.66-0.421 1.21-0.77 1.65-1.045s1.11-0.605 2-0.99c0.9-0.385 1.59-0.678 2.07-0.88 0.47-0.201 1.22-0.504 2.25-0.907s1.78-0.697 2.26-0.88v-3.355c0-3.043-1.4-4.565-4.18-4.565-1.1 0-2.04 0.266-2.81 0.797-0.77 0.532-1.15 1.165-1.15 1.898 0 0.293 0.04 0.697 0.13 1.21 0.1 0.513 0.14 0.843 0.14 0.99 0 0.623-0.25 1.164-0.74 1.622-0.5 0.459-1.07 0.688-1.73 0.688-0.63 0-1.18-0.238-1.65-0.715-0.48-0.477-0.72-1.027-0.72-1.65 0-1.723 0.89-3.181 2.67-4.373 1.78-1.191 3.97-1.787 6.57-1.787 3.01 0 5.08 0.724 6.22 2.172 1.13 1.449 1.7 3.658 1.7 6.628v10.725c0 1.21 0.12 2.044 0.36 2.502 0.24 0.459 0.67 0.688 1.29 0.688 0.77 0 1.58-0.348 2.42-1.045v1.43c-0.95 1.063-1.79 1.787-2.5 2.172-0.72 0.385-1.53 0.578-2.45 0.578-1.14 0-1.97-0.312-2.5-0.935s-0.87-1.65-1.02-3.08c-3.15 2.677-5.83 4.015-8.03 4.015-1.69 0-3.07-0.55-4.15-1.65s-1.62-2.512-1.62-4.235m13.75-1.43v-7.975c-3.3 1.21-5.61 2.383-6.93 3.52s-1.98 2.512-1.98 4.125c0 1.503 0.36 2.622 1.1 3.355 0.73 0.733 1.52 1.1 2.36 1.1 1.25 0 2.59-0.422 4.02-1.265 0.58-0.33 0.97-0.678 1.15-1.045s0.28-0.972 0.28-1.815m9.34-27.5v-0.88c3.63-0.88 6.55-1.687 8.75-2.42l0.22 0.11v32.835c0 1.503 0.25 2.484 0.74 2.942 0.5 0.459 1.62 0.743 3.38 0.853v0.825h-12.98v-0.825c1.73-0.147 2.86-0.477 3.41-0.99s0.83-1.503 0.83-2.97v-26.235c0-1.283-0.17-2.163-0.5-2.64s-0.93-0.715-1.81-0.715c-0.74 0-1.41 0.037-2.04 0.11m22.77 34.375s-0.15 0.037-0.44 0.11c-0.33 0.073-0.68 0.11-1.04 0.11-0.99 0-1.78-0.248-2.37-0.743s-0.88-1.182-0.88-2.062c0-0.917 0.3-1.668 0.91-2.255 0.6-0.587 1.38-0.88 2.34-0.88 1.24 0 2.29 0.467 3.13 1.402s1.27 2.1 1.27 3.493c0 1.65-0.57 3.245-1.71 4.785s-2.62 2.768-4.45 3.685l-0.5-1.045c3.01-2.053 4.51-3.997 4.51-5.83 0-0.513-0.26-0.77-0.77-0.77m-1.65-25.355c0.84 0 1.57 0.312 2.17 0.935 0.61 0.623 0.91 1.357 0.91 2.2 0 0.807-0.31 1.503-0.93 2.09-0.63 0.587-1.36 0.88-2.2 0.88-0.81 0-1.51-0.293-2.09-0.88-0.59-0.587-0.88-1.283-0.88-2.09 0-0.843 0.3-1.577 0.9-2.2 0.61-0.623 1.31-0.935 2.12-0.935"/>
  <path d="m1931.8 485.68c0 0.953-0.11 1.87-0.33 2.75s-0.65 1.815-1.29 2.805-1.5 1.842-2.56 2.557-2.51 1.311-4.34 1.788c-1.84 0.477-3.96 0.715-6.38 0.715-1.1 0-2.37-0.055-3.8-0.165v10.01c0 2.017 0.32 3.327 0.96 3.932s2.05 0.945 4.21 1.018v1.045h-15.4v-1.045c2.09-0.183 3.38-0.578 3.88-1.183 0.49-0.605 0.74-2.062 0.74-4.372v-23.815c0-1.98-0.26-3.245-0.77-3.795s-1.8-0.935-3.85-1.155v-1.045h14.52c1.65 0 3.25 0.156 4.79 0.467 1.54 0.312 3.07 0.816 4.59 1.513s2.74 1.723 3.66 3.08c0.91 1.357 1.37 2.988 1.37 4.895m-18.7-6.05v14.3c1.28 0.11 2.33 0.165 3.14 0.165 6.38 0 9.57-2.695 9.57-8.085 0-2.823-0.88-4.904-2.64-6.243-1.76-1.338-4.5-2.007-8.2-2.007-0.73 0-1.23 0.128-1.48 0.385-0.26 0.257-0.39 0.752-0.39 1.485m34.15 7.205c3.52 0 6.41 1.173 8.69 3.52 2.27 2.347 3.41 5.317 3.41 8.91 0 3.813-1.18 7.003-3.52 9.57-2.35 2.567-5.25 3.85-8.69 3.85-3.45 0-6.32-1.238-8.61-3.713s-3.44-5.564-3.44-9.267c0-3.777 1.13-6.866 3.39-9.268 2.25-2.401 5.17-3.602 8.77-3.602m-7.21 10.175c0 3.923 0.72 7.26 2.15 10.01s3.3 4.125 5.61 4.125c2.05 0 3.66-0.88 4.84-2.64 1.17-1.76 1.76-4.198 1.76-7.315 0-3.777-0.74-6.857-2.2-9.24-1.47-2.383-3.36-3.575-5.67-3.575-1.94 0-3.51 0.788-4.7 2.365s-1.79 3.667-1.79 6.27m34.21-10.175c3.52 0 6.41 1.173 8.69 3.52 2.27 2.347 3.41 5.317 3.41 8.91 0 3.813-1.18 7.003-3.52 9.57-2.35 2.567-5.25 3.85-8.69 3.85-3.45 0-6.32-1.238-8.61-3.713s-3.44-5.564-3.44-9.267c0-3.777 1.13-6.866 3.39-9.268 2.25-2.401 5.17-3.602 8.77-3.602m-7.21 10.175c0 3.923 0.72 7.26 2.15 10.01s3.3 4.125 5.61 4.125c2.05 0 3.66-0.88 4.84-2.64 1.17-1.76 1.76-4.198 1.76-7.315 0-3.777-0.74-6.857-2.2-9.24-1.47-2.383-3.36-3.575-5.67-3.575-1.94 0-3.51 0.788-4.7 2.365s-1.79 3.667-1.79 6.27m37.23-4.785c-0.55 0-1.23-0.321-2.03-0.963-0.81-0.641-1.34-0.962-1.6-0.962-0.73 0-1.56 0.532-2.47 1.595-0.92 1.063-1.38 2.035-1.38 2.915v12.375c0 1.577 0.31 2.64 0.94 3.19 0.62 0.55 1.87 0.862 3.74 0.935v0.825h-13.2v-0.825c1.76-0.33 2.85-0.697 3.27-1.1s0.63-1.302 0.63-2.695v-13.75c0-1.21-0.13-2.063-0.41-2.558-0.27-0.495-0.76-0.742-1.46-0.742-0.58 0-1.23 0.073-1.92 0.22v-0.88c2.93-0.953 5.64-1.943 8.14-2.97l0.27 0.11v5.06c1.36-1.943 2.51-3.291 3.47-4.043 0.95-0.751 2-1.127 3.13-1.127 0.96 0 1.7 0.257 2.23 0.77s0.8 1.228 0.8 2.145c0 0.77-0.19 1.375-0.58 1.815-0.38 0.44-0.91 0.66-1.57 0.66"/>
  <path d="m2180.9 475.73c1.58 0 3.08 0.128 4.51 0.385s2.9 0.706 4.43 1.347c1.52 0.642 2.74 1.641 3.65 2.998 0.92 1.357 1.38 3.007 1.38 4.95 0 4.877-3.23 7.92-9.68 9.13-0.11 0.037-0.2 0.055-0.28 0.055l11.33 13.915c0.77 0.917 1.5 1.558 2.18 1.925 0.67 0.367 1.55 0.587 2.61 0.66v1.045h-8.86l-13.09-16.94-3.08 0.11v10.835c0 1.98 0.3 3.263 0.88 3.85 0.59 0.587 1.95 0.953 4.07 1.1v1.045h-15.23v-1.045c2.05-0.147 3.34-0.541 3.88-1.183 0.53-0.641 0.79-2.099 0.79-4.372v-23.815c0-1.943-0.26-3.199-0.79-3.768-0.54-0.568-1.83-0.962-3.88-1.182v-1.045h15.18m-4.9 17.545c4.44-0.073 7.69-0.66 9.77-1.76 2.07-1.1 3.1-3.172 3.1-6.215 0-2.567-0.81-4.464-2.44-5.693-1.64-1.228-4.17-1.842-7.62-1.842-1.1 0-1.84 0.137-2.23 0.412-0.38 0.275-0.58 0.798-0.58 1.568v13.53m39.1-6.435c3.52 0 6.41 1.173 8.69 3.52 2.27 2.347 3.41 5.317 3.41 8.91 0 3.813-1.18 7.003-3.52 9.57-2.35 2.567-5.25 3.85-8.69 3.85-3.45 0-6.32-1.238-8.61-3.713s-3.44-5.564-3.44-9.267c0-3.777 1.13-6.866 3.38-9.268 2.26-2.401 5.18-3.602 8.78-3.602m-7.21 10.175c0 3.923 0.72 7.26 2.15 10.01s3.3 4.125 5.61 4.125c2.05 0 3.66-0.88 4.84-2.64 1.17-1.76 1.76-4.198 1.76-7.315 0-3.777-0.74-6.857-2.2-9.24-1.47-2.383-3.36-3.575-5.67-3.575-1.94 0-3.51 0.788-4.7 2.365s-1.79 3.667-1.79 6.27"/>
  <path d="m2339.2 487.94c0.04 0 0.33-0.183 0.88-0.55h0.61l0.22 7.48h-0.83c-0.62-2.457-1.39-4.198-2.31-5.225s-2.16-1.54-3.74-1.54c-1.25 0-2.26 0.348-3.05 1.045s-1.18 1.595-1.18 2.695c0 1.577 0.78 2.823 2.36 3.74l5.94 3.52c1.65 0.99 2.83 1.989 3.55 2.997 0.71 1.009 1.07 2.191 1.07 3.548 0 1.907-0.76 3.557-2.28 4.95s-3.35 2.09-5.47 2.09c-0.92 0-2.15-0.165-3.69-0.495s-2.49-0.495-2.86-0.495c-0.55 0-0.97 0.22-1.26 0.66h-0.72v-8.58h0.88c0.59 2.567 1.28 4.382 2.09 5.445 1.17 1.503 2.81 2.255 4.9 2.255 1.39 0 2.5-0.358 3.32-1.073 0.83-0.715 1.24-1.677 1.24-2.887 0-1.65-0.95-3.025-2.86-4.125l-3.19-1.815c-2.35-1.32-4-2.585-4.98-3.795-0.97-1.21-1.45-2.585-1.45-4.125 0-1.98 0.7-3.603 2.11-4.868 1.42-1.265 3.2-1.897 5.37-1.897 1.21 0 2.34 0.174 3.41 0.522 1.06 0.349 1.7 0.523 1.92 0.523m13.24 31.57c1.03 0 2.11-1.137 3.25-3.41 1.13-2.273 1.7-3.942 1.7-5.005 0-0.477-0.8-2.328-2.42-5.555l-7.26-15.62c-0.44-0.953-1.37-1.54-2.8-1.76v-0.77h11.33v0.825c-1.18 0.037-2 0.165-2.48 0.385-0.47 0.22-0.71 0.587-0.71 1.1 0 0.55 0.18 1.247 0.55 2.09l6.32 13.915 5.34-15.18c0.14-0.33 0.22-0.642 0.22-0.935 0-0.917-0.88-1.375-2.64-1.375v-0.825h7.42v0.825c-0.66 0.073-1.18 0.284-1.56 0.632-0.39 0.349-0.75 0.963-1.08 1.843l-8.47 22.44c-1.46 3.96-2.92 6.783-4.37 8.47s-3.09 2.53-4.92 2.53c-1.18 0-2.15-0.303-2.92-0.908s-1.15-1.365-1.15-2.282c0-0.66 0.24-1.228 0.71-1.705 0.48-0.477 1.03-0.715 1.65-0.715 0.81 0 1.67 0.165 2.59 0.495 0.91 0.33 1.48 0.495 1.7 0.495m25.89-7.26s-0.14 0.037-0.44 0.11c-0.33 0.073-0.67 0.11-1.04 0.11-0.99 0-1.78-0.248-2.37-0.743-0.58-0.495-0.88-1.182-0.88-2.062 0-0.917 0.31-1.668 0.91-2.255 0.61-0.587 1.39-0.88 2.34-0.88 1.25 0 2.29 0.467 3.13 1.402 0.85 0.935 1.27 2.1 1.27 3.493 0 1.65-0.57 3.245-1.71 4.785-1.13 1.54-2.62 2.768-4.45 3.685l-0.5-1.045c3.01-2.053 4.51-3.997 4.51-5.83 0-0.513-0.25-0.77-0.77-0.77"/>
  <path d="m724.86 829.08v-0.88c2.31-0.696 4.95-1.631 7.92-2.805l0.33 0.11v4.235c2.347-2.896 4.987-4.345 7.92-4.345 2.677 0 4.877 1.1 6.6 3.3s2.585 5.005 2.585 8.415c0 3.997-1.109 7.352-3.328 10.065-2.218 2.714-4.959 4.07-8.222 4.07-1.173 0-2.154-0.165-2.943-0.495-0.788-0.33-1.659-0.953-2.612-1.87v8.635c0 1.724 0.293 2.833 0.88 3.328s1.907 0.761 3.96 0.797v0.99h-13.31v-0.935c1.613-0.146 2.658-0.458 3.135-0.935 0.477-0.476 0.715-1.43 0.715-2.86v-25.74c0-1.283-0.147-2.126-0.44-2.53-0.293-0.403-0.898-0.605-1.815-0.605-0.587 0-1.045 0.019-1.375 0.055m8.25 3.245v13.53c0 0.807 0.632 1.614 1.897 2.42 1.265 0.807 2.54 1.21 3.823 1.21 1.98 0 3.584-0.944 4.812-2.832 1.229-1.888 1.843-4.354 1.843-7.398 0-3.19-0.614-5.747-1.843-7.672-1.228-1.925-2.869-2.888-4.922-2.888-1.283 0-2.539 0.404-3.768 1.21-1.228 0.807-1.842 1.614-1.842 2.42m32.01-6.93c3.52 0 6.417 1.174 8.69 3.52 2.273 2.347 3.41 5.317 3.41 8.91 0 3.814-1.173 7.004-3.52 9.57-2.347 2.567-5.243 3.85-8.69 3.85s-6.316-1.237-8.608-3.712c-2.291-2.475-3.437-5.564-3.437-9.268 0-3.776 1.127-6.865 3.382-9.267s5.18-3.603 8.773-3.603m-7.205 10.175c0 3.924 0.715 7.26 2.145 10.01s3.3 4.125 5.61 4.125c2.053 0 3.667-0.88 4.84-2.64s1.76-4.198 1.76-7.315c0-3.776-0.733-6.856-2.2-9.24-1.467-2.383-3.355-3.575-5.665-3.575-1.943 0-3.511 0.789-4.703 2.365-1.191 1.577-1.787 3.667-1.787 6.27m34.205-10.175c3.52 0 6.417 1.174 8.69 3.52 2.273 2.347 3.41 5.317 3.41 8.91 0 3.814-1.173 7.004-3.52 9.57-2.347 2.567-5.243 3.85-8.69 3.85s-6.316-1.237-8.608-3.712c-2.291-2.475-3.437-5.564-3.437-9.268 0-3.776 1.127-6.865 3.382-9.267s5.18-3.603 8.773-3.603m-7.205 10.175c0 3.924 0.715 7.26 2.145 10.01s3.3 4.125 5.61 4.125c2.053 0 3.667-0.88 4.84-2.64s1.76-4.198 1.76-7.315c0-3.776-0.733-6.856-2.2-9.24-1.467-2.383-3.355-3.575-5.665-3.575-1.943 0-3.511 0.789-4.703 2.365-1.191 1.577-1.787 3.667-1.787 6.27m37.23-4.785c-0.55 0-1.228-0.32-2.035-0.962s-1.338-0.963-1.595-0.963c-0.733 0-1.558 0.532-2.475 1.595-0.917 1.064-1.375 2.035-1.375 2.915v12.375c0 1.577 0.312 2.64 0.935 3.19s1.87 0.862 3.74 0.935v0.825h-13.2v-0.825c1.76-0.33 2.851-0.696 3.272-1.1 0.422-0.403 0.633-1.301 0.633-2.695v-13.75c0-1.21-0.138-2.062-0.413-2.557s-0.76-0.743-1.457-0.743c-0.587 0-1.228 0.074-1.925 0.22v-0.88c2.933-0.953 5.647-1.943 8.14-2.97l0.275 0.11v5.06c1.357-1.943 2.512-3.29 3.465-4.042s1.998-1.128 3.135-1.128c0.953 0 1.696 0.257 2.227 0.77 0.532 0.514 0.798 1.229 0.798 2.145 0 0.77-0.193 1.375-0.578 1.815s-0.907 0.66-1.567 0.66"/>
  <path d="m999.38 847.72c0-0.696 0.25-1.338 0.74-1.925 0.5-0.586 1.88-1.943 4.15-4.07-1.83-0.916-3.14-1.943-3.93-3.08-0.79-1.136-1.18-2.566-1.18-4.29 0-2.493 0.89-4.61 2.67-6.352 1.77-1.742 3.95-2.613 6.51-2.613 1.43 0 2.96 0.303 4.6 0.908 1.63 0.605 2.98 0.907 4.04 0.907h4.23v2.145h-4.56c0.7 1.577 1.04 3.117 1.04 4.62 0 2.53-0.85 4.584-2.55 6.16-1.71 1.577-3.72 2.365-6.03 2.365-0.44 0-1.48-0.091-3.13-0.275-0.73 0.22-1.47 0.715-2.2 1.485s-1.1 1.43-1.1 1.98c0 0.88 1.43 1.375 4.29 1.485l7.09 0.33c2.02 0.074 3.63 0.642 4.84 1.705 1.21 1.064 1.82 2.457 1.82 4.18 0 2.64-1.51 4.85-4.54 6.628-3.02 1.778-6.28 2.667-9.76 2.667-2.6 0-4.84-0.522-6.71-1.567s-2.81-2.301-2.81-3.768c0-1.026 0.42-2.044 1.24-3.052 0.83-1.008 2.21-2.228 4.15-3.658-1.13-0.55-1.9-1.026-2.31-1.43-0.4-0.403-0.6-0.898-0.6-1.485m4.07 3.08c-1.14 1.357-1.87 2.329-2.2 2.915-0.33 0.587-0.5 1.192-0.5 1.815 0 1.21 0.74 2.182 2.2 2.915 1.47 0.734 3.41 1.1 5.83 1.1 3.12 0 5.63-0.495 7.54-1.485s2.86-2.273 2.86-3.85c0-0.99-0.51-1.686-1.54-2.09-1.03-0.403-2.79-0.605-5.28-0.605-3.7 0-6.67-0.238-8.91-0.715m10.01-14.685c0-0.623-0.07-1.375-0.22-2.255s-0.4-1.879-0.77-2.997-0.95-2.053-1.76-2.805-1.78-1.128-2.92-1.128c-1.28 0-2.28 0.459-2.99 1.375-0.72 0.917-1.08 2.182-1.08 3.795 0 3.154 0.59 5.445 1.76 6.875 1.18 1.43 2.46 2.145 3.85 2.145 1.29 0 2.3-0.449 3.03-1.347s1.1-2.118 1.1-3.658m9.67 9.24c0-0.66 0.07-1.274 0.22-1.842 0.14-0.568 0.4-1.1 0.77-1.595 0.36-0.495 0.71-0.944 1.04-1.348 0.33-0.403 0.83-0.815 1.49-1.237s1.21-0.77 1.65-1.045 1.1-0.605 2-0.99 1.59-0.678 2.07-0.88c0.47-0.202 1.22-0.504 2.25-0.908 1.03-0.403 1.78-0.696 2.26-0.88v-3.355c0-3.043-1.4-4.565-4.18-4.565-1.1 0-2.04 0.266-2.81 0.798s-1.15 1.164-1.15 1.897c0 0.294 0.04 0.697 0.13 1.21 0.09 0.514 0.14 0.844 0.14 0.99 0 0.624-0.25 1.165-0.74 1.623-0.5 0.458-1.07 0.687-1.73 0.687-0.63 0-1.18-0.238-1.65-0.715-0.48-0.476-0.72-1.026-0.72-1.65 0-1.723 0.89-3.18 2.67-4.372s3.97-1.788 6.57-1.788c3.01 0 5.08 0.725 6.22 2.173 1.13 1.448 1.7 3.657 1.7 6.627v10.725c0 1.21 0.12 2.045 0.36 2.503s0.67 0.687 1.29 0.687c0.77 0 1.58-0.348 2.42-1.045v1.43c-0.95 1.064-1.79 1.788-2.5 2.173-0.72 0.385-1.53 0.577-2.45 0.577-1.14 0-1.97-0.311-2.5-0.935-0.53-0.623-0.87-1.65-1.02-3.08-3.15 2.677-5.83 4.015-8.03 4.015-1.69 0-3.07-0.55-4.15-1.65s-1.62-2.511-1.62-4.235m13.75-1.43v-7.975c-3.3 1.21-5.61 2.384-6.93 3.52-1.32 1.137-1.98 2.512-1.98 4.125 0 1.504 0.36 2.622 1.1 3.355 0.73 0.734 1.52 1.1 2.36 1.1 1.25 0 2.59-0.421 4.02-1.265 0.58-0.33 0.97-0.678 1.15-1.045 0.18-0.366 0.28-0.971 0.28-1.815m9.34-27.5v-0.88c3.63-0.88 6.55-1.686 8.75-2.42l0.22 0.11v32.835c0 1.504 0.24 2.485 0.74 2.943 0.49 0.458 1.62 0.742 3.38 0.852v0.825h-12.98v-0.825c1.73-0.146 2.86-0.476 3.41-0.99 0.55-0.513 0.83-1.503 0.83-2.97v-26.235c0-1.283-0.17-2.163-0.5-2.64-0.33-0.476-0.93-0.715-1.81-0.715-0.74 0-1.41 0.037-2.04 0.11m22.77 34.375s-0.15 0.037-0.44 0.11c-0.33 0.074-0.68 0.11-1.05 0.11-0.99 0-1.77-0.247-2.36-0.742s-0.88-1.183-0.88-2.063c0-0.916 0.3-1.668 0.91-2.255 0.6-0.586 1.38-0.88 2.33-0.88 1.25 0 2.3 0.468 3.14 1.403s1.26 2.099 1.26 3.492c0 1.65-0.56 3.245-1.7 4.785s-2.62 2.769-4.46 3.685l-0.49-1.045c3.01-2.053 4.51-3.996 4.51-5.83 0-0.513-0.26-0.77-0.77-0.77m-1.65-25.355c0.84 0 1.57 0.312 2.17 0.935 0.61 0.624 0.91 1.357 0.91 2.2 0 0.807-0.31 1.504-0.94 2.09-0.62 0.587-1.35 0.88-2.2 0.88-0.8 0-1.5-0.293-2.09-0.88-0.58-0.586-0.88-1.283-0.88-2.09 0-0.843 0.31-1.576 0.91-2.2 0.61-0.623 1.31-0.935 2.12-0.935"/>
  <path d="m1258.5 814.28c1.58 0 3.08 0.129 4.51 0.385 1.43 0.257 2.91 0.706 4.43 1.348s2.74 1.641 3.66 2.997c0.91 1.357 1.37 3.007 1.37 4.95 0 4.877-3.22 7.92-9.68 9.13-0.11 0.037-0.2 0.055-0.27 0.055l11.33 13.915c0.77 0.917 1.49 1.559 2.17 1.925 0.68 0.367 1.55 0.587 2.61 0.66v1.045h-8.85l-13.09-16.94-3.08 0.11v10.835c0 1.98 0.29 3.264 0.88 3.85 0.58 0.587 1.94 0.954 4.07 1.1v1.045h-15.24v-1.045c2.06-0.146 3.35-0.54 3.88-1.182s0.8-2.099 0.8-4.373v-23.815c0-1.943-0.27-3.199-0.8-3.767s-1.82-0.963-3.88-1.183v-1.045h15.18m-4.89 17.545c4.43-0.073 7.69-0.66 9.76-1.76s3.11-3.171 3.11-6.215c0-2.566-0.82-4.464-2.45-5.692s-4.17-1.843-7.62-1.843c-1.1 0-1.84 0.138-2.23 0.413-0.38 0.275-0.57 0.797-0.57 1.567v13.53m39.09-6.435c3.52 0 6.42 1.174 8.69 3.52 2.27 2.347 3.41 5.317 3.41 8.91 0 3.814-1.17 7.004-3.52 9.57-2.35 2.567-5.24 3.85-8.69 3.85s-6.32-1.237-8.61-3.712-3.44-5.564-3.44-9.268c0-3.776 1.13-6.865 3.39-9.267 2.25-2.402 5.18-3.603 8.77-3.603m-7.21 10.175c0 3.924 0.72 7.26 2.15 10.01s3.3 4.125 5.61 4.125c2.05 0 3.67-0.88 4.84-2.64s1.76-4.198 1.76-7.315c0-3.776-0.73-6.856-2.2-9.24-1.47-2.383-3.36-3.575-5.67-3.575-1.94 0-3.51 0.789-4.7 2.365-1.19 1.577-1.79 3.667-1.79 6.27"/>
  <path d="m1427.2 826.49c0.04 0 0.33-0.183 0.88-0.55h0.6l0.22 7.48h-0.82c-0.62-2.456-1.39-4.198-2.31-5.225-0.92-1.026-2.16-1.54-3.74-1.54-1.25 0-2.26 0.349-3.05 1.045-0.79 0.697-1.19 1.595-1.19 2.695 0 1.577 0.79 2.824 2.37 3.74l5.94 3.52c1.65 0.99 2.83 1.99 3.55 2.998 0.71 1.008 1.07 2.191 1.07 3.547 0 1.907-0.76 3.557-2.28 4.95-1.52 1.394-3.35 2.09-5.48 2.09-0.91 0-2.14-0.165-3.68-0.495s-2.49-0.495-2.86-0.495c-0.55 0-0.97 0.22-1.27 0.66h-0.71v-8.58h0.88c0.59 2.567 1.28 4.382 2.09 5.445 1.17 1.504 2.8 2.255 4.89 2.255 1.4 0 2.51-0.357 3.33-1.072 0.83-0.715 1.24-1.678 1.24-2.888 0-1.65-0.95-3.025-2.86-4.125l-3.19-1.815c-2.35-1.32-4.01-2.585-4.98-3.795s-1.46-2.585-1.46-4.125c0-1.98 0.71-3.602 2.12-4.867s3.2-1.898 5.36-1.898c1.21 0 2.35 0.175 3.41 0.523 1.07 0.348 1.71 0.522 1.93 0.522m13.24 31.57c1.03 0 2.11-1.136 3.25-3.41 1.13-2.273 1.7-3.941 1.7-5.005 0-0.476-0.81-2.328-2.42-5.555l-7.26-15.62c-0.44-0.953-1.37-1.54-2.8-1.76v-0.77h11.33v0.825c-1.18 0.037-2 0.165-2.48 0.385s-0.71 0.587-0.71 1.1c0 0.55 0.18 1.247 0.55 2.09l6.32 13.915 5.34-15.18c0.14-0.33 0.22-0.641 0.22-0.935 0-0.916-0.88-1.375-2.64-1.375v-0.825h7.42v0.825c-0.66 0.074-1.18 0.285-1.57 0.633-0.38 0.348-0.74 0.962-1.07 1.842l-8.47 22.44c-1.47 3.96-2.92 6.784-4.37 8.47-1.45 1.687-3.09 2.53-4.92 2.53-1.18 0-2.15-0.302-2.92-0.907s-1.15-1.366-1.15-2.283c0-0.66 0.23-1.228 0.71-1.705 0.48-0.476 1.03-0.715 1.65-0.715 0.81 0 1.67 0.165 2.59 0.495 0.91 0.33 1.48 0.495 1.7 0.495"/>
  <path d="m1545.8 813.24v16.83c0.55-1.356 1.54-2.475 2.97-3.355s2.99-1.32 4.67-1.32c2.75 0 5.05 1.146 6.9 3.438 1.86 2.292 2.78 5.124 2.78 8.497 0 3.924-1.24 7.224-3.71 9.9-2.48 2.677-5.53 4.015-9.16 4.015-2.2 0-4.26-0.375-6.19-1.127-1.92-0.752-2.88-1.549-2.88-2.393v-28.545c0-1.136-0.18-1.888-0.53-2.255-0.34-0.366-1.07-0.55-2.17-0.55-0.4 0-0.71 0.019-0.93 0.055v-0.88c2.82-0.696 5.48-1.503 7.97-2.42l0.28 0.11m0 19.745v13.86c0 0.697 0.53 1.311 1.59 1.843 1.07 0.532 2.31 0.797 3.74 0.797 2.28 0 4.04-0.843 5.28-2.53 1.25-1.686 1.87-4.051 1.87-7.095 0-3.336-0.63-6.004-1.9-8.002-1.26-1.998-2.97-2.998-5.14-2.998-1.43 0-2.69 0.422-3.79 1.265-1.1 0.844-1.65 1.797-1.65 2.86m35.25-2.2c-0.55 0-1.23-0.32-2.03-0.962-0.81-0.642-1.34-0.963-1.6-0.963-0.73 0-1.56 0.532-2.47 1.595-0.92 1.064-1.38 2.035-1.38 2.915v12.375c0 1.577 0.31 2.64 0.94 3.19 0.62 0.55 1.87 0.862 3.74 0.935v0.825h-13.2v-0.825c1.76-0.33 2.85-0.696 3.27-1.1 0.42-0.403 0.63-1.301 0.63-2.695v-13.75c0-1.21-0.14-2.062-0.41-2.557-0.28-0.495-0.76-0.743-1.46-0.743-0.58 0-1.23 0.074-1.92 0.22v-0.88c2.93-0.953 5.64-1.943 8.14-2.97l0.27 0.11v5.06c1.36-1.943 2.51-3.29 3.47-4.042 0.95-0.752 2-1.128 3.13-1.128 0.96 0 1.7 0.257 2.23 0.77 0.53 0.514 0.8 1.229 0.8 2.145 0 0.77-0.2 1.375-0.58 1.815-0.39 0.44-0.91 0.66-1.57 0.66m7.75 4.675c0.07 2.31 0.39 4.3 0.94 5.968s1.26 2.915 2.14 3.74 1.77 1.412 2.67 1.76 1.84 0.522 2.83 0.522c1.76 0 3.29-0.44 4.59-1.32 1.31-0.88 2.62-2.365 3.94-4.455l0.88 0.385c-1.14 2.97-2.72 5.244-4.73 6.82-2.02 1.577-4.33 2.365-6.93 2.365-3.16 0-5.66-1.109-7.51-3.327s-2.78-5.216-2.78-8.993c0-4.07 1.07-7.342 3.22-9.817 2.14-2.475 4.9-3.713 8.28-3.713 2.78 0 4.95 0.835 6.49 2.503s2.51 4.189 2.91 7.562h-16.94m0.11-1.76h11.22c-0.37-2.383-0.93-4.033-1.7-4.95-0.77-0.916-2-1.375-3.69-1.375-3.3 0-5.24 2.109-5.83 6.325m20.34 11.66c0-0.66 0.07-1.274 0.22-1.842 0.14-0.568 0.4-1.1 0.77-1.595 0.36-0.495 0.71-0.944 1.04-1.348 0.33-0.403 0.83-0.815 1.49-1.237s1.21-0.77 1.65-1.045 1.11-0.605 2-0.99c0.9-0.385 1.59-0.678 2.07-0.88 0.47-0.202 1.23-0.504 2.25-0.908 1.03-0.403 1.78-0.696 2.26-0.88v-3.355c0-3.043-1.4-4.565-4.18-4.565-1.1 0-2.04 0.266-2.81 0.798s-1.15 1.164-1.15 1.897c0 0.294 0.04 0.697 0.13 1.21 0.1 0.514 0.14 0.844 0.14 0.99 0 0.624-0.25 1.165-0.74 1.623-0.5 0.458-1.07 0.687-1.73 0.687-0.63 0-1.18-0.238-1.65-0.715-0.48-0.476-0.72-1.026-0.72-1.65 0-1.723 0.89-3.18 2.67-4.372s3.97-1.788 6.57-1.788c3.01 0 5.08 0.725 6.22 2.173 1.13 1.448 1.7 3.657 1.7 6.627v10.725c0 1.21 0.12 2.045 0.36 2.503s0.67 0.687 1.29 0.687c0.77 0 1.58-0.348 2.42-1.045v1.43c-0.95 1.064-1.79 1.788-2.5 2.173-0.72 0.385-1.53 0.577-2.45 0.577-1.13 0-1.97-0.311-2.5-0.935-0.53-0.623-0.87-1.65-1.02-3.08-3.15 2.677-5.83 4.015-8.03 4.015-1.68 0-3.07-0.55-4.15-1.65s-1.62-2.511-1.62-4.235m13.75-1.43v-7.975c-3.3 1.21-5.61 2.384-6.93 3.52-1.32 1.137-1.98 2.512-1.98 4.125 0 1.504 0.36 2.622 1.1 3.355 0.73 0.734 1.52 1.1 2.36 1.1 1.25 0 2.59-0.421 4.02-1.265 0.58-0.33 0.97-0.678 1.15-1.045 0.19-0.366 0.28-0.971 0.28-1.815m9.34-27.5v-0.88c3.12-0.77 5.96-1.576 8.53-2.42l0.22 0.11v23.1l7.53-6.71c0.85-0.733 1.27-1.356 1.27-1.87 0-0.366-0.19-0.623-0.58-0.77-0.38-0.146-1.11-0.238-2.17-0.275v-0.77h11.22v0.825c-0.84 0-1.51 0.046-2.01 0.138-0.49 0.092-1.2 0.339-2.12 0.742-0.91 0.404-1.99 1.1-3.21 2.09-1.23 0.99-2.74 2.31-4.54 3.96l-1.6 1.485 8.42 10.67c1.14 1.394 2.19 2.393 3.16 2.998s2.06 0.944 3.27 1.017v0.825h-11.99v-0.825c1.47 0 2.2-0.275 2.2-0.825 0-0.146-0.05-0.32-0.16-0.522s-0.29-0.44-0.52-0.715c-0.24-0.275-0.4-0.486-0.47-0.633l-7.7-10.285v9.405c0 1.32 0.21 2.164 0.63 2.53 0.42 0.367 1.59 0.715 3.49 1.045v0.825h-12.87v-0.825c1.98-0.33 3.17-0.669 3.55-1.017 0.39-0.348 0.58-1.238 0.58-2.668v-26.51c0-1.32-0.17-2.209-0.5-2.667s-0.95-0.688-1.87-0.688c-0.51 0-1.1 0.037-1.76 0.11"/>
  <path d="m1727 828.8v-0.935c2.64-0.733 5.2-1.558 7.7-2.475l0.38 0.11v4.125c2.27-1.723 3.96-2.86 5.06-3.41s2.26-0.825 3.47-0.825c2.89 0 4.84 1.54 5.83 4.62 2.86-3.08 5.84-4.62 8.96-4.62 4.25 0 6.38 3.264 6.38 9.79v11.33c0 2.054 0.79 3.135 2.37 3.245l1.43 0.11v0.825h-12.05v-0.825c1.61-0.183 2.62-0.495 3.03-0.935 0.4-0.44 0.6-1.448 0.6-3.025v-11.605c0-2.273-0.29-3.85-0.88-4.73s-1.67-1.32-3.24-1.32c-2.42 0-4.42 1.119-6 3.355v13.86c0 1.724 0.27 2.879 0.8 3.465 0.53 0.587 1.58 0.899 3.16 0.935v0.825h-12.32v-0.825c1.58-0.11 2.6-0.403 3.05-0.88 0.46-0.476 0.69-1.485 0.69-3.025v-11.935c0-3.85-1.21-5.775-3.63-5.775-1.03 0-2.17 0.257-3.44 0.77-1.26 0.514-2.28 1.339-3.05 2.475v15.51c0 1.064 0.26 1.788 0.77 2.173s1.5 0.614 2.97 0.687v0.825h-12.21v-0.825c1.54-0.036 2.57-0.311 3.08-0.825 0.51-0.513 0.77-1.521 0.77-3.025v-13.915c0-1.32-0.14-2.236-0.41-2.75-0.28-0.513-0.78-0.77-1.51-0.77-0.55 0-1.14 0.074-1.76 0.22m49.94 29.26c1.02 0 2.1-1.136 3.24-3.41 1.14-2.273 1.71-3.941 1.71-5.005 0-0.476-0.81-2.328-2.42-5.555l-7.26-15.62c-0.44-0.953-1.38-1.54-2.81-1.76v-0.77h11.33v0.825c-1.17 0.037-2 0.165-2.47 0.385-0.48 0.22-0.72 0.587-0.72 1.1 0 0.55 0.18 1.247 0.55 2.09l6.33 13.915 5.33-15.18c0.15-0.33 0.22-0.641 0.22-0.935 0-0.916-0.88-1.375-2.64-1.375v-0.825h7.43v0.825c-0.66 0.074-1.19 0.285-1.57 0.633-0.39 0.348-0.74 0.962-1.07 1.842l-8.47 22.44c-1.47 3.96-2.93 6.784-4.38 8.47-1.45 1.687-3.09 2.53-4.92 2.53-1.17 0-2.14-0.302-2.91-0.907s-1.16-1.366-1.16-2.283c0-0.66 0.24-1.228 0.72-1.705 0.47-0.476 1.02-0.715 1.65-0.715 0.8 0 1.66 0.165 2.58 0.495s1.49 0.495 1.71 0.495"/>
  <path d="m1935.9 829.08v-0.88c2.31-0.696 4.95-1.631 7.92-2.805l0.33 0.11v4.235c2.34-2.896 4.98-4.345 7.92-4.345 2.67 0 4.87 1.1 6.6 3.3 1.72 2.2 2.58 5.005 2.58 8.415 0 3.997-1.11 7.352-3.33 10.065-2.22 2.714-4.96 4.07-8.22 4.07-1.17 0-2.15-0.165-2.94-0.495s-1.66-0.953-2.61-1.87v8.635c0 1.724 0.29 2.833 0.88 3.328 0.58 0.495 1.9 0.761 3.96 0.797v0.99h-13.31v-0.935c1.61-0.146 2.65-0.458 3.13-0.935 0.48-0.476 0.72-1.43 0.72-2.86v-25.74c0-1.283-0.15-2.126-0.44-2.53-0.3-0.403-0.9-0.605-1.82-0.605-0.59 0-1.04 0.019-1.37 0.055m8.25 3.245v13.53c0 0.807 0.63 1.614 1.89 2.42 1.27 0.807 2.54 1.21 3.83 1.21 1.98 0 3.58-0.944 4.81-2.832s1.84-4.354 1.84-7.398c0-3.19-0.61-5.747-1.84-7.672s-2.87-2.888-4.92-2.888c-1.29 0-2.54 0.404-3.77 1.21-1.23 0.807-1.84 1.614-1.84 2.42m32.01-6.93c3.52 0 6.41 1.174 8.69 3.52 2.27 2.347 3.41 5.317 3.41 8.91 0 3.814-1.18 7.004-3.52 9.57-2.35 2.567-5.25 3.85-8.69 3.85-3.45 0-6.32-1.237-8.61-3.712s-3.44-5.564-3.44-9.268c0-3.776 1.13-6.865 3.38-9.267 2.26-2.402 5.18-3.603 8.78-3.603m-7.21 10.175c0 3.924 0.72 7.26 2.15 10.01s3.3 4.125 5.61 4.125c2.05 0 3.66-0.88 4.84-2.64 1.17-1.76 1.76-4.198 1.76-7.315 0-3.776-0.74-6.856-2.2-9.24-1.47-2.383-3.36-3.575-5.67-3.575-1.94 0-3.51 0.789-4.7 2.365-1.19 1.577-1.79 3.667-1.79 6.27m34.21-10.175c3.52 0 6.41 1.174 8.69 3.52 2.27 2.347 3.41 5.317 3.41 8.91 0 3.814-1.18 7.004-3.52 9.57-2.35 2.567-5.25 3.85-8.69 3.85-3.45 0-6.32-1.237-8.61-3.712s-3.44-5.564-3.44-9.268c0-3.776 1.13-6.865 3.38-9.267 2.26-2.402 5.18-3.603 8.78-3.603m-7.21 10.175c0 3.924 0.72 7.26 2.15 10.01s3.3 4.125 5.61 4.125c2.05 0 3.66-0.88 4.84-2.64 1.17-1.76 1.76-4.198 1.76-7.315 0-3.776-0.74-6.856-2.2-9.24-1.47-2.383-3.36-3.575-5.67-3.575-1.94 0-3.51 0.789-4.7 2.365-1.19 1.577-1.79 3.667-1.79 6.27m37.23-4.785c-0.55 0-1.23-0.32-2.03-0.962-0.81-0.642-1.34-0.963-1.6-0.963-0.73 0-1.56 0.532-2.47 1.595-0.92 1.064-1.38 2.035-1.38 2.915v12.375c0 1.577 0.31 2.64 0.94 3.19 0.62 0.55 1.87 0.862 3.74 0.935v0.825h-13.2v-0.825c1.76-0.33 2.85-0.696 3.27-1.1 0.42-0.403 0.63-1.301 0.63-2.695v-13.75c0-1.21-0.14-2.062-0.41-2.557-0.28-0.495-0.76-0.743-1.46-0.743-0.59 0-1.23 0.074-1.92 0.22v-0.88c2.93-0.953 5.64-1.943 8.14-2.97l0.27 0.11v5.06c1.36-1.943 2.51-3.29 3.47-4.042 0.95-0.752 1.99-1.128 3.13-1.128 0.95 0 1.7 0.257 2.23 0.77 0.53 0.514 0.8 1.229 0.8 2.145 0 0.77-0.2 1.375-0.58 1.815-0.39 0.44-0.91 0.66-1.57 0.66"/>
  <path d="m2195.6 831.83v13.255c0 1.907 0.22 3.135 0.66 3.685s1.47 0.917 3.08 1.1v0.825h-11.88v-0.825c1.58-0.22 2.56-0.586 2.94-1.1 0.39-0.513 0.58-1.741 0.58-3.685v-25.905c0-1.173-0.16-1.943-0.47-2.31-0.31-0.366-1-0.55-2.06-0.55-0.26 0-0.57 0.037-0.94 0.11v-0.88c2.61-0.696 5.21-1.503 7.81-2.42l0.28 0.165v16.72c1.25-1.65 2.5-2.832 3.77-3.547 1.26-0.715 2.7-1.073 4.31-1.073 4.51 0 6.77 2.915 6.77 8.745v10.945c0 1.907 0.17 3.108 0.52 3.603s1.28 0.889 2.78 1.182v0.825h-11.66v-0.825c1.58-0.146 2.59-0.513 3.05-1.1 0.46-0.586 0.69-1.815 0.69-3.685v-10.89c0-3.886-1.38-5.83-4.13-5.83-1.06 0-2.06 0.266-2.99 0.798-0.94 0.532-1.97 1.421-3.11 2.667m24.02 3.63c0.07 2.31 0.38 4.3 0.93 5.968s1.27 2.915 2.15 3.74 1.77 1.412 2.67 1.76 1.84 0.522 2.83 0.522c1.76 0 3.29-0.44 4.59-1.32s2.61-2.365 3.93-4.455l0.88 0.385c-1.13 2.97-2.71 5.244-4.73 6.82-2.01 1.577-4.32 2.365-6.93 2.365-3.15 0-5.65-1.109-7.5-3.327s-2.78-5.216-2.78-8.993c0-4.07 1.07-7.342 3.22-9.817 2.14-2.475 4.9-3.713 8.27-3.713 2.79 0 4.95 0.835 6.49 2.503s2.52 4.189 2.92 7.562h-16.94m0.11-1.76h11.22c-0.37-2.383-0.94-4.033-1.71-4.95-0.77-0.916-1.99-1.375-3.68-1.375-3.3 0-5.24 2.109-5.83 6.325m20.34 11.66c0-0.66 0.07-1.274 0.22-1.842 0.14-0.568 0.4-1.1 0.77-1.595 0.36-0.495 0.71-0.944 1.04-1.348 0.33-0.403 0.83-0.815 1.49-1.237s1.21-0.77 1.65-1.045 1.1-0.605 2-0.99 1.59-0.678 2.07-0.88c0.47-0.202 1.22-0.504 2.25-0.908 1.03-0.403 1.78-0.696 2.26-0.88v-3.355c0-3.043-1.4-4.565-4.18-4.565-1.1 0-2.04 0.266-2.81 0.798s-1.15 1.164-1.15 1.897c0 0.294 0.04 0.697 0.13 1.21 0.09 0.514 0.14 0.844 0.14 0.99 0 0.624-0.25 1.165-0.74 1.623-0.5 0.458-1.07 0.687-1.73 0.687-0.63 0-1.18-0.238-1.65-0.715-0.48-0.476-0.72-1.026-0.72-1.65 0-1.723 0.89-3.18 2.67-4.372s3.97-1.788 6.57-1.788c3.01 0 5.08 0.725 6.22 2.173 1.13 1.448 1.7 3.657 1.7 6.627v10.725c0 1.21 0.12 2.045 0.36 2.503s0.67 0.687 1.29 0.687c0.77 0 1.58-0.348 2.42-1.045v1.43c-0.95 1.064-1.79 1.788-2.5 2.173-0.72 0.385-1.53 0.577-2.45 0.577-1.14 0-1.97-0.311-2.5-0.935-0.53-0.623-0.87-1.65-1.02-3.08-3.15 2.677-5.83 4.015-8.03 4.015-1.69 0-3.07-0.55-4.15-1.65s-1.62-2.511-1.62-4.235m13.75-1.43v-7.975c-3.3 1.21-5.61 2.384-6.93 3.52-1.32 1.137-1.98 2.512-1.98 4.125 0 1.504 0.36 2.622 1.1 3.355 0.73 0.734 1.52 1.1 2.36 1.1 1.25 0 2.59-0.421 4.02-1.265 0.58-0.33 0.97-0.678 1.15-1.045 0.18-0.366 0.28-0.971 0.28-1.815m25.35-13.145c-0.55 0-1.23-0.32-2.04-0.962-0.8-0.642-1.34-0.963-1.59-0.963-0.74 0-1.56 0.532-2.48 1.595-0.91 1.064-1.37 2.035-1.37 2.915v12.375c0 1.577 0.31 2.64 0.93 3.19 0.63 0.55 1.87 0.862 3.74 0.935v0.825h-13.2v-0.825c1.76-0.33 2.85-0.696 3.28-1.1 0.42-0.403 0.63-1.301 0.63-2.695v-13.75c0-1.21-0.14-2.062-0.41-2.557-0.28-0.495-0.77-0.743-1.46-0.743-0.59 0-1.23 0.074-1.93 0.22v-0.88c2.94-0.953 5.65-1.943 8.14-2.97l0.28 0.11v5.06c1.35-1.943 2.51-3.29 3.46-4.042 0.96-0.752 2-1.128 3.14-1.128 0.95 0 1.69 0.257 2.23 0.77 0.53 0.514 0.79 1.229 0.79 2.145 0 0.77-0.19 1.375-0.57 1.815-0.39 0.44-0.91 0.66-1.57 0.66m16.66-4.84v1.76h-5.56v15.73c0 1.724 0.22 2.98 0.66 3.768s1.17 1.182 2.2 1.182c1.14 0 2.24-0.641 3.3-1.925l0.72 0.605c-1.76 2.787-3.96 4.18-6.6 4.18-3.27 0-4.9-2.328-4.9-6.985v-16.555h-2.91c-0.15-0.11-0.22-0.238-0.22-0.385 0-0.183 0.05-0.33 0.16-0.44s0.32-0.265 0.63-0.467c0.32-0.202 0.69-0.477 1.13-0.825s1.05-0.981 1.82-1.898c0.77-0.916 1.61-2.016 2.53-3.3 0.58-0.843 0.95-1.356 1.1-1.54 0.25 0 0.38 0.239 0.38 0.715v6.38h5.56m9.12 24.86s-0.14 0.037-0.44 0.11c-0.33 0.074-0.67 0.11-1.04 0.11-0.99 0-1.78-0.247-2.37-0.742-0.58-0.495-0.88-1.183-0.88-2.063 0-0.916 0.31-1.668 0.91-2.255 0.61-0.586 1.39-0.88 2.34-0.88 1.25 0 2.29 0.468 3.13 1.403 0.85 0.935 1.27 2.099 1.27 3.492 0 1.65-0.57 3.245-1.71 4.785-1.13 1.54-2.62 2.769-4.45 3.685l-0.5-1.045c3.01-2.053 4.51-3.996 4.51-5.83 0-0.513-0.25-0.77-0.77-0.77"/>
  <path d="m709.99 1156h16.665v-10.67c0-1.98-0.275-3.25-0.825-3.82s-1.888-0.94-4.015-1.13v-1.04h15.29v1.04c-2.127 0.19-3.465 0.56-4.015 1.13s-0.825 1.84-0.825 3.82v24.42c0 1.95 0.293 3.21 0.88 3.8 0.587 0.58 1.907 0.97 3.96 1.15v1.05h-15.29v-1.05c2.127-0.14 3.465-0.53 4.015-1.15 0.55-0.63 0.825-2.09 0.825-4.4v-10.73h-16.665v11.33c0 1.95 0.293 3.21 0.88 3.8 0.587 0.58 1.907 0.97 3.96 1.15v1.05h-15.29v-1.05c2.127-0.14 3.465-0.53 4.015-1.15 0.55-0.63 0.825-2.09 0.825-4.4v-23.82c0-1.98-0.275-3.25-0.825-3.82s-1.888-0.94-4.015-1.13v-1.04h15.29v1.04c-2.127 0.19-3.465 0.56-4.015 1.13s-0.825 1.84-0.825 3.82v10.67m33.325 4.51c0.074 2.31 0.385 4.3 0.935 5.97s1.265 2.92 2.145 3.74c0.88 0.83 1.77 1.41 2.668 1.76s1.842 0.52 2.832 0.52c1.76 0 3.291-0.44 4.593-1.32s2.612-2.36 3.932-4.45l0.88 0.38c-1.136 2.97-2.713 5.25-4.73 6.82-2.016 1.58-4.326 2.37-6.93 2.37-3.153 0-5.655-1.11-7.507-3.33s-2.778-5.22-2.778-8.99c0-4.07 1.073-7.34 3.218-9.82 2.145-2.47 4.904-3.71 8.277-3.71 2.787 0 4.95 0.83 6.49 2.5s2.512 4.19 2.915 7.56h-16.94m0.11-1.76h11.22c-0.366-2.38-0.935-4.03-1.705-4.95-0.77-0.91-1.998-1.37-3.685-1.37-3.3 0-5.243 2.11-5.83 6.32m20.337 11.66c0-0.66 0.073-1.27 0.22-1.84 0.146-0.57 0.403-1.1 0.77-1.59 0.366-0.5 0.715-0.95 1.045-1.35 0.33-0.41 0.825-0.82 1.485-1.24s1.21-0.77 1.65-1.04c0.44-0.28 1.109-0.61 2.007-0.99 0.899-0.39 1.586-0.68 2.063-0.88 0.476-0.21 1.228-0.51 2.255-0.91 1.026-0.41 1.778-0.7 2.255-0.88v-3.36c0-3.04-1.394-4.56-4.18-4.56-1.1 0-2.035 0.26-2.805 0.8-0.77 0.53-1.155 1.16-1.155 1.89 0 0.3 0.046 0.7 0.137 1.21 0.092 0.52 0.138 0.85 0.138 0.99 0 0.63-0.248 1.17-0.743 1.63-0.495 0.45-1.072 0.68-1.732 0.68-0.624 0-1.174-0.24-1.65-0.71-0.477-0.48-0.715-1.03-0.715-1.65 0-1.73 0.889-3.18 2.667-4.37 1.779-1.2 3.969-1.79 6.573-1.79 3.006 0 5.078 0.72 6.215 2.17 1.136 1.45 1.705 3.66 1.705 6.63v10.72c0 1.21 0.119 2.05 0.357 2.51 0.239 0.45 0.669 0.68 1.293 0.68 0.77 0 1.576-0.35 2.42-1.04v1.43c-0.954 1.06-1.788 1.79-2.503 2.17-0.715 0.39-1.531 0.58-2.447 0.58-1.137 0-1.971-0.31-2.503-0.94-0.531-0.62-0.871-1.65-1.017-3.08-3.154 2.68-5.83 4.02-8.03 4.02-1.687 0-3.071-0.55-4.153-1.65-1.081-1.1-1.622-2.51-1.622-4.24m13.75-1.43v-7.97c-3.3 1.21-5.61 2.38-6.93 3.52-1.32 1.13-1.98 2.51-1.98 4.12 0 1.51 0.366 2.62 1.1 3.36 0.733 0.73 1.521 1.1 2.365 1.1 1.246 0 2.585-0.42 4.015-1.27 0.586-0.33 0.971-0.68 1.155-1.04 0.183-0.37 0.275-0.97 0.275-1.82m34.262-17.98v0.82c-0.844 0.08-1.467 0.35-1.87 0.83-0.404 0.47-0.972 1.63-1.705 3.46l-7.04 17.66c-0.734 1.83-1.247 2.75-1.54 2.75-0.404 0-0.88-0.86-1.43-2.59l-6.6-15.78c-1.174-2.83-2.035-4.57-2.585-5.23s-1.357-1.02-2.42-1.1v-0.82h10.78v0.82c-0.954 0.08-1.614 0.22-1.98 0.44-0.367 0.22-0.55 0.59-0.55 1.1 0 0.59 0.165 1.27 0.495 2.04l5.61 14.08 5.445-14.25c0.22-0.55 0.33-1.1 0.33-1.65 0-1.02-0.862-1.61-2.585-1.76v-0.82h7.645m6.649-6.71s-0.147 0.03-0.44 0.11c-0.33 0.07-0.678 0.11-1.045 0.11-0.99 0-1.778-0.26-2.365-0.77-0.587-0.52-0.88-1.19-0.88-2.04 0-0.91 0.302-1.67 0.907-2.25 0.605-0.59 1.385-0.88 2.338-0.88 1.247 0 2.292 0.47 3.135 1.4 0.843 0.94 1.265 2.1 1.265 3.49 0 1.65-0.568 3.25-1.705 4.79s-2.622 2.77-4.455 3.68l-0.495-1.04c3.007-2.06 4.51-4 4.51-5.83 0-0.52-0.257-0.77-0.77-0.77m5.17 9.57v-0.94c2.713-0.8 5.243-1.63 7.59-2.47l0.385 0.11v4.34c1.87-1.76 3.346-2.94 4.427-3.54 1.082-0.61 2.265-0.91 3.548-0.91 2.017 0 3.602 0.72 4.757 2.17s1.733 3.47 1.733 6.08v12.59c0 1.36 0.22 2.27 0.66 2.73 0.44 0.45 1.338 0.76 2.695 0.9v0.83h-11.44v-0.83c1.393-0.11 2.319-0.47 2.777-1.1 0.459-0.62 0.688-1.79 0.688-3.52v-11.49c0-3.56-1.338-5.34-4.015-5.34-0.917 0-1.76 0.21-2.53 0.64-0.77 0.42-1.815 1.25-3.135 2.5v15.45c0 0.99 0.257 1.69 0.77 2.09 0.513 0.41 1.467 0.66 2.86 0.77v0.83h-11.66v-0.83c1.393-0.11 2.31-0.43 2.75-0.96s0.66-1.59 0.66-3.16v-13.64c0-1.36-0.147-2.28-0.44-2.78-0.293-0.49-0.825-0.74-1.595-0.74-0.697 0-1.192 0.07-1.485 0.22"/>
  <path d="m971.25 1151.5c0.037 0 0.33-0.19 0.88-0.55h0.605l0.22 7.48h-0.825c-0.623-2.46-1.393-4.2-2.31-5.23-0.917-1.02-2.163-1.54-3.74-1.54-1.247 0-2.264 0.35-3.052 1.05-0.789 0.69-1.183 1.59-1.183 2.69 0 1.58 0.788 2.83 2.365 3.74l5.94 3.52c1.65 0.99 2.833 1.99 3.548 3s1.072 2.19 1.072 3.55c0 1.9-0.761 3.55-2.282 4.95-1.522 1.39-3.346 2.09-5.473 2.09-0.917 0-2.145-0.17-3.685-0.5s-2.493-0.49-2.86-0.49c-0.55 0-0.972 0.22-1.265 0.66h-0.715v-8.58h0.88c0.587 2.56 1.283 4.38 2.09 5.44 1.173 1.51 2.805 2.26 4.895 2.26 1.393 0 2.503-0.36 3.328-1.07 0.825-0.72 1.237-1.68 1.237-2.89 0-1.65-0.953-3.03-2.86-4.13l-3.19-1.81c-2.347-1.32-4.006-2.59-4.977-3.8-0.972-1.21-1.458-2.58-1.458-4.12 0-1.98 0.706-3.6 2.118-4.87 1.411-1.26 3.199-1.9 5.362-1.9 1.21 0 2.347 0.18 3.41 0.53 1.063 0.34 1.705 0.52 1.925 0.52m14.122 5.33v13.26c0 1.9 0.22 3.13 0.66 3.68s1.467 0.92 3.08 1.1v0.83h-11.88v-0.83c1.577-0.22 2.557-0.58 2.942-1.1 0.385-0.51 0.578-1.74 0.578-3.68v-25.91c0-1.17-0.156-1.94-0.468-2.31-0.311-0.36-0.999-0.55-2.062-0.55-0.257 0-0.568 0.04-0.935 0.11v-0.88c2.603-0.69 5.207-1.5 7.81-2.42l0.275 0.17v16.72c1.247-1.65 2.502-2.83 3.767-3.55 1.265-0.71 2.705-1.07 4.314-1.07 4.51 0 6.77 2.91 6.77 8.74v10.95c0 1.9 0.17 3.11 0.52 3.6 0.35 0.5 1.28 0.89 2.78 1.18v0.83h-11.661v-0.83c1.581-0.14 2.591-0.51 3.051-1.1 0.46-0.58 0.69-1.81 0.69-3.68v-10.89c0-3.89-1.38-5.83-4.126-5.83-1.063 0-2.063 0.26-2.998 0.8-0.935 0.53-1.97 1.42-3.107 2.66m20.061 13.53c0-0.66 0.07-1.27 0.22-1.84s0.4-1.1 0.77-1.59c0.37-0.5 0.71-0.95 1.04-1.35 0.33-0.41 0.83-0.82 1.49-1.24s1.21-0.77 1.65-1.04c0.44-0.28 1.11-0.61 2.01-0.99 0.89-0.39 1.58-0.68 2.06-0.88 0.48-0.21 1.23-0.51 2.25-0.91 1.03-0.41 1.78-0.7 2.26-0.88v-3.36c0-3.04-1.39-4.56-4.18-4.56-1.1 0-2.04 0.26-2.81 0.8-0.77 0.53-1.15 1.16-1.15 1.89 0 0.3 0.04 0.7 0.14 1.21 0.09 0.52 0.13 0.85 0.13 0.99 0 0.63-0.24 1.17-0.74 1.63-0.49 0.45-1.07 0.68-1.73 0.68-0.62 0-1.17-0.24-1.65-0.71-0.48-0.48-0.72-1.03-0.72-1.65 0-1.73 0.89-3.18 2.67-4.37 1.78-1.2 3.97-1.79 6.57-1.79 3.01 0 5.08 0.72 6.22 2.17s1.7 3.66 1.7 6.63v10.72c0 1.21 0.12 2.05 0.36 2.51 0.24 0.45 0.67 0.68 1.29 0.68 0.77 0 1.58-0.35 2.42-1.04v1.43c-0.95 1.06-1.78 1.79-2.5 2.17-0.71 0.39-1.53 0.58-2.45 0.58-1.13 0-1.97-0.31-2.5-0.94-0.53-0.62-0.87-1.65-1.02-3.08-3.15 2.68-5.83 4.02-8.03 4.02-1.68 0-3.07-0.55-4.15-1.65s-1.62-2.51-1.62-4.24m13.75-1.43v-7.97c-3.3 1.21-5.61 2.38-6.93 3.52-1.32 1.13-1.98 2.51-1.98 4.12 0 1.51 0.37 2.62 1.1 3.36 0.73 0.73 1.52 1.1 2.36 1.1 1.25 0 2.59-0.42 4.02-1.27 0.59-0.33 0.97-0.68 1.15-1.04 0.19-0.37 0.28-0.97 0.28-1.82m9.35-27.5v-0.88c3.63-0.88 6.54-1.68 8.74-2.42l0.22 0.11v32.84c0 1.5 0.25 2.48 0.74 2.94 0.5 0.46 1.63 0.74 3.39 0.85v0.83h-12.98v-0.83c1.72-0.14 2.86-0.47 3.41-0.99 0.55-0.51 0.82-1.5 0.82-2.97v-26.23c0-1.29-0.16-2.17-0.49-2.64-0.33-0.48-0.94-0.72-1.82-0.72-0.73 0-1.41 0.04-2.03 0.11m14.18 0v-0.88c3.63-0.88 6.55-1.68 8.75-2.42l0.22 0.11v32.84c0 1.5 0.25 2.48 0.74 2.94 0.5 0.46 1.62 0.74 3.38 0.85v0.83h-12.98v-0.83c1.73-0.14 2.86-0.47 3.41-0.99 0.55-0.51 0.83-1.5 0.83-2.97v-26.23c0-1.29-0.17-2.17-0.5-2.64-0.33-0.48-0.93-0.72-1.81-0.72-0.74 0-1.41 0.04-2.04 0.11"/>
  <path d="m1141.4 1170.4c0-0.66 0.08-1.27 0.22-1.84 0.15-0.57 0.41-1.1 0.77-1.59 0.37-0.5 0.72-0.95 1.05-1.35 0.33-0.41 0.82-0.82 1.48-1.24s1.21-0.77 1.65-1.04c0.44-0.28 1.11-0.61 2.01-0.99 0.9-0.39 1.59-0.68 2.06-0.88 0.48-0.21 1.23-0.51 2.26-0.91 1.03-0.41 1.78-0.7 2.25-0.88v-3.36c0-3.04-1.39-4.56-4.18-4.56-1.1 0-2.03 0.26-2.8 0.8-0.77 0.53-1.16 1.16-1.16 1.89 0 0.3 0.05 0.7 0.14 1.21 0.09 0.52 0.14 0.85 0.14 0.99 0 0.63-0.25 1.17-0.74 1.63-0.5 0.45-1.08 0.68-1.74 0.68-0.62 0-1.17-0.24-1.65-0.71-0.47-0.48-0.71-1.03-0.71-1.65 0-1.73 0.89-3.18 2.67-4.37 1.78-1.2 3.97-1.79 6.57-1.79 3.01 0 5.08 0.72 6.21 2.17 1.14 1.45 1.71 3.66 1.71 6.63v10.72c0 1.21 0.12 2.05 0.36 2.51 0.24 0.45 0.67 0.68 1.29 0.68 0.77 0 1.58-0.35 2.42-1.04v1.43c-0.95 1.06-1.79 1.79-2.5 2.17-0.72 0.39-1.53 0.58-2.45 0.58-1.14 0-1.97-0.31-2.5-0.94-0.53-0.62-0.87-1.65-1.02-3.08-3.15 2.68-5.83 4.02-8.03 4.02-1.69 0-3.07-0.55-4.15-1.65s-1.63-2.51-1.63-4.24m13.75-1.43v-7.97c-3.3 1.21-5.61 2.38-6.93 3.52-1.32 1.13-1.98 2.51-1.98 4.12 0 1.51 0.37 2.62 1.1 3.36 0.74 0.73 1.53 1.1 2.37 1.1 1.25 0 2.58-0.42 4.01-1.27 0.59-0.33 0.98-0.68 1.16-1.04 0.18-0.37 0.27-0.97 0.27-1.82"/>
  <path d="m1281.1 1138.3v16.83c0.55-1.35 1.54-2.47 2.97-3.35s2.99-1.32 4.67-1.32c2.75 0 5.05 1.14 6.9 3.44 1.86 2.29 2.78 5.12 2.78 8.49 0 3.93-1.24 7.23-3.71 9.9-2.48 2.68-5.53 4.02-9.16 4.02-2.2 0-4.26-0.38-6.19-1.13-1.92-0.75-2.88-1.55-2.88-2.39v-28.55c0-1.13-0.18-1.89-0.53-2.25-0.34-0.37-1.07-0.55-2.17-0.55-0.4 0-0.71 0.02-0.93 0.05v-0.88c2.82-0.69 5.48-1.5 7.97-2.42l0.28 0.11m0 19.75v13.86c0 0.69 0.53 1.31 1.59 1.84 1.07 0.53 2.31 0.8 3.74 0.8 2.28 0 4.04-0.85 5.28-2.53 1.25-1.69 1.87-4.05 1.87-7.1 0-3.33-0.63-6-1.9-8-1.26-2-2.97-3-5.14-3-1.43 0-2.69 0.42-3.79 1.27-1.1 0.84-1.65 1.79-1.65 2.86m24.03 2.47c0.08 2.31 0.39 4.3 0.94 5.97s1.26 2.92 2.14 3.74c0.88 0.83 1.77 1.41 2.67 1.76s1.84 0.52 2.83 0.52c1.76 0 3.29-0.44 4.59-1.32 1.31-0.88 2.62-2.36 3.94-4.45l0.88 0.38c-1.14 2.97-2.72 5.25-4.73 6.82-2.02 1.58-4.33 2.37-6.93 2.37-3.16 0-5.66-1.11-7.51-3.33s-2.78-5.22-2.78-8.99c0-4.07 1.07-7.34 3.22-9.82 2.14-2.47 4.9-3.71 8.28-3.71 2.78 0 4.95 0.83 6.49 2.5s2.51 4.19 2.91 7.56h-16.94m0.11-1.76h11.22c-0.36-2.38-0.93-4.03-1.7-4.95-0.77-0.91-2-1.37-3.69-1.37-3.3 0-5.24 2.11-5.83 6.32"/>
  <path d="m1496.8 1153.8v-0.94c2.64-0.73 5.21-1.56 7.7-2.47l0.38 0.11v4.12c2.28-1.72 3.96-2.86 5.06-3.41s2.26-0.82 3.47-0.82c2.9 0 4.84 1.54 5.83 4.62 2.86-3.08 5.85-4.62 8.96-4.62 4.26 0 6.38 3.26 6.38 9.79v11.33c0 2.05 0.79 3.13 2.37 3.24l1.43 0.11v0.83h-12.05v-0.83c1.62-0.18 2.63-0.49 3.03-0.93s0.6-1.45 0.6-3.03v-11.6c0-2.28-0.29-3.85-0.88-4.73-0.58-0.88-1.66-1.32-3.24-1.32-2.42 0-4.42 1.12-6 3.35v13.86c0 1.73 0.27 2.88 0.8 3.47 0.53 0.58 1.59 0.9 3.16 0.93v0.83h-12.32v-0.83c1.58-0.11 2.6-0.4 3.06-0.88 0.45-0.47 0.68-1.48 0.68-3.02v-11.94c0-3.85-1.21-5.77-3.63-5.77-1.02 0-2.17 0.25-3.43 0.77-1.27 0.51-2.29 1.34-3.06 2.47v15.51c0 1.07 0.26 1.79 0.77 2.18 0.52 0.38 1.51 0.61 2.97 0.68v0.83h-12.21v-0.83c1.54-0.03 2.57-0.31 3.08-0.82 0.52-0.52 0.77-1.52 0.77-3.03v-13.91c0-1.32-0.13-2.24-0.41-2.75-0.27-0.52-0.78-0.77-1.51-0.77-0.55 0-1.14 0.07-1.76 0.22m49.94 29.26c1.02 0 2.11-1.14 3.24-3.41 1.14-2.28 1.71-3.94 1.71-5.01 0-0.47-0.81-2.33-2.42-5.55l-7.26-15.62c-0.44-0.96-1.38-1.54-2.81-1.76v-0.77h11.33v0.82c-1.17 0.04-2 0.17-2.47 0.39-0.48 0.22-0.72 0.58-0.72 1.1 0 0.55 0.19 1.24 0.55 2.09l6.33 13.91 5.33-15.18c0.15-0.33 0.22-0.64 0.22-0.93 0-0.92-0.88-1.38-2.64-1.38v-0.82h7.43v0.82c-0.66 0.08-1.19 0.29-1.57 0.64-0.39 0.34-0.74 0.96-1.07 1.84l-8.47 22.44c-1.47 3.96-2.93 6.78-4.38 8.47-1.44 1.68-3.08 2.53-4.92 2.53-1.17 0-2.14-0.3-2.91-0.91-0.77-0.6-1.16-1.37-1.16-2.28 0-0.66 0.24-1.23 0.72-1.71 0.47-0.47 1.02-0.71 1.65-0.71 0.8 0 1.67 0.16 2.58 0.49 0.92 0.33 1.49 0.5 1.71 0.5"/>
  <path d="m1783.9 1156.8v13.26c0 1.9 0.22 3.13 0.66 3.68s1.47 0.92 3.08 1.1v0.83h-11.88v-0.83c1.58-0.22 2.56-0.58 2.95-1.1 0.38-0.51 0.57-1.74 0.57-3.68v-25.91c0-1.17-0.15-1.94-0.46-2.31-0.32-0.36-1-0.55-2.07-0.55-0.25 0-0.57 0.04-0.93 0.11v-0.88c2.6-0.69 5.2-1.5 7.81-2.42l0.27 0.17v16.72c1.25-1.65 2.51-2.83 3.77-3.55 1.27-0.71 2.7-1.07 4.32-1.07 4.51 0 6.76 2.91 6.76 8.74v10.95c0 1.9 0.18 3.11 0.53 3.6 0.34 0.5 1.27 0.89 2.77 1.18v0.83h-11.66v-0.83c1.58-0.14 2.6-0.51 3.06-1.1 0.45-0.58 0.68-1.81 0.68-3.68v-10.89c0-3.89-1.37-5.83-4.12-5.83-1.07 0-2.06 0.26-3 0.8-0.93 0.53-1.97 1.42-3.11 2.66m32.22-6.43c3.52 0 6.41 1.17 8.69 3.52 2.27 2.34 3.41 5.31 3.41 8.91 0 3.81-1.18 7-3.52 9.57-2.35 2.56-5.25 3.85-8.69 3.85-3.45 0-6.32-1.24-8.61-3.71-2.29-2.48-3.44-5.57-3.44-9.27 0-3.78 1.13-6.87 3.39-9.27 2.25-2.4 5.17-3.6 8.77-3.6m-7.21 10.17c0 3.93 0.72 7.26 2.15 10.01s3.3 4.13 5.61 4.13c2.05 0 3.66-0.88 4.84-2.64 1.17-1.76 1.76-4.2 1.76-7.32 0-3.77-0.74-6.85-2.2-9.24-1.47-2.38-3.36-3.57-5.67-3.57-1.94 0-3.51 0.79-4.7 2.36-1.19 1.58-1.79 3.67-1.79 6.27m21.39-6.76v-0.94c2.64-0.73 5.21-1.56 7.7-2.47l0.39 0.11v4.12c2.27-1.72 3.96-2.86 5.06-3.41s2.25-0.82 3.46-0.82c2.9 0 4.84 1.54 5.83 4.62 2.86-3.08 5.85-4.62 8.97-4.62 4.25 0 6.38 3.26 6.38 9.79v11.33c0 2.05 0.79 3.13 2.36 3.24l1.43 0.11v0.83h-12.04v-0.83c1.61-0.18 2.62-0.49 3.02-0.93 0.41-0.44 0.61-1.45 0.61-3.03v-11.6c0-2.28-0.3-3.85-0.88-4.73-0.59-0.88-1.67-1.32-3.25-1.32-2.42 0-4.42 1.12-5.99 3.35v13.86c0 1.73 0.26 2.88 0.8 3.47 0.53 0.58 1.58 0.9 3.16 0.93v0.83h-12.32v-0.83c1.57-0.11 2.59-0.4 3.05-0.88 0.46-0.47 0.69-1.48 0.69-3.02v-11.94c0-3.85-1.21-5.77-3.63-5.77-1.03 0-2.17 0.25-3.44 0.77-1.26 0.51-2.28 1.34-3.05 2.47v15.51c0 1.07 0.25 1.79 0.77 2.18 0.51 0.38 1.5 0.61 2.97 0.68v0.83h-12.21v-0.83c1.54-0.03 2.56-0.31 3.08-0.82 0.51-0.52 0.77-1.52 0.77-3.03v-13.91c0-1.32-0.14-2.24-0.41-2.75-0.28-0.52-0.78-0.77-1.52-0.77-0.55 0-1.13 0.07-1.76 0.22m47.47 6.65c0.07 2.31 0.38 4.3 0.93 5.97s1.27 2.92 2.15 3.74c0.88 0.83 1.77 1.41 2.66 1.76 0.9 0.35 1.85 0.52 2.84 0.52 1.76 0 3.29-0.44 4.59-1.32s2.61-2.36 3.93-4.45l0.88 0.38c-1.13 2.97-2.71 5.25-4.73 6.82-2.01 1.58-4.32 2.37-6.93 2.37-3.15 0-5.65-1.11-7.51-3.33-1.85-2.22-2.77-5.22-2.77-8.99 0-4.07 1.07-7.34 3.21-9.82 2.15-2.47 4.91-3.71 8.28-3.71 2.79 0 4.95 0.83 6.49 2.5s2.51 4.19 2.92 7.56h-16.94m0.11-1.76h11.22c-0.37-2.38-0.94-4.03-1.71-4.95-0.77-0.91-2-1.37-3.68-1.37-3.3 0-5.25 2.11-5.83 6.32m25.83 11.5c0.85 0 1.57 0.31 2.18 0.93 0.6 0.63 0.9 1.36 0.9 2.2 0 0.81-0.31 1.51-0.93 2.09-0.63 0.59-1.36 0.88-2.2 0.88-0.81 0-1.51-0.29-2.09-0.88-0.59-0.58-0.88-1.28-0.88-2.09 0-0.84 0.3-1.57 0.91-2.2 0.6-0.62 1.31-0.93 2.11-0.93"/>
  <path d="m2266.8 495.6h20" fill="none" stroke="#000" stroke-linejoin="bevel" stroke-width="3.75"/>
  <path d="m1135 495.6h20" fill="none" stroke="#000" stroke-linejoin="bevel" stroke-width="3.75"/>
  <path d="m1349.6 834.15h20.01" fill="none" stroke="#000" stroke-linejoin="bevel" stroke-width="3.75"/>
  <path d="m1088.6 1159.2h20" fill="none" stroke="#000" stroke-linejoin="bevel" stroke-width="3.75"/>
  <path d="m1208.2 1159.2h20.01" fill="none" stroke="#000" stroke-linejoin="bevel" stroke-width="3.75"/>
</svg>
