<?xml version="1.0" encoding="utf-8"?>                                  
<svg xmlns="http://www.w3.org/2000/svg" version="1.2" viewBox="560 270 1926 857">
  <title>Chapter 7 score.</title>
  <path d="m560 311.6h1926.1" fill="none" stroke="#000" stroke-linejoin="bevel" stroke-width="2"/>
  <path d="m560 336.6h1926.1" fill="none" stroke="#000" stroke-linejoin="bevel" stroke-width="2"/>
  <path d="m560 361.6h1926.1" fill="none" stroke="#000" stroke-linejoin="bevel" stroke-width="2"/>
  <path d="m560 386.6h1926.1" fill="none" stroke="#000" stroke-linejoin="bevel" stroke-width="2"/>
  <path d="m560 411.6h1926.1" fill="none" stroke="#000" stroke-linejoin="bevel" stroke-width="2"/>
  <path d="m560 636.62h1926.1" fill="none" stroke="#000" stroke-linejoin="bevel" stroke-width="2"/>
  <path d="m560 661.62h1926.1" fill="none" stroke="#000" stroke-linejoin="bevel" stroke-width="2"/>
  <path d="m560 686.62h1926.1" fill="none" stroke="#000" stroke-linejoin="bevel" stroke-width="2"/>
  <path d="m560 711.62h1926.1" fill="none" stroke="#000" stroke-linejoin="bevel" stroke-width="2"/>
  <path d="m560 736.62h1926.1" fill="none" stroke="#000" stroke-linejoin="bevel" stroke-width="2"/>
  <path d="m560 961.64h1926.1" fill="none" stroke="#000" stroke-linejoin="bevel" stroke-width="2"/>
  <path d="m560 986.64h1926.1" fill="none" stroke="#000" stroke-linejoin="bevel" stroke-width="2"/>
  <path d="m560 1011.6h1926.1" fill="none" stroke="#000" stroke-linejoin="bevel" stroke-width="2"/>
  <path d="m560 1036.6h1926.1" fill="none" stroke="#000" stroke-linejoin="bevel" stroke-width="2"/>
  <path d="m560 1061.6h1926.1" fill="none" stroke="#000" stroke-linejoin="bevel" stroke-width="2"/>
  <path d="m828.29 484.11c54.773 38.416 159.35 32.166 209.16-12.501-49.568 48.66-154.15 54.91-209.16 12.501" fill-rule="evenodd" stroke="#000" stroke-linecap="round" stroke-linejoin="round" stroke-width="1.75"/>
  <path d="m799.42 788.11c69.841 47.461 412.08 44.671 488.91-3.985-76.8 52.656-419.04 55.446-488.91 3.985" fill-rule="evenodd" stroke="#000" stroke-linecap="round" stroke-linejoin="round" stroke-width="1.75"/>
  <path d="m791.45 672.54c68.262-35.212 407.71-32.423 484.93 3.985-77.25-32.407-416.7-35.197-484.93-3.985" fill-rule="evenodd" stroke="#000" stroke-linecap="round" stroke-linejoin="round" stroke-width="1.75"/>
  <path d="m1612.8 1109.1c86.84 21.8 470.54 17.87 548.13-5.62-77.55 27.49-461.25 31.42-548.13 5.62" fill-rule="evenodd" stroke="#000" stroke-linecap="round" stroke-linejoin="round" stroke-width="1.75"/>
  <path d="m1580.4 934.34c83.52-52.1 506.65-57.456 604.47-7.65-97.77-45.806-520.9-40.45-604.47 7.65" fill-rule="evenodd" stroke="#000" stroke-linecap="round" stroke-linejoin="round" stroke-width="1.75"/>
  <path d="m1130.2 310.6v102.01" stroke="#000" stroke-linejoin="bevel" stroke-width="4"/>
  <path d="m1807.2 310.6v102.01" stroke="#000" stroke-linejoin="bevel" stroke-width="4"/>
  <path d="m2484.1 310.6v102.01" stroke="#000" stroke-linejoin="bevel" stroke-width="4"/>
  <path d="m1234.5 635.62v102.01" stroke="#000" stroke-linejoin="bevel" stroke-width="4"/>
  <path d="m1766.8 635.62v102.01" stroke="#000" stroke-linejoin="bevel" stroke-width="4"/>
  <path d="m2484.1 635.62v102.01" stroke="#000" stroke-linejoin="bevel" stroke-width="4"/>
  <path d="m1531.1 960.64v102" stroke="#000" stroke-linejoin="bevel" stroke-width="4"/>
  <path d="m2132.5 960.64v102" stroke="#000" stroke-linejoin="bevel" stroke-width="4"/>
  <path d="m804.34 461.61h47.917" stroke="#000" stroke-linecap="square" stroke-linejoin="bevel" stroke-width="4"/>
  <path d="m804.34 436.6h47.917" stroke="#000" stroke-linecap="square" stroke-linejoin="bevel" stroke-width="4"/>
  <path d="m1013.5 436.6h47.92" stroke="#000" stroke-linecap="square" stroke-linejoin="bevel" stroke-width="4"/>
  <path d="m1159.2 436.6h47.92" stroke="#000" stroke-linecap="square" stroke-linejoin="bevel" stroke-width="4"/>
  <path d="m1159.2 436.6h47.92" stroke="#000" stroke-linecap="square" stroke-linejoin="bevel" stroke-width="4"/>
  <path d="m1478.4 436.6h47.92" stroke="#000" stroke-linecap="square" stroke-linejoin="bevel" stroke-width="4"/>
  <path d="m1478.4 436.6h47.92" stroke="#000" stroke-linecap="square" stroke-linejoin="bevel" stroke-width="4"/>
  <path d="m1836.2 436.6h47.92" stroke="#000" stroke-linecap="square" stroke-linejoin="bevel" stroke-width="4"/>
  <path d="m1836.2 436.6h47.92" stroke="#000" stroke-linecap="square" stroke-linejoin="bevel" stroke-width="4"/>
  <path d="m2366.5 436.6h47.92" stroke="#000" stroke-linecap="square" stroke-linejoin="bevel" stroke-width="4"/>
  <path d="m755.21 761.63h64.519" stroke="#000" stroke-linecap="square" stroke-linejoin="bevel" stroke-width="4"/>
  <path d="m1263.5 761.63h49.72" stroke="#000" stroke-linecap="square" stroke-linejoin="bevel" stroke-width="4"/>
  <path d="m1395.4 1086.6h47.92" stroke="#000" stroke-linecap="square" stroke-linejoin="bevel" stroke-width="4"/>
  <path d="m1560.1 1086.6h49.72" stroke="#000" stroke-linecap="square" stroke-linejoin="bevel" stroke-width="4"/>
  <path d="m1168.3 441.3v54.683" stroke="#000" stroke-linecap="round" stroke-linejoin="bevel" stroke-width="3.25"/>
  <path d="m1379.4 428.8v82.81" stroke="#000" stroke-linecap="round" stroke-linejoin="bevel" stroke-width="3.25"/>
  <path d="m1487.6 441.3v54.683" stroke="#000" stroke-linecap="round" stroke-linejoin="bevel" stroke-width="3.25"/>
  <path d="m1698.6 428.8v82.81" stroke="#000" stroke-linecap="round" stroke-linejoin="bevel" stroke-width="3.25"/>
  <path d="m1845.3 441.3v54.683" stroke="#000" stroke-linecap="round" stroke-linejoin="bevel" stroke-width="3.25"/>
  <path d="m2056.4 416.3v82.81" stroke="#000" stroke-linecap="round" stroke-linejoin="bevel" stroke-width="3.25"/>
  <path d="m2164.5 403.8v64.059" stroke="#000" stroke-linecap="round" stroke-linejoin="bevel" stroke-width="3.25"/>
  <path d="m754.83 1053.8v64.05" stroke="#000" stroke-linecap="round" stroke-linejoin="bevel" stroke-width="3.25"/>
  <path d="m986.32 1053.8v64.05" stroke="#000" stroke-linecap="round" stroke-linejoin="bevel" stroke-width="3.25"/>
  <path d="m843.13 456.91v-95.311" stroke="#000" stroke-linecap="round" stroke-linejoin="bevel" stroke-width="3.25"/>
  <path d="m1052.3 444.41v-82.81" stroke="#000" stroke-linecap="round" stroke-linejoin="bevel" stroke-width="3.25"/>
  <path d="m1198 431.91v-82.81" stroke="#000" stroke-linecap="round" stroke-linejoin="bevel" stroke-width="3.25"/>
  <path d="m1409 419.41v-82.81" stroke="#000" stroke-linecap="round" stroke-linejoin="bevel" stroke-width="3.25"/>
  <path d="m1517.2 431.91v-82.81" stroke="#000" stroke-linecap="round" stroke-linejoin="bevel" stroke-width="3.25"/>
  <path d="m1728.3 419.41v-82.81" stroke="#000" stroke-linecap="round" stroke-linejoin="bevel" stroke-width="3.25"/>
  <path d="m1875 431.91v-82.81" stroke="#000" stroke-linecap="round" stroke-linejoin="bevel" stroke-width="3.25"/>
  <path d="m2086 406.91v-82.81" stroke="#000" stroke-linecap="round" stroke-linejoin="bevel" stroke-width="3.25"/>
  <path d="m2194.2 394.41v-82.81" stroke="#000" stroke-linecap="round" stroke-linejoin="bevel" stroke-width="3.25"/>
  <path d="m2405.2 431.91v-129.69" stroke="#000" stroke-linecap="round" stroke-linejoin="bevel" stroke-width="3.25"/>
  <path d="m1304.1 757.78v-139.92" stroke="#000" stroke-linecap="round" stroke-linejoin="bevel" stroke-width="3.25"/>
  <path d="m1550.5 720.28v-102.42" stroke="#000" stroke-linecap="round" stroke-linejoin="bevel" stroke-width="3.25"/>
  <path d="m1825 731.93v-104.69" stroke="#000" stroke-linecap="round" stroke-linejoin="bevel" stroke-width="3.25"/>
  <path d="m2052.6 731.93v-104.69" stroke="#000" stroke-linecap="round" stroke-linejoin="bevel" stroke-width="3.25"/>
  <path d="m2169.2 731.93v-104.69" stroke="#000" stroke-linecap="round" stroke-linejoin="bevel" stroke-width="3.25"/>
  <path d="m2396.8 731.93v-104.69" stroke="#000" stroke-linecap="round" stroke-linejoin="bevel" stroke-width="3.25"/>
  <path d="m784.5 1044.4v-82.802" stroke="#000" stroke-linecap="round" stroke-linejoin="bevel" stroke-width="3.25"/>
  <path d="m986.32 1031.9v-79.677" stroke="#000" stroke-linecap="round" stroke-linejoin="bevel" stroke-width="3.25"/>
  <path d="m1188.1 1044.4v-101.55" stroke="#000" stroke-linecap="round" stroke-linejoin="bevel" stroke-width="3.25"/>
  <path d="m1434.2 1082v-129.69" stroke="#000" stroke-linecap="round" stroke-linejoin="bevel" stroke-width="3.25"/>
  <path d="m1600.7 1082.8v-121.16" stroke="#000" stroke-linecap="round" stroke-linejoin="bevel" stroke-width="3.25"/>
  <path d="m1881.7 1057.8v-105.54" stroke="#000" stroke-linecap="round" stroke-linejoin="bevel" stroke-width="3.25"/>
  <path d="m2192.6 1045.3v-102.41" stroke="#000" stroke-linecap="round" stroke-linejoin="bevel" stroke-width="3.25"/>
  <path d="m1188.7 422.84c3.13 0 5.77 0.813 7.91 2.441 2.02 1.758 3.03 3.971 3.03 6.641 0 4.492-2.31 8.691-6.93 12.597-4.69 3.907-9.7 5.86-15.04 5.86-3.13 0-5.76-0.814-7.91-2.442-2.02-1.758-3.03-3.971-3.03-6.64 0-4.493 2.35-8.692 7.03-12.598 4.56-3.906 9.54-5.859 14.94-5.859"/>
  <path d="m1399.7 410.34c3.12 0 5.76 0.814 7.91 2.441 2.02 1.758 3.03 3.972 3.03 6.641 0 4.492-2.31 8.691-6.94 12.598-4.68 3.906-9.7 5.859-15.04 5.859-3.12 0-5.76-0.814-7.91-2.441-2.01-1.758-3.02-3.972-3.02-6.641 0-4.492 2.34-8.692 7.03-12.598 4.56-3.906 9.54-5.859 14.94-5.859"/>
  <path d="m1507.9 422.84c3.12 0 5.76 0.813 7.91 2.441 2.02 1.758 3.03 3.971 3.03 6.641 0 4.492-2.32 8.691-6.94 12.597-4.69 3.907-9.7 5.86-15.04 5.86-3.12 0-5.76-0.814-7.91-2.442-2.02-1.758-3.02-3.971-3.02-6.64 0-4.493 2.34-8.692 7.03-12.598 4.55-3.906 9.53-5.859 14.94-5.859"/>
  <path d="m1719 410.34c3.13 0 5.76 0.814 7.91 2.441 2.02 1.758 3.03 3.972 3.03 6.641 0 4.492-2.31 8.691-6.93 12.598-4.69 3.906-9.7 5.859-15.04 5.859-3.13 0-5.76-0.814-7.91-2.441-2.02-1.758-3.03-3.972-3.03-6.641 0-4.492 2.34-8.692 7.03-12.598 4.56-3.906 9.54-5.859 14.94-5.859"/>
  <path d="m1865.6 422.84c3.13 0 5.77 0.813 7.91 2.441 2.02 1.758 3.03 3.971 3.03 6.641 0 4.492-2.31 8.691-6.93 12.597-4.69 3.907-9.7 5.86-15.04 5.86-3.13 0-5.76-0.814-7.91-2.442-2.02-1.758-3.03-3.971-3.03-6.64 0-4.493 2.34-8.692 7.03-12.598 4.56-3.906 9.54-5.859 14.94-5.859"/>
  <path d="m2076.7 397.83c3.12 0 5.76 0.814 7.91 2.441 2.02 1.758 3.03 3.972 3.03 6.641 0 4.492-2.32 8.692-6.94 12.598-4.69 3.906-9.7 5.859-15.04 5.859-3.12 0-5.76-0.814-7.91-2.441-2.02-1.758-3.02-3.972-3.02-6.641 0-4.492 2.34-8.691 7.03-12.598 4.55-3.906 9.53-5.859 14.94-5.859"/>
  <path d="m2184.9 385.33c3.12 0 5.76 0.814 7.91 2.442 2.02 1.758 3.02 3.971 3.02 6.64 0 4.493-2.31 8.692-6.93 12.598-4.69 3.906-9.7 5.859-15.04 5.859-3.12 0-5.76-0.813-7.91-2.441-2.02-1.758-3.03-3.971-3.03-6.641 0-4.492 2.35-8.691 7.04-12.597 4.55-3.907 9.53-5.86 14.94-5.86"/>
  <path d="m775.18 1035.4c3.125 0 5.762 0.81 7.91 2.44 2.019 1.76 3.028 3.97 3.028 6.64 0 4.49-2.312 8.69-6.934 12.6-4.687 3.91-9.7 5.86-15.039 5.86-3.125 0-5.762-0.81-7.91-2.44-2.018-1.76-3.028-3.97-3.028-6.64 0-4.49 2.344-8.69 7.032-12.6 4.557-3.91 9.537-5.86 14.941-5.86"/>
  <path d="m1006.7 1035.4c3.13 0 5.76 0.81 7.91 2.44 2.02 1.76 3.03 3.97 3.03 6.64 0 4.49-2.31 8.69-6.93 12.6-4.69 3.91-9.7 5.86-15.04 5.86-3.128 0-5.765-0.81-7.913-2.44-2.019-1.76-3.028-3.97-3.028-6.64 0-4.49 2.344-8.69 7.031-12.6 4.56-3.91 9.54-5.86 14.94-5.86"/>
  <path d="m833.81 447.84c3.125 0 5.762 0.814 7.91 2.442 2.018 1.757 3.027 3.971 3.027 6.64 0 4.492-2.311 8.692-6.933 12.598-4.688 3.906-9.701 5.859-15.039 5.859-3.125 0-5.762-0.814-7.91-2.441-2.019-1.758-3.028-3.971-3.028-6.641 0-4.492 2.344-8.691 7.031-12.597 4.558-3.907 9.538-5.86 14.942-5.86"/>
  <path d="m1043 435.34c3.12 0 5.76 0.814 7.91 2.442 2.01 1.758 3.02 3.971 3.02 6.64 0 4.493-2.31 8.692-6.93 12.598-4.69 3.906-9.7 5.859-15.04 5.859-3.12 0-5.76-0.813-7.91-2.441-2.02-1.758-3.03-3.971-3.03-6.641 0-4.492 2.35-8.691 7.03-12.597 4.56-3.906 9.54-5.86 14.95-5.86"/>
  <path d="m1188.7 422.84c3.13 0 5.77 0.813 7.91 2.441 2.02 1.758 3.03 3.971 3.03 6.641 0 4.492-2.31 8.691-6.93 12.597-4.69 3.907-9.7 5.86-15.04 5.86-3.13 0-5.76-0.814-7.91-2.442-2.02-1.758-3.03-3.971-3.03-6.64 0-4.493 2.35-8.692 7.03-12.598 4.56-3.906 9.54-5.859 14.94-5.859"/>
  <path d="m1399.7 410.34c3.12 0 5.76 0.814 7.91 2.441 2.02 1.758 3.03 3.972 3.03 6.641 0 4.492-2.31 8.691-6.94 12.598-4.68 3.906-9.7 5.859-15.04 5.859-3.12 0-5.76-0.814-7.91-2.441-2.01-1.758-3.02-3.972-3.02-6.641 0-4.492 2.34-8.692 7.03-12.598 4.56-3.906 9.54-5.859 14.94-5.859"/>
  <path d="m1507.9 422.84c3.12 0 5.76 0.813 7.91 2.441 2.02 1.758 3.03 3.971 3.03 6.641 0 4.492-2.32 8.691-6.94 12.597-4.69 3.907-9.7 5.86-15.04 5.86-3.12 0-5.76-0.814-7.91-2.442-2.02-1.758-3.02-3.971-3.02-6.64 0-4.493 2.34-8.692 7.03-12.598 4.55-3.906 9.53-5.859 14.94-5.859"/>
  <path d="m1719 410.34c3.13 0 5.76 0.814 7.91 2.441 2.02 1.758 3.03 3.972 3.03 6.641 0 4.492-2.31 8.691-6.93 12.598-4.69 3.906-9.7 5.859-15.04 5.859-3.13 0-5.76-0.814-7.91-2.441-2.02-1.758-3.03-3.972-3.03-6.641 0-4.492 2.34-8.692 7.03-12.598 4.56-3.906 9.54-5.859 14.94-5.859"/>
  <path d="m1865.6 422.84c3.13 0 5.77 0.813 7.91 2.441 2.02 1.758 3.03 3.971 3.03 6.641 0 4.492-2.31 8.691-6.93 12.597-4.69 3.907-9.7 5.86-15.04 5.86-3.13 0-5.76-0.814-7.91-2.442-2.02-1.758-3.03-3.971-3.03-6.64 0-4.493 2.34-8.692 7.03-12.598 4.56-3.906 9.54-5.859 14.94-5.859"/>
  <path d="m2076.7 397.83c3.12 0 5.76 0.814 7.91 2.441 2.02 1.758 3.03 3.972 3.03 6.641 0 4.492-2.32 8.692-6.94 12.598-4.69 3.906-9.7 5.859-15.04 5.859-3.12 0-5.76-0.814-7.91-2.441-2.02-1.758-3.02-3.972-3.02-6.641 0-4.492 2.34-8.691 7.03-12.598 4.55-3.906 9.53-5.859 14.94-5.859"/>
  <path d="m2184.9 385.33c3.12 0 5.76 0.814 7.91 2.442 2.02 1.758 3.02 3.971 3.02 6.64 0 4.493-2.31 8.692-6.93 12.598-4.69 3.906-9.7 5.859-15.04 5.859-3.12 0-5.76-0.813-7.91-2.441-2.02-1.758-3.03-3.971-3.03-6.641 0-4.492 2.35-8.691 7.04-12.597 4.55-3.907 9.53-5.86 14.94-5.86"/>
  <path d="m2395.9 422.84c3.13 0 5.76 0.813 7.91 2.441 2.02 1.758 3.03 3.971 3.03 6.641 0 4.492-2.31 8.691-6.93 12.597-4.69 3.907-9.7 5.86-15.04 5.86-3.13 0-5.76-0.814-7.91-2.442-2.02-1.758-3.03-3.971-3.03-6.64 0-4.493 2.34-8.692 7.03-12.598 4.56-3.906 9.54-5.859 14.94-5.859"/>
  <path d="m2395.9 372.83c3.13 0 5.76 0.813 7.91 2.441 2.02 1.758 3.03 3.971 3.03 6.641 0 4.492-2.31 8.691-6.93 12.597-4.69 3.906-9.7 5.86-15.04 5.86-3.13 0-5.76-0.814-7.91-2.442-2.02-1.758-3.03-3.971-3.03-6.64 0-4.493 2.34-8.692 7.03-12.598 4.56-3.906 9.54-5.859 14.94-5.859"/>
  <path d="m784.19 750.4c-2.343 0-4.036 0.814-5.078 2.442-1.172 1.562-1.757 3.678-1.757 6.347 0 3.06 0.813 5.697 2.441 7.91 1.628 2.149 3.418 3.646 5.371 4.493 1.758 0.846 3.613 1.269 5.566 1.269 2.279 0 4.004-0.814 5.176-2.441 1.107-1.628 1.66-3.744 1.66-6.348 0-3.06-0.813-5.697-2.441-7.91-1.628-2.083-3.385-3.581-5.273-4.492-1.889-0.847-3.777-1.27-5.665-1.27m3.321-2.539c7.031 0 12.89 1.367 17.578 4.102 4.752 2.734 7.129 5.957 7.129 9.668 0 3.971-2.442 7.226-7.324 9.765-4.883 2.67-10.678 4.004-17.383 4.004-6.901 0-12.761-1.367-17.578-4.101-4.818-2.735-7.227-5.957-7.227-9.668 0-3.972 2.474-7.227 7.422-9.766 4.883-2.669 10.677-4.004 17.383-4.004"/>
  <path d="m784.19 687.89c-2.343 0-4.036 0.814-5.078 2.442-1.172 1.562-1.757 3.678-1.757 6.347 0 3.06 0.813 5.697 2.441 7.91 1.628 2.149 3.418 3.646 5.371 4.493 1.758 0.846 3.613 1.269 5.566 1.269 2.279 0 4.004-0.814 5.176-2.441 1.107-1.628 1.66-3.744 1.66-6.348 0-3.06-0.813-5.696-2.441-7.91-1.628-2.083-3.385-3.581-5.273-4.492-1.889-0.847-3.777-1.27-5.665-1.27m3.321-2.539c7.031 0 12.89 1.367 17.578 4.102 4.752 2.734 7.129 5.957 7.129 9.668 0 3.971-2.442 7.226-7.324 9.765-4.883 2.67-10.678 4.004-17.383 4.004-6.901 0-12.761-1.367-17.578-4.101-4.818-2.735-7.227-5.957-7.227-9.668 0-3.972 2.474-7.227 7.422-9.766 4.883-2.669 10.677-4.004 17.383-4.004"/>
  <path d="m1302.5 755.08c0-1.107-0.43-2.051-1.27-2.832-0.85-0.847-1.83-1.27-2.93-1.27-1.96 0-5.9 1.953-11.82 5.859-6.12 3.972-9.86 6.804-11.23 8.497-0.72 0.911-1.07 1.855-1.07 2.832 0 1.106 0.42 2.05 1.27 2.832 0.78 0.846 1.75 1.269 2.92 1.269 1.89 0 5.86-1.953 11.92-5.859 5.99-3.906 9.7-6.738 11.13-8.496 0.72-0.847 1.08-1.791 1.08-2.832m-5.18-7.227c5.6 0 8.4 2.409 8.4 7.227 0 2.343-0.69 5.078-2.05 8.203-1.37 3.06-3.19 5.403-5.47 7.031-5.01 3.385-11.3 5.078-18.85 5.078-5.6 0-8.4-2.409-8.4-7.226 0-2.149 0.69-4.851 2.05-8.106 1.31-3.125 3.13-5.501 5.47-7.129 5.02-3.385 11.3-5.078 18.85-5.078"/>
  <path d="m1302.5 692.58c0-1.107-0.43-2.051-1.27-2.832-0.85-0.847-1.83-1.27-2.93-1.27-1.96 0-5.9 1.953-11.82 5.86-6.12 3.971-9.86 6.803-11.23 8.496-0.72 0.911-1.07 1.855-1.07 2.832 0 1.106 0.42 2.05 1.27 2.832 0.78 0.846 1.75 1.269 2.92 1.269 1.89 0 5.86-1.953 11.92-5.859 5.99-3.906 9.7-6.738 11.13-8.496 0.72-0.847 1.08-1.791 1.08-2.832m-5.18-7.227c5.6 0 8.4 2.409 8.4 7.227 0 2.343-0.69 5.078-2.05 8.203-1.37 3.06-3.19 5.404-5.47 7.031-5.01 3.386-11.3 5.078-18.85 5.078-5.6 0-8.4-2.409-8.4-7.226 0-2.149 0.69-4.851 2.05-8.106 1.31-3.125 3.13-5.501 5.47-7.129 5.02-3.385 11.3-5.078 18.85-5.078"/>
  <path d="m1549 717.58c0-1.106-0.42-2.05-1.27-2.832-0.84-0.846-1.82-1.269-2.93-1.269-1.95 0-5.89 1.953-11.81 5.859-6.12 3.971-9.87 6.804-11.23 8.496-0.72 0.912-1.08 1.856-1.08 2.832 0 1.107 0.42 2.051 1.27 2.832 0.78 0.847 1.76 1.27 2.93 1.27 1.89 0 5.86-1.953 11.91-5.86 5.99-3.906 9.7-6.738 11.14-8.496 0.71-0.846 1.07-1.79 1.07-2.832m-5.17-7.226c5.59 0 8.39 2.409 8.39 7.226 0 2.344-0.68 5.078-2.05 8.203-1.36 3.06-3.19 5.404-5.47 7.032-5.01 3.385-11.29 5.078-18.84 5.078-5.6 0-8.4-2.409-8.4-7.227 0-2.148 0.68-4.85 2.05-8.105 1.3-3.125 3.12-5.502 5.47-7.129 5.01-3.386 11.29-5.078 18.85-5.078"/>
  <path d="m1549 692.58c0-1.107-0.42-2.051-1.27-2.832-0.84-0.847-1.82-1.27-2.93-1.27-1.95 0-5.89 1.953-11.81 5.86-6.12 3.971-9.87 6.803-11.23 8.496-0.72 0.911-1.08 1.855-1.08 2.832 0 1.106 0.42 2.05 1.27 2.832 0.78 0.846 1.76 1.269 2.93 1.269 1.89 0 5.86-1.953 11.91-5.859 5.99-3.906 9.7-6.738 11.14-8.496 0.71-0.847 1.07-1.791 1.07-2.832m-5.17-7.227c5.59 0 8.39 2.409 8.39 7.227 0 2.343-0.68 5.078-2.05 8.203-1.36 3.06-3.19 5.404-5.47 7.031-5.01 3.386-11.29 5.078-18.84 5.078-5.6 0-8.4-2.409-8.4-7.226 0-2.149 0.68-4.851 2.05-8.106 1.3-3.125 3.12-5.501 5.47-7.129 5.01-3.385 11.29-5.078 18.85-5.078"/>
  <path d="m1815.7 722.86c3.13 0 5.76 0.813 7.91 2.441 2.02 1.758 3.03 3.971 3.03 6.641 0 4.492-2.31 8.691-6.94 12.597-4.68 3.906-9.7 5.86-15.03 5.86-3.13 0-5.77-0.814-7.91-2.442-2.02-1.758-3.03-3.971-3.03-6.64 0-4.493 2.34-8.692 7.03-12.598 4.56-3.906 9.54-5.859 14.94-5.859"/>
  <path d="m1815.7 697.85c3.13 0 5.76 0.814 7.91 2.441 2.02 1.758 3.03 3.972 3.03 6.641 0 4.492-2.31 8.691-6.94 12.598-4.68 3.906-9.7 5.859-15.03 5.859-3.13 0-5.77-0.814-7.91-2.441-2.02-1.758-3.03-3.972-3.03-6.641 0-4.492 2.34-8.691 7.03-12.598 4.56-3.906 9.54-5.859 14.94-5.859"/>
  <path d="m2043.3 722.86c3.12 0 5.76 0.813 7.91 2.441 2.02 1.758 3.03 3.971 3.03 6.641 0 4.492-2.32 8.691-6.94 12.597-4.69 3.906-9.7 5.86-15.04 5.86-3.12 0-5.76-0.814-7.91-2.442-2.02-1.758-3.02-3.971-3.02-6.64 0-4.493 2.34-8.692 7.03-12.598 4.55-3.906 9.53-5.859 14.94-5.859"/>
  <path d="m2043.3 697.85c3.12 0 5.76 0.814 7.91 2.441 2.02 1.758 3.03 3.972 3.03 6.641 0 4.492-2.32 8.691-6.94 12.598-4.69 3.906-9.7 5.859-15.04 5.859-3.12 0-5.76-0.814-7.91-2.441-2.02-1.758-3.02-3.972-3.02-6.641 0-4.492 2.34-8.691 7.03-12.598 4.55-3.906 9.53-5.859 14.94-5.859"/>
  <path d="m2159.9 722.86c3.12 0 5.76 0.813 7.91 2.441 2.01 1.758 3.02 3.971 3.02 6.641 0 4.492-2.31 8.691-6.93 12.597-4.69 3.906-9.7 5.86-15.04 5.86-3.12 0-5.76-0.814-7.91-2.442-2.02-1.758-3.03-3.971-3.03-6.64 0-4.493 2.35-8.692 7.03-12.598 4.56-3.906 9.54-5.859 14.95-5.859"/>
  <path d="m2159.9 697.85c3.12 0 5.76 0.814 7.91 2.441 2.01 1.758 3.02 3.972 3.02 6.641 0 4.492-2.31 8.691-6.93 12.598-4.69 3.906-9.7 5.859-15.04 5.859-3.12 0-5.76-0.814-7.91-2.441-2.02-1.758-3.03-3.972-3.03-6.641 0-4.492 2.35-8.691 7.03-12.598 4.56-3.906 9.54-5.859 14.95-5.859"/>
  <path d="m2387.5 722.86c3.13 0 5.76 0.813 7.91 2.441 2.02 1.758 3.03 3.971 3.03 6.641 0 4.492-2.31 8.691-6.93 12.597-4.69 3.906-9.7 5.86-15.04 5.86-3.13 0-5.76-0.814-7.91-2.442-2.02-1.758-3.03-3.971-3.03-6.64 0-4.493 2.34-8.692 7.03-12.598 4.56-3.906 9.54-5.859 14.94-5.859"/>
  <path d="m2387.5 697.85c3.13 0 5.76 0.814 7.91 2.441 2.02 1.758 3.03 3.972 3.03 6.641 0 4.492-2.31 8.691-6.93 12.598-4.69 3.906-9.7 5.859-15.04 5.859-3.13 0-5.76-0.814-7.91-2.441-2.02-1.758-3.03-3.972-3.03-6.641 0-4.492 2.34-8.691 7.03-12.598 4.56-3.906 9.54-5.859 14.94-5.859"/>
  <path d="m775.18 1035.4c3.125 0 5.762 0.81 7.91 2.44 2.019 1.76 3.028 3.97 3.028 6.64 0 4.49-2.312 8.69-6.934 12.6-4.687 3.91-9.7 5.86-15.039 5.86-3.125 0-5.762-0.81-7.91-2.44-2.018-1.76-3.028-3.97-3.028-6.64 0-4.49 2.344-8.69 7.032-12.6 4.557-3.91 9.537-5.86 14.941-5.86"/>
  <path d="m977 1022.9c3.125 0 5.762 0.81 7.91 2.44 2.018 1.76 3.027 3.97 3.027 6.64 0 4.49-2.311 8.69-6.933 12.6-4.688 3.91-9.701 5.86-15.039 5.86-3.125 0-5.762-0.82-7.91-2.44-2.019-1.76-3.028-3.97-3.028-6.64 0-4.5 2.344-8.69 7.032-12.6 4.557-3.91 9.537-5.86 14.941-5.86"/>
  <path d="m1178.8 1035.4c3.13 0 5.77 0.81 7.91 2.44 2.02 1.76 3.03 3.97 3.03 6.64 0 4.49-2.31 8.69-6.93 12.6-4.69 3.91-9.7 5.86-15.04 5.86-3.13 0-5.76-0.81-7.91-2.44-2.02-1.76-3.03-3.97-3.03-6.64 0-4.49 2.34-8.69 7.03-12.6 4.56-3.91 9.54-5.86 14.94-5.86"/>
  <path d="m1178.8 1010.4c3.13 0 5.77 0.81 7.91 2.44 2.02 1.76 3.03 3.97 3.03 6.64 0 4.49-2.31 8.69-6.93 12.6-4.69 3.9-9.7 5.86-15.04 5.86-3.13 0-5.76-0.82-7.91-2.44-2.02-1.76-3.03-3.98-3.03-6.64 0-4.5 2.34-8.7 7.03-12.6 4.56-3.91 9.54-5.86 14.94-5.86"/>
  <path d="m1424.9 1072.9c3.13 0 5.76 0.82 7.91 2.44 2.02 1.76 3.03 3.98 3.03 6.64 0 4.5-2.31 8.7-6.93 12.6-4.69 3.91-9.7 5.86-15.04 5.86-3.13 0-5.76-0.81-7.91-2.44-2.02-1.76-3.03-3.97-3.03-6.64 0-4.49 2.34-8.69 7.03-12.6 4.56-3.9 9.54-5.86 14.94-5.86"/>
  <path d="m1424.9 1022.9c3.13 0 5.76 0.81 7.91 2.44 2.02 1.76 3.03 3.97 3.03 6.64 0 4.49-2.31 8.69-6.93 12.6-4.69 3.91-9.7 5.86-15.04 5.86-3.13 0-5.76-0.82-7.91-2.44-2.02-1.76-3.03-3.97-3.03-6.64 0-4.5 2.34-8.69 7.03-12.6 4.56-3.91 9.54-5.86 14.94-5.86"/>
  <path d="m1599.1 1080.1c0-1.11-0.42-2.05-1.27-2.83-0.84-0.85-1.82-1.27-2.93-1.27-1.95 0-5.89 1.95-11.81 5.86-6.12 3.97-9.87 6.8-11.23 8.49-0.72 0.91-1.08 1.86-1.08 2.84 0 1.1 0.42 2.05 1.27 2.83 0.78 0.84 1.76 1.27 2.93 1.27 1.89 0 5.86-1.96 11.91-5.86 5.99-3.91 9.7-6.74 11.14-8.5 0.71-0.85 1.07-1.79 1.07-2.83m-5.17-7.23c5.59 0 8.39 2.41 8.39 7.23 0 2.34-0.68 5.08-2.05 8.2-1.36 3.06-3.19 5.41-5.47 7.03-5.01 3.39-11.29 5.08-18.84 5.08-5.6 0-8.4-2.41-8.4-7.22 0-2.15 0.68-4.86 2.05-8.11 1.3-3.13 3.12-5.5 5.47-7.13 5.01-3.38 11.29-5.08 18.85-5.08"/>
  <path d="m1599.1 1042.6c0-1.11-0.42-2.05-1.27-2.84-0.84-0.84-1.82-1.26-2.93-1.26-1.95 0-5.89 1.95-11.81 5.85-6.12 3.98-9.87 6.81-11.23 8.5-0.72 0.91-1.08 1.86-1.08 2.83 0 1.11 0.42 2.05 1.27 2.83 0.78 0.85 1.76 1.27 2.93 1.27 1.89 0 5.86-1.95 11.91-5.86 5.99-3.9 9.7-6.73 11.14-8.49 0.71-0.85 1.07-1.79 1.07-2.83m-5.17-7.23c5.59 0 8.39 2.41 8.39 7.23 0 2.34-0.68 5.07-2.05 8.2-1.36 3.06-3.19 5.4-5.47 7.03-5.01 3.39-11.29 5.08-18.84 5.08-5.6 0-8.4-2.41-8.4-7.23 0-2.15 0.68-4.85 2.05-8.1 1.3-3.13 3.12-5.5 5.47-7.13 5.01-3.39 11.29-5.08 18.85-5.08"/>
  <path d="m1880.2 1055.1c0-1.11-0.43-2.05-1.27-2.83-0.85-0.85-1.83-1.27-2.93-1.27-1.96 0-5.9 1.95-11.82 5.86-6.12 3.97-9.86 6.8-11.23 8.49-0.72 0.91-1.07 1.86-1.07 2.83 0 1.11 0.42 2.05 1.27 2.84 0.78 0.84 1.75 1.27 2.92 1.27 1.89 0 5.86-1.96 11.92-5.86 5.99-3.91 9.7-6.74 11.13-8.5 0.72-0.85 1.08-1.79 1.08-2.83m-5.18-7.23c5.6 0 8.4 2.41 8.4 7.23 0 2.34-0.69 5.08-2.05 8.2-1.37 3.06-3.19 5.4-5.47 7.03-5.01 3.39-11.3 5.08-18.85 5.08-5.6 0-8.4-2.41-8.4-7.23 0-2.14 0.69-4.85 2.05-8.1 1.31-3.13 3.13-5.5 5.47-7.13 5.02-3.39 11.3-5.08 18.85-5.08"/>
  <path d="m1880.2 1030.1c0-1.11-0.43-2.05-1.27-2.84-0.85-0.84-1.83-1.27-2.93-1.27-1.96 0-5.9 1.96-11.82 5.86-6.12 3.98-9.86 6.81-11.23 8.5-0.72 0.91-1.07 1.86-1.07 2.83 0 1.11 0.42 2.05 1.27 2.83 0.78 0.85 1.75 1.27 2.92 1.27 1.89 0 5.86-1.95 11.92-5.86 5.99-3.9 9.7-6.73 11.13-8.49 0.72-0.85 1.08-1.79 1.08-2.83m-5.18-7.23c5.6 0 8.4 2.41 8.4 7.23 0 2.34-0.69 5.07-2.05 8.2-1.37 3.06-3.19 5.4-5.47 7.03-5.01 3.39-11.3 5.08-18.85 5.08-5.6 0-8.4-2.41-8.4-7.23 0-2.15 0.69-4.85 2.05-8.1 1.31-3.13 3.13-5.5 5.47-7.13 5.02-3.39 11.3-5.08 18.85-5.08"/>
  <path d="m2191.1 1042.6c0-1.11-0.42-2.05-1.26-2.84-0.85-0.84-1.83-1.26-2.93-1.26-1.96 0-5.9 1.95-11.82 5.85-6.12 3.98-9.86 6.81-11.23 8.5-0.72 0.91-1.08 1.86-1.08 2.83 0 1.11 0.43 2.05 1.27 2.83 0.79 0.85 1.76 1.27 2.93 1.27 1.89 0 5.86-1.95 11.92-5.86 5.99-3.9 9.7-6.73 11.13-8.49 0.72-0.85 1.07-1.79 1.07-2.83m-5.17-7.23c5.6 0 8.4 2.41 8.4 7.23 0 2.34-0.69 5.07-2.05 8.2-1.37 3.06-3.19 5.4-5.47 7.03-5.02 3.39-11.3 5.08-18.85 5.08-5.6 0-8.4-2.41-8.4-7.23 0-2.15 0.69-4.85 2.05-8.1 1.3-3.13 3.13-5.5 5.47-7.13 5.01-3.39 11.3-5.08 18.85-5.08"/>
  <path d="m2191.1 1017.6c0-1.11-0.42-2.06-1.26-2.84-0.85-0.84-1.83-1.27-2.93-1.27-1.96 0-5.9 1.96-11.82 5.86-6.12 3.97-9.86 6.81-11.23 8.5-0.72 0.91-1.08 1.85-1.08 2.83 0 1.11 0.43 2.05 1.27 2.83 0.79 0.85 1.76 1.27 2.93 1.27 1.89 0 5.86-1.95 11.92-5.86 5.99-3.9 9.7-6.73 11.13-8.49 0.72-0.85 1.07-1.79 1.07-2.83m-5.17-7.23c5.6 0 8.4 2.41 8.4 7.23 0 2.34-0.69 5.07-2.05 8.2-1.37 3.06-3.19 5.4-5.47 7.03-5.02 3.39-11.3 5.08-18.85 5.08-5.6 0-8.4-2.41-8.4-7.23 0-2.15 0.69-4.85 2.05-8.1 1.3-3.13 3.13-5.51 5.47-7.13 5.01-3.39 11.3-5.08 18.85-5.08"/>
  <path d="m616.72 361.02h0.586c0.26-0.065 0.488-0.098 0.684-0.098 7.291 0 13.281 2.572 17.968 7.715 4.688 5.078 7.032 11.003 7.032 17.774 0 8.398-3.484 15.234-10.45 20.508-1.823 1.432-4.199 2.604-7.129 3.515 0.326 4.232 0.489 7.65 0.489 10.254 0 0.521-0.065 2.409-0.196 5.664-0.26 6.055-2.343 11.296-6.25 15.723-3.776 4.362-8.463 6.543-14.062 6.543-5.274 0-9.766-1.856-13.477-5.567-3.711-3.776-5.566-8.333-5.566-13.672 0-2.799 1.074-5.175 3.223-7.128 2.213-1.954 4.785-2.93 7.714-2.93 2.605 0 4.786 1.009 6.543 3.027 1.823 1.888 2.735 4.232 2.735 7.031 0 2.54-0.912 4.721-2.735 6.543-1.823 1.823-4.004 2.735-6.543 2.735-1.041 0-2.05-0.195-3.027-0.586 2.865 4.232 6.673 6.348 11.426 6.348 4.492 0 8.17-1.823 11.035-5.469 2.995-3.776 4.622-8.171 4.883-13.184 0.13-3.125 0.195-4.915 0.195-5.371 0-3.646-0.13-6.641-0.39-8.984-3.256 0.521-6.153 0.781-8.692 0.781-9.049 0-16.764-3.581-23.144-10.742-6.25-7.227-9.375-15.821-9.375-25.781 0-2.084 0.195-4.2 0.586-6.348 0.39-1.758 0.878-3.679 1.464-5.762 0.326-1.172 1.205-3.06 2.637-5.664 0.521-0.781 1.107-1.758 1.758-2.93 0.651-1.171 1.107-1.953 1.367-2.343 0.651-1.302 1.921-3.06 3.809-5.274 0.52-0.586 1.058-1.237 1.611-1.953s1.025-1.302 1.416-1.758c0.391-0.455 0.684-0.814 0.879-1.074s1.66-1.986 4.394-5.176c0.651-0.651 1.286-1.351 1.905-2.099 0.618-0.749 1.123-1.335 1.513-1.758 0.391-0.423 0.684-0.733 0.879-0.928-2.343-7.747-3.808-13.932-4.394-18.555-0.456-3.71-0.684-8.789-0.684-15.234 0-5.664 1.302-10.97 3.906-15.918 2.54-5.143 6.088-9.342 10.645-12.598 0.26-0.195 0.586-0.293 0.977-0.293 0.455 0 0.781 0.098 0.976 0.293 3.516 4.232 6.543 9.734 9.082 16.504 2.604 6.771 3.906 12.924 3.906 18.457 0 6.25-1.497 12.11-4.492 17.579-3.385 5.794-7.747 11.783-13.086 17.968 1.367 4.297 3.19 11.035 5.469 20.215m8.301 45.41c3.385-1.237 6.022-3.353 7.91-6.347 2.083-2.865 3.125-6.088 3.125-9.668 0-4.623-1.563-8.724-4.688-12.305-3.19-3.711-7.259-5.794-12.207-6.25 2.8 13.737 4.753 25.26 5.86 34.57m-37.793-22.558c0 6.445 2.604 12.109 7.812 16.992 5.339 4.752 11.328 7.129 17.969 7.129 2.734 0 5.404-0.196 8.008-0.586-1.042-9.896-3.093-21.745-6.152-35.547-3.711 0.391-6.674 1.693-8.887 3.906-2.149 2.279-3.223 4.85-3.223 7.715 0 4.948 2.637 8.952 7.91 12.012 0.456 0.455 0.684 0.944 0.684 1.465 0 0.52-0.228 1.009-0.684 1.464-0.39 0.456-0.879 0.684-1.465 0.684-0.065 0-0.358-0.065-0.878-0.195-3.711-2.019-6.576-4.623-8.594-7.813-1.888-3.385-2.832-6.803-2.832-10.254 0-4.492 1.4-8.561 4.199-12.207 2.93-3.646 6.738-5.989 11.426-7.031-1.823-7.292-3.321-12.988-4.492-17.09-1.042 1.172-2.295 2.588-3.76 4.248s-2.328 2.653-2.588 2.979c-2.344 3.06-4.134 5.436-5.371 7.129-2.214 3.06-3.841 5.696-4.883 7.91-1.107 2.474-2.083 5.176-2.93 8.105-0.846 2.8-1.269 5.795-1.269 8.985m32.617-99.317c-4.883 2.409-8.724 5.86-11.523 10.352-2.865 4.622-4.297 9.603-4.297 14.941 0 4.688 1.172 11.003 3.515 18.946 4.688-5.665 8.203-10.905 10.547-15.723 2.474-5.078 3.711-10.384 3.711-15.918 0-4.167-0.651-8.366-1.953-12.598"/>
  <path d="m616.72 686.04h0.586c0.26-0.066 0.488-0.098 0.684-0.098 7.291 0 13.281 2.572 17.968 7.715 4.688 5.078 7.032 11.002 7.032 17.773 0 8.399-3.484 15.235-10.45 20.508-1.823 1.432-4.199 2.604-7.129 3.516 0.326 4.231 0.489 7.649 0.489 10.254 0 0.52-0.065 2.408-0.196 5.664-0.26 6.054-2.343 11.295-6.25 15.722-3.776 4.362-8.463 6.543-14.062 6.543-5.274 0-9.766-1.855-13.477-5.566-3.711-3.776-5.566-8.334-5.566-13.672 0-2.8 1.074-5.176 3.223-7.129 2.213-1.953 4.785-2.93 7.714-2.93 2.605 0 4.786 1.009 6.543 3.028 1.823 1.888 2.735 4.231 2.735 7.031 0 2.539-0.912 4.72-2.735 6.543s-4.004 2.734-6.543 2.734c-1.041 0-2.05-0.195-3.027-0.586 2.865 4.232 6.673 6.348 11.426 6.348 4.492 0 8.17-1.823 11.035-5.469 2.995-3.776 4.622-8.17 4.883-13.183 0.13-3.125 0.195-4.916 0.195-5.371 0-3.646-0.13-6.641-0.39-8.985-3.256 0.521-6.153 0.781-8.692 0.781-9.049 0-16.764-3.58-23.144-10.742-6.25-7.226-9.375-15.82-9.375-25.781 0-2.083 0.195-4.199 0.586-6.348 0.39-1.757 0.878-3.678 1.464-5.761 0.326-1.172 1.205-3.06 2.637-5.664 0.521-0.782 1.107-1.758 1.758-2.93s1.107-1.953 1.367-2.344c0.651-1.302 1.921-3.06 3.809-5.273 0.52-0.586 1.058-1.237 1.611-1.953 0.553-0.717 1.025-1.303 1.416-1.758 0.391-0.456 0.684-0.814 0.879-1.074 0.195-0.261 1.66-1.986 4.394-5.176 0.651-0.651 1.286-1.351 1.905-2.1 0.618-0.749 1.123-1.334 1.513-1.758 0.391-0.423 0.684-0.732 0.879-0.927-2.343-7.748-3.808-13.933-4.394-18.555-0.456-3.711-0.684-8.789-0.684-15.234 0-5.665 1.302-10.971 3.906-15.918 2.54-5.144 6.088-9.343 10.645-12.598 0.26-0.195 0.586-0.293 0.977-0.293 0.455 0 0.781 0.098 0.976 0.293 3.516 4.232 6.543 9.733 9.082 16.504 2.604 6.771 3.906 12.923 3.906 18.457 0 6.25-1.497 12.109-4.492 17.578-3.385 5.794-7.747 11.784-13.086 17.969 1.367 4.297 3.19 11.035 5.469 20.215m8.301 45.41c3.385-1.237 6.022-3.353 7.91-6.348 2.083-2.865 3.125-6.087 3.125-9.668 0-4.622-1.563-8.724-4.688-12.305-3.19-3.711-7.259-5.794-12.207-6.25 2.8 13.737 4.753 25.261 5.86 34.571m-37.793-22.559c0 6.445 2.604 12.11 7.812 16.992 5.339 4.753 11.328 7.129 17.969 7.129 2.734 0 5.404-0.195 8.008-0.586-1.042-9.896-3.093-21.745-6.152-35.547-3.711 0.391-6.674 1.693-8.887 3.907-2.149 2.278-3.223 4.85-3.223 7.715 0 4.947 2.637 8.951 7.91 12.011 0.456 0.456 0.684 0.944 0.684 1.465s-0.228 1.009-0.684 1.465c-0.39 0.456-0.879 0.684-1.465 0.684-0.065 0-0.358-0.066-0.878-0.196-3.711-2.018-6.576-4.622-8.594-7.812-1.888-3.386-2.832-6.804-2.832-10.254 0-4.492 1.4-8.561 4.199-12.207 2.93-3.646 6.738-5.99 11.426-7.031-1.823-7.292-3.321-12.989-4.492-17.09-1.042 1.172-2.295 2.588-3.76 4.248s-2.328 2.653-2.588 2.978c-2.344 3.06-4.134 5.436-5.371 7.129-2.214 3.06-3.841 5.697-4.883 7.91-1.107 2.474-2.083 5.176-2.93 8.106-0.846 2.799-1.269 5.794-1.269 8.984m32.617-99.316c-4.883 2.409-8.724 5.859-11.523 10.351-2.865 4.623-4.297 9.603-4.297 14.942 0 4.687 1.172 11.002 3.515 18.945 4.688-5.664 8.203-10.905 10.547-15.723 2.474-5.078 3.711-10.384 3.711-15.918 0-4.166-0.651-8.366-1.953-12.597"/>
  <path d="m616.72 1011.1h0.586c0.26-0.06 0.488-0.09 0.684-0.09 7.291 0 13.281 2.57 17.968 7.71 4.688 5.08 7.032 11 7.032 17.77 0 8.4-3.484 15.24-10.45 20.51-1.823 1.43-4.199 2.61-7.129 3.52 0.326 4.23 0.489 7.65 0.489 10.25 0 0.52-0.065 2.41-0.196 5.67-0.26 6.05-2.343 11.29-6.25 15.72-3.776 4.36-8.463 6.54-14.062 6.54-5.274 0-9.766-1.85-13.477-5.57-3.711-3.77-5.566-8.33-5.566-13.67 0-2.8 1.074-5.17 3.223-7.13 2.213-1.95 4.785-2.93 7.714-2.93 2.605 0 4.786 1.01 6.543 3.03 1.823 1.89 2.735 4.23 2.735 7.03 0 2.54-0.912 4.72-2.735 6.55-1.823 1.82-4.004 2.73-6.543 2.73-1.041 0-2.05-0.2-3.027-0.59 2.865 4.24 6.673 6.35 11.426 6.35 4.492 0 8.17-1.82 11.035-5.47 2.995-3.77 4.622-8.17 4.883-13.18 0.13-3.13 0.195-4.92 0.195-5.37 0-3.65-0.13-6.64-0.39-8.99-3.256 0.52-6.153 0.78-8.692 0.78-9.049 0-16.764-3.58-23.144-10.74-6.25-7.22-9.375-15.82-9.375-25.78 0-2.08 0.195-4.2 0.586-6.35 0.39-1.75 0.878-3.67 1.464-5.76 0.326-1.17 1.205-3.06 2.637-5.66 0.521-0.78 1.107-1.76 1.758-2.93s1.107-1.95 1.367-2.35c0.651-1.3 1.921-3.06 3.809-5.27 0.52-0.58 1.058-1.24 1.611-1.95 0.553-0.718 1.025-1.304 1.416-1.76s0.684-0.814 0.879-1.074 1.66-1.986 4.394-5.176c0.651-0.651 1.286-1.351 1.905-2.099 0.618-0.749 1.123-1.335 1.513-1.758 0.391-0.423 0.684-0.733 0.879-0.928-2.343-7.747-3.808-13.932-4.394-18.555-0.456-3.711-0.684-8.789-0.684-15.234 0-5.664 1.302-10.97 3.906-15.918 2.54-5.143 6.088-9.342 10.645-12.598 0.26-0.195 0.586-0.293 0.977-0.293 0.455 0 0.781 0.098 0.976 0.293 3.516 4.232 6.543 9.733 9.082 16.504 2.604 6.771 3.906 12.923 3.906 18.457 0 6.25-1.497 12.11-4.492 17.578-3.385 5.795-7.747 11.784-13.086 17.969 1.367 4.302 3.19 11.032 5.469 20.212m8.301 45.41c3.385-1.23 6.022-3.35 7.91-6.34 2.083-2.87 3.125-6.09 3.125-9.67 0-4.62-1.563-8.73-4.688-12.31-3.19-3.71-7.259-5.79-12.207-6.25 2.8 13.74 4.753 25.26 5.86 34.57m-37.793-22.56c0 6.45 2.604 12.11 7.812 17 5.339 4.75 11.328 7.13 17.969 7.13 2.734 0 5.404-0.2 8.008-0.59-1.042-9.9-3.093-21.75-6.152-35.55-3.711 0.39-6.674 1.7-8.887 3.91-2.149 2.28-3.223 4.85-3.223 7.71 0 4.95 2.637 8.96 7.91 12.02 0.456 0.45 0.684 0.94 0.684 1.46s-0.228 1.01-0.684 1.47c-0.39 0.45-0.879 0.68-1.465 0.68-0.065 0-0.358-0.07-0.878-0.2-3.711-2.01-6.576-4.62-8.594-7.81-1.888-3.38-2.832-6.8-2.832-10.25 0-4.49 1.4-8.56 4.199-12.21 2.93-3.65 6.738-5.99 11.426-7.03-1.823-7.29-3.321-12.99-4.492-17.091-1.042 1.171-2.295 2.591-3.76 4.251s-2.328 2.65-2.588 2.98c-2.344 3.06-4.134 5.43-5.371 7.12-2.214 3.06-3.841 5.7-4.883 7.91-1.107 2.48-2.083 5.18-2.93 8.11-0.846 2.8-1.269 5.79-1.269 8.98m32.617-99.312c-4.883 2.409-8.724 5.86-11.523 10.352-2.865 4.622-4.297 9.603-4.297 14.941 0 4.688 1.172 11.003 3.515 18.945 4.688-5.664 8.203-10.904 10.547-15.722 2.474-5.078 3.711-10.384 3.711-15.918 0-4.167-0.651-8.366-1.953-12.598"/>
  <path d="m673.12 357.5v7.715c0 2.734 0.13 4.915 0.391 6.543 2.148-1.823 3.678-3.19 4.59-4.102 1.041-1.042 2.083-2.474 3.125-4.297 1.041-1.823 1.562-3.646 1.562-5.468 0-1.823-0.391-3.386-1.172-4.688s-1.823-1.953-3.125-1.953c-1.562 0-2.864 0.586-3.906 1.758-0.977 1.302-1.465 2.799-1.465 4.492m-4.101 17.871-1.27-59.473c0.911-0.521 1.823-0.781 2.734-0.781 0.912 0 1.823 0.26 2.735 0.781l-0.781 34.473c2.669-2.279 5.729-3.418 9.179-3.418 2.539 0 4.655 1.042 6.348 3.125s2.539 4.46 2.539 7.129c0 1.693-0.553 3.483-1.66 5.371-1.042 1.758-2.149 3.125-3.321 4.102-0.651 0.52-2.311 1.822-4.98 3.906-0.781 0.586-1.709 1.269-2.783 2.051-1.074 0.781-1.742 1.269-2.002 1.464-0.456 0.261-0.879 0.782-1.27 1.563-0.455 0.651-0.976 1.204-1.562 1.66-0.456 0.391-1.009 0.586-1.66 0.586s-1.172-0.228-1.563-0.684c-0.456-0.455-0.683-1.074-0.683-1.855"/>
  <path d="m673.12 682.52v7.715c0 2.735 0.13 4.916 0.391 6.543 2.148-1.823 3.678-3.19 4.59-4.101 1.041-1.042 2.083-2.474 3.125-4.297 1.041-1.823 1.562-3.646 1.562-5.469s-0.391-3.385-1.172-4.688c-0.781-1.302-1.823-1.953-3.125-1.953-1.562 0-2.864 0.586-3.906 1.758-0.977 1.302-1.465 2.8-1.465 4.492m-4.101 17.871-1.27-59.472c0.911-0.521 1.823-0.781 2.734-0.781 0.912 0 1.823 0.26 2.735 0.781l-0.781 34.472c2.669-2.278 5.729-3.418 9.179-3.418 2.539 0 4.655 1.042 6.348 3.125 1.693 2.084 2.539 4.46 2.539 7.129 0 1.693-0.553 3.483-1.66 5.371-1.042 1.758-2.149 3.125-3.321 4.102-0.651 0.521-2.311 1.823-4.98 3.906-0.781 0.586-1.709 1.27-2.783 2.051s-1.742 1.27-2.002 1.465c-0.456 0.26-0.879 0.781-1.27 1.562-0.455 0.651-0.976 1.205-1.562 1.661-0.456 0.39-1.009 0.586-1.66 0.586s-1.172-0.228-1.563-0.684c-0.456-0.456-0.683-1.074-0.683-1.856"/>
  <path d="m673.12 1007.5v7.71c0 2.74 0.13 4.92 0.391 6.54 2.148-1.82 3.678-3.19 4.59-4.1 1.041-1.04 2.083-2.47 3.125-4.29 1.041-1.83 1.562-3.65 1.562-5.47 0-1.83-0.391-3.39-1.172-4.69s-1.823-1.95-3.125-1.95c-1.562 0-2.864 0.58-3.906 1.75-0.977 1.31-1.465 2.8-1.465 4.5m-4.101 17.87-1.27-59.476c0.911-0.521 1.823-0.781 2.734-0.781 0.912 0 1.823 0.26 2.735 0.781l-0.781 34.476c2.669-2.28 5.729-3.42 9.179-3.42 2.539 0 4.655 1.04 6.348 3.12 1.693 2.09 2.539 4.46 2.539 7.13 0 1.7-0.553 3.49-1.66 5.37-1.042 1.76-2.149 3.13-3.321 4.11-0.651 0.52-2.311 1.82-4.98 3.9-0.781 0.59-1.709 1.27-2.783 2.05s-1.742 1.27-2.002 1.47c-0.456 0.26-0.879 0.78-1.27 1.56-0.455 0.65-0.976 1.2-1.562 1.66-0.456 0.39-1.009 0.59-1.66 0.59s-1.172-0.23-1.563-0.69c-0.456-0.45-0.683-1.07-0.683-1.85"/>
  <path d="m738.5 361.6c-1.953 0-3.711-0.358-5.273-1.074-1.563-0.716-2.67-1.465-3.321-2.246-0.846-0.977-1.692-1.726-2.539-2.247-1.041-0.716-2.116-1.074-3.222-1.074-1.693 0-3.093 0.521-4.2 1.563-1.172 0.976-1.823 2.311-1.953 4.004-0.13 0.716-0.521 1.074-1.172 1.074-0.781 0-1.172-0.358-1.172-1.074 0-2.539 0.586-4.818 1.758-6.836 1.172-2.084 2.604-3.809 4.297-5.176 1.432-1.237 3.32-2.734 5.664-4.492 0.391-0.326 1.221-1.009 2.49-2.051 1.27-1.042 2.328-1.921 3.174-2.637 1.693-1.432 3.158-3.32 4.395-5.664 1.172-2.344 1.758-4.883 1.758-7.617 0-3.32-0.554-6.185-1.661-8.594-1.171-2.343-2.962-3.515-5.371-3.515-1.497 0-2.701 0.325-3.613 0.976-0.977 0.651-1.465 1.53-1.465 2.637 0 0.911 0.586 2.051 1.758 3.418s1.758 2.506 1.758 3.418c0 1.953-0.684 3.613-2.051 4.98-1.302 1.302-2.897 1.953-4.785 1.953-1.953 0-3.613-0.683-4.981-2.05-1.302-1.433-1.953-3.06-1.953-4.883 0-3.711 1.498-6.771 4.492-9.18 2.995-2.409 6.609-3.613 10.84-3.613 5.013 0 9.375 1.367 13.086 4.101 3.711 2.605 5.567 6.055 5.567 10.352 0 2.93-0.521 5.436-1.563 7.52-0.976 2.213-2.441 3.938-4.394 5.175-2.214 1.433-4.134 2.539-5.762 3.321-2.279 1.041-4.557 2.018-6.836 2.929-2.734 1.107-4.85 2.149-6.348 3.125 0.847-0.195 1.726-0.293 2.637-0.293 2.995 0 6.12 0.977 9.375 2.93 3.32 1.953 5.892 2.93 7.715 2.93 1.107 0 1.986-0.196 2.637-0.586 0.651-0.391 1.074-0.814 1.269-1.27 0.261-0.651 0.488-1.107 0.684-1.367 0.26-0.391 0.586-0.586 0.976-0.586 0.782 0 1.172 0.391 1.172 1.172 0 1.823-1.302 4.036-3.906 6.641-2.539 2.604-5.859 3.906-9.961 3.906"/>
  <path d="m738.5 411.6c-1.953 0-3.711-0.358-5.273-1.074-1.563-0.716-2.67-1.465-3.321-2.246-0.846-0.977-1.692-1.726-2.539-2.246-1.041-0.717-2.116-1.075-3.222-1.075-1.693 0-3.093 0.521-4.2 1.563-1.172 0.976-1.823 2.311-1.953 4.004-0.13 0.716-0.521 1.074-1.172 1.074-0.781 0-1.172-0.358-1.172-1.074 0-2.539 0.586-4.818 1.758-6.836 1.172-2.083 2.604-3.809 4.297-5.176 1.432-1.237 3.32-2.734 5.664-4.492 0.391-0.326 1.221-1.009 2.49-2.051 1.27-1.042 2.328-1.92 3.174-2.637 1.693-1.432 3.158-3.32 4.395-5.664 1.172-2.343 1.758-4.882 1.758-7.617 0-3.32-0.554-6.185-1.661-8.594-1.171-2.343-2.962-3.515-5.371-3.515-1.497 0-2.701 0.325-3.613 0.976-0.977 0.651-1.465 1.53-1.465 2.637 0 0.912 0.586 2.051 1.758 3.418s1.758 2.507 1.758 3.418c0 1.953-0.684 3.613-2.051 4.98-1.302 1.303-2.897 1.954-4.785 1.954-1.953 0-3.613-0.684-4.981-2.051-1.302-1.432-1.953-3.06-1.953-4.883 0-3.711 1.498-6.771 4.492-9.18 2.995-2.409 6.609-3.613 10.84-3.613 5.013 0 9.375 1.367 13.086 4.102 3.711 2.604 5.567 6.054 5.567 10.351 0 2.93-0.521 5.436-1.563 7.52-0.976 2.213-2.441 3.938-4.394 5.175-2.214 1.433-4.134 2.54-5.762 3.321-2.279 1.041-4.557 2.018-6.836 2.929-2.734 1.107-4.85 2.149-6.348 3.125 0.847-0.195 1.726-0.292 2.637-0.292 2.995 0 6.12 0.976 9.375 2.929 3.32 1.953 5.892 2.93 7.715 2.93 1.107 0 1.986-0.195 2.637-0.586s1.074-0.814 1.269-1.27c0.261-0.651 0.488-1.106 0.684-1.367 0.26-0.39 0.586-0.586 0.976-0.586 0.782 0 1.172 0.391 1.172 1.172 0 1.823-1.302 4.037-3.906 6.641-2.539 2.604-5.859 3.906-9.961 3.906"/>
  <path d="m1400.5 439.25c1.5 0 3.09 2.441 4.79 7.324 1.62 4.818 2.44 9.407 2.44 13.769 0 3.711-0.91 7.39-2.74 11.036-1.89 3.906-4.13 7.291-6.74 10.156l-8 8.984c-2.48 2.865-4.69 6.185-6.64 9.961-1.83 3.646-2.74 7.357-2.74 11.133h-3.12v-25h3.12c1.76-1.107 4.36-2.865 7.81-5.274 1.57-1.171 3.91-3.125 7.04-5.859 2.53-2.344 4.45-4.753 5.76-7.226 1.36-2.605 2.05-5.241 2.05-7.911 0-6.185-1.79-12.337-5.37-18.457v-0.39c0-0.586 0.19-1.075 0.58-1.465 0.52-0.521 1.11-0.781 1.76-0.781"/>
  <path d="m1719.7 439.25c1.5 0 3.1 2.441 4.79 7.324 1.63 4.818 2.44 9.407 2.44 13.769 0 3.711-0.91 7.39-2.73 11.036-1.89 3.906-4.14 7.291-6.74 10.156l-8.01 8.984c-2.47 2.865-4.69 6.185-6.64 9.961-1.82 3.646-2.74 7.357-2.74 11.133h-3.12v-25h3.12c1.76-1.107 4.37-2.865 7.82-5.274 1.56-1.171 3.9-3.125 7.03-5.859 2.54-2.344 4.46-4.753 5.76-7.226 1.37-2.605 2.05-5.241 2.05-7.911 0-6.185-1.79-12.337-5.37-18.457v-0.39c0-0.586 0.2-1.075 0.59-1.465 0.52-0.521 1.1-0.781 1.75-0.781"/>
  <path d="m2077.5 426.75c1.5 0 3.09 2.441 4.78 7.324 1.63 4.818 2.45 9.408 2.45 13.77 0 3.711-0.92 7.389-2.74 11.035-1.89 3.906-4.13 7.291-6.74 10.156l-8 8.984c-2.48 2.865-4.69 6.185-6.64 9.961-1.83 3.646-2.74 7.357-2.74 11.133h-3.12v-25h3.12c1.76-1.107 4.36-2.864 7.81-5.273 1.57-1.172 3.91-3.125 7.03-5.86 2.54-2.343 4.46-4.752 5.77-7.226 1.36-2.604 2.05-5.241 2.05-7.91 0-6.185-1.79-12.338-5.37-18.457v-0.391c0-0.586 0.19-1.074 0.58-1.465 0.52-0.521 1.11-0.781 1.76-0.781"/>
  <path d="m1050.7 386.6v-25h3.12c0 3.711 0.72 7.422 2.15 11.133 1.56 4.037 3.29 7.552 5.18 10.547 1.36 2.149 3.42 5.436 6.15 9.863 2.08 3.386 3.84 6.934 5.27 10.645 1.44 3.711 2.15 7.422 2.15 11.133 0 6.771-1.4 13.672-4.2 20.703-0.52 0.781-1.14 1.172-1.85 1.172-0.65 0-1.24-0.261-1.76-0.781-0.39-0.391-0.59-0.879-0.59-1.465v-0.489c2.8-6.445 4.2-12.825 4.2-19.14 0-3.255-0.97-6.771-2.93-10.547-1.95-3.841-3.94-6.901-5.95-9.18-2.28-2.669-4.89-5.534-7.82-8.594h-3.12"/>
  <path d="m1407.4 361.6v-25h3.13c0 3.711 0.71 7.422 2.15 11.133 1.56 4.036 3.28 7.552 5.17 10.547 1.37 2.148 3.42 5.436 6.15 9.863 2.09 3.385 3.85 6.933 5.28 10.644s2.15 7.422 2.15 11.133c0 6.771-1.4 13.672-4.2 20.703-0.52 0.782-1.14 1.172-1.86 1.172-0.65 0-1.24-0.26-1.76-0.781-0.39-0.391-0.58-0.879-0.58-1.465v-0.488c2.8-6.445 4.2-12.826 4.2-19.141 0-3.255-0.98-6.771-2.93-10.547-1.96-3.841-3.94-6.901-5.96-9.179-2.28-2.67-4.88-5.534-7.81-8.594h-3.13"/>
  <path d="m1726.7 361.6v-25h3.12c0 3.711 0.72 7.422 2.15 11.133 1.56 4.036 3.29 7.552 5.18 10.547 1.36 2.148 3.41 5.436 6.15 9.863 2.08 3.385 3.84 6.933 5.27 10.644s2.15 7.422 2.15 11.133c0 6.771-1.4 13.672-4.2 20.703-0.52 0.782-1.14 1.172-1.86 1.172-0.65 0-1.23-0.26-1.75-0.781-0.39-0.391-0.59-0.879-0.59-1.465v-0.488c2.8-6.445 4.2-12.826 4.2-19.141 0-3.255-0.98-6.771-2.93-10.547-1.95-3.841-3.94-6.901-5.96-9.179-2.28-2.67-4.88-5.534-7.81-8.594h-3.12"/>
  <path d="m2084.4 349.1v-25h3.13c0 3.711 0.71 7.422 2.15 11.133 1.56 4.036 3.28 7.552 5.17 10.547 1.37 2.148 3.42 5.436 6.15 9.863 2.09 3.385 3.84 6.934 5.28 10.645 1.43 3.711 2.15 7.421 2.15 11.132 0 6.771-1.4 13.672-4.2 20.704-0.52 0.781-1.14 1.171-1.86 1.171-0.65 0-1.24-0.26-1.76-0.781-0.39-0.39-0.58-0.879-0.58-1.465v-0.488c2.8-6.445 4.2-12.825 4.2-19.141 0-3.255-0.98-6.77-2.93-10.546-1.96-3.842-3.94-6.902-5.96-9.18-2.28-2.669-4.88-5.534-7.81-8.594h-3.13"/>
  <path d="m2403.6 327.22v-25h3.12c0 3.711 0.72 7.422 2.15 11.133 1.56 4.036 3.29 7.552 5.17 10.546 1.37 2.149 3.42 5.437 6.16 9.864 2.08 3.385 3.84 6.933 5.27 10.644s2.15 7.422 2.15 11.133c0 6.771-1.4 13.672-4.2 20.703-0.52 0.781-1.14 1.172-1.86 1.172-0.65 0-1.23-0.26-1.75-0.781-0.39-0.391-0.59-0.879-0.59-1.465v-0.488c2.8-6.446 4.2-12.826 4.2-19.141 0-3.255-0.98-6.771-2.93-10.547-1.95-3.841-3.94-6.901-5.96-9.18-2.28-2.669-4.88-5.533-7.81-8.593h-3.12"/>
  <path d="m2051 652.24v-25h3.13c0 3.711 0.71 7.422 2.15 11.133 1.56 4.036 3.28 7.552 5.17 10.547 1.37 2.148 3.42 5.436 6.15 9.863 2.09 3.386 3.84 6.934 5.28 10.645 1.43 3.711 2.15 7.422 2.15 11.133 0 6.77-1.4 13.671-4.2 20.703-0.53 0.781-1.14 1.172-1.86 1.172-0.65 0-1.24-0.261-1.76-0.782-0.39-0.39-0.58-0.879-0.58-1.465v-0.488c2.8-6.445 4.2-12.825 4.2-19.14 0-3.256-0.98-6.771-2.93-10.547-1.96-3.842-3.94-6.901-5.96-9.18-2.28-2.669-4.88-5.534-7.81-8.594h-3.13"/>
  <path d="m2395.2 652.24v-25h3.12c0 3.711 0.72 7.422 2.15 11.133 1.56 4.036 3.29 7.552 5.18 10.547 1.36 2.148 3.41 5.436 6.15 9.863 2.08 3.386 3.84 6.934 5.27 10.645s2.15 7.422 2.15 11.133c0 6.77-1.4 13.671-4.2 20.703-0.52 0.781-1.14 1.172-1.85 1.172-0.66 0-1.24-0.261-1.76-0.782-0.39-0.39-0.59-0.879-0.59-1.465v-0.488c2.8-6.445 4.2-12.825 4.2-19.14 0-3.256-0.98-6.771-2.93-10.547-1.95-3.842-3.94-6.901-5.96-9.18-2.27-2.669-4.88-5.534-7.81-8.594h-3.12"/>
  <path d="m1432.6 977.26v-25h3.12c0 3.711 0.72 7.422 2.15 11.132 1.56 4.037 3.29 7.553 5.18 10.547 1.36 2.149 3.41 5.437 6.15 9.864 2.08 3.385 3.84 6.933 5.27 10.644 1.43 3.714 2.15 7.424 2.15 11.134 0 6.77-1.4 13.67-4.2 20.7-0.52 0.78-1.14 1.17-1.86 1.17-0.65 0-1.23-0.26-1.75-0.78-0.39-0.39-0.59-0.88-0.59-1.46v-0.49c2.8-6.45 4.2-12.83 4.2-19.14 0-3.26-0.98-6.77-2.93-10.55-1.95-3.839-3.94-6.899-5.96-9.178-2.28-2.669-4.88-5.533-7.81-8.593h-3.12"/>
  <path d="m2206.2 403.11c-1.11-1.107-1.66-2.442-1.66-4.004 0-1.563 0.55-2.897 1.66-4.004s2.44-1.66 4.01-1.66c1.56 0 2.89 0.553 4 1.66s1.66 2.441 1.66 4.004c0 1.562-0.55 2.897-1.66 4.004-1.11 1.106-2.44 1.66-4 1.66-1.57 0-2.9-0.554-4.01-1.66"/>
  <path d="m855.16 453.11c-1.107-1.107-1.66-2.442-1.66-4.004 0-1.563 0.553-2.897 1.66-4.004s2.441-1.66 4.004-1.66c1.562 0 2.897 0.553 4.004 1.66s1.66 2.441 1.66 4.004c0 1.562-0.553 2.897-1.66 4.004s-2.442 1.66-4.004 1.66c-1.563 0-2.897-0.553-4.004-1.66"/>
  <path d="m1210 428.11c-1.11-1.106-1.66-2.441-1.66-4.004 0-1.562 0.55-2.897 1.66-4.004 1.11-1.106 2.44-1.66 4-1.66 1.57 0 2.9 0.554 4.01 1.66 1.1 1.107 1.66 2.442 1.66 4.004 0 1.563-0.56 2.898-1.66 4.004-1.11 1.107-2.44 1.66-4.01 1.66-1.56 0-2.89-0.553-4-1.66"/>
  <path d="m1529.3 428.11c-1.1-1.106-1.66-2.441-1.66-4.004 0-1.562 0.56-2.897 1.66-4.004 1.11-1.106 2.44-1.66 4.01-1.66 1.56 0 2.89 0.554 4 1.66 1.11 1.107 1.66 2.442 1.66 4.004 0 1.563-0.55 2.898-1.66 4.004-1.11 1.107-2.44 1.66-4 1.66-1.57 0-2.9-0.553-4.01-1.66"/>
  <path d="m1887 428.11c-1.11-1.106-1.66-2.441-1.66-4.004 0-1.562 0.55-2.897 1.66-4.004 1.1-1.106 2.44-1.66 4-1.66s2.9 0.554 4.01 1.66c1.1 1.107 1.66 2.442 1.66 4.004 0 1.563-0.56 2.898-1.66 4.004-1.11 1.107-2.45 1.66-4.01 1.66s-2.9-0.553-4-1.66"/>
  <path d="m1837.1 753.13c-1.11-1.107-1.66-2.442-1.66-4.004 0-1.563 0.55-2.897 1.66-4.004 1.1-1.107 2.44-1.66 4-1.66s2.9 0.553 4 1.66c1.11 1.107 1.66 2.441 1.66 4.004 0 1.562-0.55 2.897-1.66 4.004-1.1 1.107-2.44 1.66-4 1.66s-2.9-0.553-4-1.66"/>
  <path d="m1837.1 728.13c-1.11-1.107-1.66-2.441-1.66-4.004 0-1.562 0.55-2.897 1.66-4.004 1.1-1.106 2.44-1.66 4-1.66s2.9 0.554 4 1.66c1.11 1.107 1.66 2.442 1.66 4.004 0 1.563-0.55 2.897-1.66 4.004-1.1 1.107-2.44 1.66-4 1.66s-2.9-0.553-4-1.66"/>
  <path d="m2181.3 753.13c-1.11-1.107-1.66-2.442-1.66-4.004 0-1.563 0.55-2.897 1.66-4.004s2.44-1.66 4-1.66c1.57 0 2.9 0.553 4.01 1.66 1.1 1.107 1.66 2.441 1.66 4.004 0 1.562-0.56 2.897-1.66 4.004-1.11 1.107-2.44 1.66-4.01 1.66-1.56 0-2.89-0.553-4-1.66"/>
  <path d="m2181.3 728.13c-1.11-1.107-1.66-2.441-1.66-4.004 0-1.562 0.55-2.897 1.66-4.004 1.11-1.106 2.44-1.66 4-1.66 1.57 0 2.9 0.554 4.01 1.66 1.1 1.107 1.66 2.442 1.66 4.004 0 1.563-0.56 2.897-1.66 4.004-1.11 1.107-2.44 1.66-4.01 1.66-1.56 0-2.89-0.553-4-1.66"/>
  <path d="m1200.2 1053.1c-1.11-1.1-1.66-2.44-1.66-4s0.55-2.9 1.66-4c1.1-1.11 2.44-1.66 4-1.66s2.9 0.55 4.01 1.66c1.1 1.1 1.66 2.44 1.66 4s-0.56 2.9-1.66 4c-1.11 1.11-2.45 1.66-4.01 1.66s-2.9-0.55-4-1.66"/>
  <path d="m1200.2 1028.1c-1.11-1.1-1.66-2.44-1.66-4s0.55-2.9 1.66-4.01c1.1-1.1 2.44-1.66 4-1.66s2.9 0.56 4.01 1.66c1.1 1.11 1.66 2.45 1.66 4.01s-0.56 2.9-1.66 4c-1.11 1.11-2.45 1.66-4.01 1.66s-2.9-0.55-4-1.66"/>
</svg>
