<?xml version="1.0" encoding="utf-8"?>
<svg xmlns="http://www.w3.org/2000/svg" version="1.2" viewBox="560 210 1926 276">
	<title>Chapter 10 score.</title>
	<path d="m560 309.72h1926.1" fill="none" stroke="#000" stroke-linejoin="bevel" stroke-width="2"/>
	<path d="m560 334.72h1926.1" fill="none" stroke="#000" stroke-linejoin="bevel" stroke-width="2"/>
	<path d="m560 359.72h1926.1" fill="none" stroke="#000" stroke-linejoin="bevel" stroke-width="2"/>
	<path d="m560 384.72h1926.1" fill="none" stroke="#000" stroke-linejoin="bevel" stroke-width="2"/>
	<path d="m560 409.72h1926.1" fill="none" stroke="#000" stroke-linejoin="bevel" stroke-width="2"/>
	<path d="m1213.6 308.72v102.01" fill="none" stroke="#000" stroke-linejoin="bevel" stroke-width="4"/>
	<path d="m1648.2 308.72v102.01" fill="none" stroke="#000" stroke-linejoin="bevel" stroke-width="4"/>
	<path d="m2178.8 308.72v102.01" fill="none" stroke="#000" stroke-linejoin="bevel" stroke-width="4"/>
	<path d="m807.57 401.92v82.81" fill="none" stroke="#000" stroke-linecap="round" stroke-linejoin="bevel" stroke-width="3.25"/>
	<path d="m961.2 401.92v82.81" fill="none" stroke="#000" stroke-linecap="round" stroke-linejoin="bevel" stroke-width="3.25"/>
	<path d="m1040 401.92v64.059" fill="none" stroke="#000" stroke-linecap="round" stroke-linejoin="bevel" stroke-width="3.25"/>
	<path d="m1676.8 351.91v82.81" fill="none" stroke="#000" stroke-linecap="round" stroke-linejoin="bevel" stroke-width="3.25"/>
	<path d="m1842.6 351.91v82.81" fill="none" stroke="#000" stroke-linecap="round" stroke-linejoin="bevel" stroke-width="3.25"/>
	<path d="m1927.6 351.91v82.81" fill="none" stroke="#000" stroke-linecap="round" stroke-linejoin="bevel" stroke-width="3.25"/>
	<path d="m2093.5 339.41v82.809" fill="none" stroke="#000" stroke-linecap="round" stroke-linejoin="bevel" stroke-width="3.25"/>
	<path d="m2207.5 389.42v82.81" fill="none" stroke="#000" stroke-linecap="round" stroke-linejoin="bevel" stroke-width="3.25"/>
	<path d="m2334.4 376.92v82.81" fill="none" stroke="#000" stroke-linecap="round" stroke-linejoin="bevel" stroke-width="3.25"/>
	<path d="m837.24 392.52v-82.81" fill="none" stroke="#000" stroke-linecap="round" stroke-linejoin="bevel" stroke-width="3.25"/>
	<path d="m990.87 392.52v-82.81" fill="none" stroke="#000" stroke-linecap="round" stroke-linejoin="bevel" stroke-width="3.25"/>
	<path d="m1069.6 392.52v-82.81" fill="none" stroke="#000" stroke-linecap="round" stroke-linejoin="bevel" stroke-width="3.25"/>
	<path d="m1271.9 392.52v-107.81" fill="none" stroke="#000" stroke-linecap="round" stroke-linejoin="bevel" stroke-width="3.25"/>
	<path d="m1425.5 392.52v-107.81" fill="none" stroke="#000" stroke-linecap="round" stroke-linejoin="bevel" stroke-width="3.25"/>
	<path d="m1504.2 392.52v-101.56" fill="none" stroke="#000" stroke-linecap="round" stroke-linejoin="bevel" stroke-width="3.25"/>
	<path d="m1706.5 342.52v-82.81" fill="none" stroke="#000" stroke-linecap="round" stroke-linejoin="bevel" stroke-width="3.25"/>
	<path d="m1872.3 342.52v-82.81" fill="none" stroke="#000" stroke-linecap="round" stroke-linejoin="bevel" stroke-width="3.25"/>
	<path d="m1957.3 342.52v-82.81" fill="none" stroke="#000" stroke-linecap="round" stroke-linejoin="bevel" stroke-width="3.25"/>
	<path d="m2123.1 330.02v-82.81" fill="none" stroke="#000" stroke-linecap="round" stroke-linejoin="bevel" stroke-width="3.25"/>
	<path d="m2237.1 380.02v-79.684" fill="none" stroke="#000" stroke-linecap="round" stroke-linejoin="bevel" stroke-width="3.25"/>
	<path d="m2364 367.52v-76.56" fill="none" stroke="#000" stroke-linecap="round" stroke-linejoin="bevel" stroke-width="3.25"/>
	<path d="m827.92 383.45c3.125 0 5.762 0.814 7.91 2.442 2.018 1.758 3.027 3.971 3.027 6.64 0 4.493-2.311 8.692-6.933 12.598-4.688 3.906-9.701 5.859-15.039 5.859-3.125 0-5.762-0.813-7.91-2.441-2.019-1.758-3.028-3.971-3.028-6.641 0-4.492 2.344-8.691 7.032-12.597 4.557-3.907 9.537-5.86 14.941-5.86"/>
	<path d="m981.55 383.45c3.125 0 5.762 0.814 7.911 2.442 2.018 1.758 3.027 3.971 3.027 6.64 0 4.493-2.311 8.692-6.934 12.598-4.687 3.906-9.7 5.859-15.039 5.859-3.125 0-5.761-0.813-7.91-2.441-2.018-1.758-3.027-3.971-3.027-6.641 0-4.492 2.343-8.691 7.031-12.597 4.557-3.907 9.538-5.86 14.941-5.86"/>
	<path d="m1060.3 383.45c3.12 0 5.76 0.814 7.91 2.442 2.02 1.758 3.03 3.971 3.03 6.64 0 4.493-2.31 8.692-6.94 12.598-4.68 3.906-9.7 5.859-15.04 5.859-3.12 0-5.76-0.813-7.91-2.441-2.01-1.758-3.02-3.971-3.02-6.641 0-4.492 2.34-8.691 7.03-12.597 4.55-3.907 9.54-5.86 14.94-5.86"/>
	<path d="m1697.2 333.45c3.13 0 5.76 0.814 7.91 2.442 2.02 1.757 3.03 3.971 3.03 6.64 0 4.492-2.31 8.692-6.93 12.598-4.69 3.906-9.7 5.859-15.04 5.859-3.13 0-5.76-0.814-7.91-2.441-2.02-1.758-3.03-3.972-3.03-6.641 0-4.492 2.34-8.691 7.03-12.597 4.56-3.907 9.54-5.86 14.94-5.86"/>
	<path d="m1863 333.45c3.12 0 5.76 0.814 7.91 2.442 2.01 1.757 3.02 3.971 3.02 6.64 0 4.492-2.31 8.692-6.93 12.598-4.69 3.906-9.7 5.859-15.04 5.859-3.13 0-5.76-0.814-7.91-2.441-2.02-1.758-3.03-3.972-3.03-6.641 0-4.492 2.35-8.691 7.03-12.597 4.56-3.907 9.54-5.86 14.95-5.86"/>
	<path d="m1948 333.45c3.12 0 5.76 0.814 7.91 2.442 2.02 1.757 3.03 3.971 3.03 6.64 0 4.492-2.31 8.692-6.94 12.598-4.68 3.906-9.7 5.859-15.04 5.859-3.12 0-5.76-0.814-7.91-2.441-2.01-1.758-3.02-3.972-3.02-6.641 0-4.492 2.34-8.691 7.03-12.597 4.56-3.907 9.54-5.86 14.94-5.86"/>
	<path d="m2113.8 320.95c3.13 0 5.76 0.814 7.91 2.442 2.02 1.758 3.03 3.971 3.03 6.64 0 4.493-2.31 8.692-6.93 12.598-4.69 3.906-9.71 5.859-15.04 5.859-3.13 0-5.77-0.813-7.91-2.441-2.02-1.758-3.03-3.971-3.03-6.641 0-4.492 2.34-8.691 7.03-12.597 4.56-3.907 9.54-5.86 14.94-5.86"/>
	<path d="m2227.8 370.95c3.12 0 5.76 0.813 7.91 2.441 2.02 1.758 3.03 3.971 3.03 6.641 0 4.492-2.32 8.691-6.94 12.597-4.69 3.906-9.7 5.86-15.04 5.86-3.12 0-5.76-0.814-7.91-2.442-2.02-1.758-3.02-3.971-3.02-6.64 0-4.493 2.34-8.692 7.03-12.598 4.55-3.906 9.53-5.859 14.94-5.859"/>
	<path d="m2354.7 358.45c3.12 0 5.76 0.814 7.91 2.441 2.02 1.758 3.03 3.971 3.03 6.641 0 4.492-2.31 8.691-6.94 12.597-4.68 3.907-9.7 5.86-15.04 5.86-3.12 0-5.76-0.814-7.91-2.442-2.01-1.757-3.02-3.971-3.02-6.64 0-4.492 2.34-8.692 7.03-12.598 4.56-3.906 9.54-5.859 14.94-5.859"/>
	<path d="m981.55 383.45c3.125 0 5.762 0.814 7.911 2.442 2.018 1.758 3.027 3.971 3.027 6.64 0 4.493-2.311 8.692-6.934 12.598-4.687 3.906-9.7 5.859-15.039 5.859-3.125 0-5.761-0.813-7.91-2.441-2.018-1.758-3.027-3.971-3.027-6.641 0-4.492 2.343-8.691 7.031-12.597 4.557-3.907 9.538-5.86 14.941-5.86"/>
	<path d="m1060.3 383.45c3.12 0 5.76 0.814 7.91 2.442 2.02 1.758 3.03 3.971 3.03 6.64 0 4.493-2.31 8.692-6.94 12.598-4.68 3.906-9.7 5.859-15.04 5.859-3.12 0-5.76-0.813-7.91-2.441-2.01-1.758-3.02-3.971-3.02-6.641 0-4.492 2.34-8.691 7.03-12.597 4.55-3.907 9.54-5.86 14.94-5.86"/>
	<path d="m1262.5 383.45c3.13 0 5.77 0.814 7.92 2.442 2.01 1.758 3.02 3.971 3.02 6.64 0 4.493-2.31 8.692-6.93 12.598-4.69 3.906-9.7 5.859-15.04 5.859-3.13 0-5.76-0.813-7.91-2.441-2.02-1.758-3.03-3.971-3.03-6.641 0-4.492 2.35-8.691 7.03-12.597 4.56-3.907 9.54-5.86 14.94-5.86"/>
	<path d="m1262.5 358.45c3.13 0 5.77 0.814 7.92 2.441 2.01 1.758 3.02 3.971 3.02 6.641 0 4.492-2.31 8.691-6.93 12.597-4.69 3.907-9.7 5.86-15.04 5.86-3.13 0-5.76-0.814-7.91-2.442-2.02-1.757-3.03-3.971-3.03-6.64 0-4.492 2.35-8.692 7.03-12.598 4.56-3.906 9.54-5.859 14.94-5.859"/>
	<path d="m1416.2 383.45c3.12 0 5.76 0.814 7.91 2.442 2.02 1.758 3.03 3.971 3.03 6.64 0 4.493-2.31 8.692-6.94 12.598-4.68 3.906-9.7 5.859-15.04 5.859-3.12 0-5.76-0.813-7.91-2.441-2.01-1.758-3.02-3.971-3.02-6.641 0-4.492 2.34-8.691 7.03-12.597 4.56-3.907 9.54-5.86 14.94-5.86"/>
	<path d="m1416.2 358.45c3.12 0 5.76 0.814 7.91 2.441 2.02 1.758 3.03 3.971 3.03 6.641 0 4.492-2.31 8.691-6.94 12.597-4.68 3.907-9.7 5.86-15.04 5.86-3.12 0-5.76-0.814-7.91-2.442-2.01-1.757-3.02-3.971-3.02-6.64 0-4.492 2.34-8.692 7.03-12.598 4.56-3.906 9.54-5.859 14.94-5.859"/>
	<path d="m1494.9 383.45c3.12 0 5.76 0.814 7.91 2.442 2.02 1.758 3.02 3.971 3.02 6.64 0 4.493-2.31 8.692-6.93 12.598-4.69 3.906-9.7 5.859-15.04 5.859-3.12 0-5.76-0.813-7.91-2.441-2.02-1.758-3.03-3.971-3.03-6.641 0-4.492 2.35-8.691 7.04-12.597 4.55-3.907 9.53-5.86 14.94-5.86"/>
	<path d="m1494.9 358.45c3.12 0 5.76 0.814 7.91 2.441 2.02 1.758 3.02 3.971 3.02 6.641 0 4.492-2.31 8.691-6.93 12.597-4.69 3.907-9.7 5.86-15.04 5.86-3.12 0-5.76-0.814-7.91-2.442-2.02-1.757-3.03-3.971-3.03-6.64 0-4.492 2.35-8.692 7.04-12.598 4.55-3.906 9.53-5.859 14.94-5.859"/>
	<path d="m1697.2 333.45c3.13 0 5.76 0.814 7.91 2.442 2.02 1.757 3.03 3.971 3.03 6.64 0 4.492-2.31 8.692-6.93 12.598-4.69 3.906-9.7 5.859-15.04 5.859-3.13 0-5.76-0.814-7.91-2.441-2.02-1.758-3.03-3.972-3.03-6.641 0-4.492 2.34-8.691 7.03-12.597 4.56-3.907 9.54-5.86 14.94-5.86"/>
	<path d="m1863 333.45c3.12 0 5.76 0.814 7.91 2.442 2.01 1.757 3.02 3.971 3.02 6.64 0 4.492-2.31 8.692-6.93 12.598-4.69 3.906-9.7 5.859-15.04 5.859-3.13 0-5.76-0.814-7.91-2.441-2.02-1.758-3.03-3.972-3.03-6.641 0-4.492 2.35-8.691 7.03-12.597 4.56-3.907 9.54-5.86 14.95-5.86"/>
	<path d="m1948 333.45c3.12 0 5.76 0.814 7.91 2.442 2.02 1.757 3.03 3.971 3.03 6.64 0 4.492-2.31 8.692-6.94 12.598-4.68 3.906-9.7 5.859-15.04 5.859-3.12 0-5.76-0.814-7.91-2.441-2.01-1.758-3.02-3.972-3.02-6.641 0-4.492 2.34-8.691 7.03-12.597 4.56-3.907 9.54-5.86 14.94-5.86"/>
	<path d="m2113.8 320.95c3.13 0 5.76 0.814 7.91 2.442 2.02 1.758 3.03 3.971 3.03 6.64 0 4.493-2.31 8.692-6.93 12.598-4.69 3.906-9.71 5.859-15.04 5.859-3.13 0-5.77-0.813-7.91-2.441-2.02-1.758-3.03-3.971-3.03-6.641 0-4.492 2.34-8.691 7.03-12.597 4.56-3.907 9.54-5.86 14.94-5.86"/>
	<path d="m2227.8 370.95c3.12 0 5.76 0.813 7.91 2.441 2.02 1.758 3.03 3.971 3.03 6.641 0 4.492-2.32 8.691-6.94 12.597-4.69 3.906-9.7 5.86-15.04 5.86-3.12 0-5.76-0.814-7.91-2.442-2.02-1.758-3.02-3.971-3.02-6.64 0-4.493 2.34-8.692 7.03-12.598 4.55-3.906 9.53-5.859 14.94-5.859"/>
	<path d="m2354.7 358.45c3.12 0 5.76 0.814 7.91 2.441 2.02 1.758 3.03 3.971 3.03 6.641 0 4.492-2.31 8.691-6.94 12.597-4.68 3.907-9.7 5.86-15.04 5.86-3.12 0-5.76-0.814-7.91-2.442-2.01-1.757-3.02-3.971-3.02-6.64 0-4.492 2.34-8.692 7.03-12.598 4.56-3.906 9.54-5.859 14.94-5.859"/>
	<path d="m827.92 383.45c3.125 0 5.762 0.814 7.91 2.442 2.018 1.758 3.027 3.971 3.027 6.64 0 4.493-2.311 8.692-6.933 12.598-4.688 3.906-9.701 5.859-15.039 5.859-3.125 0-5.762-0.813-7.91-2.441-2.019-1.758-3.028-3.971-3.028-6.641 0-4.492 2.344-8.691 7.032-12.597 4.557-3.907 9.537-5.86 14.941-5.86"/>
	<path d="m616.72 359.13h0.586c0.26-0.065 0.488-0.098 0.684-0.098 7.291 0 13.281 2.572 17.968 7.715 4.688 5.078 7.032 11.003 7.032 17.774 0 8.398-3.483 15.234-10.45 20.508-1.822 1.432-4.199 2.604-7.128 3.515 0.325 4.232 0.488 7.65 0.488 10.254 0 0.521-0.065 2.409-0.195 5.664-0.261 6.055-2.344 11.296-6.25 15.723-3.777 4.362-8.464 6.543-14.063 6.543-5.273 0-9.766-1.856-13.477-5.567-3.71-3.776-5.566-8.333-5.566-13.672 0-2.799 1.074-5.175 3.223-7.128 2.213-1.954 4.785-2.93 7.715-2.93 2.604 0 4.785 1.009 6.543 3.027 1.822 1.888 2.734 4.232 2.734 7.031 0 2.54-0.912 4.721-2.734 6.543-1.823 1.823-4.004 2.735-6.543 2.735-1.042 0-2.051-0.195-3.028-0.586 2.865 4.232 6.673 6.348 11.426 6.348 4.492 0 8.171-1.823 11.035-5.469 2.995-3.776 4.623-8.171 4.883-13.184 0.13-3.125 0.195-4.915 0.195-5.371 0-3.646-0.13-6.641-0.39-8.984-3.256 0.521-6.153 0.781-8.692 0.781-9.049 0-16.764-3.581-23.144-10.742-6.25-7.227-9.375-15.821-9.375-25.781 0-2.084 0.195-4.2 0.586-6.348 0.39-1.758 0.879-3.679 1.464-5.762 0.326-1.172 1.205-3.06 2.637-5.664 0.521-0.781 1.107-1.758 1.758-2.93 0.651-1.171 1.107-1.953 1.367-2.343 0.651-1.302 1.921-3.06 3.809-5.274 0.521-0.586 1.058-1.237 1.611-1.953 0.554-0.716 1.026-1.302 1.416-1.758 0.391-0.455 0.684-0.814 0.879-1.074s1.66-1.986 4.395-5.176c0.651-0.651 1.285-1.351 1.904-2.099 0.618-0.749 1.123-1.335 1.514-1.758 0.39-0.423 0.683-0.733 0.878-0.928-2.343-7.747-3.808-13.932-4.394-18.555-0.456-3.71-0.684-8.789-0.684-15.234 0-5.664 1.302-10.97 3.907-15.918 2.539-5.143 6.087-9.342 10.644-12.598 0.261-0.195 0.586-0.293 0.977-0.293 0.455 0 0.781 0.098 0.976 0.293 3.516 4.232 6.543 9.734 9.082 16.504 2.604 6.771 3.907 12.924 3.907 18.457 0 6.25-1.498 12.11-4.493 17.579-3.385 5.794-7.747 11.783-13.086 17.968 1.368 4.297 3.19 11.035 5.469 20.215m8.301 45.41c3.385-1.237 6.022-3.353 7.91-6.347 2.083-2.865 3.125-6.088 3.125-9.668 0-4.623-1.562-8.724-4.687-12.305-3.191-3.711-7.26-5.794-12.207-6.25 2.799 13.737 4.752 25.26 5.859 34.57m-37.793-22.558c0 6.445 2.604 12.109 7.812 16.992 5.339 4.752 11.329 7.129 17.969 7.129 2.735 0 5.404-0.196 8.008-0.586-1.042-9.896-3.092-21.745-6.152-35.547-3.711 0.391-6.674 1.693-8.887 3.906-2.148 2.279-3.223 4.85-3.223 7.715 0 4.948 2.637 8.952 7.91 12.012 0.456 0.455 0.684 0.944 0.684 1.465 0 0.52-0.228 1.009-0.684 1.464-0.39 0.456-0.878 0.684-1.464 0.684-0.065 0-0.358-0.065-0.879-0.195-3.711-2.019-6.576-4.623-8.594-7.813-1.888-3.385-2.832-6.803-2.832-10.254 0-4.492 1.4-8.561 4.199-12.207 2.93-3.646 6.738-5.989 11.426-7.031-1.823-7.292-3.32-12.988-4.492-17.09-1.042 1.172-2.295 2.588-3.76 4.248s-2.328 2.653-2.588 2.979c-2.344 3.06-4.134 5.436-5.371 7.129-2.214 3.06-3.841 5.696-4.883 7.91-1.107 2.474-2.083 5.176-2.93 8.105-0.846 2.8-1.269 5.795-1.269 8.985m32.617-99.317c-4.883 2.409-8.724 5.86-11.523 10.352-2.865 4.622-4.297 9.603-4.297 14.941 0 4.688 1.172 11.003 3.515 18.946 4.688-5.665 8.204-10.905 10.547-15.723 2.474-5.078 3.711-10.384 3.711-15.918 0-4.167-0.651-8.366-1.953-12.598"/>
	<path d="m673.12 355.62v7.715c0 2.734 0.13 4.915 0.391 6.543 2.148-1.823 3.678-3.19 4.59-4.102 1.041-1.042 2.083-2.474 3.125-4.297 1.041-1.823 1.562-3.646 1.562-5.468 0-1.823-0.39-3.386-1.172-4.688-0.781-1.302-1.823-1.953-3.125-1.953-1.562 0-2.864 0.586-3.906 1.758-0.976 1.302-1.465 2.799-1.465 4.492m-4.101 17.871-1.27-59.473c0.912-0.521 1.823-0.781 2.735-0.781 0.911 0 1.822 0.26 2.734 0.781l-0.781 34.473c2.669-2.279 5.729-3.418 9.179-3.418 2.539 0 4.655 1.042 6.348 3.125s2.539 4.46 2.539 7.129c0 1.693-0.553 3.483-1.66 5.371-1.042 1.758-2.149 3.125-3.32 4.102-0.651 0.52-2.312 1.822-4.981 3.906-0.781 0.586-1.709 1.269-2.783 2.051-1.074 0.781-1.742 1.269-2.002 1.464-0.456 0.261-0.879 0.782-1.27 1.563-0.455 0.651-0.976 1.204-1.562 1.66-0.456 0.391-1.009 0.586-1.66 0.586s-1.172-0.228-1.563-0.684c-0.455-0.455-0.683-1.074-0.683-1.855"/>
	<path d="m740.68 359.72c-1.953 0-3.711-0.358-5.273-1.074-1.563-0.716-2.67-1.465-3.321-2.246-0.846-0.977-1.693-1.726-2.539-2.247-1.042-0.716-2.116-1.074-3.223-1.074-1.692 0-3.092 0.521-4.199 1.563-1.172 0.976-1.823 2.311-1.953 4.004-0.13 0.716-0.521 1.074-1.172 1.074-0.781 0-1.172-0.358-1.172-1.074 0-2.539 0.586-4.818 1.758-6.836 1.172-2.084 2.604-3.809 4.297-5.176 1.432-1.237 3.32-2.734 5.664-4.492 0.391-0.326 1.221-1.009 2.49-2.051 1.27-1.042 2.328-1.921 3.174-2.637 1.693-1.432 3.158-3.32 4.395-5.664 1.172-2.344 1.758-4.883 1.758-7.617 0-3.32-0.554-6.185-1.661-8.594-1.171-2.343-2.962-3.515-5.371-3.515-1.497 0-2.702 0.325-3.613 0.976-0.977 0.651-1.465 1.53-1.465 2.637 0 0.911 0.586 2.051 1.758 3.418s1.758 2.506 1.758 3.418c0 1.953-0.684 3.613-2.051 4.98-1.302 1.302-2.897 1.953-4.785 1.953-1.953 0-3.613-0.683-4.981-2.05-1.302-1.433-1.953-3.06-1.953-4.883 0-3.711 1.498-6.771 4.492-9.18 2.995-2.409 6.609-3.613 10.84-3.613 5.013 0 9.375 1.367 13.086 4.101 3.711 2.605 5.567 6.055 5.567 10.352 0 2.93-0.521 5.436-1.563 7.52-0.976 2.213-2.441 3.938-4.394 5.175-2.214 1.433-4.135 2.539-5.762 3.321-2.279 1.041-4.557 2.018-6.836 2.929-2.734 1.107-4.85 2.149-6.348 3.125 0.847-0.195 1.726-0.293 2.637-0.293 2.995 0 6.12 0.977 9.375 2.93 3.32 1.953 5.892 2.93 7.715 2.93 1.107 0 1.986-0.196 2.637-0.586 0.651-0.391 1.074-0.814 1.269-1.27 0.261-0.651 0.488-1.107 0.684-1.367 0.26-0.391 0.586-0.586 0.976-0.586 0.782 0 1.172 0.391 1.172 1.172 0 1.823-1.302 4.036-3.906 6.641-2.539 2.604-5.859 3.906-9.961 3.906"/>
	<path d="m738.49 361.08c1.953 0 3.614-0.228 4.981-0.684s2.246-0.684 2.637-0.684c0.455 0 0.813 0.131 1.074 0.391 0.195 0.195 0.325 0.423 0.39 0.684 0 0.13-0.065 0.325-0.195 0.585l-28.418 33.008h16.699v-13.086c0-0.846 0.228-1.562 0.684-2.148 0.781-0.651 1.432-1.042 1.953-1.172 0.846-0.391 1.888-1.302 3.125-2.734 1.042-1.172 2.279-3.223 3.711-6.153 0.195-0.39 0.488-0.586 0.879-0.586 0.781 0 1.237 0.456 1.367 1.368v24.511h7.129c0.911 0 1.432 0.489 1.562 1.465 0 0.977-0.52 1.465-1.562 1.465h-7.129v0.781c0 2.604 0.651 4.818 1.953 6.641 1.498 1.823 3.255 2.734 5.274 2.734 0.781 0 1.171 0.391 1.171 1.172s-0.39 1.172-1.171 1.172c-1.368 0-3.581-0.195-6.641-0.586-2.799-0.456-4.98-0.684-6.543-0.684-1.628 0-3.809 0.228-6.543 0.684-2.93 0.391-5.111 0.586-6.543 0.586-0.781 0-1.172-0.391-1.172-1.172s0.391-1.172 1.172-1.172c2.018 0 3.776-0.911 5.274-2.734 1.367-1.888 2.05-4.102 2.05-6.641v-0.781h-16.699c-1.107 0-1.888-0.26-2.344-0.781-0.52-0.391-0.781-0.912-0.781-1.563 0-0.195 0.488-0.879 1.465-2.051 1.107-1.302 2.279-2.897 3.516-4.785 1.432-2.213 2.799-4.492 4.101-6.836 1.432-2.669 2.572-5.729 3.418-9.179 0.977-3.516 1.465-7.097 1.465-10.743 0-1.041 0.456-1.562 1.367-1.562 0.195 0 0.619 0.098 1.27 0.293 0.195 0.065 0.602 0.163 1.22 0.293 0.619 0.13 1.123 0.26 1.514 0.391 1.172 0.195 2.279 0.293 3.32 0.293"/>
	<path d="m1050 282.76c-1.31-1.302-1.96-2.898-1.96-4.786s0.65-3.483 1.96-4.785c1.3-1.302 2.89-1.953 4.78-1.953s3.49 0.651 4.79 1.953 1.95 2.897 1.95 4.785-0.65 3.484-1.95 4.786-2.9 1.953-4.79 1.953-3.48-0.651-4.78-1.953m-6.55-33.594c3.39-1.693 7.17-2.539 11.33-2.539 4.17 0 7.94 0.846 11.33 2.539 3.71 1.693 6.64 3.808 8.79 6.348 2.41 2.734 4.46 5.501 6.15 8.3 1.76 2.865 3.13 5.762 4.1 8.692 0.85 2.409 1.57 4.752 2.15 7.031 0.46 1.758 0.69 2.995 0.69 3.711 0 0.325-0.2 0.683-0.59 1.074-0.52 0.261-0.94 0.391-1.27 0.391-0.98 0-1.63-0.586-1.95-1.758-1.24-7.357-4.63-13.607-10.16-18.75-5.53-4.948-11.95-7.422-19.24-7.422s-13.7 2.474-19.24 7.422c-5.53 5.143-8.92 11.393-10.15 18.75-0.2 1.172-0.85 1.758-1.96 1.758-0.32 0-0.74-0.13-1.27-0.391-0.39-0.391-0.58-0.749-0.58-1.074 0-0.716 0.23-1.953 0.68-3.711 0.59-2.279 1.3-4.622 2.15-7.031 0.98-2.93 2.34-5.827 4.1-8.692 1.7-2.799 3.75-5.566 6.15-8.3 2.28-2.67 5.21-4.786 8.79-6.348"/>
	<path d="m1484.6 277.38c-1.3-1.302-1.95-2.897-1.95-4.785s0.65-3.483 1.95-4.785c1.31-1.302 2.9-1.953 4.79-1.953s3.48 0.651 4.79 1.953c1.3 1.302 1.95 2.897 1.95 4.785s-0.65 3.483-1.95 4.785c-1.31 1.302-2.9 1.953-4.79 1.953s-3.48-0.651-4.79-1.953m-6.54-33.593c3.39-1.693 7.16-2.54 11.33-2.54s7.94 0.847 11.33 2.54c3.71 1.692 6.64 3.808 8.79 6.347 2.41 2.735 4.46 5.501 6.15 8.301 1.76 2.865 3.12 5.762 4.1 8.691 0.85 2.409 1.56 4.753 2.15 7.032 0.46 1.757 0.68 2.994 0.68 3.711 0 0.325-0.19 0.683-0.58 1.074-0.52 0.26-0.95 0.39-1.27 0.39-0.98 0-1.63-0.586-1.96-1.757-1.23-7.357-4.62-13.607-10.15-18.75-5.54-4.948-11.95-7.422-19.24-7.422s-13.7 2.474-19.24 7.422c-5.53 5.143-8.92 11.393-10.15 18.75-0.2 1.171-0.85 1.757-1.96 1.757-0.32 0-0.75-0.13-1.27-0.39-0.39-0.391-0.58-0.749-0.58-1.074 0-0.717 0.22-1.954 0.68-3.711 0.59-2.279 1.3-4.623 2.15-7.032 0.98-2.929 2.34-5.826 4.1-8.691 1.69-2.8 3.74-5.566 6.15-8.301 2.28-2.669 5.21-4.785 8.79-6.347"/>
	<path d="m1937.7 246.13c-1.3-1.302-1.96-2.897-1.96-4.785s0.66-3.483 1.96-4.785 2.89-1.953 4.78-1.953 3.49 0.651 4.79 1.953 1.95 2.897 1.95 4.785-0.65 3.483-1.95 4.785-2.9 1.953-4.79 1.953-3.48-0.651-4.78-1.953m-6.55-33.593c3.39-1.693 7.17-2.54 11.33-2.54 4.17 0 7.95 0.847 11.33 2.54 3.71 1.692 6.64 3.808 8.79 6.347 2.41 2.735 4.46 5.502 6.15 8.301 1.76 2.865 3.13 5.762 4.1 8.691 0.85 2.409 1.57 4.753 2.15 7.032 0.46 1.757 0.69 2.994 0.69 3.711 0 0.325-0.2 0.683-0.59 1.074-0.52 0.26-0.94 0.39-1.27 0.39-0.98 0-1.63-0.586-1.95-1.757-1.24-7.357-4.63-13.607-10.16-18.75-5.53-4.948-11.95-7.422-19.24-7.422s-13.7 2.474-19.24 7.422c-5.53 5.143-8.91 11.393-10.15 18.75-0.2 1.171-0.85 1.757-1.95 1.757-0.33 0-0.75-0.13-1.27-0.39-0.4-0.391-0.59-0.749-0.59-1.074 0-0.717 0.23-1.954 0.68-3.711 0.59-2.279 1.31-4.623 2.15-7.032 0.98-2.929 2.35-5.826 4.1-8.691 1.7-2.799 3.75-5.566 6.16-8.301 2.27-2.669 5.2-4.785 8.78-6.347"/>
	<path d="m794.3 264.41c-1.76 0-3.34 0.94-4.74 2.82-1.56 2.08-2.7 4.26-3.42 6.54-0.72 2.32-1.08 4.34-1.08 6.06 0 2.44 0.9 3.66 2.7 3.66 1.6 0 2.98-0.62 4.14-1.86 1.32-1.36 2.42-3.7 3.3-7.02 0.96-3.44 1.44-5.84 1.44-7.2-0.08-2-0.86-3-2.34-3m-14.58-4.62c1.6 0 3.02 0.43 4.26 1.29s2.02 2.03 2.34 3.51c1.28-1.44 2.8-2.6 4.56-3.48s3.42-1.32 4.98-1.32c3.08 0 5.48 0.98 7.2 2.94 1.68 2 2.52 4.54 2.52 7.62 0 5.12-1.78 9.3-5.34 12.54-3.32 2.76-6.3 4.14-8.94 4.14-1.6 0-2.9-0.16-3.9-0.48-1.28-0.32-2.12-0.62-2.52-0.9-0.56-0.32-1.02-0.48-1.38-0.48-0.84 0-1.4 0.32-1.68 0.96l-3.54 10.62v0.48c0 0.64 0.48 1 1.44 1.08 0.32 0.08 0.81 0.15 1.47 0.21s1.15 0.09 1.47 0.09c0.96 0.16 1.44 0.42 1.44 0.78 0 0.48-0.24 0.72-0.72 0.72-5.68-0.32-9.36-0.48-11.04-0.48-1.8 0-5.54 0.16-11.22 0.48-0.52 0-0.74-0.24-0.66-0.72 0-0.4 0.42-0.68 1.26-0.84 0.4-0.08 2.08-0.12 5.04-0.12 1.36 0 2.16-0.42 2.4-1.26l10.26-29.64c0.2-0.72 0.3-1.2 0.3-1.44 0-1.12-0.52-1.68-1.56-1.68-1.48 0-3.02 0.94-4.62 2.82s-2.86 3.88-3.78 6c-0.24 0.56-0.64 0.86-1.2 0.9-0.48 0-0.72-0.2-0.72-0.6 0-0.52 0.16-1 0.48-1.44 1.28-2.76 2.62-5.26 4.02-7.5 0.88-1.28 1.98-2.38 3.3-3.3 1.28-1 2.64-1.5 4.08-1.5"/>
	<path d="m828.7 412.36c1.498 0 3.093 2.441 4.785 7.324 1.628 4.818 2.442 9.408 2.442 13.77 0 3.711-0.912 7.389-2.735 11.035-1.888 3.906-4.134 7.292-6.738 10.156l-8.008 8.985c-2.474 2.864-4.687 6.184-6.64 9.961-1.823 3.645-2.735 7.356-2.735 11.132h-3.125v-25h3.125c1.758-1.106 4.362-2.864 7.813-5.273 1.562-1.172 3.906-3.125 7.031-5.859 2.539-2.344 4.46-4.753 5.762-7.227 1.367-2.604 2.051-5.241 2.051-7.91 0-6.185-1.791-12.337-5.372-18.457v-0.391c0-0.586 0.196-1.074 0.586-1.465 0.521-0.521 1.107-0.781 1.758-0.781"/>
	<path d="m962.7 464.71c2.604-1.498 5.078-3.028 7.422-4.59 2.474-1.758 4.687-3.516 6.64-5.273 2.344-2.149 4.134-4.362 5.371-6.641 1.302-2.474 1.953-4.915 1.953-7.324 0-2.279-0.455-4.59-1.367-6.934-0.716 0.912-2.832 2.995-6.347 6.25-2.67 2.474-4.948 4.72-6.836 6.738-1.693 1.823-3.256 4.102-4.688 6.836-1.432 2.8-2.148 5.632-2.148 8.496v2.442m26.855-46.289c0 3.906-1.237 7.78-3.711 11.621 1.628 3.45 2.442 7.064 2.442 10.84 0 3.19-0.879 6.412-2.637 9.668-1.888 3.515-4.004 6.38-6.348 8.593l-7.617 7.422c-2.539 2.604-4.655 5.436-6.348 8.496-1.757 3.125-2.636 6.348-2.636 9.668h-3.125v-50h3.125v7.52c15.104-7.878 22.656-15.82 22.656-23.828 0-1.758-0.456-3.809-1.367-6.153v-0.39c0-0.521 0.195-1.042 0.586-1.563 0.521-0.521 1.107-0.781 1.758-0.781s1.237 0.391 1.757 1.172c0.586 1.042 0.912 2.051 0.977 3.027 0.065 0.456 0.13 1.042 0.195 1.758l0.196 1.074c0.065 0.456 0.097 1.074 0.097 1.856"/>
	<path d="m1698 362.36c1.5 0 3.1 2.441 4.79 7.324 1.63 4.818 2.44 9.408 2.44 13.77 0 3.711-0.91 7.389-2.73 11.035-1.89 3.906-4.14 7.291-6.74 10.156l-8.01 8.984c-2.47 2.865-4.69 6.185-6.64 9.961-1.82 3.646-2.73 7.357-2.73 11.133h-3.13v-25h3.13c1.75-1.107 4.36-2.864 7.81-5.273 1.56-1.172 3.9-3.125 7.03-5.86 2.54-2.343 4.46-4.752 5.76-7.226 1.37-2.604 2.05-5.241 2.05-7.91 0-6.185-1.79-12.338-5.37-18.457v-0.391c0-0.586 0.2-1.074 0.59-1.465 0.52-0.521 1.1-0.781 1.75-0.781"/>
	<path d="m1844.2 414.7c2.6-1.498 5.08-3.028 7.42-4.59 2.47-1.758 4.69-3.516 6.64-5.274 2.34-2.148 4.13-4.362 5.37-6.64 1.3-2.474 1.95-4.916 1.95-7.324 0-2.279-0.45-4.59-1.36-6.934-0.72 0.911-2.84 2.995-6.35 6.25-2.67 2.474-4.95 4.72-6.84 6.738-1.69 1.823-3.25 4.102-4.68 6.836-1.44 2.8-2.15 5.632-2.15 8.496v2.442m26.85-46.289c0 3.906-1.23 7.78-3.71 11.621 1.63 3.45 2.44 7.063 2.44 10.84 0 3.19-0.88 6.412-2.63 9.667-1.89 3.516-4.01 6.381-6.35 8.594l-7.62 7.422c-2.54 2.604-4.65 5.436-6.35 8.496-1.75 3.125-2.63 6.348-2.63 9.668h-3.13v-50h3.13v7.52c15.1-7.878 22.65-15.821 22.65-23.828 0-1.758-0.45-3.809-1.36-6.153v-0.39c0-0.521 0.19-1.042 0.58-1.563 0.52-0.521 1.11-0.781 1.76-0.781s1.24 0.39 1.76 1.172c0.58 1.041 0.91 2.051 0.97 3.027 0.07 0.456 0.13 1.042 0.2 1.758l0.2 1.074c0.06 0.456 0.09 1.074 0.09 1.856"/>
	<path d="m1948.8 362.36c1.5 0 3.09 2.441 4.79 7.324 1.62 4.818 2.44 9.408 2.44 13.77 0 3.711-0.91 7.389-2.74 11.035-1.89 3.906-4.13 7.291-6.74 10.156l-8 8.984c-2.48 2.865-4.69 6.185-6.64 9.961-1.83 3.646-2.74 7.357-2.74 11.133h-3.12v-25h3.12c1.76-1.107 4.36-2.864 7.81-5.273 1.57-1.172 3.91-3.125 7.04-5.86 2.53-2.343 4.46-4.752 5.76-7.226 1.36-2.604 2.05-5.241 2.05-7.91 0-6.185-1.79-12.338-5.37-18.457v-0.391c0-0.586 0.19-1.074 0.58-1.465 0.52-0.521 1.11-0.781 1.76-0.781"/>
	<path d="m2095 402.2c2.61-1.498 5.08-3.027 7.43-4.59 2.47-1.758 4.68-3.516 6.64-5.273 2.34-2.149 4.13-4.362 5.37-6.641 1.3-2.474 1.95-4.915 1.95-7.324 0-2.279-0.46-4.59-1.37-6.934-0.71 0.912-2.83 2.995-6.34 6.25-2.67 2.474-4.95 4.72-6.84 6.738-1.69 1.823-3.26 4.102-4.69 6.836-1.43 2.8-2.15 5.632-2.15 8.496v2.442m26.86-46.289c0 3.906-1.24 7.78-3.71 11.621 1.63 3.45 2.44 7.064 2.44 10.84 0 3.19-0.88 6.412-2.64 9.668-1.88 3.515-4 6.38-6.34 8.593l-7.62 7.422c-2.54 2.604-4.66 5.437-6.35 8.496-1.76 3.125-2.64 6.348-2.64 9.668h-3.12v-50h3.12v7.52c15.11-7.878 22.66-15.82 22.66-23.828 0-1.758-0.46-3.809-1.37-6.153v-0.39c0-0.521 0.2-1.042 0.59-1.563 0.52-0.521 1.11-0.781 1.76-0.781s1.23 0.391 1.75 1.172c0.59 1.042 0.92 2.051 0.98 3.027 0.07 0.456 0.13 1.042 0.2 1.758l0.19 1.074c0.07 0.456 0.1 1.075 0.1 1.856"/>
	<path d="m2228.6 399.86c1.5 0 3.09 2.442 4.78 7.324 1.63 4.818 2.45 9.408 2.45 13.77 0 3.711-0.92 7.389-2.74 11.035-1.89 3.906-4.13 7.292-6.74 10.156l-8 8.985c-2.48 2.864-4.69 6.185-6.65 9.961-1.82 3.646-2.73 7.357-2.73 11.133h-3.12v-25h3.12c1.76-1.107 4.36-2.865 7.81-5.274 1.57-1.172 3.91-3.125 7.03-5.859 2.54-2.344 4.46-4.753 5.77-7.227 1.36-2.604 2.05-5.241 2.05-7.91 0-6.185-1.79-12.337-5.37-18.457v-0.391c0-0.586 0.19-1.074 0.58-1.464 0.52-0.521 1.11-0.782 1.76-0.782"/>
	<path d="m2355.5 387.36c1.5 0 3.09 2.442 4.79 7.325 1.62 4.817 2.44 9.407 2.44 13.769 0 3.711-0.91 7.39-2.74 11.035-1.88 3.907-4.13 7.292-6.74 10.157l-8 8.984c-2.48 2.865-4.69 6.185-6.64 9.961-1.83 3.646-2.74 7.357-2.74 11.133h-3.12v-25h3.12c1.76-1.107 4.36-2.865 7.81-5.274 1.57-1.172 3.91-3.125 7.04-5.859 2.53-2.344 4.46-4.753 5.76-7.227 1.36-2.604 2.05-5.241 2.05-7.91 0-6.185-1.79-12.337-5.37-18.457v-0.39c0-0.586 0.19-1.075 0.58-1.465 0.52-0.521 1.11-0.782 1.76-0.782"/>
	<path d="m835.61 334.72v-25h3.125c0 3.711 0.716 7.422 2.149 11.133 1.562 4.037 3.287 7.552 5.175 10.547 1.368 2.148 3.418 5.436 6.153 9.863 2.083 3.386 3.841 6.934 5.273 10.645 1.433 3.711 2.149 7.422 2.149 11.133 0 6.77-1.4 13.671-4.2 20.703-0.52 0.781-1.139 1.172-1.855 1.172-0.651 0-1.237-0.261-1.758-0.782-0.39-0.39-0.586-0.879-0.586-1.464v-0.489c2.8-6.445 4.199-12.825 4.199-19.14 0-3.256-0.976-6.771-2.929-10.547-1.953-3.841-3.939-6.901-5.957-9.18-2.279-2.669-4.883-5.534-7.813-8.594h-3.125"/>
	<path d="m992.37 309.72c0 3.321 0.72 6.641 2.15 9.961 1.37 3.255 3.06 6.348 5.08 9.278l5.86 8.593c1.95 2.67 3.64 5.762 5.07 9.278 1.44 3.255 2.15 6.543 2.15 9.863 0 3.06-0.78 6.25-2.34 9.57 1.95 3.972 2.93 7.845 2.93 11.621 0 5.99-1.4 12.11-4.2 18.36-0.52 0.781-1.14 1.172-1.86 1.172-0.65 0-1.23-0.261-1.75-0.782-0.4-0.39-0.59-0.879-0.59-1.464v-0.489c2.8-5.534 4.2-11.133 4.2-16.797 0-2.539-0.49-4.882-1.47-7.031-1.17-2.539-2.6-4.883-4.29-7.031-2.15-2.8-3.84-4.818-5.08-6.055-1.69-1.693-3.65-3.548-5.86-5.566v7.519h-3.125v-50h3.125m15.33 51.66c0.46-1.367 0.69-2.929 0.69-4.687 0-2.279-0.46-4.59-1.37-6.934-0.98-2.343-2.35-4.72-4.1-7.129-1.63-2.018-3.29-4.003-4.98-5.957-1.31-1.432-3.16-3.32-5.57-5.664 0 2.67 0.553 5.502 1.66 8.496 1.17 2.8 2.38 5.241 3.61 7.325 1.44 2.213 3.19 4.72 5.28 7.519 2.08 2.8 3.67 5.143 4.78 7.031"/>
	<path d="m1270.2 309.71v-25h3.12c0 3.711 0.72 7.422 2.15 11.133 1.56 4.036 3.29 7.552 5.18 10.546 1.36 2.149 3.42 5.437 6.15 9.864 2.08 3.385 3.84 6.933 5.27 10.644 1.44 3.711 2.15 7.422 2.15 11.133 0 6.771-1.4 13.672-4.2 20.703-0.52 0.781-1.14 1.172-1.85 1.172-0.65 0-1.24-0.26-1.76-0.781-0.39-0.391-0.59-0.879-0.59-1.465v-0.488c2.8-6.446 4.2-12.826 4.2-19.141 0-3.255-0.97-6.771-2.93-10.547-1.95-3.841-3.94-6.901-5.95-9.18-2.28-2.669-4.89-5.533-7.82-8.593h-3.12"/>
	<path d="m1427 284.71c0 3.32 0.71 6.64 2.15 9.961 1.36 3.255 3.06 6.347 5.07 9.277l5.86 8.594c1.96 2.669 3.65 5.761 5.08 9.277 1.43 3.255 2.15 6.543 2.15 9.863 0 3.06-0.78 6.25-2.34 9.571 1.95 3.971 2.93 7.845 2.93 11.621 0 5.989-1.4 12.109-4.2 18.359-0.52 0.781-1.14 1.172-1.86 1.172-0.65 0-1.24-0.26-1.76-0.781-0.39-0.391-0.58-0.879-0.58-1.465v-0.488c2.8-5.534 4.2-11.133 4.2-16.797 0-2.539-0.49-4.883-1.47-7.031-1.17-2.54-2.6-4.883-4.29-7.032-2.15-2.799-3.85-4.817-5.08-6.054-1.7-1.693-3.65-3.549-5.86-5.567v7.52h-3.13v-50h3.13m15.33 51.66c0.46-1.367 0.68-2.93 0.68-4.688 0-2.278-0.45-4.589-1.36-6.933-0.98-2.344-2.35-4.72-4.11-7.129-1.62-2.018-3.28-4.004-4.98-5.957-1.3-1.432-3.15-3.32-5.56-5.664 0 2.669 0.55 5.501 1.66 8.496 1.17 2.799 2.37 5.241 3.61 7.324 1.43 2.214 3.19 4.72 5.27 7.52 2.09 2.799 3.68 5.143 4.79 7.031"/>
	<path d="m1704.9 284.71v-25h3.12c0 3.711 0.72 7.422 2.15 11.133 1.56 4.036 3.29 7.552 5.18 10.547 1.36 2.148 3.41 5.436 6.15 9.863 2.08 3.386 3.84 6.934 5.27 10.645s2.15 7.422 2.15 11.132c0 6.771-1.4 13.672-4.2 20.704-0.52 0.781-1.14 1.171-1.86 1.171-0.65 0-1.23-0.26-1.75-0.781-0.39-0.39-0.59-0.879-0.59-1.465v-0.488c2.8-6.445 4.2-12.825 4.2-19.141 0-3.255-0.98-6.77-2.93-10.546-1.95-3.842-3.94-6.901-5.96-9.18-2.27-2.669-4.88-5.534-7.81-8.594h-3.12"/>
	<path d="m1873.8 259.71c0 3.32 0.72 6.641 2.15 9.961 1.37 3.255 3.06 6.348 5.08 9.277l5.86 8.594c1.95 2.669 3.65 5.762 5.08 9.278 1.43 3.255 2.15 6.543 2.15 9.863 0 3.06-0.79 6.25-2.35 9.57 1.96 3.971 2.93 7.845 2.93 11.621 0 5.99-1.4 12.11-4.2 18.36-0.52 0.781-1.14 1.171-1.85 1.171-0.65 0-1.24-0.26-1.76-0.781-0.39-0.39-0.59-0.879-0.59-1.465v-0.488c2.8-5.534 4.2-11.133 4.2-16.797 0-2.539-0.49-4.883-1.46-7.031-1.17-2.539-2.61-4.883-4.3-7.031-2.15-2.8-3.84-4.818-5.08-6.055-1.69-1.693-3.64-3.548-5.86-5.566v7.519h-3.12v-50h3.12m15.34 51.66c0.45-1.367 0.68-2.929 0.68-4.687 0-2.279-0.46-4.59-1.37-6.934-0.97-2.344-2.34-4.72-4.1-7.129-1.63-2.018-3.29-4.004-4.98-5.957-1.3-1.432-3.16-3.32-5.57-5.664 0 2.669 0.56 5.502 1.66 8.496 1.18 2.8 2.38 5.241 3.62 7.325 1.43 2.213 3.19 4.72 5.27 7.519 2.08 2.8 3.68 5.143 4.79 7.031"/>
	<path d="m1955.7 284.71v-25h3.13c0 3.711 0.71 7.422 2.15 11.133 1.56 4.036 3.28 7.552 5.17 10.547 1.37 2.148 3.42 5.436 6.15 9.863 2.09 3.386 3.85 6.934 5.28 10.645s2.15 7.422 2.15 11.132c0 6.771-1.4 13.672-4.2 20.704-0.52 0.781-1.14 1.171-1.86 1.171-0.65 0-1.24-0.26-1.76-0.781-0.39-0.39-0.58-0.879-0.58-1.465v-0.488c2.8-6.445 4.2-12.825 4.2-19.141 0-3.255-0.98-6.77-2.93-10.546-1.96-3.842-3.94-6.901-5.96-9.18-2.28-2.669-4.88-5.534-7.81-8.594h-3.13"/>
	<path d="m2124.6 247.21c0 3.321 0.72 6.641 2.15 9.961 1.37 3.256 3.06 6.348 5.08 9.278l5.86 8.593c1.95 2.67 3.64 5.762 5.07 9.278 1.44 3.255 2.15 6.543 2.15 9.863 0 3.06-0.78 6.25-2.34 9.57 1.95 3.972 2.93 7.845 2.93 11.621 0 5.99-1.4 12.11-4.2 18.36-0.52 0.781-1.14 1.172-1.86 1.172-0.65 0-1.23-0.261-1.75-0.782-0.39-0.39-0.59-0.878-0.59-1.464v-0.489c2.8-5.534 4.2-11.133 4.2-16.797 0-2.539-0.49-4.882-1.47-7.031-1.17-2.539-2.6-4.883-4.29-7.031-2.15-2.8-3.84-4.818-5.08-6.055-1.69-1.692-3.65-3.548-5.86-5.566v7.519h-3.13v-50h3.13m15.33 51.661c0.46-1.368 0.69-2.93 0.69-4.688 0-2.279-0.46-4.59-1.37-6.934-0.98-2.343-2.35-4.72-4.1-7.128-1.63-2.019-3.29-4.004-4.98-5.958-1.31-1.432-3.16-3.32-5.57-5.664 0 2.67 0.55 5.502 1.66 8.497 1.17 2.799 2.38 5.24 3.61 7.324 1.44 2.213 3.19 4.72 5.28 7.519 2.08 2.8 3.68 5.144 4.78 7.032"/>
	<path d="m2235.5 325.34v-25h3.13c0 3.711 0.71 7.422 2.14 11.133 1.57 4.036 3.29 7.552 5.18 10.546 1.37 2.149 3.42 5.437 6.15 9.864 2.09 3.385 3.84 6.933 5.28 10.644 1.43 3.711 2.14 7.422 2.14 11.133 0 6.771-1.4 13.672-4.19 20.703-0.53 0.781-1.14 1.172-1.86 1.172-0.65 0-1.24-0.26-1.76-0.781-0.39-0.391-0.58-0.879-0.58-1.465v-0.488c2.8-6.446 4.2-12.826 4.2-19.141 0-3.255-0.98-6.771-2.93-10.547-1.96-3.841-3.94-6.901-5.96-9.18-2.28-2.669-4.88-5.533-7.81-8.593h-3.13"/>
	<path d="m2362.4 315.96v-25h3.13c0 3.711 0.71 7.422 2.15 11.133 1.56 4.036 3.28 7.552 5.17 10.547 1.37 2.148 3.42 5.436 6.15 9.863 2.09 3.386 3.85 6.934 5.28 10.645s2.15 7.422 2.15 11.132c0 6.771-1.4 13.672-4.2 20.704-0.52 0.781-1.14 1.171-1.86 1.171-0.65 0-1.24-0.26-1.76-0.781-0.39-0.39-0.58-0.879-0.58-1.465v-0.488c2.8-6.445 4.2-12.825 4.2-19.141 0-3.255-0.98-6.77-2.93-10.546-1.96-3.842-3.94-6.901-5.96-9.18-2.28-2.669-4.88-5.534-7.81-8.594h-3.13"/>
	<path d="m849.27 401.22c-1.107-1.107-1.66-2.442-1.66-4.004 0-1.563 0.553-2.897 1.66-4.004s2.442-1.66 4.004-1.66c1.563 0 2.897 0.553 4.004 1.66s1.66 2.441 1.66 4.004c0 1.562-0.553 2.897-1.66 4.004-1.107 1.106-2.441 1.66-4.004 1.66-1.562 0-2.897-0.554-4.004-1.66"/>
	<path d="m1718.5 351.22c-1.11-1.107-1.66-2.442-1.66-4.004 0-1.563 0.55-2.897 1.66-4.004 1.1-1.107 2.44-1.66 4-1.66s2.9 0.553 4 1.66c1.11 1.107 1.67 2.441 1.67 4.004 0 1.562-0.56 2.897-1.67 4.004-1.1 1.106-2.44 1.66-4 1.66s-2.9-0.554-4-1.66"/>
	<path d="m1969.3 351.22c-1.1-1.107-1.66-2.442-1.66-4.004 0-1.563 0.56-2.897 1.66-4.004 1.11-1.107 2.44-1.66 4.01-1.66 1.56 0 2.89 0.553 4 1.66s1.66 2.441 1.66 4.004c0 1.562-0.55 2.897-1.66 4.004-1.11 1.106-2.44 1.66-4 1.66-1.57 0-2.9-0.554-4.01-1.66"/>
	<path d="m1283.9 401.22c-1.11-1.107-1.66-2.442-1.66-4.004 0-1.563 0.55-2.897 1.66-4.004s2.44-1.66 4-1.66c1.57 0 2.9 0.553 4.01 1.66 1.1 1.107 1.66 2.441 1.66 4.004 0 1.562-0.56 2.897-1.66 4.004-1.11 1.106-2.44 1.66-4.01 1.66-1.56 0-2.89-0.554-4-1.66"/>
	<path d="m1283.9 376.22c-1.11-1.107-1.66-2.441-1.66-4.004 0-1.562 0.55-2.897 1.66-4.004 1.11-1.106 2.44-1.66 4-1.66 1.57 0 2.9 0.554 4.01 1.66 1.1 1.107 1.66 2.442 1.66 4.004 0 1.563-0.56 2.897-1.66 4.004-1.11 1.107-2.44 1.66-4.01 1.66-1.56 0-2.89-0.553-4-1.66"/>
</svg>
