<?xml version="1.0" encoding="utf-8"?>
<svg xmlns="http://www.w3.org/2000/svg" version="1.2" viewBox="560 270 1926 243">
	<title>An excerpt from “My Soul Wants Something New.”</title>
	<path d="m560 311.6h1926.1" fill="none" stroke="#000" stroke-linejoin="bevel" stroke-width="2"/>
	<path d="m560 336.6h1926.1" fill="none" stroke="#000" stroke-linejoin="bevel" stroke-width="2"/>
	<path d="m560 361.6h1926.1" fill="none" stroke="#000" stroke-linejoin="bevel" stroke-width="2"/>
	<path d="m560 386.6h1926.1" fill="none" stroke="#000" stroke-linejoin="bevel" stroke-width="2"/>
	<path d="m560 411.6h1926.1" fill="none" stroke="#000" stroke-linejoin="bevel" stroke-width="2"/>
	<path d="m997.74 310.6v102.01" fill="none" stroke="#000" stroke-linejoin="bevel" stroke-width="4"/>
	<path d="m1890.4 310.6v102.01" fill="none" stroke="#000" stroke-linejoin="bevel" stroke-width="4"/>
	<path d="m909.36 406.91v-82.81" fill="none" stroke="#000" stroke-linecap="round" stroke-linejoin="bevel" stroke-width="3.25"/>
	<path d="m1082.5 369.41v-76.56" fill="none" stroke="#000" stroke-linecap="round" stroke-linejoin="bevel" stroke-width="3.25"/>
	<path d="m1321.7 369.41v-76.56" fill="none" stroke="#000" stroke-linecap="round" stroke-linejoin="bevel" stroke-width="3.25"/>
	<path d="m1471.2 369.41v-76.56" fill="none" stroke="#000" stroke-linecap="round" stroke-linejoin="bevel" stroke-width="3.25"/>
	<path d="m1620.7 356.9v-73.434" fill="none" stroke="#000" stroke-linecap="round" stroke-linejoin="bevel" stroke-width="3.25"/>
	<path d="m1740.5 353.8v82.81" fill="none" stroke="#000" stroke-linecap="round" stroke-linejoin="bevel" stroke-width="3.25"/>
	<path d="m1976.1 381.91v-79.684" fill="none" stroke="#000" stroke-linecap="round" stroke-linejoin="bevel" stroke-width="3.25"/>
	<path d="m2172.2 369.41v-76.56" fill="none" stroke="#000" stroke-linecap="round" stroke-linejoin="bevel" stroke-width="3.25"/>
	<path d="m2294.8 406.91v-82.81" fill="none" stroke="#000" stroke-linecap="round" stroke-linejoin="bevel" stroke-width="3.25"/>
	<path d="m900.04 397.83c3.125 0 5.761 0.814 7.91 2.441 2.018 1.758 3.027 3.972 3.027 6.641 0 4.492-2.311 8.692-6.933 12.598-4.688 3.906-9.701 5.859-15.039 5.859-3.125 0-5.762-0.814-7.911-2.441-2.018-1.758-3.027-3.972-3.027-6.641 0-4.492 2.344-8.691 7.031-12.598 4.558-3.906 9.538-5.859 14.942-5.859"/>
	<path d="m1073.2 360.33c3.12 0 5.76 0.814 7.91 2.441 2.02 1.758 3.02 3.971 3.02 6.641 0 4.492-2.31 8.691-6.93 12.597-4.69 3.907-9.7 5.86-15.04 5.86-3.12 0-5.76-0.814-7.91-2.442-2.02-1.757-3.03-3.971-3.03-6.64 0-4.492 2.35-8.692 7.04-12.598 4.55-3.906 9.53-5.859 14.94-5.859"/>
	<path d="m1312.4 360.33c3.13 0 5.77 0.814 7.91 2.441 2.02 1.758 3.03 3.971 3.03 6.641 0 4.492-2.31 8.691-6.93 12.597-4.69 3.907-9.7 5.86-15.04 5.86-3.13 0-5.76-0.814-7.91-2.442-2.02-1.757-3.03-3.971-3.03-6.64 0-4.492 2.34-8.692 7.03-12.598 4.56-3.906 9.54-5.859 14.94-5.859"/>
	<path d="m1461.9 360.33c3.12 0 5.76 0.814 7.91 2.441 2.02 1.758 3.02 3.971 3.02 6.641 0 4.492-2.31 8.691-6.93 12.597-4.69 3.907-9.7 5.86-15.04 5.86-3.12 0-5.76-0.814-7.91-2.442-2.02-1.757-3.03-3.971-3.03-6.64 0-4.492 2.35-8.692 7.04-12.598 4.55-3.906 9.53-5.859 14.94-5.859"/>
	<path d="m1611.4 347.83c3.13 0 5.76 0.814 7.91 2.441 2.02 1.758 3.03 3.972 3.03 6.641 0 4.492-2.31 8.691-6.93 12.598-4.69 3.906-9.71 5.859-15.04 5.859-3.13 0-5.77-0.814-7.91-2.441-2.02-1.758-3.03-3.972-3.03-6.641 0-4.492 2.34-8.691 7.03-12.598 4.56-3.906 9.54-5.859 14.94-5.859"/>
	<path d="m1760.9 335.33c3.13 0 5.77 0.814 7.92 2.442 2.01 1.757 3.02 3.971 3.02 6.64 0 4.492-2.31 8.692-6.93 12.598-4.69 3.906-9.7 5.859-15.04 5.859-3.13 0-5.76-0.814-7.91-2.441-2.02-1.758-3.03-3.972-3.03-6.641 0-4.492 2.35-8.691 7.03-12.597 4.56-3.907 9.54-5.86 14.94-5.86"/>
	<path d="m1966.8 372.83c3.12 0 5.76 0.813 7.91 2.441 2.01 1.758 3.02 3.971 3.02 6.641 0 4.492-2.31 8.691-6.93 12.597-4.69 3.906-9.7 5.86-15.04 5.86-3.12 0-5.76-0.814-7.91-2.442-2.02-1.758-3.03-3.971-3.03-6.64 0-4.493 2.35-8.692 7.03-12.598 4.56-3.906 9.54-5.859 14.95-5.859"/>
	<path d="m2162.9 360.33c3.12 0 5.76 0.814 7.91 2.441 2.02 1.758 3.03 3.971 3.03 6.641 0 4.492-2.32 8.691-6.94 12.597-4.69 3.907-9.7 5.86-15.04 5.86-3.12 0-5.76-0.814-7.91-2.442-2.02-1.757-3.02-3.971-3.02-6.64 0-4.492 2.34-8.692 7.03-12.598 4.55-3.906 9.53-5.859 14.94-5.859"/>
	<path d="m2285.5 397.83c3.12 0 5.76 0.814 7.91 2.441 2.02 1.758 3.03 3.972 3.03 6.641 0 4.492-2.31 8.692-6.94 12.598-4.68 3.906-9.7 5.859-15.04 5.859-3.12 0-5.76-0.814-7.91-2.441-2.01-1.758-3.02-3.972-3.02-6.641 0-4.492 2.34-8.691 7.03-12.598 4.55-3.906 9.54-5.859 14.94-5.859"/>
	<path d="m616.72 361.02h0.586c0.26-0.065 0.488-0.098 0.684-0.098 7.291 0 13.281 2.572 17.968 7.715 4.688 5.078 7.032 11.003 7.032 17.774 0 8.398-3.483 15.234-10.45 20.508-1.822 1.432-4.199 2.604-7.128 3.515 0.325 4.232 0.488 7.65 0.488 10.254 0 0.521-0.065 2.409-0.195 5.664-0.261 6.055-2.344 11.296-6.25 15.723-3.777 4.362-8.464 6.543-14.063 6.543-5.273 0-9.766-1.856-13.477-5.567-3.71-3.776-5.566-8.333-5.566-13.672 0-2.799 1.074-5.175 3.223-7.128 2.213-1.954 4.785-2.93 7.715-2.93 2.604 0 4.785 1.009 6.543 3.027 1.822 1.888 2.734 4.232 2.734 7.031 0 2.54-0.912 4.721-2.734 6.543-1.823 1.823-4.004 2.735-6.543 2.735-1.042 0-2.051-0.195-3.028-0.586 2.865 4.232 6.673 6.348 11.426 6.348 4.492 0 8.171-1.823 11.035-5.469 2.995-3.776 4.623-8.171 4.883-13.184 0.13-3.125 0.195-4.915 0.195-5.371 0-3.646-0.13-6.641-0.39-8.984-3.256 0.521-6.153 0.781-8.692 0.781-9.049 0-16.764-3.581-23.144-10.742-6.25-7.227-9.375-15.821-9.375-25.781 0-2.084 0.195-4.2 0.586-6.348 0.39-1.758 0.879-3.679 1.464-5.762 0.326-1.172 1.205-3.06 2.637-5.664 0.521-0.781 1.107-1.758 1.758-2.93 0.651-1.171 1.107-1.953 1.367-2.343 0.651-1.302 1.921-3.06 3.809-5.274 0.521-0.586 1.058-1.237 1.611-1.953 0.554-0.716 1.026-1.302 1.416-1.758 0.391-0.455 0.684-0.814 0.879-1.074s1.66-1.986 4.395-5.176c0.651-0.651 1.285-1.351 1.904-2.099 0.618-0.749 1.123-1.335 1.514-1.758 0.39-0.423 0.683-0.733 0.878-0.928-2.343-7.747-3.808-13.932-4.394-18.555-0.456-3.71-0.684-8.789-0.684-15.234 0-5.664 1.302-10.97 3.907-15.918 2.539-5.143 6.087-9.342 10.644-12.598 0.261-0.195 0.586-0.293 0.977-0.293 0.455 0 0.781 0.098 0.976 0.293 3.516 4.232 6.543 9.734 9.082 16.504 2.604 6.771 3.907 12.924 3.907 18.457 0 6.25-1.498 12.11-4.493 17.579-3.385 5.794-7.747 11.783-13.086 17.968 1.368 4.297 3.19 11.035 5.469 20.215m8.301 45.41c3.385-1.237 6.022-3.353 7.91-6.347 2.083-2.865 3.125-6.088 3.125-9.668 0-4.623-1.562-8.724-4.687-12.305-3.191-3.711-7.26-5.794-12.207-6.25 2.799 13.737 4.752 25.26 5.859 34.57m-37.793-22.558c0 6.445 2.604 12.109 7.812 16.992 5.339 4.752 11.329 7.129 17.969 7.129 2.735 0 5.404-0.196 8.008-0.586-1.042-9.896-3.092-21.745-6.152-35.547-3.711 0.391-6.674 1.693-8.887 3.906-2.148 2.279-3.223 4.85-3.223 7.715 0 4.948 2.637 8.952 7.91 12.012 0.456 0.455 0.684 0.944 0.684 1.465 0 0.52-0.228 1.009-0.684 1.464-0.39 0.456-0.878 0.684-1.464 0.684-0.065 0-0.358-0.065-0.879-0.195-3.711-2.019-6.576-4.623-8.594-7.813-1.888-3.385-2.832-6.803-2.832-10.254 0-4.492 1.4-8.561 4.199-12.207 2.93-3.646 6.738-5.989 11.426-7.031-1.823-7.292-3.32-12.988-4.492-17.09-1.042 1.172-2.295 2.588-3.76 4.248s-2.328 2.653-2.588 2.979c-2.344 3.06-4.134 5.436-5.371 7.129-2.214 3.06-3.841 5.696-4.883 7.91-1.107 2.474-2.083 5.176-2.93 8.105-0.846 2.8-1.269 5.795-1.269 8.985m32.617-99.317c-4.883 2.409-8.724 5.86-11.523 10.352-2.865 4.622-4.297 9.603-4.297 14.941 0 4.688 1.172 11.003 3.515 18.946 4.688-5.665 8.204-10.905 10.547-15.723 2.474-5.078 3.711-10.384 3.711-15.918 0-4.167-0.651-8.366-1.953-12.598"/>
	<path d="m748.12 332.5v7.715c0 2.735 0.13 4.916 0.391 6.543 2.148-1.823 3.678-3.19 4.589-4.101 1.042-1.042 2.084-2.474 3.125-4.297 1.042-1.823 1.563-3.646 1.563-5.469s-0.391-3.385-1.172-4.688c-0.781-1.302-1.823-1.953-3.125-1.953-1.562 0-2.865 0.586-3.906 1.758-0.977 1.302-1.465 2.8-1.465 4.492m-4.102 17.871-1.269-59.472c0.911-0.521 1.823-0.781 2.734-0.781 0.912 0 1.823 0.26 2.735 0.781l-0.782 34.472c2.67-2.278 5.73-3.418 9.18-3.418 2.539 0 4.655 1.042 6.348 3.125 1.692 2.084 2.539 4.46 2.539 7.129 0 1.693-0.554 3.483-1.66 5.371-1.042 1.758-2.149 3.125-3.321 4.102-0.651 0.521-2.311 1.823-4.98 3.906-0.781 0.586-1.709 1.27-2.783 2.051-1.075 0.781-1.742 1.27-2.002 1.465-0.456 0.26-0.879 0.781-1.27 1.562-0.456 0.651-0.976 1.205-1.562 1.661-0.456 0.39-1.009 0.585-1.66 0.585-0.652 0-1.172-0.227-1.563-0.683-0.456-0.456-0.684-1.074-0.684-1.856"/>
	<path d="m723.12 370v7.715c0 2.734 0.131 4.915 0.391 6.542 2.148-1.822 3.678-3.19 4.59-4.101 1.042-1.042 2.083-2.474 3.125-4.297s1.562-3.646 1.562-5.469-0.39-3.385-1.172-4.687c-0.781-1.302-1.822-1.953-3.125-1.953-1.562 0-2.864 0.586-3.906 1.757-0.976 1.303-1.465 2.8-1.465 4.493m-4.101 17.871-1.27-59.473c0.912-0.521 1.823-0.781 2.735-0.781 0.911 0 1.823 0.26 2.734 0.781l-0.781 34.473c2.669-2.279 5.729-3.418 9.179-3.418 2.54 0 4.655 1.041 6.348 3.125 1.693 2.083 2.539 4.459 2.539 7.129 0 1.692-0.553 3.483-1.66 5.371-1.042 1.758-2.148 3.125-3.32 4.101-0.651 0.521-2.311 1.823-4.981 3.907-0.781 0.586-1.709 1.269-2.783 2.05-1.074 0.782-1.741 1.27-2.002 1.465-0.456 0.261-0.879 0.781-1.269 1.563-0.456 0.651-0.977 1.204-1.563 1.66-0.456 0.391-1.009 0.586-1.66 0.586s-1.172-0.228-1.563-0.684c-0.455-0.455-0.683-1.074-0.683-1.855"/>
	<path d="m698.12 320v7.714c0 2.735 0.13 4.916 0.39 6.543 2.149-1.823 3.679-3.19 4.59-4.101 1.042-1.042 2.084-2.474 3.125-4.297 1.042-1.823 1.563-3.646 1.563-5.469s-0.391-3.385-1.172-4.687-1.823-1.953-3.125-1.953c-1.563 0-2.865 0.585-3.906 1.757-0.977 1.302-1.465 2.8-1.465 4.493m-4.102 17.871-1.269-59.473c0.911-0.521 1.823-0.781 2.734-0.781 0.912 0 1.823 0.26 2.734 0.781l-0.781 34.473c2.67-2.279 5.729-3.418 9.18-3.418 2.539 0 4.655 1.041 6.348 3.125 1.692 2.083 2.539 4.459 2.539 7.129 0 1.692-0.554 3.483-1.661 5.371-1.041 1.757-2.148 3.125-3.32 4.101-0.651 0.521-2.311 1.823-4.98 3.906-0.782 0.586-1.709 1.27-2.784 2.051-1.074 0.782-1.741 1.27-2.001 1.465-0.456 0.261-0.879 0.781-1.27 1.563-0.456 0.651-0.977 1.204-1.562 1.66-0.456 0.39-1.01 0.586-1.661 0.586s-1.172-0.228-1.562-0.684c-0.456-0.456-0.684-1.074-0.684-1.855"/>
	<path d="m673.12 357.5v7.715c0 2.734 0.13 4.915 0.391 6.543 2.148-1.823 3.678-3.19 4.59-4.102 1.041-1.042 2.083-2.474 3.125-4.297 1.041-1.823 1.562-3.646 1.562-5.468 0-1.823-0.39-3.386-1.172-4.688-0.781-1.302-1.823-1.953-3.125-1.953-1.562 0-2.864 0.586-3.906 1.758-0.976 1.302-1.465 2.799-1.465 4.492m-4.101 17.871-1.27-59.473c0.912-0.521 1.823-0.781 2.735-0.781 0.911 0 1.822 0.26 2.734 0.781l-0.781 34.473c2.669-2.279 5.729-3.418 9.179-3.418 2.539 0 4.655 1.042 6.348 3.125s2.539 4.46 2.539 7.129c0 1.693-0.553 3.483-1.66 5.371-1.042 1.758-2.149 3.125-3.32 4.102-0.651 0.52-2.312 1.822-4.981 3.906-0.781 0.586-1.709 1.269-2.783 2.051-1.074 0.781-1.742 1.269-2.002 1.464-0.456 0.261-0.879 0.782-1.27 1.563-0.455 0.651-0.976 1.204-1.562 1.66-0.456 0.391-1.009 0.586-1.66 0.586s-1.172-0.228-1.563-0.684c-0.455-0.455-0.683-1.074-0.683-1.855"/>
	<path d="m809.37 336.01c-2.474 0-4.004 0.977-4.59 2.93-0.455 1.432-0.683 3.841-0.683 7.226v2.93c0 3.385 0.228 5.794 0.683 7.226 0.586 1.954 2.116 2.93 4.59 2.93 2.735 0 4.46-1.139 5.176-3.418 0.651-2.148 0.976-4.883 0.976-8.203 0-3.841-0.358-6.738-1.074-8.691-0.781-1.953-2.474-2.93-5.078-2.93m-5.273-0.977c1.953-0.781 3.711-1.237 5.273-1.367 5.208 0 9.375 1.172 12.5 3.516 2.995 2.409 4.492 5.859 4.492 10.351 0 4.558-1.53 8.073-4.59 10.547-3.059 2.344-7.194 3.516-12.402 3.516-5.338 0-9.505-2.474-12.5-7.422s-4.492-10.807-4.492-17.578c0-6.641 1.758-12.5 5.273-17.578 3.581-4.948 8.171-7.422 13.77-7.422 3.646 0 6.868 0.944 9.668 2.832 2.734 1.888 4.101 4.362 4.101 7.422 0 1.888-0.651 3.45-1.953 4.687-1.172 1.302-2.669 1.953-4.492 1.953s-3.385-0.651-4.687-1.953-1.953-2.864-1.953-4.687c0-0.716 0.651-1.53 1.953-2.442 1.302-0.781 1.953-1.595 1.953-2.441 0-0.911-0.456-1.66-1.367-2.246-1.042-0.521-2.116-0.781-3.223-0.781-2.995 0-4.981 1.204-5.957 3.613-1.042 2.344-1.563 5.762-1.563 10.254 0 1.302 0.033 2.506 0.098 3.613s0.098 2.311 0.098 3.613"/>
	<path d="m816.59 382.79c3.255-3.58 4.883-6.966 4.883-10.156 0-2.669-1.14-4.785-3.418-6.347-2.214-1.563-4.948-2.344-8.203-2.344-2.279 0-4.102 0.716-5.469 2.148-1.367 1.433-2.051 3.06-2.051 4.883 0 2.279 1.009 4.036 3.027 5.273l11.231 6.543m3.027 1.661c5.534 3.19 8.301 7.454 8.301 12.793 0 3.971-1.66 7.324-4.98 10.058-3.321 2.865-7.976 4.297-13.965 4.297-5.078 0-9.343-1.302-12.793-3.906-3.646-2.604-5.469-5.957-5.469-10.059 0-1.497 0.456-3.092 1.367-4.785 0.847-1.497 1.693-2.669 2.539-3.516 0.391-0.52 1.628-1.757 3.711-3.711-4.036-2.864-6.087-6.412-6.152-10.644 0-3.581 1.595-6.738 4.785-9.473 3.19-2.604 7.487-3.906 12.891-3.906 4.296 0 8.073 0.977 11.328 2.93 3.125 1.953 4.687 4.655 4.687 8.105-0.13 3.516-2.213 7.455-6.25 11.817m-18.261 2.929c-4.037 3.581-6.12 6.999-6.25 10.254 0 3.321 1.399 6.087 4.199 8.301 2.669 2.214 5.892 3.32 9.668 3.32 2.669 0 4.752-0.846 6.25-2.539 1.562-1.562 2.343-3.483 2.343-5.761 0-2.8-1.139-4.851-3.418-6.153l-12.792-7.422"/>
	<path d="m907.73 349.1v-25h3.125c0 3.711 0.716 7.422 2.148 11.133 1.563 4.036 3.288 7.552 5.176 10.547 1.367 2.148 3.418 5.436 6.153 9.863 2.083 3.385 3.841 6.934 5.273 10.645s2.148 7.421 2.148 11.132c0 6.771-1.399 13.672-4.199 20.704-0.521 0.781-1.139 1.171-1.855 1.171-0.651 0-1.237-0.26-1.758-0.781-0.391-0.39-0.586-0.879-0.586-1.465v-0.488c2.799-6.445 4.199-12.825 4.199-19.141 0-3.255-0.976-6.77-2.929-10.546-1.954-3.842-3.939-6.902-5.958-9.18-2.278-2.669-4.882-5.534-7.812-8.594h-3.125"/>
	<path d="m1320.1 317.85v-25h3.12c0 3.711 0.72 7.422 2.15 11.133 1.56 4.036 3.29 7.552 5.18 10.547 1.36 2.148 3.41 5.436 6.15 9.863 2.08 3.386 3.84 6.934 5.27 10.645s2.15 7.422 2.15 11.132c0 6.771-1.4 13.672-4.2 20.704-0.52 0.781-1.14 1.171-1.85 1.171-0.66 0-1.24-0.26-1.76-0.781-0.39-0.39-0.59-0.879-0.59-1.465v-0.488c2.8-6.445 4.2-12.825 4.2-19.141 0-3.255-0.98-6.77-2.93-10.546-1.95-3.842-3.94-6.901-5.96-9.18-2.27-2.669-4.88-5.534-7.81-8.594h-3.12"/>
	<path d="m1469.6 317.85v-25h3.13c0 3.711 0.71 7.422 2.14 11.133 1.57 4.036 3.29 7.552 5.18 10.547 1.37 2.148 3.42 5.436 6.15 9.863 2.09 3.386 3.84 6.934 5.28 10.645 1.43 3.711 2.14 7.422 2.14 11.132 0 6.771-1.4 13.672-4.2 20.704-0.52 0.781-1.13 1.171-1.85 1.171-0.65 0-1.24-0.26-1.76-0.781-0.39-0.39-0.58-0.879-0.58-1.465v-0.488c2.8-6.445 4.19-12.825 4.19-19.141 0-3.255-0.97-6.77-2.92-10.546-1.96-3.842-3.94-6.901-5.96-9.18-2.28-2.669-4.88-5.534-7.81-8.594h-3.13"/>
	<path d="m1619.1 308.47v-25h3.13c0 3.71 0.72 7.421 2.15 11.132 1.56 4.037 3.29 7.552 5.17 10.547 1.37 2.149 3.42 5.436 6.16 9.864 2.08 3.385 3.84 6.933 5.27 10.644s2.15 7.422 2.15 11.133c0 6.771-1.4 13.672-4.2 20.703-0.52 0.781-1.14 1.172-1.86 1.172-0.65 0-1.23-0.261-1.75-0.781-0.4-0.391-0.59-0.879-0.59-1.465v-0.489c2.8-6.445 4.2-12.825 4.2-19.14 0-3.255-0.98-6.771-2.93-10.547-1.95-3.841-3.94-6.901-5.96-9.18-2.28-2.669-4.88-5.534-7.81-8.593h-3.13"/>
	<path d="m1761.7 364.24c1.49 0 3.09 2.441 4.78 7.324 1.63 4.818 2.44 9.408 2.44 13.77 0 3.711-0.91 7.389-2.73 11.035-1.89 3.906-4.14 7.291-6.74 10.156l-8.01 8.984c-2.47 2.865-4.69 6.185-6.64 9.961-1.82 3.646-2.73 7.357-2.73 11.133h-3.13v-25h3.13c1.76-1.107 4.36-2.864 7.81-5.273 1.56-1.172 3.91-3.125 7.03-5.86 2.54-2.343 4.46-4.752 5.76-7.226 1.37-2.604 2.05-5.241 2.05-7.91 0-6.185-1.79-12.338-5.37-18.457v-0.391c0-0.586 0.2-1.074 0.59-1.465 0.52-0.521 1.11-0.781 1.76-0.781"/>
	<path d="m2170.6 317.85v-25h3.13c0 3.711 0.71 7.422 2.14 11.133 1.57 4.036 3.29 7.552 5.18 10.547 1.37 2.148 3.42 5.436 6.15 9.863 2.09 3.386 3.84 6.934 5.28 10.645 1.43 3.711 2.14 7.422 2.14 11.132 0 6.771-1.39 13.672-4.19 20.704-0.53 0.781-1.14 1.171-1.86 1.171-0.65 0-1.24-0.26-1.76-0.781-0.39-0.39-0.58-0.879-0.58-1.465v-0.488c2.8-6.445 4.2-12.825 4.2-19.141 0-3.255-0.98-6.77-2.93-10.546-1.96-3.842-3.94-6.901-5.96-9.18-2.28-2.669-4.88-5.534-7.81-8.594h-3.13"/>
	<path d="m894.32 469.28-14.08 31.515h-0.77l-13.805-30.25v22.165c0 2.787 0.33 4.63 0.99 5.528s2.053 1.402 4.18 1.512v1.045h-12.925v-1.045c2.273-0.146 3.73-0.65 4.372-1.512s0.963-2.704 0.963-5.528v-22.33c0-2.016-0.303-3.309-0.908-3.877s-2.044-0.926-4.317-1.073v-1.045h10.89l12.705 27.775 12.155-27.775h10.945v1.045c-2.054 0.184-3.365 0.569-3.933 1.155-0.568 0.587-0.852 1.852-0.852 3.795v24.42c0 1.944 0.293 3.218 0.88 3.823 0.586 0.605 1.888 0.981 3.905 1.127v1.045h-15.4v-1.045c2.163-0.146 3.538-0.54 4.125-1.182 0.586-0.642 0.88-2.099 0.88-4.373v-24.915m19.028 38.885c1.026 0 2.108-1.136 3.245-3.41 1.136-2.273 1.705-3.941 1.705-5.005 0-0.476-0.807-2.328-2.42-5.555l-7.26-15.62c-0.44-0.953-1.375-1.54-2.805-1.76v-0.77h11.33v0.825c-1.174 0.037-1.999 0.165-2.475 0.385-0.477 0.22-0.715 0.587-0.715 1.1 0 0.55 0.183 1.247 0.55 2.09l6.325 13.915 5.335-15.18c0.146-0.33 0.22-0.641 0.22-0.935 0-0.916-0.88-1.375-2.64-1.375v-0.825h7.425v0.825c-0.66 0.074-1.183 0.285-1.568 0.633s-0.742 0.962-1.072 1.842l-8.47 22.44c-1.467 3.96-2.924 6.784-4.373 8.47-1.448 1.687-3.089 2.53-4.922 2.53-1.174 0-2.145-0.302-2.915-0.907s-1.155-1.366-1.155-2.283c0-0.66 0.238-1.228 0.715-1.705 0.476-0.476 1.026-0.715 1.65-0.715 0.806 0 1.668 0.165 2.585 0.495 0.916 0.33 1.485 0.495 1.705 0.495"/>
	<path d="m1037.6 476.59c0.04 0 0.33-0.183 0.88-0.55h0.61l0.22 7.48h-0.83c-0.62-2.456-1.39-4.198-2.31-5.225-0.91-1.026-2.16-1.54-3.74-1.54-1.24 0-2.26 0.349-3.05 1.045-0.79 0.697-1.18 1.595-1.18 2.695 0 1.577 0.79 2.824 2.36 3.74l5.94 3.52c1.65 0.99 2.84 1.99 3.55 2.998 0.72 1.008 1.07 2.191 1.07 3.547 0 1.907-0.76 3.557-2.28 4.95-1.52 1.394-3.34 2.09-5.47 2.09-0.92 0-2.15-0.165-3.69-0.495s-2.49-0.495-2.86-0.495c-0.55 0-0.97 0.22-1.26 0.66h-0.72v-8.58h0.88c0.59 2.567 1.29 4.382 2.09 5.445 1.18 1.504 2.81 2.255 4.9 2.255 1.39 0 2.5-0.357 3.33-1.072 0.82-0.715 1.23-1.678 1.23-2.888 0-1.65-0.95-3.025-2.86-4.125l-3.19-1.815c-2.34-1.32-4-2.585-4.97-3.795s-1.46-2.585-1.46-4.125c0-1.98 0.71-3.602 2.12-4.867s3.2-1.898 5.36-1.898c1.21 0 2.35 0.175 3.41 0.523s1.7 0.522 1.92 0.522m18.97-1.1c3.52 0 6.41 1.174 8.69 3.52 2.27 2.347 3.41 5.317 3.41 8.91 0 3.814-1.18 7.004-3.52 9.57-2.35 2.567-5.25 3.85-8.69 3.85-3.45 0-6.32-1.237-8.61-3.712s-3.44-5.564-3.44-9.268c0-3.776 1.13-6.865 3.38-9.267 2.26-2.402 5.18-3.603 8.78-3.603m-7.21 10.175c0 3.924 0.72 7.26 2.15 10.01s3.3 4.125 5.61 4.125c2.05 0 3.66-0.88 4.84-2.64 1.17-1.76 1.76-4.198 1.76-7.315 0-3.776-0.74-6.856-2.2-9.24-1.47-2.383-3.36-3.575-5.67-3.575-1.94 0-3.51 0.789-4.7 2.365-1.19 1.577-1.79 3.667-1.79 6.27m47.08 12.375v0.77c-2.86 0.77-5.38 1.595-7.54 2.475l-0.22-0.11v-4.565c-0.11 0.11-0.43 0.44-0.96 0.99s-0.91 0.926-1.13 1.128-0.59 0.513-1.13 0.935c-0.53 0.422-1 0.724-1.4 0.907-0.4 0.184-0.92 0.358-1.54 0.523s-1.25 0.247-1.87 0.247c-2.02 0-3.63-0.65-4.84-1.952s-1.81-3.034-1.81-5.198v-13.86c0-1.283-0.24-2.172-0.72-2.667s-1.37-0.779-2.69-0.853v-0.77h8.03v17.93c0 1.137 0.38 2.118 1.15 2.943s1.69 1.237 2.75 1.237c0.4 0 0.88-0.055 1.43-0.165s1.18-0.32 1.9-0.632c0.71-0.312 1.32-0.807 1.81-1.485 0.5-0.678 0.75-1.513 0.75-2.503v-12.925c0-1.356-0.25-2.255-0.75-2.695-0.49-0.44-1.6-0.696-3.32-0.77v-0.935h8.69v18.865c0 1.284 0.2 2.127 0.6 2.53 0.4 0.404 1.25 0.605 2.53 0.605h0.28m1.08-31.515v-0.88c3.63-0.88 6.55-1.686 8.75-2.42l0.22 0.11v32.835c0 1.504 0.25 2.485 0.74 2.943 0.5 0.458 1.62 0.742 3.38 0.852v0.825h-12.98v-0.825c1.73-0.146 2.86-0.476 3.41-0.99 0.55-0.513 0.83-1.503 0.83-2.97v-26.235c0-1.283-0.17-2.163-0.5-2.64-0.33-0.476-0.93-0.715-1.81-0.715-0.73 0-1.41 0.037-2.04 0.11"/>
	<path d="m1264.1 483.74c-0.99-2.933-1.76-4.775-2.29-5.527s-1.4-1.201-2.61-1.348v-0.825h11.17v0.825c-1.29 0.184-2.14 0.404-2.56 0.66-0.42 0.257-0.63 0.697-0.63 1.32 0 0.477 0.31 1.559 0.93 3.245l4.62 12.32 4.95-12.21c0.62-1.54 0.94-2.75 0.94-3.63 0-0.476-0.17-0.834-0.5-1.072s-0.97-0.449-1.92-0.633v-0.825h6.76v0.825c-0.55 0.184-0.94 0.44-1.18 0.77s-0.6 1.064-1.07 2.2l-7.59 19.03c-0.74 1.797-1.25 2.695-1.54 2.695-0.3 0-0.74-0.788-1.32-2.365l-5.01-12.98-6.16 13.2c-0.66 1.43-1.12 2.145-1.37 2.145-0.3 0-0.77-0.806-1.43-2.42l-7.43-18.81c-0.55-1.393-1.01-2.3-1.37-2.722-0.37-0.422-0.88-0.669-1.54-0.743v-0.825h9.9v0.825c-0.96 0.11-1.62 0.294-1.98 0.55-0.37 0.257-0.55 0.679-0.55 1.265 0 0.55 0.11 1.1 0.33 1.65l5.44 14.355 5.01-10.945m20.51 11.715c0-0.66 0.07-1.274 0.22-1.842 0.14-0.568 0.4-1.1 0.77-1.595 0.36-0.495 0.71-0.944 1.04-1.348 0.33-0.403 0.83-0.815 1.49-1.237s1.21-0.77 1.65-1.045 1.11-0.605 2.01-0.99c0.89-0.385 1.58-0.678 2.06-0.88 0.47-0.202 1.23-0.504 2.25-0.908 1.03-0.403 1.78-0.696 2.26-0.88v-3.355c0-3.043-1.4-4.565-4.18-4.565-1.1 0-2.04 0.266-2.81 0.798s-1.15 1.164-1.15 1.897c0 0.294 0.04 0.697 0.14 1.21 0.09 0.514 0.13 0.844 0.13 0.99 0 0.624-0.24 1.165-0.74 1.623-0.49 0.458-1.07 0.687-1.73 0.687-0.63 0-1.18-0.238-1.65-0.715-0.48-0.476-0.72-1.026-0.72-1.65 0-1.723 0.89-3.18 2.67-4.372s3.97-1.788 6.57-1.788c3.01 0 5.08 0.725 6.22 2.173 1.13 1.448 1.7 3.657 1.7 6.627v10.725c0 1.21 0.12 2.045 0.36 2.503s0.67 0.687 1.29 0.687c0.77 0 1.58-0.348 2.42-1.045v1.43c-0.95 1.064-1.78 1.788-2.5 2.173-0.71 0.385-1.53 0.577-2.45 0.577-1.13 0-1.97-0.311-2.5-0.935-0.53-0.623-0.87-1.65-1.02-3.08-3.15 2.677-5.83 4.015-8.03 4.015-1.68 0-3.07-0.55-4.15-1.65s-1.62-2.511-1.62-4.235m13.75-1.43v-7.975c-3.3 1.21-5.61 2.384-6.93 3.52-1.32 1.137-1.98 2.512-1.98 4.125 0 1.504 0.36 2.622 1.1 3.355 0.73 0.734 1.52 1.1 2.36 1.1 1.25 0 2.59-0.421 4.02-1.265 0.58-0.33 0.97-0.678 1.15-1.045 0.19-0.366 0.28-0.971 0.28-1.815m9.34-15.125v-0.935c2.72-0.806 5.25-1.631 7.59-2.475l0.39 0.11v4.345c1.87-1.76 3.35-2.942 4.43-3.547s2.26-0.908 3.54-0.908c2.02 0 3.61 0.725 4.76 2.173 1.16 1.448 1.73 3.474 1.73 6.077v12.595c0 1.357 0.22 2.265 0.66 2.723s1.34 0.761 2.7 0.907v0.825h-11.44v-0.825c1.39-0.11 2.32-0.476 2.78-1.1 0.46-0.623 0.68-1.796 0.68-3.52v-11.495c0-3.556-1.33-5.335-4.01-5.335-0.92 0-1.76 0.211-2.53 0.633s-1.82 1.256-3.14 2.502v15.455c0 0.99 0.26 1.687 0.77 2.09 0.52 0.404 1.47 0.66 2.86 0.77v0.825h-11.66v-0.825c1.4-0.11 2.31-0.43 2.75-0.962s0.66-1.586 0.66-3.163v-13.64c0-1.356-0.14-2.282-0.44-2.777-0.29-0.495-0.82-0.743-1.59-0.743-0.7 0-1.19 0.074-1.49 0.22m40.59-2.86v1.76h-5.55v15.73c0 1.724 0.22 2.98 0.66 3.768s1.17 1.182 2.2 1.182c1.13 0 2.23-0.641 3.3-1.925l0.71 0.605c-1.76 2.787-3.96 4.18-6.6 4.18-3.26 0-4.89-2.328-4.89-6.985v-16.555h-2.92c-0.15-0.11-0.22-0.238-0.22-0.385 0-0.183 0.06-0.33 0.17-0.44s0.32-0.265 0.63-0.467 0.69-0.477 1.13-0.825 1.04-0.981 1.81-1.898c0.77-0.916 1.61-2.016 2.53-3.3 0.59-0.843 0.95-1.356 1.1-1.54 0.26 0 0.39 0.239 0.39 0.715v6.38h5.55m16.06 0.55c0.03 0 0.33-0.183 0.88-0.55h0.6l0.22 7.48h-0.82c-0.63-2.456-1.4-4.198-2.31-5.225-0.92-1.026-2.17-1.54-3.74-1.54-1.25 0-2.27 0.349-3.05 1.045-0.79 0.697-1.19 1.595-1.19 2.695 0 1.577 0.79 2.824 2.37 3.74l5.94 3.52c1.65 0.99 2.83 1.99 3.55 2.998 0.71 1.008 1.07 2.191 1.07 3.547 0 1.907-0.76 3.557-2.28 4.95-1.53 1.394-3.35 2.09-5.48 2.09-0.91 0-2.14-0.165-3.68-0.495s-2.5-0.495-2.86-0.495c-0.55 0-0.97 0.22-1.27 0.66h-0.71v-8.58h0.88c0.58 2.567 1.28 4.382 2.09 5.445 1.17 1.504 2.8 2.255 4.89 2.255 1.4 0 2.51-0.357 3.33-1.072 0.83-0.715 1.24-1.678 1.24-2.888 0-1.65-0.96-3.025-2.86-4.125l-3.19-1.815c-2.35-1.32-4.01-2.585-4.98-3.795s-1.46-2.585-1.46-4.125c0-1.98 0.71-3.602 2.12-4.867s3.2-1.898 5.36-1.898c1.21 0 2.35 0.175 3.41 0.523 1.07 0.348 1.71 0.522 1.93 0.522"/>
	<path d="m1448 476.59c0.03 0 0.33-0.183 0.88-0.55h0.6l0.22 7.48h-0.82c-0.63-2.456-1.4-4.198-2.31-5.225-0.92-1.026-2.17-1.54-3.74-1.54-1.25 0-2.27 0.349-3.05 1.045-0.79 0.697-1.19 1.595-1.19 2.695 0 1.577 0.79 2.824 2.37 3.74l5.94 3.52c1.65 0.99 2.83 1.99 3.55 2.998 0.71 1.008 1.07 2.191 1.07 3.547 0 1.907-0.76 3.557-2.28 4.95-1.53 1.394-3.35 2.09-5.48 2.09-0.91 0-2.14-0.165-3.68-0.495s-2.5-0.495-2.86-0.495c-0.55 0-0.97 0.22-1.27 0.66h-0.71v-8.58h0.88c0.58 2.567 1.28 4.382 2.09 5.445 1.17 1.504 2.8 2.255 4.89 2.255 1.4 0 2.51-0.357 3.33-1.072 0.83-0.715 1.24-1.678 1.24-2.888 0-1.65-0.96-3.025-2.86-4.125l-3.19-1.815c-2.35-1.32-4.01-2.585-4.98-3.795s-1.46-2.585-1.46-4.125c0-1.98 0.71-3.602 2.12-4.867s3.2-1.898 5.36-1.898c1.21 0 2.35 0.175 3.41 0.523 1.07 0.348 1.71 0.522 1.93 0.522m18.96-1.1c3.52 0 6.42 1.174 8.69 3.52 2.27 2.347 3.41 5.317 3.41 8.91 0 3.814-1.17 7.004-3.52 9.57-2.35 2.567-5.24 3.85-8.69 3.85s-6.32-1.237-8.61-3.712-3.44-5.564-3.44-9.268c0-3.776 1.13-6.865 3.39-9.267 2.25-2.402 5.18-3.603 8.77-3.603m-7.21 10.175c0 3.924 0.72 7.26 2.15 10.01s3.3 4.125 5.61 4.125c2.05 0 3.67-0.88 4.84-2.64s1.76-4.198 1.76-7.315c0-3.776-0.73-6.856-2.2-9.24-1.47-2.383-3.36-3.575-5.67-3.575-1.94 0-3.51 0.789-4.7 2.365-1.19 1.577-1.79 3.667-1.79 6.27m21.39-6.765v-0.935c2.64-0.733 5.21-1.558 7.7-2.475l0.39 0.11v4.125c2.27-1.723 3.96-2.86 5.06-3.41s2.25-0.825 3.46-0.825c2.9 0 4.84 1.54 5.83 4.62 2.86-3.08 5.85-4.62 8.97-4.62 4.25 0 6.38 3.264 6.38 9.79v11.33c0 2.054 0.79 3.135 2.36 3.245l1.43 0.11v0.825h-12.04v-0.825c1.61-0.183 2.62-0.495 3.02-0.935 0.41-0.44 0.61-1.448 0.61-3.025v-11.605c0-2.273-0.29-3.85-0.88-4.73s-1.67-1.32-3.25-1.32c-2.42 0-4.41 1.119-5.99 3.355v13.86c0 1.724 0.27 2.879 0.8 3.465 0.53 0.587 1.58 0.899 3.16 0.935v0.825h-12.32v-0.825c1.58-0.11 2.59-0.403 3.05-0.88 0.46-0.476 0.69-1.485 0.69-3.025v-11.935c0-3.85-1.21-5.775-3.63-5.775-1.03 0-2.17 0.257-3.44 0.77-1.26 0.514-2.28 1.339-3.05 2.475v15.51c0 1.064 0.26 1.788 0.77 2.173s1.5 0.614 2.97 0.687v0.825h-12.21v-0.825c1.54-0.036 2.57-0.311 3.08-0.825 0.51-0.513 0.77-1.521 0.77-3.025v-13.915c0-1.32-0.14-2.236-0.41-2.75-0.28-0.513-0.78-0.77-1.52-0.77-0.55 0-1.13 0.074-1.76 0.22m47.47 6.655c0.07 2.31 0.38 4.3 0.93 5.968s1.27 2.915 2.15 3.74 1.77 1.412 2.67 1.76c0.89 0.348 1.84 0.522 2.83 0.522 1.76 0 3.29-0.44 4.59-1.32s2.61-2.365 3.93-4.455l0.88 0.385c-1.13 2.97-2.71 5.244-4.73 6.82-2.01 1.577-4.32 2.365-6.93 2.365-3.15 0-5.65-1.109-7.5-3.327-1.86-2.218-2.78-5.216-2.78-8.993 0-4.07 1.07-7.342 3.22-9.817 2.14-2.475 4.9-3.713 8.27-3.713 2.79 0 4.95 0.835 6.49 2.503s2.51 4.189 2.92 7.562h-16.94m0.11-1.76h11.22c-0.37-2.383-0.94-4.033-1.71-4.95-0.77-0.916-2-1.375-3.68-1.375-3.3 0-5.25 2.109-5.83 6.325m33.2-7.755v1.76h-5.55v15.73c0 1.724 0.22 2.98 0.66 3.768s1.17 1.182 2.2 1.182c1.14 0 2.24-0.641 3.3-1.925l0.71 0.605c-1.76 2.787-3.96 4.18-6.6 4.18-3.26 0-4.89-2.328-4.89-6.985v-16.555h-2.92c-0.14-0.11-0.22-0.238-0.22-0.385 0-0.183 0.06-0.33 0.17-0.44s0.32-0.265 0.63-0.467 0.69-0.477 1.13-0.825 1.04-0.981 1.81-1.898c0.77-0.916 1.62-2.016 2.53-3.3 0.59-0.843 0.96-1.356 1.1-1.54 0.26 0 0.39 0.239 0.39 0.715v6.38h5.55m10.01 5.885v13.255c0 1.907 0.22 3.135 0.66 3.685s1.47 0.917 3.08 1.1v0.825h-11.88v-0.825c1.58-0.22 2.56-0.586 2.94-1.1 0.39-0.513 0.58-1.741 0.58-3.685v-25.905c0-1.173-0.15-1.943-0.47-2.31-0.31-0.366-0.99-0.55-2.06-0.55-0.25 0-0.57 0.037-0.93 0.11v-0.88c2.6-0.696 5.2-1.503 7.81-2.42l0.27 0.165v16.72c1.25-1.65 2.5-2.832 3.77-3.547 1.26-0.715 2.7-1.073 4.32-1.073 4.51 0 6.76 2.915 6.76 8.745v10.945c0 1.907 0.18 3.108 0.52 3.603 0.35 0.495 1.28 0.889 2.78 1.182v0.825h-11.66v-0.825c1.58-0.146 2.6-0.513 3.05-1.1 0.46-0.586 0.69-1.815 0.69-3.685v-10.89c0-3.886-1.37-5.83-4.12-5.83-1.07 0-2.07 0.266-3 0.798-0.94 0.532-1.97 1.421-3.11 2.667m22.1-2.75c-0.81 0-1.58 0.055-2.31 0.165v-0.825c2.56-0.733 5.41-1.741 8.52-3.025l0.22 0.165v19.525c0 1.98 0.23 3.236 0.69 3.768s1.59 0.871 3.38 1.017v0.825h-13.03v-0.825c1.9-0.11 3.1-0.44 3.6-0.99 0.49-0.55 0.74-1.815 0.74-3.795v-12.76c0-1.21-0.14-2.053-0.41-2.53-0.28-0.476-0.74-0.715-1.4-0.715m3.63-15.95c0.8 0 1.48 0.275 2.03 0.825s0.83 1.21 0.83 1.98c0 0.807-0.28 1.476-0.83 2.008s-1.23 0.797-2.03 0.797c-0.77 0-1.42-0.275-1.96-0.825-0.53-0.55-0.79-1.21-0.79-1.98s0.27-1.43 0.82-1.98 1.19-0.825 1.93-0.825m8.79 15.675v-0.935c2.71-0.806 5.24-1.631 7.59-2.475l0.38 0.11v4.345c1.87-1.76 3.35-2.942 4.43-3.547s2.26-0.908 3.55-0.908c2.01 0 3.6 0.725 4.76 2.173 1.15 1.448 1.73 3.474 1.73 6.077v12.595c0 1.357 0.22 2.265 0.66 2.723s1.34 0.761 2.69 0.907v0.825h-11.44v-0.825c1.4-0.11 2.32-0.476 2.78-1.1 0.46-0.623 0.69-1.796 0.69-3.52v-11.495c0-3.556-1.34-5.335-4.02-5.335-0.91 0-1.76 0.211-2.53 0.633s-1.81 1.256-3.13 2.502v15.455c0 0.99 0.25 1.687 0.77 2.09 0.51 0.404 1.46 0.66 2.86 0.77v0.825h-11.66v-0.825c1.39-0.11 2.31-0.43 2.75-0.962s0.66-1.586 0.66-3.163v-13.64c0-1.356-0.15-2.282-0.44-2.777-0.3-0.495-0.83-0.743-1.6-0.743-0.69 0-1.19 0.074-1.48 0.22m29.64 18.92c0-0.696 0.25-1.338 0.74-1.925 0.5-0.586 1.88-1.943 4.15-4.07-1.83-0.916-3.14-1.943-3.93-3.08-0.79-1.136-1.18-2.566-1.18-4.29 0-2.493 0.89-4.61 2.67-6.352 1.77-1.742 3.95-2.613 6.51-2.613 1.43 0 2.96 0.303 4.6 0.908 1.63 0.605 2.98 0.907 4.04 0.907h4.23v2.145h-4.56c0.7 1.577 1.04 3.117 1.04 4.62 0 2.53-0.85 4.584-2.55 6.16-1.71 1.577-3.72 2.365-6.03 2.365-0.44 0-1.48-0.091-3.13-0.275-0.73 0.22-1.47 0.715-2.2 1.485s-1.1 1.43-1.1 1.98c0 0.88 1.43 1.375 4.29 1.485l7.09 0.33c2.02 0.074 3.63 0.642 4.84 1.705 1.21 1.064 1.82 2.457 1.82 4.18 0 2.64-1.51 4.85-4.54 6.628-3.02 1.778-6.28 2.667-9.76 2.667-2.6 0-4.84-0.522-6.71-1.567s-2.81-2.301-2.81-3.768c0-1.026 0.42-2.044 1.24-3.052 0.83-1.008 2.21-2.228 4.15-3.658-1.13-0.55-1.9-1.026-2.31-1.43-0.4-0.403-0.6-0.898-0.6-1.485m4.07 3.08c-1.14 1.357-1.87 2.329-2.2 2.915-0.33 0.587-0.5 1.192-0.5 1.815 0 1.21 0.74 2.182 2.2 2.915 1.47 0.734 3.41 1.1 5.83 1.1 3.12 0 5.63-0.495 7.54-1.485s2.86-2.273 2.86-3.85c0-0.99-0.51-1.686-1.54-2.09-1.03-0.403-2.79-0.605-5.28-0.605-3.7 0-6.67-0.238-8.91-0.715m10.01-14.685c0-0.623-0.07-1.375-0.22-2.255s-0.4-1.879-0.77-2.997-0.95-2.053-1.76-2.805-1.78-1.128-2.92-1.128c-1.28 0-2.28 0.459-2.99 1.375-0.72 0.917-1.08 2.182-1.08 3.795 0 3.154 0.59 5.445 1.76 6.875 1.18 1.43 2.46 2.145 3.85 2.145 1.29 0 2.3-0.449 3.03-1.347s1.1-2.118 1.1-3.658"/>
	<path d="m1713.3 476.04v1.76h-5.56v15.73c0 1.724 0.22 2.98 0.66 3.768s1.18 1.182 2.2 1.182c1.14 0 2.24-0.641 3.3-1.925l0.72 0.605c-1.76 2.787-3.96 4.18-6.6 4.18-3.26 0-4.9-2.328-4.9-6.985v-16.555h-2.91c-0.15-0.11-0.22-0.238-0.22-0.385 0-0.183 0.05-0.33 0.16-0.44s0.32-0.265 0.64-0.467c0.31-0.202 0.68-0.477 1.12-0.825s1.05-0.981 1.82-1.898c0.77-0.916 1.61-2.016 2.53-3.3 0.59-0.843 0.95-1.356 1.1-1.54 0.26 0 0.38 0.239 0.38 0.715v6.38h5.56m10.01 5.885v13.255c0 1.907 0.22 3.135 0.66 3.685s1.46 0.917 3.08 1.1v0.825h-11.88v-0.825c1.57-0.22 2.55-0.586 2.94-1.1 0.38-0.513 0.58-1.741 0.58-3.685v-25.905c0-1.173-0.16-1.943-0.47-2.31-0.31-0.366-1-0.55-2.06-0.55-0.26 0-0.57 0.037-0.94 0.11v-0.88c2.6-0.696 5.21-1.503 7.81-2.42l0.28 0.165v16.72c1.24-1.65 2.5-2.832 3.76-3.547 1.27-0.715 2.71-1.073 4.32-1.073 4.51 0 6.77 2.915 6.77 8.745v10.945c0 1.907 0.17 3.108 0.52 3.603s1.27 0.889 2.78 1.182v0.825h-11.66v-0.825c1.57-0.146 2.59-0.513 3.05-1.1 0.46-0.586 0.69-1.815 0.69-3.685v-10.89c0-3.886-1.38-5.83-4.13-5.83-1.06 0-2.06 0.266-3 0.798-0.93 0.532-1.97 1.421-3.1 2.667m20.06 13.53c0-0.66 0.07-1.274 0.22-1.842 0.14-0.568 0.4-1.1 0.77-1.595 0.36-0.495 0.71-0.944 1.04-1.348 0.33-0.403 0.83-0.815 1.49-1.237s1.21-0.77 1.65-1.045 1.11-0.605 2-0.99c0.9-0.385 1.59-0.678 2.07-0.88 0.47-0.202 1.22-0.504 2.25-0.908 1.03-0.403 1.78-0.696 2.26-0.88v-3.355c0-3.043-1.4-4.565-4.18-4.565-1.1 0-2.04 0.266-2.81 0.798s-1.15 1.164-1.15 1.897c0 0.294 0.04 0.697 0.13 1.21 0.1 0.514 0.14 0.844 0.14 0.99 0 0.624-0.25 1.165-0.74 1.623-0.5 0.458-1.07 0.687-1.73 0.687-0.63 0-1.18-0.238-1.65-0.715-0.48-0.476-0.72-1.026-0.72-1.65 0-1.723 0.89-3.18 2.67-4.372s3.97-1.788 6.57-1.788c3.01 0 5.08 0.725 6.22 2.173 1.13 1.448 1.7 3.657 1.7 6.627v10.725c0 1.21 0.12 2.045 0.36 2.503s0.67 0.687 1.29 0.687c0.77 0 1.58-0.348 2.42-1.045v1.43c-0.95 1.064-1.79 1.788-2.5 2.173-0.72 0.385-1.53 0.577-2.45 0.577-1.14 0-1.97-0.311-2.5-0.935-0.53-0.623-0.87-1.65-1.02-3.08-3.15 2.677-5.83 4.015-8.03 4.015-1.69 0-3.07-0.55-4.15-1.65s-1.62-2.511-1.62-4.235m13.75-1.43v-7.975c-3.3 1.21-5.61 2.384-6.93 3.52-1.32 1.137-1.98 2.512-1.98 4.125 0 1.504 0.36 2.622 1.1 3.355 0.73 0.734 1.52 1.1 2.36 1.1 1.25 0 2.59-0.421 4.02-1.265 0.58-0.33 0.97-0.678 1.15-1.045 0.18-0.366 0.28-0.971 0.28-1.815m23.04-17.985v1.76h-5.56v15.73c0 1.724 0.22 2.98 0.66 3.768s1.18 1.182 2.2 1.182c1.14 0 2.24-0.641 3.3-1.925l0.72 0.605c-1.76 2.787-3.96 4.18-6.6 4.18-3.27 0-4.9-2.328-4.9-6.985v-16.555h-2.91c-0.15-0.11-0.22-0.238-0.22-0.385 0-0.183 0.05-0.33 0.16-0.44s0.32-0.265 0.64-0.467c0.31-0.202 0.68-0.477 1.12-0.825s1.05-0.981 1.82-1.898c0.77-0.916 1.61-2.016 2.53-3.3 0.58-0.843 0.95-1.356 1.1-1.54 0.25 0 0.38 0.239 0.38 0.715v6.38h5.56m7.7-6.71s-0.15 0.037-0.44 0.11c-0.33 0.074-0.68 0.11-1.05 0.11-0.99 0-1.78-0.256-2.36-0.77-0.59-0.513-0.88-1.191-0.88-2.035 0-0.916 0.3-1.668 0.9-2.255 0.61-0.586 1.39-0.88 2.34-0.88 1.25 0 2.29 0.468 3.14 1.403 0.84 0.935 1.26 2.099 1.26 3.492 0 1.65-0.57 3.245-1.7 4.785-1.14 1.54-2.63 2.769-4.46 3.685l-0.49-1.045c3-2.053 4.51-3.996 4.51-5.83 0-0.513-0.26-0.77-0.77-0.77m19.36 7.26c0.03 0 0.33-0.183 0.88-0.55h0.6l0.22 7.48h-0.82c-0.63-2.456-1.4-4.198-2.31-5.225-0.92-1.026-2.17-1.54-3.74-1.54-1.25 0-2.27 0.349-3.06 1.045-0.79 0.697-1.18 1.595-1.18 2.695 0 1.577 0.79 2.824 2.37 3.74l5.94 3.52c1.65 0.99 2.83 1.99 3.54 2.998 0.72 1.008 1.08 2.191 1.08 3.547 0 1.907-0.77 3.557-2.29 4.95-1.52 1.394-3.34 2.09-5.47 2.09-0.92 0-2.14-0.165-3.68-0.495s-2.5-0.495-2.86-0.495c-0.55 0-0.98 0.22-1.27 0.66h-0.71v-8.58h0.88c0.58 2.567 1.28 4.382 2.09 5.445 1.17 1.504 2.8 2.255 4.89 2.255 1.39 0 2.5-0.357 3.33-1.072 0.82-0.715 1.24-1.678 1.24-2.888 0-1.65-0.96-3.025-2.86-4.125l-3.19-1.815c-2.35-1.32-4.01-2.585-4.98-3.795s-1.46-2.585-1.46-4.125c0-1.98 0.71-3.602 2.12-4.867s3.2-1.898 5.36-1.898c1.21 0 2.35 0.175 3.41 0.523s1.71 0.522 1.93 0.522"/>
	<path d="m1917.4 478.9v-0.935c2.71-0.806 5.24-1.631 7.59-2.475l0.39 0.11v4.345c1.87-1.76 3.34-2.942 4.42-3.547 1.09-0.605 2.27-0.908 3.55-0.908 2.02 0 3.6 0.725 4.76 2.173 1.15 1.448 1.73 3.474 1.73 6.077v12.595c0 1.357 0.22 2.265 0.66 2.723s1.34 0.761 2.7 0.907v0.825h-11.44v-0.825c1.39-0.11 2.32-0.476 2.77-1.1 0.46-0.623 0.69-1.796 0.69-3.52v-11.495c0-3.556-1.34-5.335-4.01-5.335-0.92 0-1.76 0.211-2.53 0.633s-1.82 1.256-3.14 2.502v15.455c0 0.99 0.26 1.687 0.77 2.09 0.51 0.404 1.47 0.66 2.86 0.77v0.825h-11.66v-0.825c1.39-0.11 2.31-0.43 2.75-0.962s0.66-1.586 0.66-3.163v-13.64c0-1.356-0.15-2.282-0.44-2.777s-0.82-0.743-1.59-0.743c-0.7 0-1.2 0.074-1.49 0.22m31.68 6.655c0.07 2.31 0.38 4.3 0.93 5.968s1.27 2.915 2.15 3.74 1.77 1.412 2.66 1.76c0.9 0.348 1.85 0.522 2.84 0.522 1.76 0 3.29-0.44 4.59-1.32s2.61-2.365 3.93-4.455l0.88 0.385c-1.14 2.97-2.71 5.244-4.73 6.82-2.02 1.577-4.33 2.365-6.93 2.365-3.15 0-5.65-1.109-7.51-3.327-1.85-2.218-2.77-5.216-2.77-8.993 0-4.07 1.07-7.342 3.21-9.817 2.15-2.475 4.91-3.713 8.28-3.713 2.79 0 4.95 0.835 6.49 2.503s2.51 4.189 2.92 7.562h-16.94m0.11-1.76h11.22c-0.37-2.383-0.94-4.033-1.71-4.95-0.77-0.916-2-1.375-3.68-1.375-3.3 0-5.25 2.109-5.83 6.325m37.38-0.055c-0.99-2.933-1.75-4.775-2.28-5.527s-1.4-1.201-2.61-1.348v-0.825h11.16v0.825c-1.28 0.184-2.13 0.404-2.55 0.66-0.43 0.257-0.64 0.697-0.64 1.32 0 0.477 0.31 1.559 0.94 3.245l4.62 12.32 4.95-12.21c0.62-1.54 0.93-2.75 0.93-3.63 0-0.476-0.16-0.834-0.49-1.072s-0.97-0.449-1.93-0.633v-0.825h6.77v0.825c-0.55 0.184-0.95 0.44-1.18 0.77-0.24 0.33-0.6 1.064-1.08 2.2l-7.59 19.03c-0.73 1.797-1.24 2.695-1.54 2.695-0.29 0-0.73-0.788-1.32-2.365l-5-12.98-6.16 13.2c-0.66 1.43-1.12 2.145-1.38 2.145-0.29 0-0.77-0.806-1.43-2.42l-7.42-18.81c-0.55-1.393-1.01-2.3-1.38-2.722-0.36-0.422-0.88-0.669-1.54-0.743v-0.825h9.9v0.825c-0.95 0.11-1.61 0.294-1.98 0.55-0.36 0.257-0.55 0.679-0.55 1.265 0 0.55 0.11 1.1 0.33 1.65l5.45 14.355 5-10.945m26.95 17.16s-0.15 0.037-0.44 0.11c-0.33 0.074-0.68 0.11-1.04 0.11-0.99 0-1.78-0.247-2.37-0.742s-0.88-1.183-0.88-2.063c0-0.916 0.3-1.668 0.91-2.255 0.6-0.586 1.38-0.88 2.34-0.88 1.24 0 2.29 0.468 3.13 1.403s1.27 2.099 1.27 3.492c0 1.65-0.57 3.245-1.71 4.785s-2.62 2.769-4.45 3.685l-0.5-1.045c3.01-2.053 4.51-3.996 4.51-5.83 0-0.513-0.26-0.77-0.77-0.77"/>
	<path d="m2115.4 476.04v1.76h-5.55v15.73c0 1.724 0.22 2.98 0.66 3.768s1.17 1.182 2.2 1.182c1.13 0 2.23-0.641 3.3-1.925l0.71 0.605c-1.76 2.787-3.96 4.18-6.6 4.18-3.26 0-4.89-2.328-4.89-6.985v-16.555h-2.92c-0.14-0.11-0.22-0.238-0.22-0.385 0-0.183 0.06-0.33 0.17-0.44s0.32-0.265 0.63-0.467 0.69-0.477 1.13-0.825 1.04-0.981 1.81-1.898c0.77-0.916 1.62-2.016 2.53-3.3 0.59-0.843 0.96-1.356 1.1-1.54 0.26 0 0.39 0.239 0.39 0.715v6.38h5.55m10.01 5.885v13.255c0 1.907 0.22 3.135 0.66 3.685s1.47 0.917 3.08 1.1v0.825h-11.88v-0.825c1.58-0.22 2.56-0.586 2.94-1.1 0.39-0.513 0.58-1.741 0.58-3.685v-25.905c0-1.173-0.16-1.943-0.47-2.31-0.31-0.366-1-0.55-2.06-0.55-0.26 0-0.57 0.037-0.94 0.11v-0.88c2.61-0.696 5.21-1.503 7.81-2.42l0.28 0.165v16.72c1.25-1.65 2.5-2.832 3.77-3.547 1.26-0.715 2.7-1.073 4.31-1.073 4.51 0 6.77 2.915 6.77 8.745v10.945c0 1.907 0.17 3.108 0.52 3.603s1.28 0.889 2.78 1.182v0.825h-11.66v-0.825c1.58-0.146 2.59-0.513 3.05-1.1 0.46-0.586 0.69-1.815 0.69-3.685v-10.89c0-3.886-1.38-5.83-4.13-5.83-1.06 0-2.06 0.266-2.99 0.798-0.94 0.532-1.97 1.421-3.11 2.667m20.06 13.53c0-0.66 0.07-1.274 0.22-1.842s0.4-1.1 0.77-1.595 0.71-0.944 1.04-1.348c0.33-0.403 0.83-0.815 1.49-1.237s1.21-0.77 1.65-1.045 1.11-0.605 2.01-0.99 1.58-0.678 2.06-0.88 1.23-0.504 2.25-0.908c1.03-0.403 1.78-0.696 2.26-0.88v-3.355c0-3.043-1.39-4.565-4.18-4.565-1.1 0-2.04 0.266-2.81 0.798s-1.15 1.164-1.15 1.897c0 0.294 0.05 0.697 0.14 1.21 0.09 0.514 0.13 0.844 0.13 0.99 0 0.624-0.24 1.165-0.74 1.623-0.49 0.458-1.07 0.687-1.73 0.687-0.62 0-1.17-0.238-1.65-0.715-0.48-0.476-0.72-1.026-0.72-1.65 0-1.723 0.89-3.18 2.67-4.372s3.97-1.788 6.57-1.788c3.01 0 5.08 0.725 6.22 2.173s1.7 3.657 1.7 6.627v10.725c0 1.21 0.12 2.045 0.36 2.503s0.67 0.687 1.29 0.687c0.77 0 1.58-0.348 2.42-1.045v1.43c-0.95 1.064-1.78 1.788-2.5 2.173-0.71 0.385-1.53 0.577-2.45 0.577-1.13 0-1.97-0.311-2.5-0.935-0.53-0.623-0.87-1.65-1.02-3.08-3.15 2.677-5.83 4.015-8.03 4.015-1.68 0-3.07-0.55-4.15-1.65s-1.62-2.511-1.62-4.235m13.75-1.43v-7.975c-3.3 1.21-5.61 2.384-6.93 3.52-1.32 1.137-1.98 2.512-1.98 4.125 0 1.504 0.37 2.622 1.1 3.355 0.73 0.734 1.52 1.1 2.36 1.1 1.25 0 2.59-0.421 4.02-1.265 0.59-0.33 0.97-0.678 1.15-1.045 0.19-0.366 0.28-0.971 0.28-1.815m23.04-17.985v1.76h-5.55v15.73c0 1.724 0.22 2.98 0.66 3.768s1.17 1.182 2.2 1.182c1.13 0 2.23-0.641 3.3-1.925l0.71 0.605c-1.76 2.787-3.96 4.18-6.6 4.18-3.26 0-4.89-2.328-4.89-6.985v-16.555h-2.92c-0.15-0.11-0.22-0.238-0.22-0.385 0-0.183 0.06-0.33 0.17-0.44s0.32-0.265 0.63-0.467 0.69-0.477 1.13-0.825 1.04-0.981 1.81-1.898c0.77-0.916 1.61-2.016 2.53-3.3 0.59-0.843 0.95-1.356 1.1-1.54 0.26 0 0.39 0.239 0.39 0.715v6.38h5.55m7.7-6.71s-0.15 0.037-0.44 0.11c-0.33 0.074-0.68 0.11-1.05 0.11-0.99 0-1.77-0.256-2.36-0.77-0.59-0.513-0.88-1.191-0.88-2.035 0-0.916 0.3-1.668 0.91-2.255 0.6-0.586 1.38-0.88 2.33-0.88 1.25 0 2.3 0.468 3.14 1.403s1.26 2.099 1.26 3.492c0 1.65-0.56 3.245-1.7 4.785s-2.62 2.769-4.46 3.685l-0.49-1.045c3.01-2.053 4.51-3.996 4.51-5.83 0-0.513-0.26-0.77-0.77-0.77m19.36 7.26c0.04 0 0.33-0.183 0.88-0.55h0.6l0.22 7.48h-0.82c-0.62-2.456-1.39-4.198-2.31-5.225-0.92-1.026-2.16-1.54-3.74-1.54-1.25 0-2.27 0.349-3.05 1.045-0.79 0.697-1.19 1.595-1.19 2.695 0 1.577 0.79 2.824 2.37 3.74l5.94 3.52c1.65 0.99 2.83 1.99 3.55 2.998 0.71 1.008 1.07 2.191 1.07 3.547 0 1.907-0.76 3.557-2.28 4.95-1.53 1.394-3.35 2.09-5.48 2.09-0.91 0-2.14-0.165-3.68-0.495s-2.49-0.495-2.86-0.495c-0.55 0-0.97 0.22-1.27 0.66h-0.71v-8.58h0.88c0.59 2.567 1.28 4.382 2.09 5.445 1.17 1.504 2.8 2.255 4.89 2.255 1.4 0 2.51-0.357 3.33-1.072 0.83-0.715 1.24-1.678 1.24-2.888 0-1.65-0.95-3.025-2.86-4.125l-3.19-1.815c-2.35-1.32-4.01-2.585-4.98-3.795s-1.46-2.585-1.46-4.125c0-1.98 0.71-3.602 2.12-4.867s3.2-1.898 5.36-1.898c1.21 0 2.35 0.175 3.41 0.523 1.07 0.348 1.71 0.522 1.93 0.522"/>
	<path d="m2236 478.9v-0.935c2.71-0.806 5.24-1.631 7.59-2.475l0.38 0.11v4.345c1.87-1.76 3.35-2.942 4.43-3.547s2.26-0.908 3.55-0.908c2.01 0 3.6 0.725 4.75 2.173 1.16 1.448 1.74 3.474 1.74 6.077v12.595c0 1.357 0.22 2.265 0.66 2.723s1.34 0.761 2.69 0.907v0.825h-11.44v-0.825c1.4-0.11 2.32-0.476 2.78-1.1 0.46-0.623 0.69-1.796 0.69-3.52v-11.495c0-3.556-1.34-5.335-4.02-5.335-0.91 0-1.76 0.211-2.53 0.633s-1.81 1.256-3.13 2.502v15.455c0 0.99 0.25 1.687 0.77 2.09 0.51 0.404 1.46 0.66 2.86 0.77v0.825h-11.66v-0.825c1.39-0.11 2.31-0.43 2.75-0.962s0.66-1.586 0.66-3.163v-13.64c0-1.356-0.15-2.282-0.44-2.777-0.3-0.495-0.83-0.743-1.6-0.743-0.69 0-1.19 0.074-1.48 0.22m31.67 6.655c0.08 2.31 0.39 4.3 0.94 5.968s1.26 2.915 2.14 3.74 1.77 1.412 2.67 1.76 1.84 0.522 2.83 0.522c1.76 0 3.29-0.44 4.6-1.32 1.3-0.88 2.61-2.365 3.93-4.455l0.88 0.385c-1.14 2.97-2.72 5.244-4.73 6.82-2.02 1.577-4.33 2.365-6.93 2.365-3.16 0-5.66-1.109-7.51-3.327s-2.78-5.216-2.78-8.993c0-4.07 1.08-7.342 3.22-9.817 2.15-2.475 4.9-3.713 8.28-3.713 2.78 0 4.95 0.835 6.49 2.503s2.51 4.189 2.91 7.562h-16.94m0.11-1.76h11.22c-0.36-2.383-0.93-4.033-1.7-4.95-0.77-0.916-2-1.375-3.69-1.375-3.3 0-5.24 2.109-5.83 6.325m37.39-0.055c-0.99-2.933-1.75-4.775-2.28-5.527s-1.41-1.201-2.62-1.348v-0.825h11.17v0.825c-1.28 0.184-2.14 0.404-2.56 0.66-0.42 0.257-0.63 0.697-0.63 1.32 0 0.477 0.31 1.559 0.93 3.245l4.62 12.32 4.95-12.21c0.63-1.54 0.94-2.75 0.94-3.63 0-0.476-0.17-0.834-0.5-1.072s-0.97-0.449-1.92-0.633v-0.825h6.76v0.825c-0.55 0.184-0.94 0.44-1.18 0.77s-0.59 1.064-1.07 2.2l-7.59 19.03c-0.73 1.797-1.25 2.695-1.54 2.695s-0.73-0.788-1.32-2.365l-5.01-12.98-6.16 13.2c-0.66 1.43-1.11 2.145-1.37 2.145-0.29 0-0.77-0.806-1.43-2.42l-7.43-18.81c-0.55-1.393-1-2.3-1.37-2.722s-0.88-0.669-1.54-0.743v-0.825h9.9v0.825c-0.95 0.11-1.61 0.294-1.98 0.55-0.37 0.257-0.55 0.679-0.55 1.265 0 0.55 0.11 1.1 0.33 1.65l5.44 14.355 5.01-10.945"/>
</svg>
